<mxfile host="65bd71144e">
    <diagram name="第 1 页" id="9e2LYannjWio6Ih715Rv">
        <mxGraphModel dx="352" dy="260" grid="1" gridSize="10" guides="1" tooltips="1" connect="1" arrows="1" fold="1" page="1" pageScale="1" pageWidth="827" pageHeight="1169" math="1" shadow="0">
            <root>
                <mxCell id="0"/>
                <mxCell id="1" parent="0"/>
                <mxCell id="2" value="" style="shape=image;verticalLabelPosition=bottom;labelBackgroundColor=default;verticalAlign=top;aspect=fixed;imageAspect=0;image=data:image/svg+xml,PHN2ZyB4bWxuczp4bGluaz0iaHR0cDovL3d3dy53My5vcmcvMTk5OS94bGluayIgeG1sbnM9Imh0dHA6Ly93d3cudzMub3JnLzIwMDAvc3ZnIiBoZWlnaHQ9Ijg0NyIgd2lkdGg9IjE1MjQiIHZlcnNpb249IjEuMSIgdmlld0JveD0iMCAwIDE1MjQgODQ3Ij48ZGVmcz48Y2xpcFBhdGggaWQ9IldEbEZzaFhCbG1jUyI+PHBhdGggZD0iTSAwIDAgTCAxNTI0IDAgTCAxNTI0IDg0NyBMIDAgODQ3IEwgMCAwIFoiIHN0cm9rZT0ibm9uZSIgZmlsbD0ibm9uZSIvPjwvY2xpcFBhdGg+PC9kZWZzPjxnIGNsaXAtcGF0aD0idXJsKCNXRGxGc2hYQmxtY1MpIiB0cmFuc2Zvcm09InNjYWxlKDEsMSkiPjxnPjxyZWN0IGZpbGwtb3BhY2l0eT0iMSIgaGVpZ2h0PSI4NDciIHdpZHRoPSIxNTI0IiB5PSIwIiB4PSIwIiBzdHJva2U9Im5vbmUiIGZpbGw9InJnYigyNTUsMjU1LDI1NSkiLz48cGF0aCBzdHJva2UtbWl0ZXJsaW1pdD0iMTAiIHN0cm9rZS1vcGFjaXR5PSIxIiBkPSJNIDk5Mi41IDIuNSBMIDk5Mi41IDg0Ny41IiBwYWludC1vcmRlcj0iZmlsbCBzdHJva2UgbWFya2VycyIgc3Ryb2tlPSJyZ2IoMzcsMzcsMzcpIiBmaWxsPSJub25lIi8+PHBhdGggc3Ryb2tlLW1pdGVybGltaXQ9IjEwIiBzdHJva2Utb3BhY2l0eT0iMSIgZD0iTSA5OTIuNSAxLjUgTCA5ODguNSA1LjUiIHBhaW50LW9yZGVyPSJmaWxsIHN0cm9rZSBtYXJrZXJzIiBzdHJva2U9InJnYigzNywzNywzNykiIGZpbGw9Im5vbmUiLz48cGF0aCBzdHJva2UtbWl0ZXJsaW1pdD0iMTAiIHN0cm9rZS1vcGFjaXR5PSIxIiBkPSJNIDk5Mi41IDEuNSBMIDk5Ni41IDUuNSIgcGFpbnQtb3JkZXI9ImZpbGwgc3Ryb2tlIG1hcmtlcnMiIHN0cm9rZT0icmdiKDM3LDM3LDM3KSIgZmlsbD0ibm9uZSIvPjxwYXRoIHN0cm9rZS1taXRlcmxpbWl0PSIxMCIgc3Ryb2tlLW9wYWNpdHk9IjEiIGQ9Ik0gMC41IDUxMi41IEwgMTUyMi41IDUxMi41IiBwYWludC1vcmRlcj0iZmlsbCBzdHJva2UgbWFya2VycyIgc3Ryb2tlPSJyZ2IoMzcsMzcsMzcpIiBmaWxsPSJub25lIi8+PHBhdGggc3Ryb2tlLW1pdGVybGltaXQ9IjEwIiBzdHJva2Utb3BhY2l0eT0iMSIgZD0iTSAxNTIzLjUgNTEyLjUgTCAxNTE5LjUgNTA4LjUiIHBhaW50LW9yZGVyPSJmaWxsIHN0cm9rZSBtYXJrZXJzIiBzdHJva2U9InJnYigzNywzNywzNykiIGZpbGw9Im5vbmUiLz48cGF0aCBzdHJva2UtbWl0ZXJsaW1pdD0iMTAiIHN0cm9rZS1vcGFjaXR5PSIxIiBkPSJNIDE1MjMuNSA1MTIuNSBMIDE1MTkuNSA1MTYuNSIgcGFpbnQtb3JkZXI9ImZpbGwgc3Ryb2tlIG1hcmtlcnMiIHN0cm9rZT0icmdiKDM3LDM3LDM3KSIgZmlsbD0ibm9uZSIvPjx0ZXh0IGZpbGwtb3BhY2l0eT0iMSIgdGV4dC1hbmNob3I9InN0YXJ0IiB5PSI1MjgiIHg9IjM5IiB0ZXh0LWRlY29yYXRpb249Im5vcm1hbCIgZm9udC13ZWlnaHQ9Im5vcm1hbCIgZm9udC1zdHlsZT0ibm9ybWFsIiBmb250LXNpemU9IjEycHgiIGZvbnQtZmFtaWx5PSJnZW9nZWJyYS1zYW5zLXNlcmlmLCBzYW5zLXNlcmlmIiBzdHJva2U9Im5vbmUiIGZpbGw9InJnYigzNywzNywzNykiPuKAkzE1PC90ZXh0Pjx0ZXh0IHN0cm9rZS13aWR0aD0iMyIgc3Ryb2tlLW1pdGVybGltaXQ9IjEwIiBzdHJva2UtbGluZWpvaW49ImJldmVsIiBzdHJva2Utb3BhY2l0eT0iMSIgdGV4dC1hbmNob3I9InN0YXJ0IiB5PSI1MjgiIHg9IjM5IiB0ZXh0LWRlY29yYXRpb249Im5vcm1hbCIgZm9udC13ZWlnaHQ9Im5vcm1hbCIgZm9udC1zdHlsZT0ibm9ybWFsIiBmb250LXNpemU9IjEycHgiIGZvbnQtZmFtaWx5PSJnZW9nZWJyYS1zYW5zLXNlcmlmLCBzYW5zLXNlcmlmIiBzdHJva2U9InJnYigyNTUsMjU1LDI1NSkiIGZpbGw9Im5vbmUiPuKAkzE1PC90ZXh0Pjx0ZXh0IGZpbGwtb3BhY2l0eT0iMSIgdGV4dC1hbmNob3I9InN0YXJ0IiB5PSI1MjgiIHg9IjM5IiB0ZXh0LWRlY29yYXRpb249Im5vcm1hbCIgZm9udC13ZWlnaHQ9Im5vcm1hbCIgZm9udC1zdHlsZT0ibm9ybWFsIiBmb250LXNpemU9IjEycHgiIGZvbnQtZmFtaWx5PSJnZW9nZWJyYS1zYW5zLXNlcmlmLCBzYW5zLXNlcmlmIiBzdHJva2U9Im5vbmUiIGZpbGw9InJnYigzNywzNywzNykiPuKAkzE1PC90ZXh0PjxwYXRoIHN0cm9rZS1taXRlcmxpbWl0PSIxMCIgc3Ryb2tlLW9wYWNpdHk9IjEiIGQ9Ik0gNDcuNSA1MTIuNSBMIDQ3LjUgNTE1LjUiIHBhaW50LW9yZGVyPSJmaWxsIHN0cm9rZSBtYXJrZXJzIiBzdHJva2U9InJnYigzNywzNywzNykiIGZpbGw9Im5vbmUiLz48dGV4dCBmaWxsLW9wYWNpdHk9IjEiIHRleHQtYW5jaG9yPSJzdGFydCIgeT0iNTI4IiB4PSIxMDIiIHRleHQtZGVjb3JhdGlvbj0ibm9ybWFsIiBmb250LXdlaWdodD0ibm9ybWFsIiBmb250LXN0eWxlPSJub3JtYWwiIGZvbnQtc2l6ZT0iMTJweCIgZm9udC1mYW1pbHk9Imdlb2dlYnJhLXNhbnMtc2VyaWYsIHNhbnMtc2VyaWYiIHN0cm9rZT0ibm9uZSIgZmlsbD0icmdiKDM3LDM3LDM3KSI+4oCTMTQ8L3RleHQ+PHRleHQgc3Ryb2tlLXdpZHRoPSIzIiBzdHJva2UtbWl0ZXJsaW1pdD0iMTAiIHN0cm9rZS1saW5lam9pbj0iYmV2ZWwiIHN0cm9rZS1vcGFjaXR5PSIxIiB0ZXh0LWFuY2hvcj0ic3RhcnQiIHk9IjUyOCIgeD0iMTAyIiB0ZXh0LWRlY29yYXRpb249Im5vcm1hbCIgZm9udC13ZWlnaHQ9Im5vcm1hbCIgZm9udC1zdHlsZT0ibm9ybWFsIiBmb250LXNpemU9IjEycHgiIGZvbnQtZmFtaWx5PSJnZW9nZWJyYS1zYW5zLXNlcmlmLCBzYW5zLXNlcmlmIiBzdHJva2U9InJnYigyNTUsMjU1LDI1NSkiIGZpbGw9Im5vbmUiPuKAkzE0PC90ZXh0Pjx0ZXh0IGZpbGwtb3BhY2l0eT0iMSIgdGV4dC1hbmNob3I9InN0YXJ0IiB5PSI1MjgiIHg9IjEwMiIgdGV4dC1kZWNvcmF0aW9uPSJub3JtYWwiIGZvbnQtd2VpZ2h0PSJub3JtYWwiIGZvbnQtc3R5bGU9Im5vcm1hbCIgZm9udC1zaXplPSIxMnB4IiBmb250LWZhbWlseT0iZ2VvZ2VicmEtc2Fucy1zZXJpZiwgc2Fucy1zZXJpZiIgc3Ryb2tlPSJub25lIiBmaWxsPSJyZ2IoMzcsMzcsMzcpIj7igJMxNDwvdGV4dD48cGF0aCBzdHJva2UtbWl0ZXJsaW1pdD0iMTAiIHN0cm9rZS1vcGFjaXR5PSIxIiBkPSJNIDExMC41IDUxMi41IEwgMTEwLjUgNTE1LjUiIHBhaW50LW9yZGVyPSJmaWxsIHN0cm9rZSBtYXJrZXJzIiBzdHJva2U9InJnYigzNywzNywzNykiIGZpbGw9Im5vbmUiLz48dGV4dCBmaWxsLW9wYWNpdHk9IjEiIHRleHQtYW5jaG9yPSJzdGFydCIgeT0iNTI4IiB4PSIxNjUiIHRleHQtZGVjb3JhdGlvbj0ibm9ybWFsIiBmb250LXdlaWdodD0ibm9ybWFsIiBmb250LXN0eWxlPSJub3JtYWwiIGZvbnQtc2l6ZT0iMTJweCIgZm9udC1mYW1pbHk9Imdlb2dlYnJhLXNhbnMtc2VyaWYsIHNhbnMtc2VyaWYiIHN0cm9rZT0ibm9uZSIgZmlsbD0icmdiKDM3LDM3LDM3KSI+4oCTMTM8L3RleHQ+PHRleHQgc3Ryb2tlLXdpZHRoPSIzIiBzdHJva2UtbWl0ZXJsaW1pdD0iMTAiIHN0cm9rZS1saW5lam9pbj0iYmV2ZWwiIHN0cm9rZS1vcGFjaXR5PSIxIiB0ZXh0LWFuY2hvcj0ic3RhcnQiIHk9IjUyOCIgeD0iMTY1IiB0ZXh0LWRlY29yYXRpb249Im5vcm1hbCIgZm9udC13ZWlnaHQ9Im5vcm1hbCIgZm9udC1zdHlsZT0ibm9ybWFsIiBmb250LXNpemU9IjEycHgiIGZvbnQtZmFtaWx5PSJnZW9nZWJyYS1zYW5zLXNlcmlmLCBzYW5zLXNlcmlmIiBzdHJva2U9InJnYigyNTUsMjU1LDI1NSkiIGZpbGw9Im5vbmUiPuKAkzEzPC90ZXh0Pjx0ZXh0IGZpbGwtb3BhY2l0eT0iMSIgdGV4dC1hbmNob3I9InN0YXJ0IiB5PSI1MjgiIHg9IjE2NSIgdGV4dC1kZWNvcmF0aW9uPSJub3JtYWwiIGZvbnQtd2VpZ2h0PSJub3JtYWwiIGZvbnQtc3R5bGU9Im5vcm1hbCIgZm9udC1zaXplPSIxMnB4IiBmb250LWZhbWlseT0iZ2VvZ2VicmEtc2Fucy1zZXJpZiwgc2Fucy1zZXJpZiIgc3Ryb2tlPSJub25lIiBmaWxsPSJyZ2IoMzcsMzcsMzcpIj7igJMxMzwvdGV4dD48cGF0aCBzdHJva2UtbWl0ZXJsaW1pdD0iMTAiIHN0cm9rZS1vcGFjaXR5PSIxIiBkPSJNIDE3My41IDUxMi41IEwgMTczLjUgNTE1LjUiIHBhaW50LW9yZGVyPSJmaWxsIHN0cm9rZSBtYXJrZXJzIiBzdHJva2U9InJnYigzNywzNywzNykiIGZpbGw9Im5vbmUiLz48dGV4dCBmaWxsLW9wYWNpdHk9IjEiIHRleHQtYW5jaG9yPSJzdGFydCIgeT0iNTI4IiB4PSIyMjgiIHRleHQtZGVjb3JhdGlvbj0ibm9ybWFsIiBmb250LXdlaWdodD0ibm9ybWFsIiBmb250LXN0eWxlPSJub3JtYWwiIGZvbnQtc2l6ZT0iMTJweCIgZm9udC1mYW1pbHk9Imdlb2dlYnJhLXNhbnMtc2VyaWYsIHNhbnMtc2VyaWYiIHN0cm9rZT0ibm9uZSIgZmlsbD0icmdiKDM3LDM3LDM3KSI+4oCTMTI8L3RleHQ+PHRleHQgc3Ryb2tlLXdpZHRoPSIzIiBzdHJva2UtbWl0ZXJsaW1pdD0iMTAiIHN0cm9rZS1saW5lam9pbj0iYmV2ZWwiIHN0cm9rZS1vcGFjaXR5PSIxIiB0ZXh0LWFuY2hvcj0ic3RhcnQiIHk9IjUyOCIgeD0iMjI4IiB0ZXh0LWRlY29yYXRpb249Im5vcm1hbCIgZm9udC13ZWlnaHQ9Im5vcm1hbCIgZm9udC1zdHlsZT0ibm9ybWFsIiBmb250LXNpemU9IjEycHgiIGZvbnQtZmFtaWx5PSJnZW9nZWJyYS1zYW5zLXNlcmlmLCBzYW5zLXNlcmlmIiBzdHJva2U9InJnYigyNTUsMjU1LDI1NSkiIGZpbGw9Im5vbmUiPuKAkzEyPC90ZXh0Pjx0ZXh0IGZpbGwtb3BhY2l0eT0iMSIgdGV4dC1hbmNob3I9InN0YXJ0IiB5PSI1MjgiIHg9IjIyOCIgdGV4dC1kZWNvcmF0aW9uPSJub3JtYWwiIGZvbnQtd2VpZ2h0PSJub3JtYWwiIGZvbnQtc3R5bGU9Im5vcm1hbCIgZm9udC1zaXplPSIxMnB4IiBmb250LWZhbWlseT0iZ2VvZ2VicmEtc2Fucy1zZXJpZiwgc2Fucy1zZXJpZiIgc3Ryb2tlPSJub25lIiBmaWxsPSJyZ2IoMzcsMzcsMzcpIj7igJMxMjwvdGV4dD48cGF0aCBzdHJva2UtbWl0ZXJsaW1pdD0iMTAiIHN0cm9rZS1vcGFjaXR5PSIxIiBkPSJNIDIzNi41IDUxMi41IEwgMjM2LjUgNTE1LjUiIHBhaW50LW9yZGVyPSJmaWxsIHN0cm9rZSBtYXJrZXJzIiBzdHJva2U9InJnYigzNywzNywzNykiIGZpbGw9Im5vbmUiLz48dGV4dCBmaWxsLW9wYWNpdHk9IjEiIHRleHQtYW5jaG9yPSJzdGFydCIgeT0iNTI4IiB4PSIyOTEiIHRleHQtZGVjb3JhdGlvbj0ibm9ybWFsIiBmb250LXdlaWdodD0ibm9ybWFsIiBmb250LXN0eWxlPSJub3JtYWwiIGZvbnQtc2l6ZT0iMTJweCIgZm9udC1mYW1pbHk9Imdlb2dlYnJhLXNhbnMtc2VyaWYsIHNhbnMtc2VyaWYiIHN0cm9rZT0ibm9uZSIgZmlsbD0icmdiKDM3LDM3LDM3KSI+4oCTMTE8L3RleHQ+PHRleHQgc3Ryb2tlLXdpZHRoPSIzIiBzdHJva2UtbWl0ZXJsaW1pdD0iMTAiIHN0cm9rZS1saW5lam9pbj0iYmV2ZWwiIHN0cm9rZS1vcGFjaXR5PSIxIiB0ZXh0LWFuY2hvcj0ic3RhcnQiIHk9IjUyOCIgeD0iMjkxIiB0ZXh0LWRlY29yYXRpb249Im5vcm1hbCIgZm9udC13ZWlnaHQ9Im5vcm1hbCIgZm9udC1zdHlsZT0ibm9ybWFsIiBmb250LXNpemU9IjEycHgiIGZvbnQtZmFtaWx5PSJnZW9nZWJyYS1zYW5zLXNlcmlmLCBzYW5zLXNlcmlmIiBzdHJva2U9InJnYigyNTUsMjU1LDI1NSkiIGZpbGw9Im5vbmUiPuKAkzExPC90ZXh0Pjx0ZXh0IGZpbGwtb3BhY2l0eT0iMSIgdGV4dC1hbmNob3I9InN0YXJ0IiB5PSI1MjgiIHg9IjI5MSIgdGV4dC1kZWNvcmF0aW9uPSJub3JtYWwiIGZvbnQtd2VpZ2h0PSJub3JtYWwiIGZvbnQtc3R5bGU9Im5vcm1hbCIgZm9udC1zaXplPSIxMnB4IiBmb250LWZhbWlseT0iZ2VvZ2VicmEtc2Fucy1zZXJpZiwgc2Fucy1zZXJpZiIgc3Ryb2tlPSJub25lIiBmaWxsPSJyZ2IoMzcsMzcsMzcpIj7igJMxMTwvdGV4dD48cGF0aCBzdHJva2UtbWl0ZXJsaW1pdD0iMTAiIHN0cm9rZS1vcGFjaXR5PSIxIiBkPSJNIDI5OS41IDUxMi41IEwgMjk5LjUgNTE1LjUiIHBhaW50LW9yZGVyPSJmaWxsIHN0cm9rZSBtYXJrZXJzIiBzdHJva2U9InJnYigzNywzNywzNykiIGZpbGw9Im5vbmUiLz48dGV4dCBmaWxsLW9wYWNpdHk9IjEiIHRleHQtYW5jaG9yPSJzdGFydCIgeT0iNTI4IiB4PSIzNTQiIHRleHQtZGVjb3JhdGlvbj0ibm9ybWFsIiBmb250LXdlaWdodD0ibm9ybWFsIiBmb250LXN0eWxlPSJub3JtYWwiIGZvbnQtc2l6ZT0iMTJweCIgZm9udC1mYW1pbHk9Imdlb2dlYnJhLXNhbnMtc2VyaWYsIHNhbnMtc2VyaWYiIHN0cm9rZT0ibm9uZSIgZmlsbD0icmdiKDM3LDM3LDM3KSI+4oCTMTA8L3RleHQ+PHRleHQgc3Ryb2tlLXdpZHRoPSIzIiBzdHJva2UtbWl0ZXJsaW1pdD0iMTAiIHN0cm9rZS1saW5lam9pbj0iYmV2ZWwiIHN0cm9rZS1vcGFjaXR5PSIxIiB0ZXh0LWFuY2hvcj0ic3RhcnQiIHk9IjUyOCIgeD0iMzU0IiB0ZXh0LWRlY29yYXRpb249Im5vcm1hbCIgZm9udC13ZWlnaHQ9Im5vcm1hbCIgZm9udC1zdHlsZT0ibm9ybWFsIiBmb250LXNpemU9IjEycHgiIGZvbnQtZmFtaWx5PSJnZW9nZWJyYS1zYW5zLXNlcmlmLCBzYW5zLXNlcmlmIiBzdHJva2U9InJnYigyNTUsMjU1LDI1NSkiIGZpbGw9Im5vbmUiPuKAkzEwPC90ZXh0Pjx0ZXh0IGZpbGwtb3BhY2l0eT0iMSIgdGV4dC1hbmNob3I9InN0YXJ0IiB5PSI1MjgiIHg9IjM1NCIgdGV4dC1kZWNvcmF0aW9uPSJub3JtYWwiIGZvbnQtd2VpZ2h0PSJub3JtYWwiIGZvbnQtc3R5bGU9Im5vcm1hbCIgZm9udC1zaXplPSIxMnB4IiBmb250LWZhbWlseT0iZ2VvZ2VicmEtc2Fucy1zZXJpZiwgc2Fucy1zZXJpZiIgc3Ryb2tlPSJub25lIiBmaWxsPSJyZ2IoMzcsMzcsMzcpIj7igJMxMDwvdGV4dD48cGF0aCBzdHJva2UtbWl0ZXJsaW1pdD0iMTAiIHN0cm9rZS1vcGFjaXR5PSIxIiBkPSJNIDM2Mi41IDUxMi41IEwgMzYyLjUgNTE1LjUiIHBhaW50LW9yZGVyPSJmaWxsIHN0cm9rZSBtYXJrZXJzIiBzdHJva2U9InJnYigzNywzNywzNykiIGZpbGw9Im5vbmUiLz48dGV4dCBmaWxsLW9wYWNpdHk9IjEiIHRleHQtYW5jaG9yPSJzdGFydCIgeT0iNTI4IiB4PSI0MjAiIHRleHQtZGVjb3JhdGlvbj0ibm9ybWFsIiBmb250LXdlaWdodD0ibm9ybWFsIiBmb250LXN0eWxlPSJub3JtYWwiIGZvbnQtc2l6ZT0iMTJweCIgZm9udC1mYW1pbHk9Imdlb2dlYnJhLXNhbnMtc2VyaWYsIHNhbnMtc2VyaWYiIHN0cm9rZT0ibm9uZSIgZmlsbD0icmdiKDM3LDM3LDM3KSI+4oCTOTwvdGV4dD48dGV4dCBzdHJva2Utd2lkdGg9IjMiIHN0cm9rZS1taXRlcmxpbWl0PSIxMCIgc3Ryb2tlLWxpbmVqb2luPSJiZXZlbCIgc3Ryb2tlLW9wYWNpdHk9IjEiIHRleHQtYW5jaG9yPSJzdGFydCIgeT0iNTI4IiB4PSI0MjAiIHRleHQtZGVjb3JhdGlvbj0ibm9ybWFsIiBmb250LXdlaWdodD0ibm9ybWFsIiBmb250LXN0eWxlPSJub3JtYWwiIGZvbnQtc2l6ZT0iMTJweCIgZm9udC1mYW1pbHk9Imdlb2dlYnJhLXNhbnMtc2VyaWYsIHNhbnMtc2VyaWYiIHN0cm9rZT0icmdiKDI1NSwyNTUsMjU1KSIgZmlsbD0ibm9uZSI+4oCTOTwvdGV4dD48dGV4dCBmaWxsLW9wYWNpdHk9IjEiIHRleHQtYW5jaG9yPSJzdGFydCIgeT0iNTI4IiB4PSI0MjAiIHRleHQtZGVjb3JhdGlvbj0ibm9ybWFsIiBmb250LXdlaWdodD0ibm9ybWFsIiBmb250LXN0eWxlPSJub3JtYWwiIGZvbnQtc2l6ZT0iMTJweCIgZm9udC1mYW1pbHk9Imdlb2dlYnJhLXNhbnMtc2VyaWYsIHNhbnMtc2VyaWYiIHN0cm9rZT0ibm9uZSIgZmlsbD0icmdiKDM3LDM3LDM3KSI+4oCTOTwvdGV4dD48cGF0aCBzdHJva2UtbWl0ZXJsaW1pdD0iMTAiIHN0cm9rZS1vcGFjaXR5PSIxIiBkPSJNIDQyNS41IDUxMi41IEwgNDI1LjUgNTE1LjUiIHBhaW50LW9yZGVyPSJmaWxsIHN0cm9rZSBtYXJrZXJzIiBzdHJva2U9InJnYigzNywzNywzNykiIGZpbGw9Im5vbmUiLz48dGV4dCBmaWxsLW9wYWNpdHk9IjEiIHRleHQtYW5jaG9yPSJzdGFydCIgeT0iNTI4IiB4PSI0ODMiIHRleHQtZGVjb3JhdGlvbj0ibm9ybWFsIiBmb250LXdlaWdodD0ibm9ybWFsIiBmb250LXN0eWxlPSJub3JtYWwiIGZvbnQtc2l6ZT0iMTJweCIgZm9udC1mYW1pbHk9Imdlb2dlYnJhLXNhbnMtc2VyaWYsIHNhbnMtc2VyaWYiIHN0cm9rZT0ibm9uZSIgZmlsbD0icmdiKDM3LDM3LDM3KSI+4oCTODwvdGV4dD48dGV4dCBzdHJva2Utd2lkdGg9IjMiIHN0cm9rZS1taXRlcmxpbWl0PSIxMCIgc3Ryb2tlLWxpbmVqb2luPSJiZXZlbCIgc3Ryb2tlLW9wYWNpdHk9IjEiIHRleHQtYW5jaG9yPSJzdGFydCIgeT0iNTI4IiB4PSI0ODMiIHRleHQtZGVjb3JhdGlvbj0ibm9ybWFsIiBmb250LXdlaWdodD0ibm9ybWFsIiBmb250LXN0eWxlPSJub3JtYWwiIGZvbnQtc2l6ZT0iMTJweCIgZm9udC1mYW1pbHk9Imdlb2dlYnJhLXNhbnMtc2VyaWYsIHNhbnMtc2VyaWYiIHN0cm9rZT0icmdiKDI1NSwyNTUsMjU1KSIgZmlsbD0ibm9uZSI+4oCTODwvdGV4dD48dGV4dCBmaWxsLW9wYWNpdHk9IjEiIHRleHQtYW5jaG9yPSJzdGFydCIgeT0iNTI4IiB4PSI0ODMiIHRleHQtZGVjb3JhdGlvbj0ibm9ybWFsIiBmb250LXdlaWdodD0ibm9ybWFsIiBmb250LXN0eWxlPSJub3JtYWwiIGZvbnQtc2l6ZT0iMTJweCIgZm9udC1mYW1pbHk9Imdlb2dlYnJhLXNhbnMtc2VyaWYsIHNhbnMtc2VyaWYiIHN0cm9rZT0ibm9uZSIgZmlsbD0icmdiKDM3LDM3LDM3KSI+4oCTODwvdGV4dD48cGF0aCBzdHJva2UtbWl0ZXJsaW1pdD0iMTAiIHN0cm9rZS1vcGFjaXR5PSIxIiBkPSJNIDQ4OC41IDUxMi41IEwgNDg4LjUgNTE1LjUiIHBhaW50LW9yZGVyPSJmaWxsIHN0cm9rZSBtYXJrZXJzIiBzdHJva2U9InJnYigzNywzNywzNykiIGZpbGw9Im5vbmUiLz48dGV4dCBmaWxsLW9wYWNpdHk9IjEiIHRleHQtYW5jaG9yPSJzdGFydCIgeT0iNTI4IiB4PSI1NDYiIHRleHQtZGVjb3JhdGlvbj0ibm9ybWFsIiBmb250LXdlaWdodD0ibm9ybWFsIiBmb250LXN0eWxlPSJub3JtYWwiIGZvbnQtc2l6ZT0iMTJweCIgZm9udC1mYW1pbHk9Imdlb2dlYnJhLXNhbnMtc2VyaWYsIHNhbnMtc2VyaWYiIHN0cm9rZT0ibm9uZSIgZmlsbD0icmdiKDM3LDM3LDM3KSI+4oCTNzwvdGV4dD48dGV4dCBzdHJva2Utd2lkdGg9IjMiIHN0cm9rZS1taXRlcmxpbWl0PSIxMCIgc3Ryb2tlLWxpbmVqb2luPSJiZXZlbCIgc3Ryb2tlLW9wYWNpdHk9IjEiIHRleHQtYW5jaG9yPSJzdGFydCIgeT0iNTI4IiB4PSI1NDYiIHRleHQtZGVjb3JhdGlvbj0ibm9ybWFsIiBmb250LXdlaWdodD0ibm9ybWFsIiBmb250LXN0eWxlPSJub3JtYWwiIGZvbnQtc2l6ZT0iMTJweCIgZm9udC1mYW1pbHk9Imdlb2dlYnJhLXNhbnMtc2VyaWYsIHNhbnMtc2VyaWYiIHN0cm9rZT0icmdiKDI1NSwyNTUsMjU1KSIgZmlsbD0ibm9uZSI+4oCTNzwvdGV4dD48dGV4dCBmaWxsLW9wYWNpdHk9IjEiIHRleHQtYW5jaG9yPSJzdGFydCIgeT0iNTI4IiB4PSI1NDYiIHRleHQtZGVjb3JhdGlvbj0ibm9ybWFsIiBmb250LXdlaWdodD0ibm9ybWFsIiBmb250LXN0eWxlPSJub3JtYWwiIGZvbnQtc2l6ZT0iMTJweCIgZm9udC1mYW1pbHk9Imdlb2dlYnJhLXNhbnMtc2VyaWYsIHNhbnMtc2VyaWYiIHN0cm9rZT0ibm9uZSIgZmlsbD0icmdiKDM3LDM3LDM3KSI+4oCTNzwvdGV4dD48cGF0aCBzdHJva2UtbWl0ZXJsaW1pdD0iMTAiIHN0cm9rZS1vcGFjaXR5PSIxIiBkPSJNIDU1MS41IDUxMi41IEwgNTUxLjUgNTE1LjUiIHBhaW50LW9yZGVyPSJmaWxsIHN0cm9rZSBtYXJrZXJzIiBzdHJva2U9InJnYigzNywzNywzNykiIGZpbGw9Im5vbmUiLz48dGV4dCBmaWxsLW9wYWNpdHk9IjEiIHRleHQtYW5jaG9yPSJzdGFydCIgeT0iNTI4IiB4PSI2MDkiIHRleHQtZGVjb3JhdGlvbj0ibm9ybWFsIiBmb250LXdlaWdodD0ibm9ybWFsIiBmb250LXN0eWxlPSJub3JtYWwiIGZvbnQtc2l6ZT0iMTJweCIgZm9udC1mYW1pbHk9Imdlb2dlYnJhLXNhbnMtc2VyaWYsIHNhbnMtc2VyaWYiIHN0cm9rZT0ibm9uZSIgZmlsbD0icmdiKDM3LDM3LDM3KSI+4oCTNjwvdGV4dD48dGV4dCBzdHJva2Utd2lkdGg9IjMiIHN0cm9rZS1taXRlcmxpbWl0PSIxMCIgc3Ryb2tlLWxpbmVqb2luPSJiZXZlbCIgc3Ryb2tlLW9wYWNpdHk9IjEiIHRleHQtYW5jaG9yPSJzdGFydCIgeT0iNTI4IiB4PSI2MDkiIHRleHQtZGVjb3JhdGlvbj0ibm9ybWFsIiBmb250LXdlaWdodD0ibm9ybWFsIiBmb250LXN0eWxlPSJub3JtYWwiIGZvbnQtc2l6ZT0iMTJweCIgZm9udC1mYW1pbHk9Imdlb2dlYnJhLXNhbnMtc2VyaWYsIHNhbnMtc2VyaWYiIHN0cm9rZT0icmdiKDI1NSwyNTUsMjU1KSIgZmlsbD0ibm9uZSI+4oCTNjwvdGV4dD48dGV4dCBmaWxsLW9wYWNpdHk9IjEiIHRleHQtYW5jaG9yPSJzdGFydCIgeT0iNTI4IiB4PSI2MDkiIHRleHQtZGVjb3JhdGlvbj0ibm9ybWFsIiBmb250LXdlaWdodD0ibm9ybWFsIiBmb250LXN0eWxlPSJub3JtYWwiIGZvbnQtc2l6ZT0iMTJweCIgZm9udC1mYW1pbHk9Imdlb2dlYnJhLXNhbnMtc2VyaWYsIHNhbnMtc2VyaWYiIHN0cm9rZT0ibm9uZSIgZmlsbD0icmdiKDM3LDM3LDM3KSI+4oCTNjwvdGV4dD48cGF0aCBzdHJva2UtbWl0ZXJsaW1pdD0iMTAiIHN0cm9rZS1vcGFjaXR5PSIxIiBkPSJNIDYxNC41IDUxMi41IEwgNjE0LjUgNTE1LjUiIHBhaW50LW9yZGVyPSJmaWxsIHN0cm9rZSBtYXJrZXJzIiBzdHJva2U9InJnYigzNywzNywzNykiIGZpbGw9Im5vbmUiLz48dGV4dCBmaWxsLW9wYWNpdHk9IjEiIHRleHQtYW5jaG9yPSJzdGFydCIgeT0iNTI4IiB4PSI2NzIiIHRleHQtZGVjb3JhdGlvbj0ibm9ybWFsIiBmb250LXdlaWdodD0ibm9ybWFsIiBmb250LXN0eWxlPSJub3JtYWwiIGZvbnQtc2l6ZT0iMTJweCIgZm9udC1mYW1pbHk9Imdlb2dlYnJhLXNhbnMtc2VyaWYsIHNhbnMtc2VyaWYiIHN0cm9rZT0ibm9uZSIgZmlsbD0icmdiKDM3LDM3LDM3KSI+4oCTNTwvdGV4dD48dGV4dCBzdHJva2Utd2lkdGg9IjMiIHN0cm9rZS1taXRlcmxpbWl0PSIxMCIgc3Ryb2tlLWxpbmVqb2luPSJiZXZlbCIgc3Ryb2tlLW9wYWNpdHk9IjEiIHRleHQtYW5jaG9yPSJzdGFydCIgeT0iNTI4IiB4PSI2NzIiIHRleHQtZGVjb3JhdGlvbj0ibm9ybWFsIiBmb250LXdlaWdodD0ibm9ybWFsIiBmb250LXN0eWxlPSJub3JtYWwiIGZvbnQtc2l6ZT0iMTJweCIgZm9udC1mYW1pbHk9Imdlb2dlYnJhLXNhbnMtc2VyaWYsIHNhbnMtc2VyaWYiIHN0cm9rZT0icmdiKDI1NSwyNTUsMjU1KSIgZmlsbD0ibm9uZSI+4oCTNTwvdGV4dD48dGV4dCBmaWxsLW9wYWNpdHk9IjEiIHRleHQtYW5jaG9yPSJzdGFydCIgeT0iNTI4IiB4PSI2NzIiIHRleHQtZGVjb3JhdGlvbj0ibm9ybWFsIiBmb250LXdlaWdodD0ibm9ybWFsIiBmb250LXN0eWxlPSJub3JtYWwiIGZvbnQtc2l6ZT0iMTJweCIgZm9udC1mYW1pbHk9Imdlb2dlYnJhLXNhbnMtc2VyaWYsIHNhbnMtc2VyaWYiIHN0cm9rZT0ibm9uZSIgZmlsbD0icmdiKDM3LDM3LDM3KSI+4oCTNTwvdGV4dD48cGF0aCBzdHJva2UtbWl0ZXJsaW1pdD0iMTAiIHN0cm9rZS1vcGFjaXR5PSIxIiBkPSJNIDY3Ny41IDUxMi41IEwgNjc3LjUgNTE1LjUiIHBhaW50LW9yZGVyPSJmaWxsIHN0cm9rZSBtYXJrZXJzIiBzdHJva2U9InJnYigzNywzNywzNykiIGZpbGw9Im5vbmUiLz48dGV4dCBmaWxsLW9wYWNpdHk9IjEiIHRleHQtYW5jaG9yPSJzdGFydCIgeT0iNTI4IiB4PSI3MzUiIHRleHQtZGVjb3JhdGlvbj0ibm9ybWFsIiBmb250LXdlaWdodD0ibm9ybWFsIiBmb250LXN0eWxlPSJub3JtYWwiIGZvbnQtc2l6ZT0iMTJweCIgZm9udC1mYW1pbHk9Imdlb2dlYnJhLXNhbnMtc2VyaWYsIHNhbnMtc2VyaWYiIHN0cm9rZT0ibm9uZSIgZmlsbD0icmdiKDM3LDM3LDM3KSI+4oCTNDwvdGV4dD48dGV4dCBzdHJva2Utd2lkdGg9IjMiIHN0cm9rZS1taXRlcmxpbWl0PSIxMCIgc3Ryb2tlLWxpbmVqb2luPSJiZXZlbCIgc3Ryb2tlLW9wYWNpdHk9IjEiIHRleHQtYW5jaG9yPSJzdGFydCIgeT0iNTI4IiB4PSI3MzUiIHRleHQtZGVjb3JhdGlvbj0ibm9ybWFsIiBmb250LXdlaWdodD0ibm9ybWFsIiBmb250LXN0eWxlPSJub3JtYWwiIGZvbnQtc2l6ZT0iMTJweCIgZm9udC1mYW1pbHk9Imdlb2dlYnJhLXNhbnMtc2VyaWYsIHNhbnMtc2VyaWYiIHN0cm9rZT0icmdiKDI1NSwyNTUsMjU1KSIgZmlsbD0ibm9uZSI+4oCTNDwvdGV4dD48dGV4dCBmaWxsLW9wYWNpdHk9IjEiIHRleHQtYW5jaG9yPSJzdGFydCIgeT0iNTI4IiB4PSI3MzUiIHRleHQtZGVjb3JhdGlvbj0ibm9ybWFsIiBmb250LXdlaWdodD0ibm9ybWFsIiBmb250LXN0eWxlPSJub3JtYWwiIGZvbnQtc2l6ZT0iMTJweCIgZm9udC1mYW1pbHk9Imdlb2dlYnJhLXNhbnMtc2VyaWYsIHNhbnMtc2VyaWYiIHN0cm9rZT0ibm9uZSIgZmlsbD0icmdiKDM3LDM3LDM3KSI+4oCTNDwvdGV4dD48cGF0aCBzdHJva2UtbWl0ZXJsaW1pdD0iMTAiIHN0cm9rZS1vcGFjaXR5PSIxIiBkPSJNIDc0MC41IDUxMi41IEwgNzQwLjUgNTE1LjUiIHBhaW50LW9yZGVyPSJmaWxsIHN0cm9rZSBtYXJrZXJzIiBzdHJva2U9InJnYigzNywzNywzNykiIGZpbGw9Im5vbmUiLz48dGV4dCBmaWxsLW9wYWNpdHk9IjEiIHRleHQtYW5jaG9yPSJzdGFydCIgeT0iNTI4IiB4PSI3OTgiIHRleHQtZGVjb3JhdGlvbj0ibm9ybWFsIiBmb250LXdlaWdodD0ibm9ybWFsIiBmb250LXN0eWxlPSJub3JtYWwiIGZvbnQtc2l6ZT0iMTJweCIgZm9udC1mYW1pbHk9Imdlb2dlYnJhLXNhbnMtc2VyaWYsIHNhbnMtc2VyaWYiIHN0cm9rZT0ibm9uZSIgZmlsbD0icmdiKDM3LDM3LDM3KSI+4oCTMzwvdGV4dD48dGV4dCBzdHJva2Utd2lkdGg9IjMiIHN0cm9rZS1taXRlcmxpbWl0PSIxMCIgc3Ryb2tlLWxpbmVqb2luPSJiZXZlbCIgc3Ryb2tlLW9wYWNpdHk9IjEiIHRleHQtYW5jaG9yPSJzdGFydCIgeT0iNTI4IiB4PSI3OTgiIHRleHQtZGVjb3JhdGlvbj0ibm9ybWFsIiBmb250LXdlaWdodD0ibm9ybWFsIiBmb250LXN0eWxlPSJub3JtYWwiIGZvbnQtc2l6ZT0iMTJweCIgZm9udC1mYW1pbHk9Imdlb2dlYnJhLXNhbnMtc2VyaWYsIHNhbnMtc2VyaWYiIHN0cm9rZT0icmdiKDI1NSwyNTUsMjU1KSIgZmlsbD0ibm9uZSI+4oCTMzwvdGV4dD48dGV4dCBmaWxsLW9wYWNpdHk9IjEiIHRleHQtYW5jaG9yPSJzdGFydCIgeT0iNTI4IiB4PSI3OTgiIHRleHQtZGVjb3JhdGlvbj0ibm9ybWFsIiBmb250LXdlaWdodD0ibm9ybWFsIiBmb250LXN0eWxlPSJub3JtYWwiIGZvbnQtc2l6ZT0iMTJweCIgZm9udC1mYW1pbHk9Imdlb2dlYnJhLXNhbnMtc2VyaWYsIHNhbnMtc2VyaWYiIHN0cm9rZT0ibm9uZSIgZmlsbD0icmdiKDM3LDM3LDM3KSI+4oCTMzwvdGV4dD48cGF0aCBzdHJva2UtbWl0ZXJsaW1pdD0iMTAiIHN0cm9rZS1vcGFjaXR5PSIxIiBkPSJNIDgwMy41IDUxMi41IEwgODAzLjUgNTE1LjUiIHBhaW50LW9yZGVyPSJmaWxsIHN0cm9rZSBtYXJrZXJzIiBzdHJva2U9InJnYigzNywzNywzNykiIGZpbGw9Im5vbmUiLz48dGV4dCBmaWxsLW9wYWNpdHk9IjEiIHRleHQtYW5jaG9yPSJzdGFydCIgeT0iNTI4IiB4PSI4NjEiIHRleHQtZGVjb3JhdGlvbj0ibm9ybWFsIiBmb250LXdlaWdodD0ibm9ybWFsIiBmb250LXN0eWxlPSJub3JtYWwiIGZvbnQtc2l6ZT0iMTJweCIgZm9udC1mYW1pbHk9Imdlb2dlYnJhLXNhbnMtc2VyaWYsIHNhbnMtc2VyaWYiIHN0cm9rZT0ibm9uZSIgZmlsbD0icmdiKDM3LDM3LDM3KSI+4oCTMjwvdGV4dD48dGV4dCBzdHJva2Utd2lkdGg9IjMiIHN0cm9rZS1taXRlcmxpbWl0PSIxMCIgc3Ryb2tlLWxpbmVqb2luPSJiZXZlbCIgc3Ryb2tlLW9wYWNpdHk9IjEiIHRleHQtYW5jaG9yPSJzdGFydCIgeT0iNTI4IiB4PSI4NjEiIHRleHQtZGVjb3JhdGlvbj0ibm9ybWFsIiBmb250LXdlaWdodD0ibm9ybWFsIiBmb250LXN0eWxlPSJub3JtYWwiIGZvbnQtc2l6ZT0iMTJweCIgZm9udC1mYW1pbHk9Imdlb2dlYnJhLXNhbnMtc2VyaWYsIHNhbnMtc2VyaWYiIHN0cm9rZT0icmdiKDI1NSwyNTUsMjU1KSIgZmlsbD0ibm9uZSI+4oCTMjwvdGV4dD48dGV4dCBmaWxsLW9wYWNpdHk9IjEiIHRleHQtYW5jaG9yPSJzdGFydCIgeT0iNTI4IiB4PSI4NjEiIHRleHQtZGVjb3JhdGlvbj0ibm9ybWFsIiBmb250LXdlaWdodD0ibm9ybWFsIiBmb250LXN0eWxlPSJub3JtYWwiIGZvbnQtc2l6ZT0iMTJweCIgZm9udC1mYW1pbHk9Imdlb2dlYnJhLXNhbnMtc2VyaWYsIHNhbnMtc2VyaWYiIHN0cm9rZT0ibm9uZSIgZmlsbD0icmdiKDM3LDM3LDM3KSI+4oCTMjwvdGV4dD48cGF0aCBzdHJva2UtbWl0ZXJsaW1pdD0iMTAiIHN0cm9rZS1vcGFjaXR5PSIxIiBkPSJNIDg2Ni41IDUxMi41IEwgODY2LjUgNTE1LjUiIHBhaW50LW9yZGVyPSJmaWxsIHN0cm9rZSBtYXJrZXJzIiBzdHJva2U9InJnYigzNywzNywzNykiIGZpbGw9Im5vbmUiLz48dGV4dCBmaWxsLW9wYWNpdHk9IjEiIHRleHQtYW5jaG9yPSJzdGFydCIgeT0iNTI4IiB4PSI5MjQiIHRleHQtZGVjb3JhdGlvbj0ibm9ybWFsIiBmb250LXdlaWdodD0ibm9ybWFsIiBmb250LXN0eWxlPSJub3JtYWwiIGZvbnQtc2l6ZT0iMTJweCIgZm9udC1mYW1pbHk9Imdlb2dlYnJhLXNhbnMtc2VyaWYsIHNhbnMtc2VyaWYiIHN0cm9rZT0ibm9uZSIgZmlsbD0icmdiKDM3LDM3LDM3KSI+4oCTMTwvdGV4dD48dGV4dCBzdHJva2Utd2lkdGg9IjMiIHN0cm9rZS1taXRlcmxpbWl0PSIxMCIgc3Ryb2tlLWxpbmVqb2luPSJiZXZlbCIgc3Ryb2tlLW9wYWNpdHk9IjEiIHRleHQtYW5jaG9yPSJzdGFydCIgeT0iNTI4IiB4PSI5MjQiIHRleHQtZGVjb3JhdGlvbj0ibm9ybWFsIiBmb250LXdlaWdodD0ibm9ybWFsIiBmb250LXN0eWxlPSJub3JtYWwiIGZvbnQtc2l6ZT0iMTJweCIgZm9udC1mYW1pbHk9Imdlb2dlYnJhLXNhbnMtc2VyaWYsIHNhbnMtc2VyaWYiIHN0cm9rZT0icmdiKDI1NSwyNTUsMjU1KSIgZmlsbD0ibm9uZSI+4oCTMTwvdGV4dD48dGV4dCBmaWxsLW9wYWNpdHk9IjEiIHRleHQtYW5jaG9yPSJzdGFydCIgeT0iNTI4IiB4PSI5MjQiIHRleHQtZGVjb3JhdGlvbj0ibm9ybWFsIiBmb250LXdlaWdodD0ibm9ybWFsIiBmb250LXN0eWxlPSJub3JtYWwiIGZvbnQtc2l6ZT0iMTJweCIgZm9udC1mYW1pbHk9Imdlb2dlYnJhLXNhbnMtc2VyaWYsIHNhbnMtc2VyaWYiIHN0cm9rZT0ibm9uZSIgZmlsbD0icmdiKDM3LDM3LDM3KSI+4oCTMTwvdGV4dD48cGF0aCBzdHJva2UtbWl0ZXJsaW1pdD0iMTAiIHN0cm9rZS1vcGFjaXR5PSIxIiBkPSJNIDkyOS41IDUxMi41IEwgOTI5LjUgNTE1LjUiIHBhaW50LW9yZGVyPSJmaWxsIHN0cm9rZSBtYXJrZXJzIiBzdHJva2U9InJnYigzNywzNywzNykiIGZpbGw9Im5vbmUiLz48cGF0aCBzdHJva2UtbWl0ZXJsaW1pdD0iMTAiIHN0cm9rZS1vcGFjaXR5PSIxIiBkPSJNIDk5Mi41IDUxMi41IEwgOTkyLjUgNTE1LjUiIHBhaW50LW9yZGVyPSJmaWxsIHN0cm9rZSBtYXJrZXJzIiBzdHJva2U9InJnYigzNywzNywzNykiIGZpbGw9Im5vbmUiLz48dGV4dCBmaWxsLW9wYWNpdHk9IjEiIHRleHQtYW5jaG9yPSJzdGFydCIgeT0iNTI4IiB4PSIxMDUzIiB0ZXh0LWRlY29yYXRpb249Im5vcm1hbCIgZm9udC13ZWlnaHQ9Im5vcm1hbCIgZm9udC1zdHlsZT0ibm9ybWFsIiBmb250LXNpemU9IjEycHgiIGZvbnQtZmFtaWx5PSJnZW9nZWJyYS1zYW5zLXNlcmlmLCBzYW5zLXNlcmlmIiBzdHJva2U9Im5vbmUiIGZpbGw9InJnYigzNywzNywzNykiPjE8L3RleHQ+PHRleHQgc3Ryb2tlLXdpZHRoPSIzIiBzdHJva2UtbWl0ZXJsaW1pdD0iMTAiIHN0cm9rZS1saW5lam9pbj0iYmV2ZWwiIHN0cm9rZS1vcGFjaXR5PSIxIiB0ZXh0LWFuY2hvcj0ic3RhcnQiIHk9IjUyOCIgeD0iMTA1MyIgdGV4dC1kZWNvcmF0aW9uPSJub3JtYWwiIGZvbnQtd2VpZ2h0PSJub3JtYWwiIGZvbnQtc3R5bGU9Im5vcm1hbCIgZm9udC1zaXplPSIxMnB4IiBmb250LWZhbWlseT0iZ2VvZ2VicmEtc2Fucy1zZXJpZiwgc2Fucy1zZXJpZiIgc3Ryb2tlPSJyZ2IoMjU1LDI1NSwyNTUpIiBmaWxsPSJub25lIj4xPC90ZXh0Pjx0ZXh0IGZpbGwtb3BhY2l0eT0iMSIgdGV4dC1hbmNob3I9InN0YXJ0IiB5PSI1MjgiIHg9IjEwNTMiIHRleHQtZGVjb3JhdGlvbj0ibm9ybWFsIiBmb250LXdlaWdodD0ibm9ybWFsIiBmb250LXN0eWxlPSJub3JtYWwiIGZvbnQtc2l6ZT0iMTJweCIgZm9udC1mYW1pbHk9Imdlb2dlYnJhLXNhbnMtc2VyaWYsIHNhbnMtc2VyaWYiIHN0cm9rZT0ibm9uZSIgZmlsbD0icmdiKDM3LDM3LDM3KSI+MTwvdGV4dD48cGF0aCBzdHJva2UtbWl0ZXJsaW1pdD0iMTAiIHN0cm9rZS1vcGFjaXR5PSIxIiBkPSJNIDEwNTUuNSA1MTIuNSBMIDEwNTUuNSA1MTUuNSIgcGFpbnQtb3JkZXI9ImZpbGwgc3Ryb2tlIG1hcmtlcnMiIHN0cm9rZT0icmdiKDM3LDM3LDM3KSIgZmlsbD0ibm9uZSIvPjx0ZXh0IGZpbGwtb3BhY2l0eT0iMSIgdGV4dC1hbmNob3I9InN0YXJ0IiB5PSI1MjgiIHg9IjExMTYiIHRleHQtZGVjb3JhdGlvbj0ibm9ybWFsIiBmb250LXdlaWdodD0ibm9ybWFsIiBmb250LXN0eWxlPSJub3JtYWwiIGZvbnQtc2l6ZT0iMTJweCIgZm9udC1mYW1pbHk9Imdlb2dlYnJhLXNhbnMtc2VyaWYsIHNhbnMtc2VyaWYiIHN0cm9rZT0ibm9uZSIgZmlsbD0icmdiKDM3LDM3LDM3KSI+MjwvdGV4dD48dGV4dCBzdHJva2Utd2lkdGg9IjMiIHN0cm9rZS1taXRlcmxpbWl0PSIxMCIgc3Ryb2tlLWxpbmVqb2luPSJiZXZlbCIgc3Ryb2tlLW9wYWNpdHk9IjEiIHRleHQtYW5jaG9yPSJzdGFydCIgeT0iNTI4IiB4PSIxMTE2IiB0ZXh0LWRlY29yYXRpb249Im5vcm1hbCIgZm9udC13ZWlnaHQ9Im5vcm1hbCIgZm9udC1zdHlsZT0ibm9ybWFsIiBmb250LXNpemU9IjEycHgiIGZvbnQtZmFtaWx5PSJnZW9nZWJyYS1zYW5zLXNlcmlmLCBzYW5zLXNlcmlmIiBzdHJva2U9InJnYigyNTUsMjU1LDI1NSkiIGZpbGw9Im5vbmUiPjI8L3RleHQ+PHRleHQgZmlsbC1vcGFjaXR5PSIxIiB0ZXh0LWFuY2hvcj0ic3RhcnQiIHk9IjUyOCIgeD0iMTExNiIgdGV4dC1kZWNvcmF0aW9uPSJub3JtYWwiIGZvbnQtd2VpZ2h0PSJub3JtYWwiIGZvbnQtc3R5bGU9Im5vcm1hbCIgZm9udC1zaXplPSIxMnB4IiBmb250LWZhbWlseT0iZ2VvZ2VicmEtc2Fucy1zZXJpZiwgc2Fucy1zZXJpZiIgc3Ryb2tlPSJub25lIiBmaWxsPSJyZ2IoMzcsMzcsMzcpIj4yPC90ZXh0PjxwYXRoIHN0cm9rZS1taXRlcmxpbWl0PSIxMCIgc3Ryb2tlLW9wYWNpdHk9IjEiIGQ9Ik0gMTExOC41IDUxMi41IEwgMTExOC41IDUxNS41IiBwYWludC1vcmRlcj0iZmlsbCBzdHJva2UgbWFya2VycyIgc3Ryb2tlPSJyZ2IoMzcsMzcsMzcpIiBmaWxsPSJub25lIi8+PHRleHQgZmlsbC1vcGFjaXR5PSIxIiB0ZXh0LWFuY2hvcj0ic3RhcnQiIHk9IjUyOCIgeD0iMTE3OSIgdGV4dC1kZWNvcmF0aW9uPSJub3JtYWwiIGZvbnQtd2VpZ2h0PSJub3JtYWwiIGZvbnQtc3R5bGU9Im5vcm1hbCIgZm9udC1zaXplPSIxMnB4IiBmb250LWZhbWlseT0iZ2VvZ2VicmEtc2Fucy1zZXJpZiwgc2Fucy1zZXJpZiIgc3Ryb2tlPSJub25lIiBmaWxsPSJyZ2IoMzcsMzcsMzcpIj4zPC90ZXh0Pjx0ZXh0IHN0cm9rZS13aWR0aD0iMyIgc3Ryb2tlLW1pdGVybGltaXQ9IjEwIiBzdHJva2UtbGluZWpvaW49ImJldmVsIiBzdHJva2Utb3BhY2l0eT0iMSIgdGV4dC1hbmNob3I9InN0YXJ0IiB5PSI1MjgiIHg9IjExNzkiIHRleHQtZGVjb3JhdGlvbj0ibm9ybWFsIiBmb250LXdlaWdodD0ibm9ybWFsIiBmb250LXN0eWxlPSJub3JtYWwiIGZvbnQtc2l6ZT0iMTJweCIgZm9udC1mYW1pbHk9Imdlb2dlYnJhLXNhbnMtc2VyaWYsIHNhbnMtc2VyaWYiIHN0cm9rZT0icmdiKDI1NSwyNTUsMjU1KSIgZmlsbD0ibm9uZSI+MzwvdGV4dD48dGV4dCBmaWxsLW9wYWNpdHk9IjEiIHRleHQtYW5jaG9yPSJzdGFydCIgeT0iNTI4IiB4PSIxMTc5IiB0ZXh0LWRlY29yYXRpb249Im5vcm1hbCIgZm9udC13ZWlnaHQ9Im5vcm1hbCIgZm9udC1zdHlsZT0ibm9ybWFsIiBmb250LXNpemU9IjEycHgiIGZvbnQtZmFtaWx5PSJnZW9nZWJyYS1zYW5zLXNlcmlmLCBzYW5zLXNlcmlmIiBzdHJva2U9Im5vbmUiIGZpbGw9InJnYigzNywzNywzNykiPjM8L3RleHQ+PHBhdGggc3Ryb2tlLW1pdGVybGltaXQ9IjEwIiBzdHJva2Utb3BhY2l0eT0iMSIgZD0iTSAxMTgxLjUgNTEyLjUgTCAxMTgxLjUgNTE1LjUiIHBhaW50LW9yZGVyPSJmaWxsIHN0cm9rZSBtYXJrZXJzIiBzdHJva2U9InJnYigzNywzNywzNykiIGZpbGw9Im5vbmUiLz48dGV4dCBmaWxsLW9wYWNpdHk9IjEiIHRleHQtYW5jaG9yPSJzdGFydCIgeT0iNTI4IiB4PSIxMjQyIiB0ZXh0LWRlY29yYXRpb249Im5vcm1hbCIgZm9udC13ZWlnaHQ9Im5vcm1hbCIgZm9udC1zdHlsZT0ibm9ybWFsIiBmb250LXNpemU9IjEycHgiIGZvbnQtZmFtaWx5PSJnZW9nZWJyYS1zYW5zLXNlcmlmLCBzYW5zLXNlcmlmIiBzdHJva2U9Im5vbmUiIGZpbGw9InJnYigzNywzNywzNykiPjQ8L3RleHQ+PHRleHQgc3Ryb2tlLXdpZHRoPSIzIiBzdHJva2UtbWl0ZXJsaW1pdD0iMTAiIHN0cm9rZS1saW5lam9pbj0iYmV2ZWwiIHN0cm9rZS1vcGFjaXR5PSIxIiB0ZXh0LWFuY2hvcj0ic3RhcnQiIHk9IjUyOCIgeD0iMTI0MiIgdGV4dC1kZWNvcmF0aW9uPSJub3JtYWwiIGZvbnQtd2VpZ2h0PSJub3JtYWwiIGZvbnQtc3R5bGU9Im5vcm1hbCIgZm9udC1zaXplPSIxMnB4IiBmb250LWZhbWlseT0iZ2VvZ2VicmEtc2Fucy1zZXJpZiwgc2Fucy1zZXJpZiIgc3Ryb2tlPSJyZ2IoMjU1LDI1NSwyNTUpIiBmaWxsPSJub25lIj40PC90ZXh0Pjx0ZXh0IGZpbGwtb3BhY2l0eT0iMSIgdGV4dC1hbmNob3I9InN0YXJ0IiB5PSI1MjgiIHg9IjEyNDIiIHRleHQtZGVjb3JhdGlvbj0ibm9ybWFsIiBmb250LXdlaWdodD0ibm9ybWFsIiBmb250LXN0eWxlPSJub3JtYWwiIGZvbnQtc2l6ZT0iMTJweCIgZm9udC1mYW1pbHk9Imdlb2dlYnJhLXNhbnMtc2VyaWYsIHNhbnMtc2VyaWYiIHN0cm9rZT0ibm9uZSIgZmlsbD0icmdiKDM3LDM3LDM3KSI+NDwvdGV4dD48cGF0aCBzdHJva2UtbWl0ZXJsaW1pdD0iMTAiIHN0cm9rZS1vcGFjaXR5PSIxIiBkPSJNIDEyNDQuNSA1MTIuNSBMIDEyNDQuNSA1MTUuNSIgcGFpbnQtb3JkZXI9ImZpbGwgc3Ryb2tlIG1hcmtlcnMiIHN0cm9rZT0icmdiKDM3LDM3LDM3KSIgZmlsbD0ibm9uZSIvPjx0ZXh0IGZpbGwtb3BhY2l0eT0iMSIgdGV4dC1hbmNob3I9InN0YXJ0IiB5PSI1MjgiIHg9IjEzMDUiIHRleHQtZGVjb3JhdGlvbj0ibm9ybWFsIiBmb250LXdlaWdodD0ibm9ybWFsIiBmb250LXN0eWxlPSJub3JtYWwiIGZvbnQtc2l6ZT0iMTJweCIgZm9udC1mYW1pbHk9Imdlb2dlYnJhLXNhbnMtc2VyaWYsIHNhbnMtc2VyaWYiIHN0cm9rZT0ibm9uZSIgZmlsbD0icmdiKDM3LDM3LDM3KSI+NTwvdGV4dD48dGV4dCBzdHJva2Utd2lkdGg9IjMiIHN0cm9rZS1taXRlcmxpbWl0PSIxMCIgc3Ryb2tlLWxpbmVqb2luPSJiZXZlbCIgc3Ryb2tlLW9wYWNpdHk9IjEiIHRleHQtYW5jaG9yPSJzdGFydCIgeT0iNTI4IiB4PSIxMzA1IiB0ZXh0LWRlY29yYXRpb249Im5vcm1hbCIgZm9udC13ZWlnaHQ9Im5vcm1hbCIgZm9udC1zdHlsZT0ibm9ybWFsIiBmb250LXNpemU9IjEycHgiIGZvbnQtZmFtaWx5PSJnZW9nZWJyYS1zYW5zLXNlcmlmLCBzYW5zLXNlcmlmIiBzdHJva2U9InJnYigyNTUsMjU1LDI1NSkiIGZpbGw9Im5vbmUiPjU8L3RleHQ+PHRleHQgZmlsbC1vcGFjaXR5PSIxIiB0ZXh0LWFuY2hvcj0ic3RhcnQiIHk9IjUyOCIgeD0iMTMwNSIgdGV4dC1kZWNvcmF0aW9uPSJub3JtYWwiIGZvbnQtd2VpZ2h0PSJub3JtYWwiIGZvbnQtc3R5bGU9Im5vcm1hbCIgZm9udC1zaXplPSIxMnB4IiBmb250LWZhbWlseT0iZ2VvZ2VicmEtc2Fucy1zZXJpZiwgc2Fucy1zZXJpZiIgc3Ryb2tlPSJub25lIiBmaWxsPSJyZ2IoMzcsMzcsMzcpIj41PC90ZXh0PjxwYXRoIHN0cm9rZS1taXRlcmxpbWl0PSIxMCIgc3Ryb2tlLW9wYWNpdHk9IjEiIGQ9Ik0gMTMwNy41IDUxMi41IEwgMTMwNy41IDUxNS41IiBwYWludC1vcmRlcj0iZmlsbCBzdHJva2UgbWFya2VycyIgc3Ryb2tlPSJyZ2IoMzcsMzcsMzcpIiBmaWxsPSJub25lIi8+PHRleHQgZmlsbC1vcGFjaXR5PSIxIiB0ZXh0LWFuY2hvcj0ic3RhcnQiIHk9IjUyOCIgeD0iMTM2OCIgdGV4dC1kZWNvcmF0aW9uPSJub3JtYWwiIGZvbnQtd2VpZ2h0PSJub3JtYWwiIGZvbnQtc3R5bGU9Im5vcm1hbCIgZm9udC1zaXplPSIxMnB4IiBmb250LWZhbWlseT0iZ2VvZ2VicmEtc2Fucy1zZXJpZiwgc2Fucy1zZXJpZiIgc3Ryb2tlPSJub25lIiBmaWxsPSJyZ2IoMzcsMzcsMzcpIj42PC90ZXh0Pjx0ZXh0IHN0cm9rZS13aWR0aD0iMyIgc3Ryb2tlLW1pdGVybGltaXQ9IjEwIiBzdHJva2UtbGluZWpvaW49ImJldmVsIiBzdHJva2Utb3BhY2l0eT0iMSIgdGV4dC1hbmNob3I9InN0YXJ0IiB5PSI1MjgiIHg9IjEzNjgiIHRleHQtZGVjb3JhdGlvbj0ibm9ybWFsIiBmb250LXdlaWdodD0ibm9ybWFsIiBmb250LXN0eWxlPSJub3JtYWwiIGZvbnQtc2l6ZT0iMTJweCIgZm9udC1mYW1pbHk9Imdlb2dlYnJhLXNhbnMtc2VyaWYsIHNhbnMtc2VyaWYiIHN0cm9rZT0icmdiKDI1NSwyNTUsMjU1KSIgZmlsbD0ibm9uZSI+NjwvdGV4dD48dGV4dCBmaWxsLW9wYWNpdHk9IjEiIHRleHQtYW5jaG9yPSJzdGFydCIgeT0iNTI4IiB4PSIxMzY4IiB0ZXh0LWRlY29yYXRpb249Im5vcm1hbCIgZm9udC13ZWlnaHQ9Im5vcm1hbCIgZm9udC1zdHlsZT0ibm9ybWFsIiBmb250LXNpemU9IjEycHgiIGZvbnQtZmFtaWx5PSJnZW9nZWJyYS1zYW5zLXNlcmlmLCBzYW5zLXNlcmlmIiBzdHJva2U9Im5vbmUiIGZpbGw9InJnYigzNywzNywzNykiPjY8L3RleHQ+PHBhdGggc3Ryb2tlLW1pdGVybGltaXQ9IjEwIiBzdHJva2Utb3BhY2l0eT0iMSIgZD0iTSAxMzcwLjUgNTEyLjUgTCAxMzcwLjUgNTE1LjUiIHBhaW50LW9yZGVyPSJmaWxsIHN0cm9rZSBtYXJrZXJzIiBzdHJva2U9InJnYigzNywzNywzNykiIGZpbGw9Im5vbmUiLz48dGV4dCBmaWxsLW9wYWNpdHk9IjEiIHRleHQtYW5jaG9yPSJzdGFydCIgeT0iNTI4IiB4PSIxNDMxIiB0ZXh0LWRlY29yYXRpb249Im5vcm1hbCIgZm9udC13ZWlnaHQ9Im5vcm1hbCIgZm9udC1zdHlsZT0ibm9ybWFsIiBmb250LXNpemU9IjEycHgiIGZvbnQtZmFtaWx5PSJnZW9nZWJyYS1zYW5zLXNlcmlmLCBzYW5zLXNlcmlmIiBzdHJva2U9Im5vbmUiIGZpbGw9InJnYigzNywzNywzNykiPjc8L3RleHQ+PHRleHQgc3Ryb2tlLXdpZHRoPSIzIiBzdHJva2UtbWl0ZXJsaW1pdD0iMTAiIHN0cm9rZS1saW5lam9pbj0iYmV2ZWwiIHN0cm9rZS1vcGFjaXR5PSIxIiB0ZXh0LWFuY2hvcj0ic3RhcnQiIHk9IjUyOCIgeD0iMTQzMSIgdGV4dC1kZWNvcmF0aW9uPSJub3JtYWwiIGZvbnQtd2VpZ2h0PSJub3JtYWwiIGZvbnQtc3R5bGU9Im5vcm1hbCIgZm9udC1zaXplPSIxMnB4IiBmb250LWZhbWlseT0iZ2VvZ2VicmEtc2Fucy1zZXJpZiwgc2Fucy1zZXJpZiIgc3Ryb2tlPSJyZ2IoMjU1LDI1NSwyNTUpIiBmaWxsPSJub25lIj43PC90ZXh0Pjx0ZXh0IGZpbGwtb3BhY2l0eT0iMSIgdGV4dC1hbmNob3I9InN0YXJ0IiB5PSI1MjgiIHg9IjE0MzEiIHRleHQtZGVjb3JhdGlvbj0ibm9ybWFsIiBmb250LXdlaWdodD0ibm9ybWFsIiBmb250LXN0eWxlPSJub3JtYWwiIGZvbnQtc2l6ZT0iMTJweCIgZm9udC1mYW1pbHk9Imdlb2dlYnJhLXNhbnMtc2VyaWYsIHNhbnMtc2VyaWYiIHN0cm9rZT0ibm9uZSIgZmlsbD0icmdiKDM3LDM3LDM3KSI+NzwvdGV4dD48cGF0aCBzdHJva2UtbWl0ZXJsaW1pdD0iMTAiIHN0cm9rZS1vcGFjaXR5PSIxIiBkPSJNIDE0MzMuNSA1MTIuNSBMIDE0MzMuNSA1MTUuNSIgcGFpbnQtb3JkZXI9ImZpbGwgc3Ryb2tlIG1hcmtlcnMiIHN0cm9rZT0icmdiKDM3LDM3LDM3KSIgZmlsbD0ibm9uZSIvPjx0ZXh0IGZpbGwtb3BhY2l0eT0iMSIgdGV4dC1hbmNob3I9InN0YXJ0IiB5PSI1MjgiIHg9IjE0OTQiIHRleHQtZGVjb3JhdGlvbj0ibm9ybWFsIiBmb250LXdlaWdodD0ibm9ybWFsIiBmb250LXN0eWxlPSJub3JtYWwiIGZvbnQtc2l6ZT0iMTJweCIgZm9udC1mYW1pbHk9Imdlb2dlYnJhLXNhbnMtc2VyaWYsIHNhbnMtc2VyaWYiIHN0cm9rZT0ibm9uZSIgZmlsbD0icmdiKDM3LDM3LDM3KSI+ODwvdGV4dD48dGV4dCBzdHJva2Utd2lkdGg9IjMiIHN0cm9rZS1taXRlcmxpbWl0PSIxMCIgc3Ryb2tlLWxpbmVqb2luPSJiZXZlbCIgc3Ryb2tlLW9wYWNpdHk9IjEiIHRleHQtYW5jaG9yPSJzdGFydCIgeT0iNTI4IiB4PSIxNDk0IiB0ZXh0LWRlY29yYXRpb249Im5vcm1hbCIgZm9udC13ZWlnaHQ9Im5vcm1hbCIgZm9udC1zdHlsZT0ibm9ybWFsIiBmb250LXNpemU9IjEycHgiIGZvbnQtZmFtaWx5PSJnZW9nZWJyYS1zYW5zLXNlcmlmLCBzYW5zLXNlcmlmIiBzdHJva2U9InJnYigyNTUsMjU1LDI1NSkiIGZpbGw9Im5vbmUiPjg8L3RleHQ+PHRleHQgZmlsbC1vcGFjaXR5PSIxIiB0ZXh0LWFuY2hvcj0ic3RhcnQiIHk9IjUyOCIgeD0iMTQ5NCIgdGV4dC1kZWNvcmF0aW9uPSJub3JtYWwiIGZvbnQtd2VpZ2h0PSJub3JtYWwiIGZvbnQtc3R5bGU9Im5vcm1hbCIgZm9udC1zaXplPSIxMnB4IiBmb250LWZhbWlseT0iZ2VvZ2VicmEtc2Fucy1zZXJpZiwgc2Fucy1zZXJpZiIgc3Ryb2tlPSJub25lIiBmaWxsPSJyZ2IoMzcsMzcsMzcpIj44PC90ZXh0PjxwYXRoIHN0cm9rZS1taXRlcmxpbWl0PSIxMCIgc3Ryb2tlLW9wYWNpdHk9IjEiIGQ9Ik0gMTQ5Ni41IDUxMi41IEwgMTQ5Ni41IDUxNS41IiBwYWludC1vcmRlcj0iZmlsbCBzdHJva2UgbWFya2VycyIgc3Ryb2tlPSJyZ2IoMzcsMzcsMzcpIiBmaWxsPSJub25lIi8+PHBhdGggc3Ryb2tlLW1pdGVybGltaXQ9IjEwIiBzdHJva2Utb3BhY2l0eT0iMSIgZD0iTSA5ODkuNSA4MjcuNSBMIDk5Mi41IDgyNy41IiBwYWludC1vcmRlcj0iZmlsbCBzdHJva2UgbWFya2VycyIgc3Ryb2tlPSJyZ2IoMzcsMzcsMzcpIiBmaWxsPSJub25lIi8+PHBhdGggc3Ryb2tlLW1pdGVybGltaXQ9IjEwIiBzdHJva2Utb3BhY2l0eT0iMSIgZD0iTSA5ODkuNSA3NjQuNSBMIDk5Mi41IDc2NC41IiBwYWludC1vcmRlcj0iZmlsbCBzdHJva2UgbWFya2VycyIgc3Ryb2tlPSJyZ2IoMzcsMzcsMzcpIiBmaWxsPSJub25lIi8+PHBhdGggc3Ryb2tlLW1pdGVybGltaXQ9IjEwIiBzdHJva2Utb3BhY2l0eT0iMSIgZD0iTSA5ODkuNSA3MDEuNSBMIDk5Mi41IDcwMS41IiBwYWludC1vcmRlcj0iZmlsbCBzdHJva2UgbWFya2VycyIgc3Ryb2tlPSJyZ2IoMzcsMzcsMzcpIiBmaWxsPSJub25lIi8+PHBhdGggc3Ryb2tlLW1pdGVybGltaXQ9IjEwIiBzdHJva2Utb3BhY2l0eT0iMSIgZD0iTSA5ODkuNSA2MzguNSBMIDk5Mi41IDYzOC41IiBwYWludC1vcmRlcj0iZmlsbCBzdHJva2UgbWFya2VycyIgc3Ryb2tlPSJyZ2IoMzcsMzcsMzcpIiBmaWxsPSJub25lIi8+PHBhdGggc3Ryb2tlLW1pdGVybGltaXQ9IjEwIiBzdHJva2Utb3BhY2l0eT0iMSIgZD0iTSA5ODkuNSA1NzUuNSBMIDk5Mi41IDU3NS41IiBwYWludC1vcmRlcj0iZmlsbCBzdHJva2UgbWFya2VycyIgc3Ryb2tlPSJyZ2IoMzcsMzcsMzcpIiBmaWxsPSJub25lIi8+PHBhdGggc3Ryb2tlLW1pdGVybGltaXQ9IjEwIiBzdHJva2Utb3BhY2l0eT0iMSIgZD0iTSA5ODkuNSA0NDkuNSBMIDk5Mi41IDQ0OS41IiBwYWludC1vcmRlcj0iZmlsbCBzdHJva2UgbWFya2VycyIgc3Ryb2tlPSJyZ2IoMzcsMzcsMzcpIiBmaWxsPSJub25lIi8+PHBhdGggc3Ryb2tlLW1pdGVybGltaXQ9IjEwIiBzdHJva2Utb3BhY2l0eT0iMSIgZD0iTSA5ODkuNSAzODYuNSBMIDk5Mi41IDM4Ni41IiBwYWludC1vcmRlcj0iZmlsbCBzdHJva2UgbWFya2VycyIgc3Ryb2tlPSJyZ2IoMzcsMzcsMzcpIiBmaWxsPSJub25lIi8+PHBhdGggc3Ryb2tlLW1pdGVybGltaXQ9IjEwIiBzdHJva2Utb3BhY2l0eT0iMSIgZD0iTSA5ODkuNSAzMjMuNSBMIDk5Mi41IDMyMy41IiBwYWludC1vcmRlcj0iZmlsbCBzdHJva2UgbWFya2VycyIgc3Ryb2tlPSJyZ2IoMzcsMzcsMzcpIiBmaWxsPSJub25lIi8+PHBhdGggc3Ryb2tlLW1pdGVybGltaXQ9IjEwIiBzdHJva2Utb3BhY2l0eT0iMSIgZD0iTSA5ODkuNSAyNjAuNSBMIDk5Mi41IDI2MC41IiBwYWludC1vcmRlcj0iZmlsbCBzdHJva2UgbWFya2VycyIgc3Ryb2tlPSJyZ2IoMzcsMzcsMzcpIiBmaWxsPSJub25lIi8+PHBhdGggc3Ryb2tlLW1pdGVybGltaXQ9IjEwIiBzdHJva2Utb3BhY2l0eT0iMSIgZD0iTSA5ODkuNSAxOTcuNSBMIDk5Mi41IDE5Ny41IiBwYWludC1vcmRlcj0iZmlsbCBzdHJva2UgbWFya2VycyIgc3Ryb2tlPSJyZ2IoMzcsMzcsMzcpIiBmaWxsPSJub25lIi8+PHBhdGggc3Ryb2tlLW1pdGVybGltaXQ9IjEwIiBzdHJva2Utb3BhY2l0eT0iMSIgZD0iTSA5ODkuNSAxMzQuNSBMIDk5Mi41IDEzNC41IiBwYWludC1vcmRlcj0iZmlsbCBzdHJva2UgbWFya2VycyIgc3Ryb2tlPSJyZ2IoMzcsMzcsMzcpIiBmaWxsPSJub25lIi8+PHBhdGggc3Ryb2tlLW1pdGVybGltaXQ9IjEwIiBzdHJva2Utb3BhY2l0eT0iMSIgZD0iTSA5ODkuNSA3MS41IEwgOTkyLjUgNzEuNSIgcGFpbnQtb3JkZXI9ImZpbGwgc3Ryb2tlIG1hcmtlcnMiIHN0cm9rZT0icmdiKDM3LDM3LDM3KSIgZmlsbD0ibm9uZSIvPjx0ZXh0IGZpbGwtb3BhY2l0eT0iMSIgdGV4dC1hbmNob3I9InN0YXJ0IiB5PSI4MzIiIHg9Ijk3MSIgdGV4dC1kZWNvcmF0aW9uPSJub3JtYWwiIGZvbnQtd2VpZ2h0PSJub3JtYWwiIGZvbnQtc3R5bGU9Im5vcm1hbCIgZm9udC1zaXplPSIxMnB4IiBmb250LWZhbWlseT0iZ2VvZ2VicmEtc2Fucy1zZXJpZiwgc2Fucy1zZXJpZiIgc3Ryb2tlPSJub25lIiBmaWxsPSJyZ2IoMzcsMzcsMzcpIj7igJM1PC90ZXh0Pjx0ZXh0IHN0cm9rZS13aWR0aD0iMyIgc3Ryb2tlLW1pdGVybGltaXQ9IjEwIiBzdHJva2UtbGluZWpvaW49ImJldmVsIiBzdHJva2Utb3BhY2l0eT0iMSIgdGV4dC1hbmNob3I9InN0YXJ0IiB5PSI4MzIiIHg9Ijk3MSIgdGV4dC1kZWNvcmF0aW9uPSJub3JtYWwiIGZvbnQtd2VpZ2h0PSJub3JtYWwiIGZvbnQtc3R5bGU9Im5vcm1hbCIgZm9udC1zaXplPSIxMnB4IiBmb250LWZhbWlseT0iZ2VvZ2VicmEtc2Fucy1zZXJpZiwgc2Fucy1zZXJpZiIgc3Ryb2tlPSJyZ2IoMjU1LDI1NSwyNTUpIiBmaWxsPSJub25lIj7igJM1PC90ZXh0Pjx0ZXh0IGZpbGwtb3BhY2l0eT0iMSIgdGV4dC1hbmNob3I9InN0YXJ0IiB5PSI4MzIiIHg9Ijk3MSIgdGV4dC1kZWNvcmF0aW9uPSJub3JtYWwiIGZvbnQtd2VpZ2h0PSJub3JtYWwiIGZvbnQtc3R5bGU9Im5vcm1hbCIgZm9udC1zaXplPSIxMnB4IiBmb250LWZhbWlseT0iZ2VvZ2VicmEtc2Fucy1zZXJpZiwgc2Fucy1zZXJpZiIgc3Ryb2tlPSJub25lIiBmaWxsPSJyZ2IoMzcsMzcsMzcpIj7igJM1PC90ZXh0Pjx0ZXh0IGZpbGwtb3BhY2l0eT0iMSIgdGV4dC1hbmNob3I9InN0YXJ0IiB5PSI3NjkiIHg9Ijk3MSIgdGV4dC1kZWNvcmF0aW9uPSJub3JtYWwiIGZvbnQtd2VpZ2h0PSJub3JtYWwiIGZvbnQtc3R5bGU9Im5vcm1hbCIgZm9udC1zaXplPSIxMnB4IiBmb250LWZhbWlseT0iZ2VvZ2VicmEtc2Fucy1zZXJpZiwgc2Fucy1zZXJpZiIgc3Ryb2tlPSJub25lIiBmaWxsPSJyZ2IoMzcsMzcsMzcpIj7igJM0PC90ZXh0Pjx0ZXh0IHN0cm9rZS13aWR0aD0iMyIgc3Ryb2tlLW1pdGVybGltaXQ9IjEwIiBzdHJva2UtbGluZWpvaW49ImJldmVsIiBzdHJva2Utb3BhY2l0eT0iMSIgdGV4dC1hbmNob3I9InN0YXJ0IiB5PSI3NjkiIHg9Ijk3MSIgdGV4dC1kZWNvcmF0aW9uPSJub3JtYWwiIGZvbnQtd2VpZ2h0PSJub3JtYWwiIGZvbnQtc3R5bGU9Im5vcm1hbCIgZm9udC1zaXplPSIxMnB4IiBmb250LWZhbWlseT0iZ2VvZ2VicmEtc2Fucy1zZXJpZiwgc2Fucy1zZXJpZiIgc3Ryb2tlPSJyZ2IoMjU1LDI1NSwyNTUpIiBmaWxsPSJub25lIj7igJM0PC90ZXh0Pjx0ZXh0IGZpbGwtb3BhY2l0eT0iMSIgdGV4dC1hbmNob3I9InN0YXJ0IiB5PSI3NjkiIHg9Ijk3MSIgdGV4dC1kZWNvcmF0aW9uPSJub3JtYWwiIGZvbnQtd2VpZ2h0PSJub3JtYWwiIGZvbnQtc3R5bGU9Im5vcm1hbCIgZm9udC1zaXplPSIxMnB4IiBmb250LWZhbWlseT0iZ2VvZ2VicmEtc2Fucy1zZXJpZiwgc2Fucy1zZXJpZiIgc3Ryb2tlPSJub25lIiBmaWxsPSJyZ2IoMzcsMzcsMzcpIj7igJM0PC90ZXh0Pjx0ZXh0IGZpbGwtb3BhY2l0eT0iMSIgdGV4dC1hbmNob3I9InN0YXJ0IiB5PSI3MDYiIHg9Ijk3MSIgdGV4dC1kZWNvcmF0aW9uPSJub3JtYWwiIGZvbnQtd2VpZ2h0PSJub3JtYWwiIGZvbnQtc3R5bGU9Im5vcm1hbCIgZm9udC1zaXplPSIxMnB4IiBmb250LWZhbWlseT0iZ2VvZ2VicmEtc2Fucy1zZXJpZiwgc2Fucy1zZXJpZiIgc3Ryb2tlPSJub25lIiBmaWxsPSJyZ2IoMzcsMzcsMzcpIj7igJMzPC90ZXh0Pjx0ZXh0IHN0cm9rZS13aWR0aD0iMyIgc3Ryb2tlLW1pdGVybGltaXQ9IjEwIiBzdHJva2UtbGluZWpvaW49ImJldmVsIiBzdHJva2Utb3BhY2l0eT0iMSIgdGV4dC1hbmNob3I9InN0YXJ0IiB5PSI3MDYiIHg9Ijk3MSIgdGV4dC1kZWNvcmF0aW9uPSJub3JtYWwiIGZvbnQtd2VpZ2h0PSJub3JtYWwiIGZvbnQtc3R5bGU9Im5vcm1hbCIgZm9udC1zaXplPSIxMnB4IiBmb250LWZhbWlseT0iZ2VvZ2VicmEtc2Fucy1zZXJpZiwgc2Fucy1zZXJpZiIgc3Ryb2tlPSJyZ2IoMjU1LDI1NSwyNTUpIiBmaWxsPSJub25lIj7igJMzPC90ZXh0Pjx0ZXh0IGZpbGwtb3BhY2l0eT0iMSIgdGV4dC1hbmNob3I9InN0YXJ0IiB5PSI3MDYiIHg9Ijk3MSIgdGV4dC1kZWNvcmF0aW9uPSJub3JtYWwiIGZvbnQtd2VpZ2h0PSJub3JtYWwiIGZvbnQtc3R5bGU9Im5vcm1hbCIgZm9udC1zaXplPSIxMnB4IiBmb250LWZhbWlseT0iZ2VvZ2VicmEtc2Fucy1zZXJpZiwgc2Fucy1zZXJpZiIgc3Ryb2tlPSJub25lIiBmaWxsPSJyZ2IoMzcsMzcsMzcpIj7igJMzPC90ZXh0Pjx0ZXh0IGZpbGwtb3BhY2l0eT0iMSIgdGV4dC1hbmNob3I9InN0YXJ0IiB5PSI2NDMiIHg9Ijk3MSIgdGV4dC1kZWNvcmF0aW9uPSJub3JtYWwiIGZvbnQtd2VpZ2h0PSJub3JtYWwiIGZvbnQtc3R5bGU9Im5vcm1hbCIgZm9udC1zaXplPSIxMnB4IiBmb250LWZhbWlseT0iZ2VvZ2VicmEtc2Fucy1zZXJpZiwgc2Fucy1zZXJpZiIgc3Ryb2tlPSJub25lIiBmaWxsPSJyZ2IoMzcsMzcsMzcpIj7igJMyPC90ZXh0Pjx0ZXh0IHN0cm9rZS13aWR0aD0iMyIgc3Ryb2tlLW1pdGVybGltaXQ9IjEwIiBzdHJva2UtbGluZWpvaW49ImJldmVsIiBzdHJva2Utb3BhY2l0eT0iMSIgdGV4dC1hbmNob3I9InN0YXJ0IiB5PSI2NDMiIHg9Ijk3MSIgdGV4dC1kZWNvcmF0aW9uPSJub3JtYWwiIGZvbnQtd2VpZ2h0PSJub3JtYWwiIGZvbnQtc3R5bGU9Im5vcm1hbCIgZm9udC1zaXplPSIxMnB4IiBmb250LWZhbWlseT0iZ2VvZ2VicmEtc2Fucy1zZXJpZiwgc2Fucy1zZXJpZiIgc3Ryb2tlPSJyZ2IoMjU1LDI1NSwyNTUpIiBmaWxsPSJub25lIj7igJMyPC90ZXh0Pjx0ZXh0IGZpbGwtb3BhY2l0eT0iMSIgdGV4dC1hbmNob3I9InN0YXJ0IiB5PSI2NDMiIHg9Ijk3MSIgdGV4dC1kZWNvcmF0aW9uPSJub3JtYWwiIGZvbnQtd2VpZ2h0PSJub3JtYWwiIGZvbnQtc3R5bGU9Im5vcm1hbCIgZm9udC1zaXplPSIxMnB4IiBmb250LWZhbWlseT0iZ2VvZ2VicmEtc2Fucy1zZXJpZiwgc2Fucy1zZXJpZiIgc3Ryb2tlPSJub25lIiBmaWxsPSJyZ2IoMzcsMzcsMzcpIj7igJMyPC90ZXh0Pjx0ZXh0IGZpbGwtb3BhY2l0eT0iMSIgdGV4dC1hbmNob3I9InN0YXJ0IiB5PSI1ODAiIHg9Ijk3MSIgdGV4dC1kZWNvcmF0aW9uPSJub3JtYWwiIGZvbnQtd2VpZ2h0PSJub3JtYWwiIGZvbnQtc3R5bGU9Im5vcm1hbCIgZm9udC1zaXplPSIxMnB4IiBmb250LWZhbWlseT0iZ2VvZ2VicmEtc2Fucy1zZXJpZiwgc2Fucy1zZXJpZiIgc3Ryb2tlPSJub25lIiBmaWxsPSJyZ2IoMzcsMzcsMzcpIj7igJMxPC90ZXh0Pjx0ZXh0IHN0cm9rZS13aWR0aD0iMyIgc3Ryb2tlLW1pdGVybGltaXQ9IjEwIiBzdHJva2UtbGluZWpvaW49ImJldmVsIiBzdHJva2Utb3BhY2l0eT0iMSIgdGV4dC1hbmNob3I9InN0YXJ0IiB5PSI1ODAiIHg9Ijk3MSIgdGV4dC1kZWNvcmF0aW9uPSJub3JtYWwiIGZvbnQtd2VpZ2h0PSJub3JtYWwiIGZvbnQtc3R5bGU9Im5vcm1hbCIgZm9udC1zaXplPSIxMnB4IiBmb250LWZhbWlseT0iZ2VvZ2VicmEtc2Fucy1zZXJpZiwgc2Fucy1zZXJpZiIgc3Ryb2tlPSJyZ2IoMjU1LDI1NSwyNTUpIiBmaWxsPSJub25lIj7igJMxPC90ZXh0Pjx0ZXh0IGZpbGwtb3BhY2l0eT0iMSIgdGV4dC1hbmNob3I9InN0YXJ0IiB5PSI1ODAiIHg9Ijk3MSIgdGV4dC1kZWNvcmF0aW9uPSJub3JtYWwiIGZvbnQtd2VpZ2h0PSJub3JtYWwiIGZvbnQtc3R5bGU9Im5vcm1hbCIgZm9udC1zaXplPSIxMnB4IiBmb250LWZhbWlseT0iZ2VvZ2VicmEtc2Fucy1zZXJpZiwgc2Fucy1zZXJpZiIgc3Ryb2tlPSJub25lIiBmaWxsPSJyZ2IoMzcsMzcsMzcpIj7igJMxPC90ZXh0Pjx0ZXh0IGZpbGwtb3BhY2l0eT0iMSIgdGV4dC1hbmNob3I9InN0YXJ0IiB5PSI0NTQiIHg9Ijk3OCIgdGV4dC1kZWNvcmF0aW9uPSJub3JtYWwiIGZvbnQtd2VpZ2h0PSJub3JtYWwiIGZvbnQtc3R5bGU9Im5vcm1hbCIgZm9udC1zaXplPSIxMnB4IiBmb250LWZhbWlseT0iZ2VvZ2VicmEtc2Fucy1zZXJpZiwgc2Fucy1zZXJpZiIgc3Ryb2tlPSJub25lIiBmaWxsPSJyZ2IoMzcsMzcsMzcpIj4xPC90ZXh0Pjx0ZXh0IHN0cm9rZS13aWR0aD0iMyIgc3Ryb2tlLW1pdGVybGltaXQ9IjEwIiBzdHJva2UtbGluZWpvaW49ImJldmVsIiBzdHJva2Utb3BhY2l0eT0iMSIgdGV4dC1hbmNob3I9InN0YXJ0IiB5PSI0NTQiIHg9Ijk3OCIgdGV4dC1kZWNvcmF0aW9uPSJub3JtYWwiIGZvbnQtd2VpZ2h0PSJub3JtYWwiIGZvbnQtc3R5bGU9Im5vcm1hbCIgZm9udC1zaXplPSIxMnB4IiBmb250LWZhbWlseT0iZ2VvZ2VicmEtc2Fucy1zZXJpZiwgc2Fucy1zZXJpZiIgc3Ryb2tlPSJyZ2IoMjU1LDI1NSwyNTUpIiBmaWxsPSJub25lIj4xPC90ZXh0Pjx0ZXh0IGZpbGwtb3BhY2l0eT0iMSIgdGV4dC1hbmNob3I9InN0YXJ0IiB5PSI0NTQiIHg9Ijk3OCIgdGV4dC1kZWNvcmF0aW9uPSJub3JtYWwiIGZvbnQtd2VpZ2h0PSJub3JtYWwiIGZvbnQtc3R5bGU9Im5vcm1hbCIgZm9udC1zaXplPSIxMnB4IiBmb250LWZhbWlseT0iZ2VvZ2VicmEtc2Fucy1zZXJpZiwgc2Fucy1zZXJpZiIgc3Ryb2tlPSJub25lIiBmaWxsPSJyZ2IoMzcsMzcsMzcpIj4xPC90ZXh0Pjx0ZXh0IGZpbGwtb3BhY2l0eT0iMSIgdGV4dC1hbmNob3I9InN0YXJ0IiB5PSIzOTEiIHg9Ijk3OCIgdGV4dC1kZWNvcmF0aW9uPSJub3JtYWwiIGZvbnQtd2VpZ2h0PSJub3JtYWwiIGZvbnQtc3R5bGU9Im5vcm1hbCIgZm9udC1zaXplPSIxMnB4IiBmb250LWZhbWlseT0iZ2VvZ2VicmEtc2Fucy1zZXJpZiwgc2Fucy1zZXJpZiIgc3Ryb2tlPSJub25lIiBmaWxsPSJyZ2IoMzcsMzcsMzcpIj4yPC90ZXh0Pjx0ZXh0IHN0cm9rZS13aWR0aD0iMyIgc3Ryb2tlLW1pdGVybGltaXQ9IjEwIiBzdHJva2UtbGluZWpvaW49ImJldmVsIiBzdHJva2Utb3BhY2l0eT0iMSIgdGV4dC1hbmNob3I9InN0YXJ0IiB5PSIzOTEiIHg9Ijk3OCIgdGV4dC1kZWNvcmF0aW9uPSJub3JtYWwiIGZvbnQtd2VpZ2h0PSJub3JtYWwiIGZvbnQtc3R5bGU9Im5vcm1hbCIgZm9udC1zaXplPSIxMnB4IiBmb250LWZhbWlseT0iZ2VvZ2VicmEtc2Fucy1zZXJpZiwgc2Fucy1zZXJpZiIgc3Ryb2tlPSJyZ2IoMjU1LDI1NSwyNTUpIiBmaWxsPSJub25lIj4yPC90ZXh0Pjx0ZXh0IGZpbGwtb3BhY2l0eT0iMSIgdGV4dC1hbmNob3I9InN0YXJ0IiB5PSIzOTEiIHg9Ijk3OCIgdGV4dC1kZWNvcmF0aW9uPSJub3JtYWwiIGZvbnQtd2VpZ2h0PSJub3JtYWwiIGZvbnQtc3R5bGU9Im5vcm1hbCIgZm9udC1zaXplPSIxMnB4IiBmb250LWZhbWlseT0iZ2VvZ2VicmEtc2Fucy1zZXJpZiwgc2Fucy1zZXJpZiIgc3Ryb2tlPSJub25lIiBmaWxsPSJyZ2IoMzcsMzcsMzcpIj4yPC90ZXh0Pjx0ZXh0IGZpbGwtb3BhY2l0eT0iMSIgdGV4dC1hbmNob3I9InN0YXJ0IiB5PSIzMjgiIHg9Ijk3OCIgdGV4dC1kZWNvcmF0aW9uPSJub3JtYWwiIGZvbnQtd2VpZ2h0PSJub3JtYWwiIGZvbnQtc3R5bGU9Im5vcm1hbCIgZm9udC1zaXplPSIxMnB4IiBmb250LWZhbWlseT0iZ2VvZ2VicmEtc2Fucy1zZXJpZiwgc2Fucy1zZXJpZiIgc3Ryb2tlPSJub25lIiBmaWxsPSJyZ2IoMzcsMzcsMzcpIj4zPC90ZXh0Pjx0ZXh0IHN0cm9rZS13aWR0aD0iMyIgc3Ryb2tlLW1pdGVybGltaXQ9IjEwIiBzdHJva2UtbGluZWpvaW49ImJldmVsIiBzdHJva2Utb3BhY2l0eT0iMSIgdGV4dC1hbmNob3I9InN0YXJ0IiB5PSIzMjgiIHg9Ijk3OCIgdGV4dC1kZWNvcmF0aW9uPSJub3JtYWwiIGZvbnQtd2VpZ2h0PSJub3JtYWwiIGZvbnQtc3R5bGU9Im5vcm1hbCIgZm9udC1zaXplPSIxMnB4IiBmb250LWZhbWlseT0iZ2VvZ2VicmEtc2Fucy1zZXJpZiwgc2Fucy1zZXJpZiIgc3Ryb2tlPSJyZ2IoMjU1LDI1NSwyNTUpIiBmaWxsPSJub25lIj4zPC90ZXh0Pjx0ZXh0IGZpbGwtb3BhY2l0eT0iMSIgdGV4dC1hbmNob3I9InN0YXJ0IiB5PSIzMjgiIHg9Ijk3OCIgdGV4dC1kZWNvcmF0aW9uPSJub3JtYWwiIGZvbnQtd2VpZ2h0PSJub3JtYWwiIGZvbnQtc3R5bGU9Im5vcm1hbCIgZm9udC1zaXplPSIxMnB4IiBmb250LWZhbWlseT0iZ2VvZ2VicmEtc2Fucy1zZXJpZiwgc2Fucy1zZXJpZiIgc3Ryb2tlPSJub25lIiBmaWxsPSJyZ2IoMzcsMzcsMzcpIj4zPC90ZXh0Pjx0ZXh0IGZpbGwtb3BhY2l0eT0iMSIgdGV4dC1hbmNob3I9InN0YXJ0IiB5PSIyNjUiIHg9Ijk3OCIgdGV4dC1kZWNvcmF0aW9uPSJub3JtYWwiIGZvbnQtd2VpZ2h0PSJub3JtYWwiIGZvbnQtc3R5bGU9Im5vcm1hbCIgZm9udC1zaXplPSIxMnB4IiBmb250LWZhbWlseT0iZ2VvZ2VicmEtc2Fucy1zZXJpZiwgc2Fucy1zZXJpZiIgc3Ryb2tlPSJub25lIiBmaWxsPSJyZ2IoMzcsMzcsMzcpIj40PC90ZXh0Pjx0ZXh0IHN0cm9rZS13aWR0aD0iMyIgc3Ryb2tlLW1pdGVybGltaXQ9IjEwIiBzdHJva2UtbGluZWpvaW49ImJldmVsIiBzdHJva2Utb3BhY2l0eT0iMSIgdGV4dC1hbmNob3I9InN0YXJ0IiB5PSIyNjUiIHg9Ijk3OCIgdGV4dC1kZWNvcmF0aW9uPSJub3JtYWwiIGZvbnQtd2VpZ2h0PSJub3JtYWwiIGZvbnQtc3R5bGU9Im5vcm1hbCIgZm9udC1zaXplPSIxMnB4IiBmb250LWZhbWlseT0iZ2VvZ2VicmEtc2Fucy1zZXJpZiwgc2Fucy1zZXJpZiIgc3Ryb2tlPSJyZ2IoMjU1LDI1NSwyNTUpIiBmaWxsPSJub25lIj40PC90ZXh0Pjx0ZXh0IGZpbGwtb3BhY2l0eT0iMSIgdGV4dC1hbmNob3I9InN0YXJ0IiB5PSIyNjUiIHg9Ijk3OCIgdGV4dC1kZWNvcmF0aW9uPSJub3JtYWwiIGZvbnQtd2VpZ2h0PSJub3JtYWwiIGZvbnQtc3R5bGU9Im5vcm1hbCIgZm9udC1zaXplPSIxMnB4IiBmb250LWZhbWlseT0iZ2VvZ2VicmEtc2Fucy1zZXJpZiwgc2Fucy1zZXJpZiIgc3Ryb2tlPSJub25lIiBmaWxsPSJyZ2IoMzcsMzcsMzcpIj40PC90ZXh0Pjx0ZXh0IGZpbGwtb3BhY2l0eT0iMSIgdGV4dC1hbmNob3I9InN0YXJ0IiB5PSIyMDIiIHg9Ijk3OCIgdGV4dC1kZWNvcmF0aW9uPSJub3JtYWwiIGZvbnQtd2VpZ2h0PSJub3JtYWwiIGZvbnQtc3R5bGU9Im5vcm1hbCIgZm9udC1zaXplPSIxMnB4IiBmb250LWZhbWlseT0iZ2VvZ2VicmEtc2Fucy1zZXJpZiwgc2Fucy1zZXJpZiIgc3Ryb2tlPSJub25lIiBmaWxsPSJyZ2IoMzcsMzcsMzcpIj41PC90ZXh0Pjx0ZXh0IHN0cm9rZS13aWR0aD0iMyIgc3Ryb2tlLW1pdGVybGltaXQ9IjEwIiBzdHJva2UtbGluZWpvaW49ImJldmVsIiBzdHJva2Utb3BhY2l0eT0iMSIgdGV4dC1hbmNob3I9InN0YXJ0IiB5PSIyMDIiIHg9Ijk3OCIgdGV4dC1kZWNvcmF0aW9uPSJub3JtYWwiIGZvbnQtd2VpZ2h0PSJub3JtYWwiIGZvbnQtc3R5bGU9Im5vcm1hbCIgZm9udC1zaXplPSIxMnB4IiBmb250LWZhbWlseT0iZ2VvZ2VicmEtc2Fucy1zZXJpZiwgc2Fucy1zZXJpZiIgc3Ryb2tlPSJyZ2IoMjU1LDI1NSwyNTUpIiBmaWxsPSJub25lIj41PC90ZXh0Pjx0ZXh0IGZpbGwtb3BhY2l0eT0iMSIgdGV4dC1hbmNob3I9InN0YXJ0IiB5PSIyMDIiIHg9Ijk3OCIgdGV4dC1kZWNvcmF0aW9uPSJub3JtYWwiIGZvbnQtd2VpZ2h0PSJub3JtYWwiIGZvbnQtc3R5bGU9Im5vcm1hbCIgZm9udC1zaXplPSIxMnB4IiBmb250LWZhbWlseT0iZ2VvZ2VicmEtc2Fucy1zZXJpZiwgc2Fucy1zZXJpZiIgc3Ryb2tlPSJub25lIiBmaWxsPSJyZ2IoMzcsMzcsMzcpIj41PC90ZXh0Pjx0ZXh0IGZpbGwtb3BhY2l0eT0iMSIgdGV4dC1hbmNob3I9InN0YXJ0IiB5PSIxMzkiIHg9Ijk3OCIgdGV4dC1kZWNvcmF0aW9uPSJub3JtYWwiIGZvbnQtd2VpZ2h0PSJub3JtYWwiIGZvbnQtc3R5bGU9Im5vcm1hbCIgZm9udC1zaXplPSIxMnB4IiBmb250LWZhbWlseT0iZ2VvZ2VicmEtc2Fucy1zZXJpZiwgc2Fucy1zZXJpZiIgc3Ryb2tlPSJub25lIiBmaWxsPSJyZ2IoMzcsMzcsMzcpIj42PC90ZXh0Pjx0ZXh0IHN0cm9rZS13aWR0aD0iMyIgc3Ryb2tlLW1pdGVybGltaXQ9IjEwIiBzdHJva2UtbGluZWpvaW49ImJldmVsIiBzdHJva2Utb3BhY2l0eT0iMSIgdGV4dC1hbmNob3I9InN0YXJ0IiB5PSIxMzkiIHg9Ijk3OCIgdGV4dC1kZWNvcmF0aW9uPSJub3JtYWwiIGZvbnQtd2VpZ2h0PSJub3JtYWwiIGZvbnQtc3R5bGU9Im5vcm1hbCIgZm9udC1zaXplPSIxMnB4IiBmb250LWZhbWlseT0iZ2VvZ2VicmEtc2Fucy1zZXJpZiwgc2Fucy1zZXJpZiIgc3Ryb2tlPSJyZ2IoMjU1LDI1NSwyNTUpIiBmaWxsPSJub25lIj42PC90ZXh0Pjx0ZXh0IGZpbGwtb3BhY2l0eT0iMSIgdGV4dC1hbmNob3I9InN0YXJ0IiB5PSIxMzkiIHg9Ijk3OCIgdGV4dC1kZWNvcmF0aW9uPSJub3JtYWwiIGZvbnQtd2VpZ2h0PSJub3JtYWwiIGZvbnQtc3R5bGU9Im5vcm1hbCIgZm9udC1zaXplPSIxMnB4IiBmb250LWZhbWlseT0iZ2VvZ2VicmEtc2Fucy1zZXJpZiwgc2Fucy1zZXJpZiIgc3Ryb2tlPSJub25lIiBmaWxsPSJyZ2IoMzcsMzcsMzcpIj42PC90ZXh0Pjx0ZXh0IGZpbGwtb3BhY2l0eT0iMSIgdGV4dC1hbmNob3I9InN0YXJ0IiB5PSI3NiIgeD0iOTc4IiB0ZXh0LWRlY29yYXRpb249Im5vcm1hbCIgZm9udC13ZWlnaHQ9Im5vcm1hbCIgZm9udC1zdHlsZT0ibm9ybWFsIiBmb250LXNpemU9IjEycHgiIGZvbnQtZmFtaWx5PSJnZW9nZWJyYS1zYW5zLXNlcmlmLCBzYW5zLXNlcmlmIiBzdHJva2U9Im5vbmUiIGZpbGw9InJnYigzNywzNywzNykiPjc8L3RleHQ+PHRleHQgc3Ryb2tlLXdpZHRoPSIzIiBzdHJva2UtbWl0ZXJsaW1pdD0iMTAiIHN0cm9rZS1saW5lam9pbj0iYmV2ZWwiIHN0cm9rZS1vcGFjaXR5PSIxIiB0ZXh0LWFuY2hvcj0ic3RhcnQiIHk9Ijc2IiB4PSI5NzgiIHRleHQtZGVjb3JhdGlvbj0ibm9ybWFsIiBmb250LXdlaWdodD0ibm9ybWFsIiBmb250LXN0eWxlPSJub3JtYWwiIGZvbnQtc2l6ZT0iMTJweCIgZm9udC1mYW1pbHk9Imdlb2dlYnJhLXNhbnMtc2VyaWYsIHNhbnMtc2VyaWYiIHN0cm9rZT0icmdiKDI1NSwyNTUsMjU1KSIgZmlsbD0ibm9uZSI+NzwvdGV4dD48dGV4dCBmaWxsLW9wYWNpdHk9IjEiIHRleHQtYW5jaG9yPSJzdGFydCIgeT0iNzYiIHg9Ijk3OCIgdGV4dC1kZWNvcmF0aW9uPSJub3JtYWwiIGZvbnQtd2VpZ2h0PSJub3JtYWwiIGZvbnQtc3R5bGU9Im5vcm1hbCIgZm9udC1zaXplPSIxMnB4IiBmb250LWZhbWlseT0iZ2VvZ2VicmEtc2Fucy1zZXJpZiwgc2Fucy1zZXJpZiIgc3Ryb2tlPSJub25lIiBmaWxsPSJyZ2IoMzcsMzcsMzcpIj43PC90ZXh0Pjx0ZXh0IGZpbGwtb3BhY2l0eT0iMSIgdGV4dC1hbmNob3I9InN0YXJ0IiB5PSI1MjgiIHg9Ijk3OCIgdGV4dC1kZWNvcmF0aW9uPSJub3JtYWwiIGZvbnQtd2VpZ2h0PSJub3JtYWwiIGZvbnQtc3R5bGU9Im5vcm1hbCIgZm9udC1zaXplPSIxMnB4IiBmb250LWZhbWlseT0iZ2VvZ2VicmEtc2Fucy1zZXJpZiwgc2Fucy1zZXJpZiIgc3Ryb2tlPSJub25lIiBmaWxsPSJyZ2IoMzcsMzcsMzcpIj4wPC90ZXh0Pjx0ZXh0IHN0cm9rZS13aWR0aD0iMyIgc3Ryb2tlLW1pdGVybGltaXQ9IjEwIiBzdHJva2UtbGluZWpvaW49ImJldmVsIiBzdHJva2Utb3BhY2l0eT0iMSIgdGV4dC1hbmNob3I9InN0YXJ0IiB5PSI1MjgiIHg9Ijk3OCIgdGV4dC1kZWNvcmF0aW9uPSJub3JtYWwiIGZvbnQtd2VpZ2h0PSJub3JtYWwiIGZvbnQtc3R5bGU9Im5vcm1hbCIgZm9udC1zaXplPSIxMnB4IiBmb250LWZhbWlseT0iZ2VvZ2VicmEtc2Fucy1zZXJpZiwgc2Fucy1zZXJpZiIgc3Ryb2tlPSJyZ2IoMjU1LDI1NSwyNTUpIiBmaWxsPSJub25lIj4wPC90ZXh0Pjx0ZXh0IGZpbGwtb3BhY2l0eT0iMSIgdGV4dC1hbmNob3I9InN0YXJ0IiB5PSI1MjgiIHg9Ijk3OCIgdGV4dC1kZWNvcmF0aW9uPSJub3JtYWwiIGZvbnQtd2VpZ2h0PSJub3JtYWwiIGZvbnQtc3R5bGU9Im5vcm1hbCIgZm9udC1zaXplPSIxMnB4IiBmb250LWZhbWlseT0iZ2VvZ2VicmEtc2Fucy1zZXJpZiwgc2Fucy1zZXJpZiIgc3Ryb2tlPSJub25lIiBmaWxsPSJyZ2IoMzcsMzcsMzcpIj4wPC90ZXh0PjxwYXRoIHN0cm9rZS13aWR0aD0iMi41IiBzdHJva2UtbWl0ZXJsaW1pdD0iMTAiIHN0cm9rZS1saW5lam9pbj0icm91bmQiIHN0cm9rZS1saW5lY2FwPSJyb3VuZCIgc3Ryb2tlLW9wYWNpdHk9IjAuNjk4MDM5MjE1Njg2Mjc0NSIgZD0iTSA4NjkuNTQ2ODIxODAwNDE1MyA0NTcuMTkyNjI3NzAxMzExNCBDIDg2OC4zMDAyNzU3MTgyNDIxIDM5Ni4xMTE4Njk2NzQ4Mjg0IDc4Mi4yODI0NTY5NzI1MDcxIDM0OC4zMzA5NzQ2MDQ4MTQyIDY3Ny40MjA2NDYyNjA4ODIyIDM1MC40NzEwMTE1NTgxMTI2NSBDIDU3Mi41NTg4MzU1NDkyNTcyIDM1Mi42MTEwNDg1MTE0MTExIDQ4OC41NjIwNjczMjU3MzQwNiA0MDMuODYxNjI5MDI5Nzc3NjUgNDg5LjgwODYxMzQwNzkwNzE2IDQ2NC45NDIzODcwNTYyNjA1IEMgNDkxLjA1NTE1OTQ5MDA4MDMgNTI2LjAyMzE0NTA4Mjc0MzQgNTc3LjA3Mjk3ODIzNTgxNTMgNTczLjgwNDA0MDE1Mjc1NzcgNjgxLjkzNDc4ODk0NzQ0MDIgNTcxLjY2NDAwMzE5OTQ1OTIgQyA3ODYuNzk2NTk5NjU5MDY1MiA1NjkuNTIzOTY2MjQ2MTYwNyA4NzAuNzkzMzY3ODgyNTg4NCA1MTguMjczMzg1NzI3Nzk0MiA4NjkuNTQ2ODIxODAwNDE1MyA0NTcuMTkyNjI3NzAxMzExNCBaIiBwYWludC1vcmRlcj0iZmlsbCBzdHJva2UgbWFya2VycyIgc3Ryb2tlPSJyZ2IoMCwwLDApIiBmaWxsPSJub25lIi8+PHBhdGggc3Ryb2tlLXdpZHRoPSIyLjUiIHN0cm9rZS1taXRlcmxpbWl0PSIxMCIgc3Ryb2tlLWxpbmVqb2luPSJyb3VuZCIgc3Ryb2tlLWxpbmVjYXA9InJvdW5kIiBzdHJva2Utb3BhY2l0eT0iMC42OTgwMzkyMTU2ODYyNzQ1IiBkPSJNIDQxMC42OTcyNTA0NjA0OTQ1IDU3Mi41NjUyNjU0MjE5NDU1IEMgNDgxLjMyMTE5MjkyMjI3MyA2MjQuNzUwNDQ0NTgwODk1MiA1ODAuODc3NjU2NTUxNDYxMyA2MDkuODAyODczNTU0NDE2NSA2MzMuMDYyODM1NzEwNDEwOSA1MzkuMTc4OTMxMDkyNjM3OSBDIDY4NS4yNDgwMTQ4NjkzNjA1IDQ2OC41NTQ5ODg2MzA4NTkyIDY3MC4zMDA0NDM4NDI4ODE5IDM2OC45OTg1MjUwMDE2NzA2IDU5OS42NzY1MDEzODExMDM0IDMxNi44MTMzNDU4NDI3MjA4IiBwYWludC1vcmRlcj0iZmlsbCBzdHJva2UgbWFya2VycyIgc3Ryb2tlPSJyZ2IoMCwwLDApIiBmaWxsPSJub25lIi8+PHBhdGggc3Ryb2tlLXdpZHRoPSIyLjUiIHN0cm9rZS1taXRlcmxpbWl0PSIxMCIgc3Ryb2tlLWxpbmVqb2luPSJyb3VuZCIgc3Ryb2tlLWxpbmVjYXA9InJvdW5kIiBzdHJva2Utb3BhY2l0eT0iMC44IiBkPSJNIDEgLTQ3MDIuNDQ5NjQ4ODY0MzE4IEwgMSAtNDY5MS45NDg0NjA2Mjg0NDMgTCAxIC00NjkxLjk0ODQ2MDYyODQ0NCBMIDIgLTQ2ODEuNDU3ODU1NTY1MDA2IEwgMiAtNDY4MS40NTc4NTU1NjUwMDcgTCAzIC00NjcwLjk3NzgzMzY3NDAxMSBMIDMgLTQ2NzAuOTc3ODMzNjc0MDEyIEwgNCAtNDY2MC41MDgzOTQ5NTU0NTUgTCA0IC00NjYwLjUwODM5NDk1NTQ1NTUgTCA1IC00NjUwLjA0OTUzOTQwOTMzOSBMIDUgLTQ2NTAuMDQ5NTM5NDA5MzQgTCA2IC00NjM5LjYwMTI2NzAzNTY2MiBMIDYgLTQ2MzkuNjAxMjY3MDM1NjYzIEwgNi45OTk5OTk5OTk5OTk4ODYgLTQ2MjkuMTYzNTc3ODM0NDI1IEwgNi45OTk5OTk5OTk5OTk4ODYgLTQ2MjkuMTYzNTc3ODM0NDI2IEwgOCAtNDYxOC43MzY0NzE4MDU2MjYgTCA4IC00NjE4LjczNjQ3MTgwNTYyNyBMIDkgLTQ2MDguMzE5OTQ4OTQ5MjY4IEwgOSAtNDYwOC4zMTk5NDg5NDkyNyBMIDEwIC00NTk3LjkxNDAwOTI2NTM1MSBMIDEwIC00NTk3LjkxNDAwOTI2NTM1MTUgTCAxMSAtNDU4Ny41MTg2NTI3NTM4NzIgTCAxMSAtNDU4Ny41MTg2NTI3NTM4NzMgTCAxMS45OTk5OTk5OTk5OTk4ODYgLTQ1NzcuMTMzODc5NDE0ODMzIEwgMTEuOTk5OTk5OTk5OTk5ODg2IC00NTc3LjEzMzg3OTQxNDgzNCBMIDEzIC00NTY2Ljc1OTY4OTI0ODIzMiBMIDEzIC00NTY2Ljc1OTY4OTI0ODIzMyBMIDE0IC00NTU2LjM5NjA4MjI1NDA3MiBMIDE0IC00NTU2LjM5NjA4MjI1NDA3MyBMIDE1IC00NTQ2LjA0MzA1ODQzMjM1MiBMIDE1IC00NTQ2LjA0MzA1ODQzMjM1NCBMIDE2IC00NTM1LjcwMDYxNzc4MzA3MiBMIDE2IC00NTM1LjcwMDYxNzc4MzA3MyBMIDE3IC00NTI1LjM2ODc2MDMwNjIzMSBMIDE3IC00NTI1LjM2ODc2MDMwNjIzMiBMIDE4IC00NTE1LjA0NzQ4NjAwMTgyOCBMIDE4IC00NTE1LjA0NzQ4NjAwMTgyOSBMIDE5IC00NTA0LjczNjc5NDg2OTg2NyBMIDE5IC00NTA0LjczNjc5NDg2OTg2NzUgTCAyMCAtNDQ5NC40MzY2ODY5MTAzNDQgTCAyMCAtNDQ5NC40MzY2ODY5MTAzNDUgTCAyMSAtNDQ4NC4xNDcxNjIxMjMyNjEgTCAyMSAtNDQ4NC4xNDcxNjIxMjMyNjMgTCAyMiAtNDQ3My44NjgyMjA1MDg2MTkgTCAyMiAtNDQ3My44NjgyMjA1MDg2MjEgTCAyMyAtNDQ2My41OTk4NjIwNjY0MTMgTCAyMyAtNDQ2My41OTk4NjIwNjY0MTUgTCAyNCAtNDQ1My4zNDIwODY3OTY2NSBMIDI0IC00NDUzLjM0MjA4Njc5NjY1MTUgTCAyNSAtNDQ0My4wOTQ4OTQ2OTkzMjYgTCAyNSAtNDQ0My4wOTQ4OTQ2OTkzMjcgTCAyNiAtNDQzMi44NTgyODU3NzQ0NDEgTCAyNiAtNDQzMi44NTgyODU3NzQ0NDIgTCAyNyAtNDQyMi42MzIyNjAwMjE5OTYgTCAyNyAtNDQyMi42MzIyNjAwMjE5OTcgTCAyOCAtNDQxMi40MTY4MTc0NDE5OSBMIDI4IC00NDEyLjQxNjgxNzQ0MTk5MSBMIDI5IC00NDAyLjIxMTk1ODAzNDQyNCBMIDI5IC00NDAyLjIxMTk1ODAzNDQyNSBMIDMwIC00MzkyLjAxNzY4MTc5OTI5OCBMIDMwIC00MzkyLjAxNzY4MTc5OTI5OSBMIDMxIC00MzgxLjgzMzk4ODczNjYxMiBMIDMxIC00MzgxLjgzMzk4ODczNjYxMyBMIDMyIC00MzcxLjY2MDg3ODg0NjM2NDUgTCAzMiAtNDM3MS42NjA4Nzg4NDYzNjYgTCAzMi45OTk5OTk5OTk5OTk4ODYgLTQzNjEuNDk4MzUyMTI4NTU3IEwgMzIuOTk5OTk5OTk5OTk5ODg2IC00MzYxLjQ5ODM1MjEyODU1OCBMIDM0IC00MzUxLjM0NjQwODU4MzE4OSBMIDM0IC00MzUxLjM0NjQwODU4MzE5IEwgMzUgLTQzNDEuMjA1MDQ4MjEwMjYgTCAzNSAtNDM0MS4yMDUwNDgyMTAyNjEgTCAzNiAtNDMzMS4wNzQyNzEwMDk3NzIgTCAzNiAtNDMzMS4wNzQyNzEwMDk3NzMgTCAzNyAtNDMyMC45NTQwNzY5ODE3MjMgTCAzNyAtNDMyMC45NTQwNzY5ODE3MjQgTCAzNy45OTk5OTk5OTk5OTk4ODYgLTQzMTAuODQ0NDY2MTI2MTEzIEwgMzcuOTk5OTk5OTk5OTk5ODg2IC00MzEwLjg0NDQ2NjEyNjExNSBMIDM5IC00MzAwLjc0NTQzODQ0Mjk0MiBMIDM5IC00MzAwLjc0NTQzODQ0Mjk0NCBMIDQwIC00MjkwLjY1Njk5MzkzMjIxMyBMIDQwIC00MjkwLjY1Njk5MzkzMjIxMzUgTCA0MSAtNDI4MC41NzkxMzI1OTM5MjMgTCA0MSAtNDI4MC41NzkxMzI1OTM5MjM1IEwgNDIgLTQyNzAuNTExODU0NDI4MDcxIEwgNDIgLTQyNzAuNTExODU0NDI4MDcyIEwgNDMgLTQyNjAuNDU1MTU5NDM0NjU5IEwgNDMgLTQyNjAuNDU1MTU5NDM0NjYxIEwgNDQgLTQyNTAuNDA5MDQ3NjEzNjg3IEwgNDQgLTQyNTAuNDA5MDQ3NjEzNjg4IEwgNDUgLTQyNDAuMzczNTE4OTY1MTU1IEwgNDUgLTQyNDAuMzczNTE4OTY1MTU2IEwgNDYgLTQyMzAuMzQ4NTczNDg5MDYyIEwgNDYgLTQyMzAuMzQ4NTczNDg5MDY0IEwgNDcgLTQyMjAuMzM0MjExMTg1NDEgTCA0NyAtNDIyMC4zMzQyMTExODU0MTIgTCA0OCAtNDIxMC4zMzA0MzIwNTQxOTY1IEwgNDggLTQyMTAuMzMwNDMyMDU0MTk4IEwgNDkgLTQyMDAuMzM3MjM2MDk1NDIyIEwgNDkgLTQyMDAuMzM3MjM2MDk1NDIzIEwgNTAgLTQxOTAuMzU0NjIzMzA5MDg3IEwgNTAgLTQxOTAuMzU0NjIzMzA5MDg5IEwgNTEgLTQxODAuMzgyNTkzNjk1MTkzNSBMIDUxIC00MTgwLjM4MjU5MzY5NTE5NCBMIDUyIC00MTcwLjQyMTE0NzI1MzczOCBMIDUyIC00MTcwLjQyMTE0NzI1MzczOSBMIDUzIC00MTYwLjQ3MDI4Mzk4NDcyMiBMIDUzIC00MTYwLjQ3MDI4Mzk4NDcyNCBMIDUzLjk5OTk5OTk5OTk5OTg4NiAtNDE1MC41MzAwMDM4ODgxNDggTCA1My45OTk5OTk5OTk5OTk4ODYgLTQxNTAuNTMwMDAzODg4MTQ5IEwgNTUgLTQxNDAuNjAwMzA2OTY0MDEgTCA1NSAtNDE0MC42MDAzMDY5NjQwMTEgTCA1NiAtNDEzMC42ODExOTMyMTIzMTQgTCA1NiAtNDEzMC42ODExOTMyMTIzMTUgTCA1NyAtNDEyMC43NzI2NjI2MzMwNTcgTCA1NyAtNDEyMC43NzI2NjI2MzMwNTggTCA1OCAtNDExMC44NzQ3MTUyMjYyNCBMIDU4IC00MTEwLjg3NDcxNTIyNjI0MSBMIDU4Ljk5OTk5OTk5OTk5OTg4NiAtNDEwMC45ODczNTA5OTE4NjIgTCA1OC45OTk5OTk5OTk5OTk4ODYgLTQxMDAuOTg3MzUwOTkxODYyNSBMIDYwIC00MDkxLjExMDU2OTkyOTkyMzMgTCA2MCAtNDA5MS4xMTA1Njk5Mjk5MjUgTCA2MSAtNDA4MS4yNDQzNzIwNDA0MjQ0IEwgNjEgLTQwODEuMjQ0MzcyMDQwNDI2MiBMIDYyIC00MDcxLjM4ODc1NzMyMzM2NSBMIDYyIC00MDcxLjM4ODc1NzMyMzM2NiBMIDYzIC00MDYxLjU0MzcyNTc3ODc0NiBMIDYzIC00MDYxLjU0MzcyNTc3ODc0OCBMIDY0IC00MDUxLjcwOTI3NzQwNjU2NyBMIDY0IC00MDUxLjcwOTI3NzQwNjU2NzcgTCA2NSAtNDA0MS44ODU0MTIyMDY4MjUgTCA2NSAtNDA0MS44ODU0MTIyMDY4MjcgTCA2NiAtNDAzMi4wNzIxMzAxNzk1MjQ3IEwgNjYgLTQwMzIuMDcyMTMwMTc5NTI2NSBMIDY3IC00MDIyLjI2OTQzMTMyNDY2NDggTCA2NyAtNDAyMi4yNjk0MzEzMjQ2NjU3IEwgNjggLTQwMTIuNDc3MzE1NjQyMjQzNCBMIDY4IC00MDEyLjQ3NzMxNTY0MjI0NDMgTCA2OSAtNDAwMi42OTU3ODMxMzIyNjE2IEwgNjkgLTQwMDIuNjk1NzgzMTMyMjYyNSBMIDcwIC0zOTkyLjkyNDgzMzc5NDcxODMgTCA3MCAtMzk5Mi45MjQ4MzM3OTQ3MTkyIEwgNzEgLTM5ODMuMTY0NDY3NjI5NjE2NCBMIDcxIC0zOTgzLjE2NDQ2NzYyOTYxNzMgTCA3MiAtMzk3My40MTQ2ODQ2MzY5NTMgTCA3MiAtMzk3My40MTQ2ODQ2MzY5NTQgTCA3MyAtMzk2My42NzU0ODQ4MTY3MyBMIDczIC0zOTYzLjY3NTQ4NDgxNjczMSBMIDc0IC0zOTUzLjk0Njg2ODE2ODk0NiBMIDc0IC0zOTUzLjk0Njg2ODE2ODk0NzcgTCA3NSAtMzk0NC4yMjg4MzQ2OTM2MDEgTCA3NSAtMzk0NC4yMjg4MzQ2OTM2MDMgTCA3NiAtMzkzNC41MjEzODQzOTA2OTc3IEwgNzYgLTM5MzQuNTIxMzg0MzkwNjk4NiBMIDc3IC0zOTI0LjgyNDUxNzI2MDIzMyBMIDc3IC0zOTI0LjgyNDUxNzI2MDIzMzcgTCA3OCAtMzkxNS4xMzgyMzMzMDIyMDc1IEwgNzggLTM5MTUuMTM4MjMzMzAyMjA4NCBMIDc5IC0zOTA1LjQ2MjUzMjUxNjYyMTYgTCA3OSAtMzkwNS40NjI1MzI1MTY2MjM1IEwgNzkuOTk5OTk5OTk5OTk5ODkgLTM4OTUuNzk3NDE0OTAzNDc1MyBMIDc5Ljk5OTk5OTk5OTk5OTg5IC0zODk1Ljc5NzQxNDkwMzQ3NjIgTCA4MSAtMzg4Ni4xNDI4ODA0NjI3Njg1IEwgODEgLTM4ODYuMTQyODgwNDYyNzY5NCBMIDgyIC0zODc2LjQ5ODkyOTE5NDUwMiBMIDgyIC0zODc2LjQ5ODkyOTE5NDUwMyBMIDgzIC0zODY2Ljg2NTU2MTA5ODY3NDMgTCA4MyAtMzg2Ni44NjU1NjEwOTg2NzYgTCA4NCAtMzg1Ny4yNDI3NzYxNzUyODcgTCA4NCAtMzg1Ny4yNDI3NzYxNzUyODggTCA4NC45OTk5OTk5OTk5OTk4OSAtMzg0Ny42MzA1NzQ0MjQzMzkgTCA4NC45OTk5OTk5OTk5OTk4OSAtMzg0Ny42MzA1NzQ0MjQzNCBMIDg2IC0zODM4LjAyODk1NTg0NTgzIEwgODYgLTM4MzguMDI4OTU1ODQ1ODMwOCBMIDg3IC0zODI4LjQzNzkyMDQzOTc2MSBMIDg3IC0zODI4LjQzNzkyMDQzOTc2MiBMIDg4IC0zODE4Ljg1NzQ2ODIwNjEzMjYgTCA4OCAtMzgxOC44NTc0NjgyMDYxMzM1IEwgODkgLTM4MDkuMjg3NTk5MTQ0OTQyIEwgODkgLTM4MDkuMjg3NTk5MTQ0OTQyOCBMIDkwIC0zNzk5LjcyODMxMzI1NjE5MjUgTCA5MCAtMzc5OS43MjgzMTMyNTYxOTM0IEwgOTEgLTM3OTAuMTc5NjEwNTM5ODgxNyBMIDkxIC0zNzkwLjE3OTYxMDUzOTg4MjYgTCA5MiAtMzc4MC42NDE0OTA5OTYwMTA0IEwgOTIgLTM3ODAuNjQxNDkwOTk2MDExMyBMIDkzIC0zNzcxLjExMzk1NDYyNDU3OTUgTCA5MyAtMzc3MS4xMTM5NTQ2MjQ1ODA0IEwgOTQgLTM3NjEuNTk3MDAxNDI1NTg3IEwgOTQgLTM3NjEuNTk3MDAxNDI1NTg5IEwgOTUgLTM3NTIuMDkwNjMxMzk5MDM1NCBMIDk1IC0zNzUyLjA5MDYzMTM5OTAzNyBMIDk2IC0zNzQyLjU5NDg0NDU0NDkyMiBMIDk2IC0zNzQyLjU5NDg0NDU0NDkyMyBMIDk3IC0zNzMzLjEwOTY0MDg2MzI1IEwgOTcgLTM3MzMuMTA5NjQwODYzMjUxIEwgOTggLTM3MjMuNjM1MDIwMzU0MDE2IEwgOTggLTM3MjMuNjM1MDIwMzU0MDE4IEwgOTkgLTM3MTQuMTcwOTgzMDE3MjI0IEwgOTkgLTM3MTQuMTcwOTgzMDE3MjI1IEwgMTAwIC0zNzA0LjcxNzUyODg1Mjg2OTcgTCAxMDAgLTM3MDQuNzE3NTI4ODUyODY5NyBMIDEwMC45OTk5OTk5OTk5OTk4OSAtMzY5NS4yNzQ2NTc4NjA5NTUgTCAxMDAuOTk5OTk5OTk5OTk5ODkgLTM2OTUuMjc0NjU3ODYwOTU2IEwgMTAyIC0zNjg1Ljg0MjM3MDA0MTQ3OTYgTCAxMDIgLTM2ODUuODQyMzcwMDQxNDgwNSBMIDEwMyAtMzY3Ni40MjA2NjUzOTQ0NDQgTCAxMDMgLTM2NzYuNDIwNjY1Mzk0NDQ1NyBMIDEwNCAtMzY2Ny4wMDk1NDM5MTk4NDg1IEwgMTA0IC0zNjY3LjAwOTU0MzkxOTg0OTQgTCAxMDUgLTM2NTcuNjA5MDA1NjE3NjkyNyBMIDEwNSAtMzY1Ny42MDkwMDU2MTc2OTQ1IEwgMTA1Ljk5OTk5OTk5OTk5OTg5IC0zNjQ4LjIxOTA1MDQ4Nzk3NjMgTCAxMDUuOTk5OTk5OTk5OTk5ODkgLTM2NDguMjE5MDUwNDg3OTc3MyBMIDEwNyAtMzYzOC44Mzk2Nzg1MzA2OTg2IEwgMTA3IC0zNjM4LjgzOTY3ODUzMDcwMDQgTCAxMDggLTM2MjkuNDcwODg5NzQ1ODYyIEwgMTA4IC0zNjI5LjQ3MDg4OTc0NTg2MyBMIDEwOSAtMzYyMC4xMTI2ODQxMzM0NjUzIEwgMTA5IC0zNjIwLjExMjY4NDEzMzQ2NjIgTCAxMTAgLTM2MTAuNzY1MDYxNjkzNTA2IEwgMTEwIC0zNjEwLjc2NTA2MTY5MzUwOCBMIDExMSAtMzYwMS40MjgwMjI0MjU5ODkgTCAxMTEgLTM2MDEuNDI4MDIyNDI1OTkgTCAxMTIgLTM1OTIuMTAxNTY2MzMwOTA5IEwgMTEyIC0zNTkyLjEwMTU2NjMzMDkxIEwgMTEzIC0zNTgyLjc4NTY5MzQwODI3IEwgMTEzIC0zNTgyLjc4NTY5MzQwODI3MSBMIDExNCAtMzU3My40ODA0MDM2NTgwNzEgTCAxMTQgLTM1NzMuNDgwNDAzNjU4MDcxNyBMIDExNSAtMzU2NC4xODU2OTcwODAzMSBMIDExNSAtMzU2NC4xODU2OTcwODAzMTIgTCAxMTYgLTM1NTQuOTAxNTczNjc0OTkwNyBMIDExNiAtMzU1NC45MDE1NzM2NzQ5OTE2IEwgMTE3IC0zNTQ1LjYyODAzMzQ0MjEwOSBMIDExNyAtMzU0NS42MjgwMzM0NDIxMSBMIDExOCAtMzUzNi4zNjUwNzYzODE2Njg2IEwgMTE4IC0zNTM2LjM2NTA3NjM4MTY2ODYgTCAxMTkgLTM1MjcuMTEyNzAyNDkzNjY2IEwgMTE5IC0zNTI3LjExMjcwMjQ5MzY2NzcgTCAxMjAgLTM1MTcuODcwOTExNzc4MTA0NSBMIDEyMCAtMzUxNy44NzA5MTE3NzgxMDYzIEwgMTIxIC0zNTA4LjYzOTcwNDIzNDk4MjcgTCAxMjEgLTM1MDguNjM5NzA0MjM0OTgzNiBMIDEyMiAtMzQ5OS40MTkwNzk4NjQyOTg1IEwgMTIyIC0zNDk5LjQxOTA3OTg2NDMwMDMgTCAxMjMgLTM0OTAuMjA5MDM4NjY2MDU2NiBMIDEyMyAtMzQ5MC4yMDkwMzg2NjYwNTc1IEwgMTI0IC0zNDgxLjAwOTU4MDY0MDI1MjQgTCAxMjQgLTM0ODEuMDA5NTgwNjQwMjUzMyBMIDEyNSAtMzQ3MS44MjA3MDU3ODY4ODk0IEwgMTI1IC0zNDcxLjgyMDcwNTc4Njg5MDQgTCAxMjYgLTM0NjIuNjQyNDE0MTA1OTY1IEwgMTI2IC0zNDYyLjY0MjQxNDEwNTk2NiBMIDEyNi45OTk5OTk5OTk5OTk4OSAtMzQ1My40NzQ3MDU1OTc0ODA0IEwgMTI2Ljk5OTk5OTk5OTk5OTg5IC0zNDUzLjQ3NDcwNTU5NzQ4MTMgTCAxMjggLTM0NDQuMzE3NTgwMjYxNDM0IEwgMTI4IC0zNDQ0LjMxNzU4MDI2MTQzNiBMIDEyOSAtMzQzNS4xNzEwMzgwOTc4Mjg0IEwgMTI5IC0zNDM1LjE3MTAzODA5NzgyOTMgTCAxMzAgLTM0MjYuMDM1MDc5MTA2NjYzIEwgMTMwIC0zNDI2LjAzNTA3OTEwNjY2NCBMIDEzMSAtMzQxNi45MDk3MDMyODc5MzYzIEwgMTMxIC0zNDE2LjkwOTcwMzI4NzkzOCBMIDEzMiAtMzQwNy43OTQ5MTA2NDE2NSBMIDEzMiAtMzQwNy43OTQ5MTA2NDE2NTE4IEwgMTMzIC0zMzk4LjY5MDcwMTE2NzgwMiBMIDEzMyAtMzM5OC42OTA3MDExNjc4MDQgTCAxMzQgLTMzODkuNTk3MDc0ODY2Mzk1IEwgMTM0IC0zMzg5LjU5NzA3NDg2NjM5NiBMIDEzNSAtMzM4MC41MTQwMzE3Mzc0MjcgTCAxMzUgLTMzODAuNTE0MDMxNzM3NDI5IEwgMTM2IC0zMzcxLjQ0MTU3MTc4MDg5OSBMIDEzNiAtMzM3MS40NDE1NzE3ODA4OTk3IEwgMTM3IC0zMzYyLjM3OTY5NDk5NjgxMSBMIDEzNyAtMzM2Mi4zNzk2OTQ5OTY4MTIgTCAxMzggLTMzNTMuMzI4NDAxMzg1MTYwOCBMIDEzOCAtMzM1My4zMjg0MDEzODUxNjE3IEwgMTM5IC0zMzQ0LjI4NzY5MDk0NTk1MiBMIDEzOSAtMzM0NC4yODc2OTA5NDU5NTMgTCAxNDAgLTMzMzUuMjU3NTYzNjc5MTgxNyBMIDE0MCAtMzMzNS4yNTc1NjM2NzkxODI2IEwgMTQxIC0zMzI2LjIzODAxOTU4NDg1MiBMIDE0MSAtMzMyNi4yMzgwMTk1ODQ4NTI3IEwgMTQyIC0zMzE3LjIyOTA1ODY2Mjk2MDYgTCAxNDIgLTMzMTcuMjI5MDU4NjYyOTYyNCBMIDE0MyAtMzMwOC4yMzA2ODA5MTM1MDkgTCAxNDMgLTMzMDguMjMwNjgwOTEzNTEgTCAxNDQgLTMyOTkuMjQyODg2MzM2NDk3NiBMIDE0NCAtMzI5OS4yNDI4ODYzMzY0OTg1IEwgMTQ1IC0zMjkwLjI2NTY3NDkzMTkyNiBMIDE0NSAtMzI5MC4yNjU2NzQ5MzE5Mjc2IEwgMTQ2IC0zMjgxLjI5OTA0NjY5OTc5NDQgTCAxNDYgLTMyODEuMjk5MDQ2Njk5Nzk1MyBMIDE0NyAtMzI3Mi4zNDMwMDE2NDAxMDA3IEwgMTQ3IC0zMjcyLjM0MzAwMTY0MDEwMjYgTCAxNDcuOTk5OTk5OTk5OTk5OSAtMzI2My4zOTc1Mzk3NTI4NDg0IEwgMTQ3Ljk5OTk5OTk5OTk5OTkgLTMyNjMuMzk3NTM5NzUyODUgTCAxNDkgLTMyNTQuNDYyNjYxMDM4MDMzNyBMIDE0OSAtMzI1NC40NjI2NjEwMzgwMzU1IEwgMTUwIC0zMjQ1LjUzODM2NTQ5NTY2MDQgTCAxNTAgLTMyNDUuNTM4MzY1NDk1NjYxMyBMIDE1MSAtMzIzNi42MjQ2NTMxMjU3MjY2IEwgMTUxIC0zMjM2LjYyNDY1MzEyNTcyNzUgTCAxNTIgLTMyMjcuNzIxNTIzOTI4MjMxNCBMIDE1MiAtMzIyNy43MjE1MjM5MjgyMzMgTCAxNTIuOTk5OTk5OTk5OTk5OSAtMzIxOC44Mjg5Nzc5MDMxNzc1IEwgMTUyLjk5OTk5OTk5OTk5OTkgLTMyMTguODI4OTc3OTAzMTc4NCBMIDE1NCAtMzIwOS45NDcwMTUwNTA1NjEzIEwgMTU0IC0zMjA5Ljk0NzAxNTA1MDU2MiBMIDE1NSAtMzIwMS4wNzU2MzUzNzAzODU1IEwgMTU1IC0zMjAxLjA3NTYzNTM3MDM4NjQgTCAxNTYgLTMxOTIuMjE0ODM4ODYyNjQ5MiBMIDE1NiAtMzE5Mi4yMTQ4Mzg4NjI2NSBMIDE1NyAtMzE4My4zNjQ2MjU1MjczNTI1IEwgMTU3IC0zMTgzLjM2NDYyNTUyNzM1NDMgTCAxNTggLTMxNzQuNTI0OTk1MzY0NDk2IEwgMTU4IC0zMTc0LjUyNDk5NTM2NDQ5NyBMIDE1OSAtMzE2NS42OTU5NDgzNzQwNzc1IEwgMTU5IC0zMTY1LjY5NTk0ODM3NDA3ODQgTCAxNjAgLTMxNTYuODc3NDg0NTU2MSBMIDE2MCAtMzE1Ni44Nzc0ODQ1NTYxMDEgTCAxNjEgLTMxNDguMDY5NjAzOTEwNTYyNCBMIDE2MSAtMzE0OC4wNjk2MDM5MTA1NjMzIEwgMTYyIC0zMTM5LjI3MjMwNjQzNzQ2MyBMIDE2MiAtMzEzOS4yNzIzMDY0Mzc0NjQgTCAxNjMgLTMxMzAuNDg1NTkyMTM2ODA0NCBMIDE2MyAtMzEzMC40ODU1OTIxMzY4MDYgTCAxNjQgLTMxMjEuNzA5NDYxMDA4NTg0IEwgMTY0IC0zMTIxLjcwOTQ2MTAwODU4NiBMIDE2NSAtMzExMi45NDM5MTMwNTI4MDQ0IEwgMTY1IC0zMTEyLjk0MzkxMzA1MjgwNTMgTCAxNjYgLTMxMDQuMTg4OTQ4MjY5NDY1IEwgMTY2IC0zMTA0LjE4ODk0ODI2OTQ2NiBMIDE2NyAtMzA5NS40NDQ1NjY2NTg1NjQzIEwgMTY3IC0zMDk1LjQ0NDU2NjY1ODU2NiBMIDE2OCAtMzA4Ni43MTA3NjgyMjAxMDMgTCAxNjggLTMwODYuNzEwNzY4MjIwMTA1IEwgMTY4Ljk5OTk5OTk5OTk5OTkgLTMwNzcuOTg3NTUyOTU0MDgyMyBMIDE2OC45OTk5OTk5OTk5OTk5IC0zMDc3Ljk4NzU1Mjk1NDA4MyBMIDE3MCAtMzA2OS4yNzQ5MjA4NjA1IEwgMTcwIC0zMDY5LjI3NDkyMDg2MDUwMSBMIDE3MSAtMzA2MC41NzI4NzE5MzkzNTc0IEwgMTcxIC0zMDYwLjU3Mjg3MTkzOTM1OSBMIDE3MiAtMzA1MS44ODE0MDYxOTA2NTUgTCAxNzIgLTMwNTEuODgxNDA2MTkwNjU3IEwgMTczIC0zMDQzLjIwMDUyMzYxNDM5MjMgTCAxNzMgLTMwNDMuMjAwNTIzNjE0Mzk0IEwgMTczLjk5OTk5OTk5OTk5OTkgLTMwMzQuNTMwMjI0MjEwNTY5IEwgMTczLjk5OTk5OTk5OTk5OTkgLTMwMzQuNTMwMjI0MjEwNTcxIEwgMTc1IC0zMDI1Ljg3MDUwNzk3OTE4NDQgTCAxNzUgLTMwMjUuODcwNTA3OTc5MTg1MyBMIDE3NiAtMzAxNy4yMjEzNzQ5MjAyNDEgTCAxNzYgLTMwMTcuMjIxMzc0OTIwMjQyIEwgMTc3IC0zMDA4LjU4MjgyNTAzMzczNjMgTCAxNzcgLTMwMDguNTgyODI1MDMzNzM4IEwgMTc4IC0yOTk5Ljk1NDg1ODMxOTY3MiBMIDE3OCAtMjk5OS45NTQ4NTgzMTk2NzMgTCAxNzkgLTI5OTEuMzM3NDc0Nzc4MDQ2MyBMIDE3OSAtMjk5MS4zMzc0NzQ3NzgwNDcgTCAxODAgLTI5ODIuNzMwNjc0NDA4ODYgTCAxODAgLTI5ODIuNzMwNjc0NDA4ODYxIEwgMTgxIC0yOTc0LjEzNDQ1NzIxMjExMzQgTCAxODEgLTI5NzQuMTM0NDU3MjEyMTE1IEwgMTgyIC0yOTY1LjU0ODgyMzE4NzgwOCBMIDE4MiAtMjk2NS41NDg4MjMxODc4MDkgTCAxODMgLTI5NTYuOTczNzcyMzM1OTQxMiBMIDE4MyAtMjk1Ni45NzM3NzIzMzU5NDIgTCAxODQgLTI5NDguNDA5MzA0NjU2NTEzIEwgMTg0IC0yOTQ4LjQwOTMwNDY1NjUxNSBMIDE4NSAtMjkzOS44NTU0MjAxNDk1MjUzIEwgMTg1IC0yOTM5Ljg1NTQyMDE0OTUyNjMgTCAxODYgLTI5MzEuMzEyMTE4ODE0OTc3IEwgMTg2IC0yOTMxLjMxMjExODgxNDk3OSBMIDE4NyAtMjkyMi43Nzk0MDA2NTI4NjkzIEwgMTg3IC0yOTIyLjc3OTQwMDY1Mjg3IEwgMTg4IC0yOTE0LjI1NzI2NTY2MzIgTCAxODggLTI5MTQuMjU3MjY1NjYzMjAxIEwgMTg5IC0yOTA1Ljc0NTcxMzg0NTk3MTMgTCAxODkgLTI5MDUuNzQ1NzEzODQ1OTcyIEwgMTkwIC0yODk3LjI0NDc0NTIwMTE4MSBMIDE5MCAtMjg5Ny4yNDQ3NDUyMDExODIgTCAxOTEgLTI4ODguNzU0MzU5NzI4ODMxMyBMIDE5MSAtMjg4OC43NTQzNTk3Mjg4MzIyIEwgMTkyIC0yODgwLjI3NDU1NzQyODkyIEwgMTkyIC0yODgwLjI3NDU1NzQyODkyMSBMIDE5MyAtMjg3MS44MDUzMzgzMDE0NDk0IEwgMTkzIC0yODcxLjgwNTMzODMwMTQ1MTIgTCAxOTQgLTI4NjMuMzQ2NzAyMzQ2NDE4IEwgMTk0IC0yODYzLjM0NjcwMjM0NjQxOSBMIDE5NC45OTk5OTk5OTk5OTk5IC0yODU0Ljg5ODY0OTU2MzgyNjQgTCAxOTQuOTk5OTk5OTk5OTk5OSAtMjg1NC44OTg2NDk1NjM4MjgzIEwgMTk2IC0yODQ2LjQ2MTE3OTk1MzY3NCBMIDE5NiAtMjg0Ni40NjExNzk5NTM2NzUgTCAxOTcgLTI4MzguMDM0MjkzNTE1OTYxNSBMIDE5NyAtMjgzOC4wMzQyOTM1MTU5NjMzIEwgMTk4IC0yODI5LjYxNzk5MDI1MDY4ODMgTCAxOTggLTI4MjkuNjE3OTkwMjUwNjkgTCAxOTkgLTI4MjEuMjEyMjcwMTU3ODU1NSBMIDE5OSAtMjgyMS4yMTIyNzAxNTc4NTY0IEwgMTk5Ljk5OTk5OTk5OTk5OTkgLTI4MTIuODE3MTMzMjM3NDYyMyBMIDE5OS45OTk5OTk5OTk5OTk5IC0yODEyLjgxNzEzMzIzNzQ2NCBMIDIwMSAtMjgwNC40MzI1Nzk0ODk1MDc2IEwgMjAxIC0yODA0LjQzMjU3OTQ4OTUwODUgTCAyMDIgLTI3OTYuMDU4NjA4OTEzOTkzMyBMIDIwMiAtMjc5Ni4wNTg2MDg5MTM5OTQyIEwgMjAzIC0yNzg3LjY5NTIyMTUxMDkxODYgTCAyMDMgLTI3ODcuNjk1MjIxNTEwOTE5NSBMIDIwNCAtMjc3OS4zNDI0MTcyODAyODM0IEwgMjA0IC0yNzc5LjM0MjQxNzI4MDI4NSBMIDIwNSAtMjc3MS4wMDAxOTYyMjIwODg2IEwgMjA1IC0yNzcxLjAwMDE5NjIyMjA4OTUgTCAyMDYgLTI3NjIuNjY4NTU4MzM2MzMwNSBMIDIwNiAtMjc2Mi42Njg1NTgzMzYzMzI0IEwgMjA3IC0yNzU0LjM0NzUwMzYyMzAxNDcgTCAyMDcgLTI3NTQuMzQ3NTAzNjIzMDE2NiBMIDIwOCAtMjc0Ni4wMzcwMzIwODIxMzg1IEwgMjA4IC0yNzQ2LjAzNzAzMjA4MjE0MDMgTCAyMDkgLTI3MzcuNzM3MTQzNzEzNzAxNyBMIDIwOSAtMjczNy43MzcxNDM3MTM3MDI2IEwgMjEwIC0yNzI5LjQ0NzgzODUxNzcwMzUgTCAyMTAgLTI3MjkuNDQ3ODM4NTE3NzA1MyBMIDIxMSAtMjcyMS4xNjkxMTY0OTQxNDUgTCAyMTEgLTI3MjEuMTY5MTE2NDk0MTQ2IEwgMjEyIC0yNzEyLjkwMDk3NzY0MzAyNjYgTCAyMTIgLTI3MTIuOTAwOTc3NjQzMDI4NSBMIDIxMyAtMjcwNC42NDM0MjE5NjQzNDggTCAyMTMgLTI3MDQuNjQzNDIxOTY0MzQ5NyBMIDIxNCAtMjY5Ni4zOTY0NDk0NTgxMDk2IEwgMjE0IC0yNjk2LjM5NjQ0OTQ1ODEwOTYgTCAyMTUgLTI2ODguMTYwMDYwMTI0MzEgTCAyMTUgLTI2ODguMTYwMDYwMTI0MzExIEwgMjE1Ljk5OTk5OTk5OTk5OTkgLTI2NzkuOTM0MjUzOTYyOTQ5NyBMIDIxNS45OTk5OTk5OTk5OTk5IC0yNjc5LjkzNDI1Mzk2Mjk1MTUgTCAyMTcgLTI2NzEuNzE5MDMwOTc0MDI5IEwgMjE3IC0yNjcxLjcxOTAzMDk3NDAzIEwgMjE4IC0yNjYzLjUxNDM5MTE1NzU0OCBMIDIxOCAtMjY2My41MTQzOTExNTc1NDk3IEwgMjE5IC0yNjU1LjMyMDMzNDUxMzUwNyBMIDIxOSAtMjY1NS4zMjAzMzQ1MTM1MDggTCAyMjAgLTI2NDcuMTM2ODYxMDQxOTA2IEwgMjIwIC0yNjQ3LjEzNjg2MTA0MTkwNjcgTCAyMjAuOTk5OTk5OTk5OTk5OSAtMjYzOC45NjM5NzA3NDI3NDQgTCAyMjAuOTk5OTk5OTk5OTk5OSAtMjYzOC45NjM5NzA3NDI3NDUgTCAyMjIgLTI2MzAuODAxNjYzNjE2MDIxIEwgMjIyIC0yNjMwLjgwMTY2MzYxNjAyMiBMIDIyMyAtMjYyMi42NDk5Mzk2NjE3MzgyIEwgMjIzIC0yNjIyLjY0OTkzOTY2MTczOSBMIDIyNCAtMjYxNC41MDg3OTg4Nzk4OTUgTCAyMjQgLTI2MTQuNTA4Nzk4ODc5ODk3IEwgMjI1IC0yNjA2LjM3ODI0MTI3MDQ5MjMgTCAyMjUgLTI2MDYuMzc4MjQxMjcwNDkzIEwgMjI2IC0yNTk4LjI1ODI2NjgzMzUyNyBMIDIyNiAtMjU5OC4yNTgyNjY4MzM1MjkgTCAyMjcgLTI1OTAuMTQ4ODc1NTY5MDAzNCBMIDIyNyAtMjU5MC4xNDg4NzU1NjkwMDQzIEwgMjI4IC0yNTgyLjA1MDA2NzQ3NjkxODIgTCAyMjggLTI1ODIuMDUwMDY3NDc2OTE5IEwgMjI5IC0yNTczLjk2MTg0MjU1NzI3MjYgTCAyMjkgLTI1NzMuOTYxODQyNTU3Mjc0NCBMIDIzMCAtMjU2NS44ODQyMDA4MTAwNjgzIEwgMjMwIC0yNTY1Ljg4NDIwMDgxMDA2OSBMIDIzMSAtMjU1Ny44MTcxNDIyMzUzMDI1IEwgMjMxIC0yNTU3LjgxNzE0MjIzNTMwMzQgTCAyMzIgLTI1NDkuNzYwNjY2ODMyOTc1NCBMIDIzMiAtMjU0OS43NjA2NjY4MzI5NzYzIEwgMjMzIC0yNTQxLjcxNDc3NDYwMzA4ODcgTCAyMzMgLTI1NDEuNzE0Nzc0NjAzMDg5NiBMIDIzNCAtMjUzMy42Nzk0NjU1NDU2NDE1IEwgMjM0IC0yNTMzLjY3OTQ2NTU0NTY0MzMgTCAyMzUgLTI1MjUuNjU0NzM5NjYwNjM0IEwgMjM1IC0yNTI1LjY1NDczOTY2MDYzNTYgTCAyMzYgLTI1MTcuNjQwNTk2OTQ4MDY2NiBMIDIzNiAtMjUxNy42NDA1OTY5NDgwNjc1IEwgMjM3IC0yNTA5LjYzNzAzNzQwNzkzOCBMIDIzNyAtMjUwOS42MzcwMzc0MDc5MzkgTCAyMzggLTI1MDEuNjQ0MDYxMDQwMjQ4NyBMIDIzOCAtMjUwMS42NDQwNjEwNDAyNDk3IEwgMjM5IC0yNDkzLjY2MTY2Nzg0NSBMIDIzOSAtMjQ5My42NjE2Njc4NDUwMDEgTCAyNDAgLTI0ODUuNjg5ODU3ODIyMTkxIEwgMjQwIC0yNDg1LjY4OTg1NzgyMjE5MTcgTCAyNDEgLTI0NzcuNzI4NjMwOTcxODIxIEwgMjQxIC0yNDc3LjcyODYzMDk3MTgyMiBMIDI0MS45OTk5OTk5OTk5OTk5IC0yNDY5Ljc3Nzk4NzI5Mzg5MSBMIDI0MS45OTk5OTk5OTk5OTk5IC0yNDY5Ljc3Nzk4NzI5Mzg5MiBMIDI0MyAtMjQ2MS44Mzc5MjY3ODgzOTkzIEwgMjQzIC0yNDYxLjgzNzkyNjc4ODQwMSBMIDI0NCAtMjQ1My45MDg0NDk0NTUzNDggTCAyNDQgLTI0NTMuOTA4NDQ5NDU1MzQ5IEwgMjQ1IC0yNDQ1Ljk4OTU1NTI5NDczNzMgTCAyNDUgLTI0NDUuOTg5NTU1Mjk0NzM4MiBMIDI0NiAtMjQzOC4wODEyNDQzMDY1NjUgTCAyNDYgLTI0MzguMDgxMjQ0MzA2NTY2IEwgMjQ2Ljk5OTk5OTk5OTk5OTkgLTI0MzAuMTgzNTE2NDkwODMyNSBMIDI0Ni45OTk5OTk5OTk5OTk5IC0yNDMwLjE4MzUxNjQ5MDgzNDMgTCAyNDggLTI0MjIuMjk2MzcxODQ3NTM5NCBMIDI0OCAtMjQyMi4yOTYzNzE4NDc1NDEgTCAyNDkgLTI0MTQuNDE5ODEwMzc2Njg2NyBMIDI0OSAtMjQxNC40MTk4MTAzNzY2ODc2IEwgMjUwIC0yNDA2LjU1MzgzMjA3ODI3MzQgTCAyNTAgLTI0MDYuNTUzODMyMDc4Mjc0NCBMIDI1MSAtMjM5OC42OTg0MzY5NTIyOTk3IEwgMjUxIC0yMzk4LjY5ODQzNjk1MjMwMDcgTCAyNTIgLTIzOTAuODUzNjI0OTk4NzY1NiBMIDI1MiAtMjM5MC44NTM2MjQ5OTg3NjY1IEwgMjUzIC0yMzgzLjAxOTM5NjIxNzY3MSBMIDI1MyAtMjM4My4wMTkzOTYyMTc2NzIgTCAyNTQgLTIzNzUuMTk1NzUwNjA5MDE1IEwgMjU0IC0yMzc1LjE5NTc1MDYwOTAxNjYgTCAyNTUgLTIzNjcuMzgyNjg4MTcyOCBMIDI1NSAtMjM2Ny4zODI2ODgxNzI4MDEgTCAyNTYgLTIzNTkuNTgwMjA4OTA5MDI1IEwgMjU2IC0yMzU5LjU4MDIwODkwOTAyNTcgTCAyNTcgLTIzNTEuNzg4MzEyODE3Njg5IEwgMjU3IC0yMzUxLjc4ODMxMjgxNzY5IEwgMjU4IC0yMzQ0LjAwNjk5OTg5ODc5MSBMIDI1OCAtMjM0NC4wMDY5OTk4OTg3OTIgTCAyNTguOTk5OTk5OTk5OTk5OSAtMjMzNi4yMzYyNzAxNTIzMzUyIEwgMjU4Ljk5OTk5OTk5OTk5OTkgLTIzMzYuMjM2MjcwMTUyMzM2IEwgMjYwIC0yMzI4LjQ3NjEyMzU3ODMxNyBMIDI2MCAtMjMyOC40NzYxMjM1NzgzMTggTCAyNjEgLTIzMjAuNzI2NTYwMTc2NzM5NCBMIDI2MSAtMjMyMC43MjY1NjAxNzY3NDAzIEwgMjYyIC0yMzEyLjk4NzU3OTk0NzYwMTMgTCAyNjIgLTIzMTIuOTg3NTc5OTQ3NjAyIEwgMjYzIC0yMzA1LjI1OTE4Mjg5MDkwMTcgTCAyNjMgLTIzMDUuMjU5MTgyODkwOTAyNiBMIDI2My45OTk5OTk5OTk5OTk5IC0yMjk3LjU0MTM2OTAwNjY0MzQgTCAyNjMuOTk5OTk5OTk5OTk5OSAtMjI5Ny41NDEzNjkwMDY2NDQzIEwgMjY1IC0yMjg5LjgzNDEzODI5NDgyNCBMIDI2NSAtMjI4OS44MzQxMzgyOTQ4MjQ3IEwgMjY2IC0yMjgyLjEzNzQ5MDc1NTQ0MzcgTCAyNjYgLTIyODIuMTM3NDkwNzU1NDQ1NSBMIDI2NyAtMjI3NC40NTE0MjYzODg1MDQgTCAyNjcgLTIyNzQuNDUxNDI2Mzg4NTA1IEwgMjY4IC0yMjY2Ljc3NTk0NTE5NDAwMyBMIDI2OCAtMjI2Ni43NzU5NDUxOTQwMDM3IEwgMjY4Ljk5OTk5OTk5OTk5OTkgLTIyNTkuMTExMDQ3MTcxOTQzIEwgMjY4Ljk5OTk5OTk5OTk5OTkgLTIyNTkuMTExMDQ3MTcxOTQ0IEwgMjcwIC0yMjUxLjQ1NjczMjMyMjMyMSBMIDI3MCAtMjI1MS40NTY3MzIzMjIzMjIgTCAyNzEgLTIyNDMuODEzMDAwNjQ1MTM5MyBMIDI3MSAtMjI0My44MTMwMDA2NDUxNCBMIDI3MiAtMjIzNi4xNzk4NTIxNDAzOTcgTCAyNzIgLTIyMzYuMTc5ODUyMTQwMzk4IEwgMjczIC0yMjI4LjU1NzI4NjgwODA5MzUgTCAyNzMgLTIyMjguNTU3Mjg2ODA4MDk1MyBMIDI3My45OTk5OTk5OTk5OTk5IC0yMjIwLjk0NTMwNDY0ODIzMiBMIDI3My45OTk5OTk5OTk5OTk5IC0yMjIwLjk0NTMwNDY0ODIzMyBMIDI3NSAtMjIxMy4zNDM5MDU2NjA4MDc2IEwgMjc1IC0yMjEzLjM0MzkwNTY2MDgwOTUgTCAyNzYgLTIyMDUuNzUzMDg5ODQ1ODI0NCBMIDI3NiAtMjIwNS43NTMwODk4NDU4MjUzIEwgMjc3IC0yMTk4LjE3Mjg1NzIwMzI4MDcgTCAyNzcgLTIxOTguMTcyODU3MjAzMjgxNiBMIDI3OC4wMDAwMDAwMDAwMDAxIC0yMTkwLjYwMzIwNzczMzE3NDcgTCAyNzguMDAwMDAwMDAwMDAwMSAtMjE5MC42MDMyMDc3MzMxNzU2IEwgMjc4Ljk5OTk5OTk5OTk5OTkgLTIxODMuMDQ0MTQxNDM1NTExIEwgMjc4Ljk5OTk5OTk5OTk5OTkgLTIxODMuMDQ0MTQxNDM1NTEyOCBMIDI4MCAtMjE3NS40OTU2NTgzMTAyODUgTCAyODAgLTIxNzUuNDk1NjU4MzEwMjg2NyBMIDI4MSAtMjE2Ny45NTc3NTgzNTc1IEwgMjgxIC0yMTY3Ljk1Nzc1ODM1NzUgTCAyODIgLTIxNjAuNDMwNDQxNTc3MTU0IEwgMjgyIC0yMTYwLjQzMDQ0MTU3NzE1NSBMIDI4My4wMDAwMDAwMDAwMDAxIC0yMTUyLjkxMzcwNzk2OTI0NjQgTCAyODMuMDAwMDAwMDAwMDAwMSAtMjE1Mi45MTM3MDc5NjkyNDczIEwgMjgzLjk5OTk5OTk5OTk5OTkgLTIxNDUuNDA3NTU3NTMzNzgxIEwgMjgzLjk5OTk5OTk5OTk5OTkgLTIxNDUuNDA3NTU3NTMzNzgxIEwgMjg1IC0yMTM3LjkxMTk5MDI3MDc1MjUgTCAyODUgLTIxMzcuOTExOTkwMjcwNzUzNCBMIDI4NiAtMjEzMC40MjcwMDYxODAxNjUzIEwgMjg2IC0yMTMwLjQyNzAwNjE4MDE2NTMgTCAyODcgLTIxMjIuOTUyNjA1MjYyMDE2NyBMIDI4NyAtMjEyMi45NTI2MDUyNjIwMTc2IEwgMjg4LjAwMDAwMDAwMDAwMDEgLTIxMTUuNDg4Nzg3NTE2MzA3NiBMIDI4OC4wMDAwMDAwMDAwMDAxIC0yMTE1LjQ4ODc4NzUxNjMwODUgTCAyODguOTk5OTk5OTk5OTk5OSAtMjEwOC4wMzU1NTI5NDMwNCBMIDI4OC45OTk5OTk5OTk5OTk5IC0yMTA4LjAzNTU1Mjk0MzA0MSBMIDI5MCAtMjEwMC41OTI5MDE1NDIyMTA3IEwgMjkwIC0yMTAwLjU5MjkwMTU0MjIxMDcgTCAyOTEgLTIwOTMuMTYwODMzMzEzODIgTCAyOTEgLTIwOTMuMTYwODMzMzEzODIxIEwgMjkyIC0yMDg1LjczOTM0ODI1Nzg3MSBMIDI5MiAtMjA4NS43MzkzNDgyNTc4NzEgTCAyOTMgLTIwNzguMzI4NDQ2Mzc0MzYwMyBMIDI5MyAtMjA3OC4zMjg0NDYzNzQzNjEgTCAyOTMuOTk5OTk5OTk5OTk5OSAtMjA3MC45MjgxMjc2NjMyODkgTCAyOTMuOTk5OTk5OTk5OTk5OSAtMjA3MC45MjgxMjc2NjMyOSBMIDI5NSAtMjA2My41MzgzOTIxMjQ2NTc1IEwgMjk1IC0yMDYzLjUzODM5MjEyNDY1ODUgTCAyOTYgLTIwNTYuMTU5MjM5NzU4NDY2NCBMIDI5NiAtMjA1Ni4xNTkyMzk3NTg0NjY0IEwgMjk3IC0yMDQ4Ljc5MDY3MDU2NDcxMzggTCAyOTcgLTIwNDguNzkwNjcwNTY0NzE0NyBMIDI5OCAtMjA0MS40MzI2ODQ1NDM0MDE4IEwgMjk4IC0yMDQxLjQzMjY4NDU0MzQwMjMgTCAyOTkgLTIwMzQuMDg1MjgxNjk0NTI5MiBMIDI5OSAtMjAzNC4wODUyODE2OTQ1MyBMIDMwMCAtMjAyNi43NDg0NjIwMTgwOTUgTCAzMDAgLTIwMjYuNzQ4NDYyMDE4MDk1NiBMIDMwMSAtMjAxOS40MjIyMjU1MTQxMDE1IEwgMzAxIC0yMDE5LjQyMjIyNTUxNDEwMjQgTCAzMDIgLTIwMTIuMTA2NTcyMTgyNTQ3MyBMIDMwMiAtMjAxMi4xMDY1NzIxODI1NDgyIEwgMzAzIC0yMDA0LjgwMTUwMjAyMzQzMzIgTCAzMDMgLTIwMDQuODAxNTAyMDIzNDMzNiBMIDMwNCAtMTk5Ny41MDcwMTUwMzY3NTg1IEwgMzA0IC0xOTk3LjUwNzAxNTAzNjc1OTQgTCAzMDUgLTE5OTAuMjIzMTExMjIyNTIzIEwgMzA1IC0xOTkwLjIyMzExMTIyMjUyMzQgTCAzMDUuOTk5OTk5OTk5OTk5OSAtMTk4Mi45NDk3OTA1ODA3MjgyIEwgMzA1Ljk5OTk5OTk5OTk5OTkgLTE5ODIuOTQ5NzkwNTgwNzI4NiBMIDMwNyAtMTk3NS42ODcwNTMxMTEzNzE2IEwgMzA3IC0xOTc1LjY4NzA1MzExMTM3MiBMIDMwOCAtMTk2OC40MzQ4OTg4MTQ0NTUgTCAzMDggLTE5NjguNDM0ODk4ODE0NDU1NCBMIDMwOSAtMTk2MS4xOTMzMjc2ODk5NzgzIEwgMzA5IC0xOTYxLjE5MzMyNzY4OTk3ODggTCAzMTAgLTE5NTMuOTYyMzM5NzM3OTQwNyBMIDMxMCAtMTk1My45NjIzMzk3Mzc5NDEyIEwgMzEwLjk5OTk5OTk5OTk5OTkgLTE5NDYuNzQxOTM0OTU4MzQzNiBMIDMxMC45OTk5OTk5OTk5OTk5IC0xOTQ2Ljc0MTkzNDk1ODM0NCBMIDMxMiAtMTkzOS41MzIxMTMzNTExODUgTCAzMTIgLTE5MzkuNTMyMTEzMzUxMTg2IEwgMzEzIC0xOTMyLjMzMjg3NDkxNjQ2NzMgTCAzMTMgLTE5MzIuMzMyODc0OTE2NDY3MyBMIDMxNCAtMTkyNS4xNDQyMTk2NTQxODgyIEwgMzE0IC0xOTI1LjE0NDIxOTY1NDE4ODYgTCAzMTUgLTE5MTcuOTY2MTQ3NTY0MzQ4NiBMIDMxNSAtMTkxNy45NjYxNDc1NjQzNDkgTCAzMTUuOTk5OTk5OTk5OTk5OSAtMTkxMC43OTg2NTg2NDY5NSBMIDMxNS45OTk5OTk5OTk5OTk5IC0xOTEwLjc5ODY1ODY0Njk1MDMgTCAzMTcgLTE5MDMuNjQxNzUyOTAxOTg4OSBMIDMxNyAtMTkwMy42NDE3NTI5MDE5ODk4IEwgMzE4IC0xODk2LjQ5NTQzMDMyOTQ2ODcgTCAzMTggLTE4OTYuNDk1NDMwMzI5NDY5MiBMIDMxOSAtMTg4OS4zNTk2OTA5MjkzODggTCAzMTkgLTE4ODkuMzU5NjkwOTI5Mzg5IEwgMzIwLjAwMDAwMDAwMDAwMDEgLTE4ODIuMjM0NTM0NzAxNzQ2NSBMIDMyMC4wMDAwMDAwMDAwMDAxIC0xODgyLjIzNDUzNDcwMTc0NyBMIDMyMC45OTk5OTk5OTk5OTk5IC0xODc1LjExOTk2MTY0NjU0NjIgTCAzMjAuOTk5OTk5OTk5OTk5OSAtMTg3NS4xMTk5NjE2NDY1NDY3IEwgMzIyIC0xODY4LjAxNTk3MTc2Mzc4MzIgTCAzMjIgLTE4NjguMDE1OTcxNzYzNzgzNyBMIDMyMyAtMTg2MC45MjI1NjUwNTM0NjA2IEwgMzIzIC0xODYwLjkyMjU2NTA1MzQ2MSBMIDMyNCAtMTg1My44Mzk3NDE1MTU1Nzg1IEwgMzI0IC0xODUzLjgzOTc0MTUxNTU3OSBMIDMyNS4wMDAwMDAwMDAwMDAxIC0xODQ2Ljc2NzUwMTE1MDEzNDkgTCAzMjUuMDAwMDAwMDAwMDAwMSAtMTg0Ni43Njc1MDExNTAxMzUzIEwgMzI1Ljk5OTk5OTk5OTk5OTkgLTE4MzkuNzA1ODQzOTU3MTMyMiBMIDMyNS45OTk5OTk5OTk5OTk5IC0xODM5LjcwNTg0Mzk1NzEzMjYgTCAzMjcgLTE4MzIuNjU0NzY5OTM2NTY3MiBMIDMyNyAtMTgzMi42NTQ3Njk5MzY1NjggTCAzMjggLTE4MjUuNjE0Mjc5MDg4NDQzIEwgMzI4IC0xODI1LjYxNDI3OTA4ODQ0MzUgTCAzMjkgLTE4MTguNTg0MzcxNDEyNzU4NCBMIDMyOSAtMTgxOC41ODQzNzE0MTI3NTkzIEwgMzMwLjAwMDAwMDAwMDAwMDEgLTE4MTEuNTY1MDQ2OTA5NTEyOCBMIDMzMC4wMDAwMDAwMDAwMDAxIC0xODExLjU2NTA0NjkwOTUxMzMgTCAzMzAuOTk5OTk5OTk5OTk5OSAtMTgwNC41NTYzMDU1Nzg3MDgxIEwgMzMwLjk5OTk5OTk5OTk5OTkgLTE4MDQuNTU2MzA1NTc4NzA4NiBMIDMzMiAtMTc5Ny41NTgxNDc0MjAzNDE2IEwgMzMyIC0xNzk3LjU1ODE0NzQyMDM0MiBMIDMzMyAtMTc5MC41NzA1NzI0MzQ0MTU1IEwgMzMzIC0xNzkwLjU3MDU3MjQzNDQxNiBMIDMzNCAtMTc4My41OTM1ODA2MjA5Mjg4IEwgMzM0IC0xNzgzLjU5MzU4MDYyMDkyOTMgTCAzMzUuMDAwMDAwMDAwMDAwMSAtMTc3Ni42MjcxNzE5Nzk4ODEzIEwgMzM1LjAwMDAwMDAwMDAwMDEgLTE3NzYuNjI3MTcxOTc5ODgxNyBMIDMzNS45OTk5OTk5OTk5OTk5IC0xNzY5LjY3MTM0NjUxMTI3NDYgTCAzMzUuOTk5OTk5OTk5OTk5OSAtMTc2OS42NzEzNDY1MTEyNzUgTCAzMzcgLTE3NjIuNzI2MTA0MjE1MTA2IEwgMzM3IC0xNzYyLjcyNjEwNDIxNTEwNjUgTCAzMzggLTE3NTUuNzkxNDQ1MDkxMzc4IEwgMzM4IC0xNzU1Ljc5MTQ0NTA5MTM3ODQgTCAzMzkgLTE3NDguODY3MzY5MTQwMDg4OCBMIDMzOSAtMTc0OC44NjczNjkxNDAwODk3IEwgMzQwIC0xNzQxLjk1Mzg3NjM2MTI0MDIgTCAzNDAgLTE3NDEuOTUzODc2MzYxMjQxIEwgMzQwLjk5OTk5OTk5OTk5OTkgLTE3MzUuMDUwOTY2NzU0ODMwNiBMIDM0MC45OTk5OTk5OTk5OTk5IC0xNzM1LjA1MDk2Njc1NDgzMTUgTCAzNDIgLTE3MjguMTU4NjQwMzIwODYgTCAzNDIgLTE3MjguMTU4NjQwMzIwODYwNSBMIDM0MyAtMTcyMS4yNzY4OTcwNTkzMzA0IEwgMzQzIC0xNzIxLjI3Njg5NzA1OTMzMDggTCAzNDQgLTE3MTQuNDA1NzM2OTcwMjM5OCBMIDM0NCAtMTcxNC40MDU3MzY5NzAyNDAyIEwgMzQ1IC0xNzA3LjU0NTE2MDA1MzU4ODcgTCAzNDUgLTE3MDcuNTQ1MTYwMDUzNTg5MSBMIDM0NiAtMTcwMC42OTUxNjYzMDkzNzcgTCAzNDYgLTE3MDAuNjk1MTY2MzA5Mzc3NiBMIDM0NyAtMTY5My44NTU3NTU3Mzc2MDUgTCAzNDcgLTE2OTMuODU1NzU1NzM3NjA1NSBMIDM0OCAtMTY4Ny4wMjY5MjgzMzgyNzI1IEwgMzQ4IC0xNjg3LjAyNjkyODMzODI3MzQgTCAzNDkgLTE2ODAuMjA4Njg0MTExMzgwMyBMIDM0OSAtMTY4MC4yMDg2ODQxMTEzODEyIEwgMzUwIC0xNjczLjQwMTAyMzA1NjkyNzIgTCAzNTAgLTE2NzMuNDAxMDIzMDU2OTI4MSBMIDM1MSAtMTY2Ni42MDM5NDUxNzQ5MTQgTCAzNTEgLTE2NjYuNjAzOTQ1MTc0OTE0NSBMIDM1MiAtMTY1OS44MTc0NTA0NjUzMzk2IEwgMzUyIC0xNjU5LjgxNzQ1MDQ2NTM0IEwgMzUyLjk5OTk5OTk5OTk5OTkgLTE2NTMuMDQxNTM4OTI4MjA2NCBMIDM1Mi45OTk5OTk5OTk5OTk5IC0xNjUzLjA0MTUzODkyODIwNjggTCAzNTQgLTE2NDYuMjc2MjEwNTYzNTEwOSBMIDM1NCAtMTY0Ni4yNzYyMTA1NjM1MTEzIEwgMzU1IC0xNjM5LjUyMTQ2NTM3MTI1NjIgTCAzNTUgLTE2MzkuNTIxNDY1MzcxMjU2NyBMIDM1NiAtMTYzMi43NzczMDMzNTE0NDA3IEwgMzU2IC0xNjMyLjc3NzMwMzM1MTQ0MSBMIDM1NyAtMTYyNi4wNDM3MjQ1MDQwNjQxIEwgMzU3IC0xNjI2LjA0MzcyNDUwNDA2NDYgTCAzNTcuOTk5OTk5OTk5OTk5OSAtMTYxOS4zMjA3Mjg4MjkxMjkgTCAzNTcuOTk5OTk5OTk5OTk5OSAtMTYxOS4zMjA3Mjg4MjkxMjk0IEwgMzU5IC0xNjEyLjYwODMxNjMyNjYzMTQgTCAzNTkgLTE2MTIuNjA4MzE2MzI2NjMyMyBMIDM2MCAtMTYwNS45MDY0ODY5OTY1NzQ4IEwgMzYwIC0xNjA1LjkwNjQ4Njk5NjU3NDggTCAzNjEgLTE1OTkuMjE1MjQwODM4OTU3NyBMIDM2MSAtMTU5OS4yMTUyNDA4Mzg5NTgyIEwgMzYyIC0xNTkyLjUzNDU3Nzg1Mzc3ODcgTCAzNjIgLTE1OTIuNTM0NTc3ODUzNzc5MiBMIDM2Mi45OTk5OTk5OTk5OTk5IC0xNTg1Ljg2NDQ5ODA0MTA0MTUgTCAzNjIuOTk5OTk5OTk5OTk5OSAtMTU4NS44NjQ0OTgwNDEwNDIgTCAzNjQgLTE1NzkuMjA1MDAxNDAwNzQyNSBMIDM2NCAtMTU3OS4yMDUwMDE0MDA3NDMgTCAzNjUgLTE1NzIuNTU2MDg3OTMyODgzOSBMIDM2NSAtMTU3Mi41NTYwODc5MzI4ODM5IEwgMzY2IC0xNTY1LjkxNzc1NzYzNzQ2NDMgTCAzNjYgLTE1NjUuOTE3NzU3NjM3NDY0OCBMIDM2Ny4wMDAwMDAwMDAwMDAxIC0xNTU5LjI5MDAxMDUxNDQ4MzggTCAzNjcuMDAwMDAwMDAwMDAwMSAtMTU1OS4yOTAwMTA1MTQ0ODQ3IEwgMzY3Ljk5OTk5OTk5OTk5OTkgLTE1NTIuNjcyODQ2NTYzOTQ0NiBMIDM2Ny45OTk5OTk5OTk5OTk5IC0xNTUyLjY3Mjg0NjU2Mzk0NTUgTCAzNjkgLTE1NDYuMDY2MjY1Nzg1ODQzNiBMIDM2OSAtMTU0Ni4wNjYyNjU3ODU4NDQgTCAzNzAgLTE1MzkuNDcwMjY4MTgwMTgyNSBMIDM3MCAtMTUzOS40NzAyNjgxODAxODMgTCAzNzEgLTE1MzIuODg0ODUzNzQ2OTYxNyBMIDM3MSAtMTUzMi44ODQ4NTM3NDY5NjIgTCAzNzIuMDAwMDAwMDAwMDAwMSAtMTUyNi4zMTAwMjI0ODYxNzg3IEwgMzcyLjAwMDAwMDAwMDAwMDEgLTE1MjYuMzEwMDIyNDg2MTc5NiBMIDM3Mi45OTk5OTk5OTk5OTk5IC0xNTE5Ljc0NTc3NDM5NzgzNzcgTCAzNzIuOTk5OTk5OTk5OTk5OSAtMTUxOS43NDU3NzQzOTc4MzgyIEwgMzc0IC0xNTEzLjE5MjEwOTQ4MTkzNDMgTCAzNzQgLTE1MTMuMTkyMTA5NDgxOTM1MiBMIDM3NSAtMTUwNi42NDkwMjc3Mzg0NzE3IEwgMzc1IC0xNTA2LjY0OTAyNzczODQ3MjEgTCAzNzYgLTE1MDAuMTE2NTI5MTY3NDQ4NiBMIDM3NiAtMTUwMC4xMTY1MjkxNjc0NDkyIEwgMzc3LjAwMDAwMDAwMDAwMDEgLTE0OTMuNTk0NjEzNzY4ODY0MyBMIDM3Ny4wMDAwMDAwMDAwMDAxIC0xNDkzLjU5NDYxMzc2ODg2NDcgTCAzNzcuOTk5OTk5OTk5OTk5OSAtMTQ4Ny4wODMyODE1NDI3MjEgTCAzNzcuOTk5OTk5OTk5OTk5OSAtMTQ4Ny4wODMyODE1NDI3MjE0IEwgMzc5IC0xNDgwLjU4MjUzMjQ4OTAxNTkgTCAzNzkgLTE0ODAuNTgyNTMyNDg5MDE2MyBMIDM4MCAtMTQ3NC4wOTIzNjY2MDc3NTEgTCAzODAgLTE0NzQuMDkyMzY2NjA3NzUxNyBMIDM4MSAtMTQ2Ny42MTI3ODM4OTg5MjU3IEwgMzgxIC0xNDY3LjYxMjc4Mzg5ODkyNjQgTCAzODIuMDAwMDAwMDAwMDAwMSAtMTQ2MS4xNDM3ODQzNjI1Mzk1IEwgMzgyLjAwMDAwMDAwMDAwMDEgLTE0NjEuMTQzNzg0MzYyNTQwMSBMIDM4Mi45OTk5OTk5OTk5OTk5IC0xNDU0LjY4NTM2Nzk5ODU5NDMgTCAzODIuOTk5OTk5OTk5OTk5OSAtMTQ1NC42ODUzNjc5OTg1OTUgTCAzODQgLTE0NDguMjM3NTM0ODA3MDg3IEwgMzg0IC0xNDQ4LjIzNzUzNDgwNzA4NzUgTCAzODUgLTE0NDEuODAwMjg0Nzg4MDIwNSBMIDM4NSAtMTQ0MS44MDAyODQ3ODgwMjEgTCAzODYgLTE0MzUuMzczNjE3OTQxMzkzMSBMIDM4NiAtMTQzNS4zNzM2MTc5NDEzOTM2IEwgMzg3IC0xNDI4Ljk1NzUzNDI2NzIwNTYgTCAzODcgLTE0MjguOTU3NTM0MjY3MjA2MyBMIDM4OCAtMTQyMi41NTIwMzM3NjU0NTc1IEwgMzg4IC0xNDIyLjU1MjAzMzc2NTQ1ODIgTCAzODkgLTE0MTYuMTU3MTE2NDM2MTQ4NSBMIDM4OSAtMTQxNi4xNTcxMTY0MzYxNDkgTCAzOTAgLTE0MDkuNzcyNzgyMjc5Mjc5NyBMIDM5MCAtMTQwOS43NzI3ODIyNzkyODAxIEwgMzkxIC0xNDAzLjM5OTAzMTI5NDg1MDYgTCAzOTEgLTE0MDMuMzk5MDMxMjk0ODUxIEwgMzkyIC0xMzk3LjAzNTg2MzQ4Mjg2MSBMIDM5MiAtMTM5Ny4wMzU4NjM0ODI4NjE1IEwgMzkzIC0xMzkwLjY4MzI3ODg0MzMxMSBMIDM5MyAtMTM5MC42ODMyNzg4NDMzMTE3IEwgMzk0IC0xMzg0LjM0MTI3NzM3NjE5OTcgTCAzOTQgLTEzODQuMzQxMjc3Mzc2MjAwNCBMIDM5NSAtMTM3OC4wMDk4NTkwODE1MjkyIEwgMzk1IC0xMzc4LjAwOTg1OTA4MTUyOTggTCAzOTYgLTEzNzEuNjg5MDIzOTU5Mjk4IEwgMzk2IC0xMzcxLjY4OTAyMzk1OTI5ODUgTCAzOTcgLTEzNjUuMzc4NzcyMDA5NTA2MyBMIDM5NyAtMTM2NS4zNzg3NzIwMDk1MDcgTCAzOTggLTEzNTkuMDc5MTAzMjMyMTU0NyBMIDM5OCAtMTM1OS4wNzkxMDMyMzIxNTUxIEwgMzk5IC0xMzUyLjc5MDAxNzYyNzI0MTUgTCAzOTkgLTEzNTIuNzkwMDE3NjI3MjQyMiBMIDM5OS45OTk5OTk5OTk5OTk5IC0xMzQ2LjUxMTUxNTE5NDc2OTYgTCAzOTkuOTk5OTk5OTk5OTk5OSAtMTM0Ni41MTE1MTUxOTQ3NzAzIEwgNDAxIC0xMzQwLjI0MzU5NTkzNDczNTYgTCA0MDEgLTEzNDAuMjQzNTk1OTM0NzM2MyBMIDQwMiAtMTMzMy45ODYyNTk4NDcxNDIzIEwgNDAyIC0xMzMzLjk4NjI1OTg0NzE0MjcgTCA0MDMgLTEzMjcuNzM5NTA2OTMxOTg4IEwgNDAzIC0xMzI3LjczOTUwNjkzMTk4ODcgTCA0MDQgLTEzMjEuNTAzMzM3MTg5MjczMiBMIDQwNCAtMTMyMS41MDMzMzcxODkyNzQgTCA0MDQuOTk5OTk5OTk5OTk5OSAtMTMxNS4yNzc3NTA2MTg5OTkgTCA0MDQuOTk5OTk5OTk5OTk5OSAtMTMxNS4yNzc3NTA2MTg5OTk4IEwgNDA2IC0xMzA5LjA2Mjc0NzIyMTE2MzQgTCA0MDYgLTEzMDkuMDYyNzQ3MjIxMTY0IEwgNDA3IC0xMzAyLjg1ODMyNjk5NTc2NzggTCA0MDcgLTEzMDIuODU4MzI2OTk1NzY4NSBMIDQwOCAtMTI5Ni42NjQ0ODk5NDI4MTIgTCA0MDggLTEyOTYuNjY0NDg5OTQyODEyNSBMIDQwOSAtMTI5MC40ODEyMzYwNjIyOTUgTCA0MDkgLTEyOTAuNDgxMjM2MDYyMjk1NSBMIDQwOS45OTk5OTk5OTk5OTk5IC0xMjg0LjMwODU2NTM1NDIxOTEgTCA0MDkuOTk5OTk5OTk5OTk5OSAtMTI4NC4zMDg1NjUzNTQyMTk2IEwgNDExIC0xMjc4LjE0NjQ3NzgxODU4MTIgTCA0MTEgLTEyNzguMTQ2NDc3ODE4NTgxOCBMIDQxMiAtMTI3MS45OTQ5NzM0NTUzODM4IEwgNDEyIC0xMjcxLjk5NDk3MzQ1NTM4NDUgTCA0MTMgLTEyNjUuODU0MDUyMjY0NjI1OCBMIDQxMyAtMTI2NS44NTQwNTIyNjQ2MjY1IEwgNDE0LjAwMDAwMDAwMDAwMDEgLTEyNTkuNzIzNzE0MjQ2MzA2OCBMIDQxNC4wMDAwMDAwMDAwMDAxIC0xMjU5LjcyMzcxNDI0NjMwNzUgTCA0MTQuOTk5OTk5OTk5OTk5OSAtMTI1My42MDM5NTk0MDA0MjkgTCA0MTQuOTk5OTk5OTk5OTk5OSAtMTI1My42MDM5NTk0MDA0Mjk0IEwgNDE2IC0xMjQ3LjQ5NDc4NzcyNjk4OTIgTCA0MTYgLTEyNDcuNDk0Nzg3NzI2OTkgTCA0MTcgLTEyNDEuMzk2MTk5MjI1OTg5NCBMIDQxNyAtMTI0MS4zOTYxOTkyMjU5OTAxIEwgNDE4IC0xMjM1LjMwODE5Mzg5NzQyOTkgTCA0MTggLTEyMzUuMzA4MTkzODk3NDMwMyBMIDQxOS4wMDAwMDAwMDAwMDAxIC0xMjI5LjIzMDc3MTc0MTMwOSBMIDQxOS4wMDAwMDAwMDAwMDAxIC0xMjI5LjIzMDc3MTc0MTMwOTQgTCA0MTkuOTk5OTk5OTk5OTk5OSAtMTIyMy4xNjM5MzI3NTc2MjkgTCA0MTkuOTk5OTk5OTk5OTk5OSAtMTIyMy4xNjM5MzI3NTc2Mjk3IEwgNDIxIC0xMjE3LjEwNzY3Njk0NjM4NyBMIDQyMSAtMTIxNy4xMDc2NzY5NDYzODc4IEwgNDIyIC0xMjExLjA2MjAwNDMwNzU4NTUgTCA0MjIgLTEyMTEuMDYyMDA0MzA3NTg2MiBMIDQyMyAtMTIwNS4wMjY5MTQ4NDEyMjQgTCA0MjMgLTEyMDUuMDI2OTE0ODQxMjI0NCBMIDQyNC4wMDAwMDAwMDAwMDAxIC0xMTk5LjAwMjQwODU0NzMwMSBMIDQyNC4wMDAwMDAwMDAwMDAxIC0xMTk5LjAwMjQwODU0NzMwMTUgTCA0MjQuOTk5OTk5OTk5OTk5OSAtMTE5Mi45ODg0ODU0MjU4MTkxIEwgNDI0Ljk5OTk5OTk5OTk5OTkgLTExOTIuOTg4NDg1NDI1ODE5NiBMIDQyNiAtMTE4Ni45ODUxNDU0NzY3NzUyIEwgNDI2IC0xMTg2Ljk4NTE0NTQ3Njc3NTkgTCA0MjcgLTExODAuOTkyMzg4NzAwMTcxNyBMIDQyNyAtMTE4MC45OTIzODg3MDAxNzIzIEwgNDI4IC0xMTc1LjAxMDIxNTA5NjAwOCBMIDQyOCAtMTE3NS4wMTAyMTUwOTYwMDg2IEwgNDI5LjAwMDAwMDAwMDAwMDEgLTExNjkuMDM4NjI0NjY0MjgzMSBMIDQyOS4wMDAwMDAwMDAwMDAxIC0xMTY5LjAzODYyNDY2NDI4MzggTCA0MjkuOTk5OTk5OTk5OTk5OSAtMTE2My4wNzc2MTc0MDQ5OTkzIEwgNDI5Ljk5OTk5OTk5OTk5OTkgLTExNjMuMDc3NjE3NDA0OTk5NyBMIDQzMSAtMTE1Ny4xMjcxOTMzMTgxNTM2IEwgNDMxIC0xMTU3LjEyNzE5MzMxODE1NDIgTCA0MzIgLTExNTEuMTg3MzUyNDAzNzQ4MyBMIDQzMiAtMTE1MS4xODczNTI0MDM3NDg3IEwgNDMzIC0xMTQ1LjI1ODA5NDY2MTc4MjMgTCA0MzMgLTExNDUuMjU4MDk0NjYxNzgzIEwgNDM0IC0xMTM5LjMzOTQyMDA5MjI1NjIgTCA0MzQgLTExMzkuMzM5NDIwMDkyMjU2NyBMIDQzNSAtMTEzMy40MzEzMjg2OTUxNjk0IEwgNDM1IC0xMTMzLjQzMTMyODY5NTE3MDEgTCA0MzYgLTExMjcuNTMzODIwNDcwNTIxNyBMIDQzNiAtMTEyNy41MzM4MjA0NzA1MjI0IEwgNDM3IC0xMTIxLjY0Njg5NTQxODMxNDQgTCA0MzcgLTExMjEuNjQ2ODk1NDE4MzE1MSBMIDQzOCAtMTExNS43NzA1NTM1Mzg1NDY3IEwgNDM4IC0xMTE1Ljc3MDU1MzUzODU0NzEgTCA0MzkgLTExMDkuOTA0Nzk0ODMxMjE4NiBMIDQzOSAtMTEwOS45MDQ3OTQ4MzEyMTkgTCA0NDAgLTExMDQuMDQ5NjE5Mjk2MzI5OSBMIDQ0MCAtMTEwNC4wNDk2MTkyOTYzMzAzIEwgNDQxIC0xMDk4LjIwNTAyNjkzMzg4MDQgTCA0NDEgLTEwOTguMjA1MDI2OTMzODgwOCBMIDQ0MiAtMTA5Mi4zNzEwMTc3NDM4NzA5IEwgNDQyIC0xMDkyLjM3MTAxNzc0Mzg3MTYgTCA0NDMgLTEwODYuNTQ3NTkxNzI2MzAxMyBMIDQ0MyAtMTA4Ni41NDc1OTE3MjYzMDE4IEwgNDQ0IC0xMDgwLjczNDc0ODg4MTE3MDggTCA0NDQgLTEwODAuNzM0NzQ4ODgxMTcxNSBMIDQ0NSAtMTA3NC45MzI0ODkyMDg0ODA1IEwgNDQ1IC0xMDc0LjkzMjQ4OTIwODQ4MTIgTCA0NDYgLTEwNjkuMTQwODEyNzA4MjI4NiBMIDQ0NiAtMTA2OS4xNDA4MTI3MDgyMjkzIEwgNDQ2Ljk5OTk5OTk5OTk5OTkgLTEwNjMuMzU5NzE5MzgwNDE4MyBMIDQ0Ni45OTk5OTk5OTk5OTk5IC0xMDYzLjM1OTcxOTM4MDQxODcgTCA0NDggLTEwNTcuNTg5MjA5MjI1MDQ1OCBMIDQ0OCAtMTA1Ny41ODkyMDkyMjUwNDYzIEwgNDQ5IC0xMDUxLjgyOTI4MjI0MjExMzggTCA0NDkgLTEwNTEuODI5MjgyMjQyMTE0NSBMIDQ1MCAtMTA0Ni4wNzk5Mzg0MzE2MjA4IEwgNDUwIC0xMDQ2LjA3OTkzODQzMTYyMTUgTCA0NTEgLTEwNDAuMzQxMTc3NzkzNTY3NiBMIDQ1MSAtMTA0MC4zNDExNzc3OTM1NjggTCA0NTEuOTk5OTk5OTk5OTk5OSAtMTAzNC42MTMwMDAzMjc5NTQ1IEwgNDUxLjk5OTk5OTk5OTk5OTkgLTEwMzQuNjEzMDAwMzI3OTU1MiBMIDQ1MyAtMTAyOC44OTU0MDYwMzQ3ODA1IEwgNDUzIC0xMDI4Ljg5NTQwNjAzNDc4MSBMIDQ1NCAtMTAyMy4xODgzOTQ5MTQwNDYzIEwgNDU0IC0xMDIzLjE4ODM5NDkxNDA0NyBMIDQ1NSAtMTAxNy40OTE5NjY5NjU3NTE4IEwgNDU1IC0xMDE3LjQ5MTk2Njk2NTc1MjUgTCA0NTYgLTEwMTEuODA2MTIyMTg5ODk2MSBMIDQ1NiAtMTAxMS44MDYxMjIxODk4OTY4IEwgNDU2Ljk5OTk5OTk5OTk5OTkgLTEwMDYuMTMwODYwNTg2NDgxNyBMIDQ1Ni45OTk5OTk5OTk5OTk5IC0xMDA2LjEzMDg2MDU4NjQ4MjIgTCA0NTggLTEwMDAuNDY2MTgyMTU1NTA1MSBMIDQ1OCAtMTAwMC40NjYxODIxNTU1MDU3IEwgNDU5IC05OTQuODEyMDg2ODk2OTY5MyBMIDQ1OSAtOTk0LjgxMjA4Njg5Njk2OTcgTCA0NjAgLTk4OS4xNjg1NzQ4MTA4NzI4IEwgNDYwIC05ODkuMTY4NTc0ODEwODczMiBMIDQ2MS4wMDAwMDAwMDAwMDAxIC05ODMuNTM1NjQ1ODk3MjE1MSBMIDQ2MS4wMDAwMDAwMDAwMDAxIC05ODMuNTM1NjQ1ODk3MjE1OCBMIDQ2MS45OTk5OTk5OTk5OTk5IC05NzcuOTEzMzAwMTU1OTk4NSBMIDQ2MS45OTk5OTk5OTk5OTk5IC05NzcuOTEzMzAwMTU1OTk5MiBMIDQ2MyAtOTcyLjMwMTUzNzU4NzIyMDEgTCA0NjMgLTk3Mi4zMDE1Mzc1ODcyMjA1IEwgNDY0IC05NjYuNzAwMzU4MTkwODgyMSBMIDQ2NCAtOTY2LjcwMDM1ODE5MDg4MjUgTCA0NjUgLTk2MS4xMDk3NjE5NjY5ODMzIEwgNDY1IC05NjEuMTA5NzYxOTY2OTg0IEwgNDY2LjAwMDAwMDAwMDAwMDEgLTk1NS41Mjk3NDg5MTU1MjQxIEwgNDY2LjAwMDAwMDAwMDAwMDEgLTk1NS41Mjk3NDg5MTU1MjQ2IEwgNDY2Ljk5OTk5OTk5OTk5OTkgLTk0OS45NjAzMTkwMzY1MDUzIEwgNDY2Ljk5OTk5OTk5OTk5OTkgLTk0OS45NjAzMTkwMzY1MDYgTCA0NjggLTk0NC40MDE0NzIzMjk5MjUxIEwgNDY4IC05NDQuNDAxNDcyMzI5OTI1OCBMIDQ2OSAtOTM4Ljg1MzIwODc5NTc4NTEgTCA0NjkgLTkzOC44NTMyMDg3OTU3ODU4IEwgNDcwIC05MzMuMzE1NTI4NDM0MDg0NCBMIDQ3MCAtOTMzLjMxNTUyODQzNDA4NTEgTCA0NzEuMDAwMDAwMDAwMDAwMSAtOTI3Ljc4ODQzMTI0NDgyMzIgTCA0NzEuMDAwMDAwMDAwMDAwMSAtOTI3Ljc4ODQzMTI0NDgyMzkgTCA0NzEuOTk5OTk5OTk5OTk5OSAtOTIyLjI3MTkxNzIyODAwMjIgTCA0NzEuOTk5OTk5OTk5OTk5OSAtOTIyLjI3MTkxNzIyODAwMjggTCA0NzMgLTkxNi43NjU5ODYzODM2MjAyIEwgNDczIC05MTYuNzY1OTg2MzgzNjIwOSBMIDQ3NCAtOTExLjI3MDYzODcxMTY3ODQgTCA0NzQgLTkxMS4yNzA2Mzg3MTE2Nzg5IEwgNDc1IC05MDUuNzg1ODc0MjEyMTc1NSBMIDQ3NSAtOTA1Ljc4NTg3NDIxMjE3NjIgTCA0NzYuMDAwMDAwMDAwMDAwMSAtOTAwLjMxMTY5Mjg4NTExMjMgTCA0NzYuMDAwMDAwMDAwMDAwMSAtOTAwLjMxMTY5Mjg4NTExMyBMIDQ3Ni45OTk5OTk5OTk5OTk5IC04OTQuODQ4MDk0NzMwNDg5NSBMIDQ3Ni45OTk5OTk5OTk5OTk5IC04OTQuODQ4MDk0NzMwNDkwMiBMIDQ3OCAtODg5LjM5NTA3OTc0ODMwNTMgTCA0NzggLTg4OS4zOTUwNzk3NDgzMDYgTCA0NzkgLTg4My45NTI2NDc5Mzg1NjE1IEwgNDc5IC04ODMuOTUyNjQ3OTM4NTYyIEwgNDgwIC04NzguNTIwNzk5MzAxMjU2OCBMIDQ4MCAtODc4LjUyMDc5OTMwMTI1NzUgTCA0ODAuOTk5OTk5OTk5OTk5OTQgLTg3My4wOTk1MzM4MzYzOTIxIEwgNDgwLjk5OTk5OTk5OTk5OTk0IC04NzMuMDk5NTMzODM2MzkyOCBMIDQ4MS45OTk5OTk5OTk5OTk5NCAtODY3LjY4ODg1MTU0Mzk2NjggTCA0ODEuOTk5OTk5OTk5OTk5OTQgLTg2Ny42ODg4NTE1NDM5NjczIEwgNDgzLjAwMDAwMDAwMDAwMDA2IC04NjIuMjg4NzUyNDIzOTgwNyBMIDQ4My4wMDAwMDAwMDAwMDAwNiAtODYyLjI4ODc1MjQyMzk4MTQgTCA0ODQgLTg1Ni44OTkyMzY0NzY0MzQ3IEwgNDg0IC04NTYuODk5MjM2NDc2NDM1NCBMIDQ4NSAtODUxLjUyMDMwMzcwMTMyODIgTCA0ODUgLTg1MS41MjAzMDM3MDEzMjg5IEwgNDg1Ljk5OTk5OTk5OTk5OTk0IC04NDYuMTUxOTU0MDk4NjYxNSBMIDQ4NS45OTk5OTk5OTk5OTk5NCAtODQ2LjE1MTk1NDA5ODY2MTkgTCA0ODYuOTk5OTk5OTk5OTk5OTQgLTg0MC43OTQxODc2Njg0MzQ1IEwgNDg2Ljk5OTk5OTk5OTk5OTk0IC04NDAuNzk0MTg3NjY4NDM0OSBMIDQ4OC4wMDAwMDAwMDAwMDAwNiAtODM1LjQ0NzAwNDQxMDY0NjEgTCA0ODguMDAwMDAwMDAwMDAwMDYgLTgzNS40NDcwMDQ0MTA2NDY3IEwgNDg4Ljk5OTk5OTk5OTk5OTk0IC04MzAuMTEwNDA0MzI1Mjk4NSBMIDQ4OC45OTk5OTk5OTk5OTk5NCAtODMwLjExMDQwNDMyNTI5ODggTCA0OTAgLTgyNC43ODQzODc0MTIzODk4IEwgNDkwIC04MjQuNzg0Mzg3NDEyMzkwMSBMIDQ5MSAtODE5LjQ2ODk1MzY3MTkyMDkgTCA0OTEgLTgxOS40Njg5NTM2NzE5MjEzIEwgNDkyIC04MTQuMTY0MTAzMTAzODkxNiBMIDQ5MiAtODE0LjE2NDEwMzEwMzg5MTkgTCA0OTMgLTgwOC44Njk4MzU3MDgzMDE5IEwgNDkzIC04MDguODY5ODM1NzA4MzAyMiBMIDQ5My45OTk5OTk5OTk5OTk5NCAtODAzLjU4NjE1MTQ4NTE1MiBMIDQ5My45OTk5OTk5OTk5OTk5NCAtODAzLjU4NjE1MTQ4NTE1MjIgTCA0OTUgLTc5OC4zMTMwNTA0MzQ0NDEzIEwgNDk1IC03OTguMzEzMDUwNDM0NDQxNSBMIDQ5NiAtNzkzLjA1MDUzMjU1NjE3MDUgTCA0OTYgLTc5My4wNTA1MzI1NTYxNzEgTCA0OTcgLTc4Ny43OTg1OTc4NTAzMzkxIEwgNDk3IC03ODcuNzk4NTk3ODUwMzM5MyBMIDQ5OCAtNzgyLjU1NzI0NjMxNjk0NzYgTCA0OTggLTc4Mi41NTcyNDYzMTY5NDgxIEwgNDk5IC03NzcuMzI2NDc3OTU1OTk1NiBMIDQ5OSAtNzc3LjMyNjQ3Nzk1NTk5NTkgTCA1MDAgLTc3Mi4xMDYyOTI3Njc0ODMyIEwgNTAwIC03NzIuMTA2MjkyNzY3NDgzNCBMIDUwMSAtNzY2Ljg5NjY5MDc1MTQxMDIgTCA1MDEgLTc2Ni44OTY2OTA3NTE0MTA1IEwgNTAxLjk5OTk5OTk5OTk5OTk0IC03NjEuNjk3NjcxOTA3Nzc3IEwgNTAxLjk5OTk5OTk5OTk5OTk0IC03NjEuNjk3NjcxOTA3Nzc3MiBMIDUwMyAtNzU2LjUwOTIzNjIzNjU4MzMgTCA1MDMgLTc1Ni41MDkyMzYyMzY1ODM1IEwgNTA0IC03NTEuMzMxMzgzNzM3ODI5NCBMIDUwNCAtNzUxLjMzMTM4MzczNzgyOTYgTCA1MDUgLTc0Ni4xNjQxMTQ0MTE1MTQ5IEwgNTA1IC03NDYuMTY0MTE0NDExNTE1MSBMIDUwNiAtNzQxLjAwNzQyODI1NzY0IEwgNTA2IC03NDEuMDA3NDI4MjU3NjQwNCBMIDUwNi45OTk5OTk5OTk5OTk5NCAtNzM1Ljg2MTMyNTI3NjIwNDggTCA1MDYuOTk5OTk5OTk5OTk5OTQgLTczNS44NjEzMjUyNzYyMDUyIEwgNTA4IC03MzAuNzI1ODA1NDY3MjA5IEwgNTA4IC03MzAuNzI1ODA1NDY3MjA5MyBMIDUwOSAtNzI1LjYwMDg2ODgzMDY1MzEgTCA1MDkgLTcyNS42MDA4Njg4MzA2NTMzIEwgNTEwIC03MjAuNDg2NTE1MzY2NTM2NyBMIDUxMCAtNzIwLjQ4NjUxNTM2NjUzNjkgTCA1MTEgLTcxNS4zODI3NDUwNzQ4NTk3IEwgNTExIC03MTUuMzgyNzQ1MDc0ODYwMiBMIDUxMiAtNzEwLjI4OTU1Nzk1NTYyMyBMIDUxMiAtNzEwLjI4OTU1Nzk1NTYyMyBMIDUxMyAtNzA1LjIwNjk1NDAwODgyNTMgTCA1MTMgLTcwNS4yMDY5NTQwMDg4MjU1IEwgNTE0IC03MDAuMTM0OTMzMjM0NDY3MSBMIDUxNCAtNzAwLjEzNDkzMzIzNDQ2NzYgTCA1MTUgLTY5NS4wNzM0OTU2MzI1NDg0IEwgNTE1IC02OTUuMDczNDk1NjMyNTQ4NyBMIDUxNiAtNjkwLjAyMjY0MTIwMzA2OTcgTCA1MTYgLTY5MC4wMjI2NDEyMDMwNzAyIEwgNTE3IC02ODQuOTgyMzY5OTQ2MDMwOCBMIDUxNyAtNjg0Ljk4MjM2OTk0NjAzMSBMIDUxOCAtNjc5Ljk1MjY4MTg2MTQzMTMgTCA1MTggLTY3OS45NTI2ODE4NjE0MzE1IEwgNTE5IC02NzQuOTMzNTc2OTQ5MjcxMSBMIDUxOSAtNjc0LjkzMzU3Njk0OTI3MTQgTCA1MjAgLTY2OS45MjUwNTUyMDk1NTA1IEwgNTIwIC02NjkuOTI1MDU1MjA5NTUwOSBMIDUyMSAtNjY0LjkyNzExNjY0MjI2OTggTCA1MjEgLTY2NC45MjcxMTY2NDIyNyBMIDUyMiAtNjU5LjkzOTc2MTI0NzQyODggTCA1MjIgLTY1OS45Mzk3NjEyNDc0MjkgTCA1MjMgLTY1NC45NjI5ODkwMjUwMjc0IEwgNTIzIC02NTQuOTYyOTg5MDI1MDI3NiBMIDUyNCAtNjQ5Ljk5Njc5OTk3NTA2NTIgTCA1MjQgLTY0OS45OTY3OTk5NzUwNjU0IEwgNTI1IC02NDUuMDQxMTk0MDk3NTQyOCBMIDUyNSAtNjQ1LjA0MTE5NDA5NzU0MyBMIDUyNiAtNjQwLjA5NjE3MTM5MjQ2MDEgTCA1MjYgLTY0MC4wOTYxNzEzOTI0NjAzIEwgNTI3IC02MzUuMTYxNzMxODU5ODE3MSBMIDUyNyAtNjM1LjE2MTczMTg1OTgxNzMgTCA1MjggLTYzMC4yMzc4NzU0OTk2MTM0IEwgNTI4IC02MzAuMjM3ODc1NDk5NjEzNyBMIDUyOSAtNjI1LjMyNDYwMjMxMTg0OTUgTCA1MjkgLTYyNS4zMjQ2MDIzMTE4NDk3IEwgNTMwIC02MjAuNDIxOTEyMjk2NTI1MSBMIDUzMCAtNjIwLjQyMTkxMjI5NjUyNTUgTCA1MzEgLTYxNS41Mjk4MDU0NTM2NDA0IEwgNTMxIC02MTUuNTI5ODA1NDUzNjQwNiBMIDUzMiAtNjEwLjY0ODI4MTc4MzE5NTQgTCA1MzIgLTYxMC42NDgyODE3ODMxOTU3IEwgNTMzIC02MDUuNzc3MzQxMjg1MTg5OCBMIDUzMyAtNjA1Ljc3NzM0MTI4NTE5MDIgTCA1MzQgLTYwMC45MTY5ODM5NTk2MjQxIEwgNTM0IC02MDAuOTE2OTgzOTU5NjI0MyBMIDUzNSAtNTk2LjA2NzIwOTgwNjQ5NzQgTCA1MzUgLTU5Ni4wNjcyMDk4MDY0OTc3IEwgNTM2IC01OTEuMjI4MDE4ODI1ODEwNSBMIDUzNiAtNTkxLjIyODAxODgyNTgxMDggTCA1MzcgLTU4Ni4zOTk0MTEwMTc1NjM4IEwgNTM3IC01ODYuMzk5NDExMDE3NTY0IEwgNTM4IC01ODEuNTgxMzg2MzgxNzU2MSBMIDUzOCAtNTgxLjU4MTM4NjM4MTc1NjQgTCA1MzkgLTU3Ni43NzM5NDQ5MTgzODg1IEwgNTM5IC01NzYuNzczOTQ0OTE4Mzg4NyBMIDU0MCAtNTcxLjk3NzA4NjYyNzQ2IEwgNTQwIC01NzEuOTc3MDg2NjI3NDYwMyBMIDU0MSAtNTY3LjE5MDgxMTUwODk3MTEgTCA1NDEgLTU2Ny4xOTA4MTE1MDg5NzE2IEwgNTQyIC01NjIuNDE1MTE5NTYyOTIyIEwgNTQyIC01NjIuNDE1MTE5NTYyOTIyMiBMIDU0MyAtNTU3LjY1MDAxMDc4OTMxMjggTCA1NDMgLTU1Ny42NTAwMTA3ODkzMTMgTCA1NDQgLTU1Mi44OTU0ODUxODgxNDI5IEwgNTQ0IC01NTIuODk1NDg1MTg4MTQzMSBMIDU0NSAtNTQ4LjE1MTU0Mjc1OTQxMjUgTCA1NDUgLTU0OC4xNTE1NDI3NTk0MTI3IEwgNTQ2IC01NDMuNDE4MTgzNTAzMTIxNiBMIDU0NiAtNTQzLjQxODE4MzUwMzEyMiBMIDU0NyAtNTM4LjY5NTQwNzQxOTI3MDYgTCA1NDcgLTUzOC42OTU0MDc0MTkyNzExIEwgNTQ4IC01MzMuOTgzMjE0NTA3ODU5MiBMIDU0OCAtNTMzLjk4MzIxNDUwNzg1OTQgTCA1NDkgLTUyOS4yODE2MDQ3Njg4ODc1IEwgNTQ5IC01MjkuMjgxNjA0NzY4ODg3NyBMIDU1MCAtNTI0LjU5MDU3ODIwMjM1NTEgTCA1NTAgLTUyNC41OTA1NzgyMDIzNTU2IEwgNTUxIC01MTkuOTEwMTM0ODA4MjYyNyBMIDU1MSAtNTE5LjkxMDEzNDgwODI2MjkgTCA1NTIgLTUxNS4yNDAyNzQ1ODY2MDk1IEwgNTUyIC01MTUuMjQwMjc0NTg2NjA5OCBMIDU1MyAtNTEwLjU4MDk5NzUzNzM5NTkgTCA1NTMgLTUxMC41ODA5OTc1MzczOTYzNCBMIDU1NCAtNTA1LjkzMjMwMzY2MDYyMjMgTCA1NTQgLTUwNS45MzIzMDM2NjA2MjI1NSBMIDU1NSAtNTAxLjI5NDE5Mjk1NjI4NzkzIEwgNTU1IC01MDEuMjk0MTkyOTU2Mjg4MTYgTCA1NTYgLTQ5Ni42NjY2NjU0MjQzOTM0IEwgNTU2IC00OTYuNjY2NjY1NDI0MzkzNiBMIDU1NyAtNDkyLjA0OTcyMTA2NDkzODI0IEwgNTU3IC00OTIuMDQ5NzIxMDY0OTM4NiBMIDU1OCAtNDg3LjQ0MzM1OTg3NzkyMjgzIEwgNTU4IC00ODcuNDQzMzU5ODc3OTIzMTcgTCA1NTkgLTQ4Mi44NDc1ODE4NjMzNDcxNiBMIDU1OSAtNDgyLjg0NzU4MTg2MzM0NzUgTCA1NjAgLTQ3OC4yNjIzODcwMjEyMTExIEwgNTYwIC00NzguMjYyMzg3MDIxMjExNDUgTCA1NjEgLTQ3My42ODc3NzUzNTE1MTQzNSBMIDU2MSAtNDczLjY4Nzc3NTM1MTUxNDYgTCA1NjIgLTQ2OS4xMjM3NDY4NTQyNTcxIEwgNTYyIC00NjkuMTIzNzQ2ODU0MjU3NDMgTCA1NjMgLTQ2NC41NzAzMDE1Mjk0Mzk3IEwgNTYzIC00NjQuNTcwMzAxNTI5NDQwMDMgTCA1NjQgLTQ2MC4wMjc0MzkzNzcwNjIxNCBMIDU2NCAtNDYwLjAyNzQzOTM3NzA2MjM2IEwgNTY1IC00NTUuNDk1MTYwMzk3MTI0IEwgNTY1IC00NTUuNDk1MTYwMzk3MTI0MiBMIDU2NiAtNDUwLjk3MzQ2NDU4OTYyNTIgTCA1NjYgLTQ1MC45NzM0NjQ1ODk2MjU0NSBMIDU2NyAtNDQ2LjQ2MjM1MTk1NDU2NjEgTCA1NjcgLTQ0Ni40NjIzNTE5NTQ1NjY0MyBMIDU2OCAtNDQxLjk2MTgyMjQ5MTk0NjggTCA1NjggLTQ0MS45NjE4MjI0OTE5NDcxNSBMIDU2OSAtNDM3LjQ3MTg3NjIwMTc2NzE1IEwgNTY5IC00MzcuNDcxODc2MjAxNzY3NSBMIDU3MCAtNDMyLjk5MjUxMzA4NDAyNyBMIDU3MCAtNDMyLjk5MjUxMzA4NDAyNzM0IEwgNTcxIC00MjguNTIzNzMzMTM4NzI2MjQgTCA1NzEgLTQyOC41MjM3MzMxMzg3MjY2IEwgNTcyIC00MjQuMDY1NTM2MzY1ODY1MSBMIDU3MiAtNDI0LjA2NTUzNjM2NTg2NTQ2IEwgNTczIC00MTkuNjE3OTIyNzY1NDQzOTUgTCA1NzMgLTQxOS42MTc5MjI3NjU0NDQyIEwgNTc0IC00MTUuMTgwODkyMzM3NDYyMyBMIDU3NCAtNDE1LjE4MDg5MjMzNzQ2MjUgTCA1NzUgLTQxMC43NTQ0NDUwODE5MjAxNSBMIDU3NSAtNDEwLjc1NDQ0NTA4MTkyMDUgTCA1NzYgLTQwNi4zMzg1ODA5OTg4MTc1IEwgNTc2IC00MDYuMzM4NTgwOTk4ODE3ODYgTCA1NzcgLTQwMS45MzMzMDAwODgxNTQ2IEwgNTc3IC00MDEuOTMzMzAwMDg4MTU0OTcgTCA1NzggLTM5Ny41Mzg2MDIzNDk5MzExIEwgNTc4IC0zOTcuNTM4NjAyMzQ5OTMxNDcgTCA1NzkgLTM5My4xNTQ0ODc3ODQxNDc1IEwgNTc5IC0zOTMuMTU0NDg3Nzg0MTQ3OCBMIDU4MCAtMzg4Ljc4MDk1NjM5MDgwMzQ1IEwgNTgwIC0zODguNzgwOTU2MzkwODAzOCBMIDU4MSAtMzg0LjQxODAwODE2OTg5OTA1IEwgNTgxIC0zODQuNDE4MDA4MTY5ODk5NCBMIDU4MiAtMzgwLjA2NTY0MzEyMTQzMzk0IEwgNTgyIC0zODAuMDY1NjQzMTIxNDM0MTYgTCA1ODMgLTM3NS43MjM4NjEyNDU0MDg0NCBMIDU4MyAtMzc1LjcyMzg2MTI0NTQwODggTCA1ODQgLTM3MS4zOTI2NjI1NDE4MjI5IEwgNTg0IC0zNzEuMzkyNjYyNTQxODIzMTQgTCA1ODUgLTM2Ny4wNzIwNDcwMTA2NzY4IEwgNTg1IC0zNjcuMDcyMDQ3MDEwNjc3MSBMIDU4NiAtMzYyLjc2MjAxNDY1MTk3MDQgTCA1ODYgLTM2Mi43NjIwMTQ2NTE5NzA3MyBMIDU4NyAtMzU4LjQ2MjU2NTQ2NTcwMzQgTCA1ODcgLTM1OC40NjI1NjU0NjU3MDM3MyBMIDU4OCAtMzU0LjE3MzY5OTQ1MTg3NTkgTCA1ODggLTM1NC4xNzM2OTk0NTE4NzYxMyBMIDU4OSAtMzQ5Ljg5NTQxNjYxMDQ4ODI3IEwgNTg5IC0zNDkuODk1NDE2NjEwNDg4NSBMIDU5MCAtMzQ1LjYyNzcxNjk0MTU0MDI2IEwgNTkwIC0zNDUuNjI3NzE2OTQxNTQwNiBMIDU5MSAtMzQxLjM3MDYwMDQ0NTAzMTg3IEwgNTkxIC0zNDEuMzcwNjAwNDQ1MDMyMSBMIDU5MiAtMzM3LjEyNDA2NzEyMDk2Mjc2IEwgNTkyIC0zMzcuMTI0MDY3MTIwOTYzMSBMIDU5MyAtMzMyLjg4ODExNjk2OTMzMzMgTCA1OTMgLTMzMi44ODgxMTY5NjkzMzM2IEwgNTk0IC0zMjguNjYyNzQ5OTkwMTQzNzcgTCA1OTQgLTMyOC42NjI3NDk5OTAxNDQgTCA1OTUgLTMyNC40NDc5NjYxODMzOTM3NiBMIDU5NSAtMzI0LjQ0Nzk2NjE4MzM5NDEgTCA1OTYgLTMyMC4yNDM3NjU1NDkwODM0IEwgNTk2IC0zMjAuMjQzNzY1NTQ5MDgzNyBMIDU5NyAtMzE2LjA1MDE0ODA4NzIxMjQgTCA1OTcgLTMxNi4wNTAxNDgwODcyMTI2IEwgNTk4IC0zMTEuODY3MTEzNzk3NzgxMjYgTCA1OTggLTMxMS44NjcxMTM3OTc3ODE1IEwgNTk5IC0zMDcuNjk0NjYyNjgwNzg5NCBMIDU5OSAtMzA3LjY5NDY2MjY4MDc4OTc1IEwgNjAwIC0zMDMuNTMyNzk0NzM2MjM3NSBMIDYwMCAtMzAzLjUzMjc5NDczNjIzNzc1IEwgNjAxIC0yOTkuMzgxNTA5OTY0MTI1MTQgTCA2MDEgLTI5OS4zODE1MDk5NjQxMjU1IEwgNjAyIC0yOTUuMjQwODA4MzY0NDUyMDUgTCA2MDIgLTI5NS4yNDA4MDgzNjQ0NTI0IEwgNjAzIC0yOTEuMTEwNjg5OTM3MjE5MDQgTCA2MDMgLTI5MS4xMTA2ODk5MzcyMTkxNSBMIDYwNCAtMjg2Ljk5MTE1NDY4MjQyNTEgTCA2MDQgLTI4Ni45OTExNTQ2ODI0MjU0IEwgNjA1IC0yODIuODgyMjAyNjAwMDcxMiBMIDYwNSAtMjgyLjg4MjIwMjYwMDA3MTQgTCA2MDYgLTI3OC43ODM4MzM2OTAxNTY4IEwgNjA2IC0yNzguNzgzODMzNjkwMTU3MTcgTCA2MDcgLTI3NC42OTYwNDc5NTI2ODIxIEwgNjA3IC0yNzQuNjk2MDQ3OTUyNjgyNCBMIDYwOCAtMjcwLjYxODg0NTM4NzY0NjczIEwgNjA4IC0yNzAuNjE4ODQ1Mzg3NjQ3MDcgTCA2MDkgLTI2Ni41NTIyMjU5OTUwNTEgTCA2MDkgLTI2Ni41NTIyMjU5OTUwNTEzNCBMIDYxMCAtMjYyLjQ5NjE4OTc3NDg5NSBMIDYxMCAtMjYyLjQ5NjE4OTc3NDg5NTM2IEwgNjExIC0yNTguNDUwNzM2NzI3MTc4NzYgTCA2MTEgLTI1OC40NTA3MzY3MjcxNzkgTCA2MTIgLTI1NC40MTU4NjY4NTE5MDIwMiBMIDYxMiAtMjU0LjQxNTg2Njg1MTkwMjM2IEwgNjEzIC0yNTAuMzkxNTgwMTQ5MDY0OCBMIDYxMyAtMjUwLjM5MTU4MDE0OTA2NTAyIEwgNjE0IC0yNDYuMzc3ODc2NjE4NjY2OTYgTCA2MTQgLTI0Ni4zNzc4NzY2MTg2NjcyIEwgNjE1IC0yNDIuMzc0NzU2MjYwNzA4OTggTCA2MTUgLTI0Mi4zNzQ3NTYyNjA3MDkzMiBMIDYxNiAtMjM4LjM4MjIxOTA3NTE5MDYyIEwgNjE2IC0yMzguMzgyMjE5MDc1MTkwOTYgTCA2MTcgLTIzNC40MDAyNjUwNjIxMTIxIEwgNjE3IC0yMzQuNDAwMjY1MDYyMTEyNDUgTCA2MTggLTIzMC40Mjg4OTQyMjE0NzI3NyBMIDYxOCAtMjMwLjQyODg5NDIyMTQ3MyBMIDYxOSAtMjI2LjQ2ODEwNjU1MzI3MzA2IEwgNjE5IC0yMjYuNDY4MTA2NTUzMjczNCBMIDYyMCAtMjIyLjUxNzkwMjA1NzUxMzIgTCA2MjAgLTIyMi41MTc5MDIwNTc1MTM1NCBMIDYyMSAtMjE4LjU3ODI4MDczNDE5Mjg0IEwgNjIxIC0yMTguNTc4MjgwNzM0MTkzMTkgTCA2MjIgLTIxNC42NDkyNDI1ODMzMTIxMiBMIDYyMiAtMjE0LjY0OTI0MjU4MzMxMjQ2IEwgNjIzIC0yMTAuNzMwNzg3NjA0ODcwNzggTCA2MjMgLTIxMC43MzA3ODc2MDQ4NzEgTCA2MjQgLTIwNi44MjI5MTU3OTg4Njk0MiBMIDYyNCAtMjA2LjgyMjkxNTc5ODg2OTc2IEwgNjI1IC0yMDIuOTI1NjI3MTY1MzA3MjIgTCA2MjUgLTIwMi45MjU2MjcxNjUzMDc1NiBMIDYyNiAtMTk5LjAzODkyMTcwNDE4NSBMIDYyNiAtMTk5LjAzODkyMTcwNDE4NTMzIEwgNjI3IC0xOTUuMTYyNzk5NDE1NTAyMjYgTCA2MjcgLTE5NS4xNjI3OTk0MTU1MDI2IEwgNjI4IC0xOTEuMjk3MjYwMjk5MjU5MTYgTCA2MjggLTE5MS4yOTcyNjAyOTkyNTk1IEwgNjI5IC0xODcuNDQyMzA0MzU1NDU1NTggTCA2MjkgLTE4Ny40NDIzMDQzNTU0NTU4IEwgNjMwIC0xODMuNTk3OTMxNTg0MDkxNiBMIDYzMCAtMTgzLjU5NzkzMTU4NDA5MTg0IEwgNjMxIC0xNzkuNzY0MTQxOTg1MTY3MzggTCA2MzEgLTE3OS43NjQxNDE5ODUxNjc2IEwgNjMyIC0xNzUuOTQwOTM1NTU4NjgyNTUgTCA2MzIgLTE3NS45NDA5MzU1NTg2ODI5IEwgNjMzIC0xNzIuMTI4MzEyMzA0NjM3NTcgTCA2MzMgLTE3Mi4xMjgzMTIzMDQ2Mzc4IEwgNjM0IC0xNjguMzI2MjcyMjIzMDMxODggTCA2MzQgLTE2OC4zMjYyNzIyMjMwMzIyMiBMIDYzNSAtMTY0LjUzNDgxNTMxMzg2NjAzIEwgNjM1IC0xNjQuNTM0ODE1MzEzODY2MjYgTCA2MzYgLTE2MC43NTM5NDE1NzcxMzk3IEwgNjM2IC0xNjAuNzUzOTQxNTc3MTQwMDQgTCA2MzcgLTE1Ni45ODM2NTEwMTI4NTMyMiBMIDYzNyAtMTU2Ljk4MzY1MTAxMjg1MzMzIEwgNjM4IC0xNTMuMjIzOTQzNjIxMDA2MDEgTCA2MzggLTE1My4yMjM5NDM2MjEwMDYyNCBMIDYzOSAtMTQ5LjQ3NDgxOTQwMTU5ODQ0IEwgNjM5IC0xNDkuNDc0ODE5NDAxNTk4NjcgTCA2NDAgLTE0NS43MzYyNzgzNTQ2MzA2IEwgNjQwIC0xNDUuNzM2Mjc4MzU0NjMwODMgTCA2NDEgLTE0Mi4wMDgzMjA0ODAxMDIyNyBMIDY0MSAtMTQyLjAwODMyMDQ4MDEwMjM4IEwgNjQyIC0xMzguMjkwOTQ1Nzc4MDEzNjggTCA2NDIgLTEzOC4yOTA5NDU3NzgwMTM2OCBMIDY0MyAtMTM0LjU4NDE1NDI0ODM2NDcgTCA2NDMgLTEzNC41ODQxNTQyNDgzNjQ4MyBMIDY0NCAtMTMwLjg4Nzk0NTg5MTE1NTAzIEwgNjQ0IC0xMzAuODg3OTQ1ODkxMTU1MjUgTCA2NDUgLTEyNy4yMDIzMjA3MDYzODUyIEwgNjQ1IC0xMjcuMjAyMzIwNzA2Mzg1NDIgTCA2NDYgLTEyMy41MjcyNzg2OTQwNTQ3NiBMIDY0NiAtMTIzLjUyNzI3ODY5NDA1NDk4IEwgNjQ3IC0xMTkuODYyODE5ODU0MTY0MjkgTCA2NDcgLTExOS44NjI4MTk4NTQxNjQ0IEwgNjQ4IC0xMTYuMjA4OTQ0MTg2NzEzMjEgTCA2NDggLTExNi4yMDg5NDQxODY3MTMzMiBMIDY0OSAtMTEyLjU2NTY1MTY5MTcwMTc2IEwgNjQ5IC0xMTIuNTY1NjUxNjkxNzAxODcgTCA2NTAgLTEwOC45MzI5NDIzNjkxMjk4MiBMIDY1MCAtMTA4LjkzMjk0MjM2OTEzMDA1IEwgNjUxIC0xMDUuMzEwODE2MjE4OTk3NSBMIDY1MSAtMTA1LjMxMDgxNjIxODk5NzczIEwgNjUyIC0xMDEuNjk5MjczMjQxMzA1MDQgTCA2NTIgLTEwMS42OTkyNzMyNDEzMDUxNSBMIDY1MyAtOTguMDk4MzEzNDM2MDUxOTcgTCA2NTMgLTk4LjA5ODMxMzQzNjA1MjA4IEwgNjU0IC05NC41MDc5MzY4MDMyMzg1MiBMIDY1NCAtOTQuNTA3OTM2ODAzMjM4NjQgTCA2NTUgLTkwLjkyODE0MzM0Mjg2NDcgTCA2NTUgLTkwLjkyODE0MzM0Mjg2NDkzIEwgNjU2IC04Ny4zNTg5MzMwNTQ5MzAyOCBMIDY1NiAtODcuMzU4OTMzMDU0OTMwMzkgTCA2NTcgLTgzLjgwMDMwNTkzOTQzNTgyIEwgNjU3IC04My44MDAzMDU5Mzk0MzU5MyBMIDY1OCAtODAuMjUyMjYxOTk2MzgwODcgTCA2NTggLTgwLjI1MjI2MTk5NjM4MDk4IEwgNjU5IC03Ni43MTQ4MDEyMjU3NjU0MyBMIDY1OSAtNzYuNzE0ODAxMjI1NzY1NjUgTCA2NjAgLTczLjE4NzkyMzYyNzU4OTUgTCA2NjAgLTczLjE4NzkyMzYyNzU4OTczIEwgNjYxIC02OS42NzE2MjkyMDE4NTM0MiBMIDY2MSAtNjkuNjcxNjI5MjAxODUzNTMgTCA2NjIgLTY2LjE2NTkxNzk0ODU1NjYzIEwgNjYyIC02Ni4xNjU5MTc5NDg1NTY4NSBMIDY2MyAtNjIuNjcwNzg5ODY3Njk5Nzk2IEwgNjYzIC02Mi42NzA3ODk4Njc2OTk5MSBMIDY2NCAtNTkuMTg2MjQ0OTU5MjgyMzYgTCA2NjQgLTU5LjE4NjI0NDk1OTI4MjU5IEwgNjY1IC01NS43MTIyODMyMjMzMDQ1NSBMIDY2NSAtNTUuNzEyMjgzMjIzMzA0NjcgTCA2NjYgLTUyLjI0ODkwNDY1OTc2NjQ4IEwgNjY2IC01Mi4yNDg5MDQ2NTk3NjY1OTUgTCA2NjcgLTQ4Ljc5NjEwOTI2ODY2NzY5IEwgNjY3IC00OC43OTYxMDkyNjg2Njc5MiBMIDY2OCAtNDUuMzUzODk3MDUwMDA4NzU0IEwgNjY4IC00NS4zNTM4OTcwNTAwMDg4NyBMIDY2OSAtNDEuOTIyMjY4MDAzNzg5NDQgTCA2NjkgLTQxLjkyMjI2ODAwMzc4OTU1NCBMIDY3MCAtMzguNTAxMjIyMTMwMDA5NjQgTCA2NzAgLTM4LjUwMTIyMjEzMDAwOTc1IEwgNjcxIC0zNS4wOTA3NTk0Mjg2Njk0NiBMIDY3MSAtMzUuMDkwNzU5NDI4NjY5NTcgTCA2NzIgLTMxLjY5MDg3OTg5OTc2ODc4OCBMIDY3MiAtMzEuNjkwODc5ODk5NzY4OTAyIEwgNjczIC0yOC4zMDE1ODM1NDMzMDc5NyBMIDY3MyAtMjguMzAxNTgzNTQzMzA4MDg0IEwgNjc0IC0yNC45MjI4NzAzNTkyODY2NjIgTCA2NzQgLTI0LjkyMjg3MDM1OTI4Njc3NiBMIDY3NSAtMjEuNTU0NzQwMzQ3NzA0NzUgTCA2NzUgLTIxLjU1NDc0MDM0NzcwNDg2NSBMIDY3NiAtMTguMTk3MTkzNTA4NTYyODA1IEwgNjc2IC0xOC4xOTcxOTM1MDg1NjI5MiBMIDY3NyAtMTQuODUwMjI5ODQxODYwMDI4IEwgNjc3IC0xNC44NTAyMjk4NDE4NjAxNDEgTCA2NzggLTExLjUxMzg0OTM0NzU5NzIxNSBMIDY3OCAtMTEuNTEzODQ5MzQ3NTk3MzMgTCA2NzkgLTguMTg4MDUyMDI1Nzc0MDI3IEwgNjc5IC04LjE4ODA1MjAyNTc3NDE0MSBMIDY4MCAtNC44NzI4Mzc4NzYzOTAyMzYgTCA2ODAgLTQuODcyODM3ODc2MzkwNDYzIEwgNjgxIC0xLjU2ODIwNjg5OTQ0NjA2NzggTCA2ODEgLTEuNTY4MjA2ODk5NDQ2MTgxNSBMIDY4MiAxLjcyNTg0MDkwNTA1ODU4OTcgTCA2ODIgMS43MjU4NDA5MDUwNTg0NzYgTCA2ODMgNS4wMDkzMDU1MzcxMjM0NTMgTCA2ODMgNS4wMDkzMDU1MzcxMjMzMzkgTCA2ODQgOC4yODIxODY5OTY3NDg2OTIgTCA2ODQgOC4yODIxODY5OTY3NDg1NzggTCA2ODUgMTEuNTQ0NDg1MjgzOTM0MzA3IEwgNjg1IDExLjU0NDQ4NTI4MzkzNDE5MyBMIDY4NiAxNC43OTYyMDAzOTg2ODA1ODMgTCA2ODYgMTQuNzk2MjAwMzk4NjgwNDEyIEwgNjg3IDE4LjAzNzMzMjM0MDk4NzAwNyBMIDY4NyAxOC4wMzczMzIzNDA5ODY4MzYgTCA2ODggMjEuMjY3ODgxMTEwODUzOTc4IEwgNjg4IDIxLjI2Nzg4MTExMDg1MzgwNyBMIDY4OSAyNC40ODc4NDY3MDgyODEzMjQgTCA2ODkgMjQuNDg3ODQ2NzA4MjgxMTU0IEwgNjkwIDI3LjY5NzIyOTEzMzI2ODkzNCBMIDY5MCAyNy42OTcyMjkxMzMyNjg3NjMgTCA2OTEgMzAuODk2MDI4Mzg1ODE3MDkgTCA2OTEgMzAuODk2MDI4Mzg1ODE2OTIgTCA2OTIgMzQuMDg0MjQ0NDY1OTI1NDUgTCA2OTIgMzQuMDg0MjQ0NDY1OTI1MzQgTCA2OTMgMzcuMjYxODc3MzczNTk0NDE2IEwgNjkzIDM3LjI2MTg3NzM3MzU5NDI0NSBMIDY5NCA0MC40Mjg5MjcxMDg4MjM2NCBMIDY5NCA0MC40Mjg5MjcxMDg4MjM0NyBMIDY5NSA0My41ODUzOTM2NzE2MTMyNSBMIDY5NSA0My41ODUzOTM2NzE2MTMwNzYgTCA2OTYgNDYuNzMxMjc3MDYxOTYzNDUgTCA2OTYgNDYuNzMxMjc3MDYxOTYzMjggTCA2OTcgNDkuODY2NTc3Mjc5ODczODY2IEwgNjk3IDQ5Ljg2NjU3NzI3OTg3Mzc1IEwgNjk4IDUyLjk5MTI5NDMyNTM0NDgyNSBMIDY5OCA1Mi45OTEyOTQzMjUzNDQ2NTQgTCA2OTkgNTYuMTA1NDI4MTk4Mzc2MDQ2IEwgNjk5IDU2LjEwNTQyODE5ODM3NTg3NiBMIDcwMCA1OS4yMDg5Nzg4OTg5Njc1OSBMIDcwMCA1OS4yMDg5Nzg4OTg5Njc0NyBMIDcwMSA2Mi4zMDE5NDY0MjcxMTk3MyBMIDcwMSA2Mi4zMDE5NDY0MjcxMTk2MiBMIDcwMiA2NS4zODQzMzA3ODI4MzIwOCBMIDcwMiA2NS4zODQzMzA3ODI4MzE5NyBMIDcwMyA2OC40NTYxMzE5NjYxMDQ5MiBMIDcwMyA2OC40NTYxMzE5NjYxMDQ3NSBMIDcwNCA3MS41MTczNDk5NzY5MzgyNSBMIDcwNCA3MS41MTczNDk5NzY5MzgwOCBMIDcwNSA3NC41Njc5ODQ4MTUzMzE3OCBMIDcwNSA3NC41Njc5ODQ4MTUzMzE2MSBMIDcwNiA3Ny42MDgwMzY0ODEyODU4MSBMIDcwNiA3Ny42MDgwMzY0ODEyODU2NCBMIDcwNyA4MC42Mzc1MDQ5NzQ4MDAzMiBMIDcwNyA4MC42Mzc1MDQ5NzQ4MDAxNSBMIDcwOCA4My42NTYzOTAyOTU4NzUxIEwgNzA4IDgzLjY1NjM5MDI5NTg3NDkzIEwgNzA5IDg2LjY2NDY5MjQ0NDUxMDM3IEwgNzA5IDg2LjY2NDY5MjQ0NDUxMDIgTCA3MTAgODkuNjYyNDExNDIwNzA1OSBMIDcxMCA4OS42NjI0MTE0MjA3MDU3OCBMIDcxMSA5Mi42NDk1NDcyMjQ0NjE4NiBMIDcxMSA5Mi42NDk1NDcyMjQ0NjE3NCBMIDcxMiA5NS42MjYwOTk4NTU3Nzg0MiBMIDcxMiA5NS42MjYwOTk4NTU3NzgyNSBMIDcxMyA5OC41OTIwNjkzMTQ2NTUxMyBMIDcxMyA5OC41OTIwNjkzMTQ2NTQ5NiBMIDcxNCAxMDEuNTQ3NDU1NjAxMDkyNDUgTCA3MTQgMTAxLjU0NzQ1NTYwMTA5MjI4IEwgNzE1IDEwNC40OTIyNTg3MTUwODk5MiBMIDcxNSAxMDQuNDkyMjU4NzE1MDg5NzUgTCA3MTYgMTA3LjQyNjQ3ODY1NjY0NzgyIEwgNzE2IDEwNy40MjY0Nzg2NTY2NDc3IEwgNzE3IDExMC4zNTAxMTU0MjU3NjYzMiBMIDcxNyAxMTAuMzUwMTE1NDI1NzY2MTUgTCA3MTggMTEzLjI2MzE2OTAyMjQ0NTA4IEwgNzE4IDExMy4yNjMxNjkwMjI0NDQ5MSBMIDcxOSAxMTYuMTY1NjM5NDQ2Njg0NCBMIDcxOSAxMTYuMTY1NjM5NDQ2Njg0MjIgTCA3MjAgMTE5LjA1NzUyNjY5ODQ4MzggTCA3MjAgMTE5LjA1NzUyNjY5ODQ4MzY4IEwgNzIxIDEyMS45Mzg4MzA3Nzc4NDM3NSBMIDcyMSAxMjEuOTM4ODMwNzc3ODQzNTggTCA3MjIgMTI0LjgwOTU1MTY4NDc2NDI0IEwgNzIyIDEyNC44MDk1NTE2ODQ3NjQwNyBMIDcyMyAxMjcuNjY5Njg5NDE5MjQ0OTUgTCA3MjMgMTI3LjY2OTY4OTQxOTI0NDc4IEwgNzI0IDEzMC41MTkyNDM5ODEyODYxNCBMIDcyNCAxMzAuNTE5MjQzOTgxMjg1OTcgTCA3MjUgMTMzLjM1ODIxNTM3MDg4NzY1IEwgNzI1IDEzMy4zNTgyMTUzNzA4ODc1NCBMIDcyNiAxMzYuMTg2NjAzNTg4MDQ5NTQgTCA3MjYgMTM2LjE4NjYwMzU4ODA0OTQyIEwgNzI3IDEzOS4wMDQ0MDg2MzI3NzE5IEwgNzI3IDEzOS4wMDQ0MDg2MzI3NzE4IEwgNzI4IDE0MS44MTE2MzA1MDUwNTQ2NyBMIDcyOCAxNDEuODExNjMwNTA1MDU0NSBMIDcyOSAxNDQuNjA4MjY5MjA0ODk3OCBMIDcyOSAxNDQuNjA4MjY5MjA0ODk3NjIgTCA3MzAgMTQ3LjM5NDMyNDczMjMwMTM2IEwgNzMwIDE0Ny4zOTQzMjQ3MzIzMDEyIEwgNzMxIDE1MC4xNjk3OTcwODcyNjUyNCBMIDczMSAxNTAuMTY5Nzk3MDg3MjY1MDcgTCA3MzIgMTUyLjkzNDY4NjI2OTc4OTU1IEwgNzMyIDE1Mi45MzQ2ODYyNjk3ODkzOCBMIDczMyAxNTUuNjg4OTkyMjc5ODc0MyBMIDczMyAxNTUuNjg4OTkyMjc5ODc0MTMgTCA3MzQgMTU4LjQzMjcxNTExNzUxOTM2IEwgNzM0IDE1OC40MzI3MTUxMTc1MTkyNSBMIDczNSAxNjEuMTY1ODU0NzgyNzI0OTggTCA3MzUgMTYxLjE2NTg1NDc4MjcyNDggTCA3MzYgMTYzLjg4ODQxMTI3NTQ5MDggTCA3MzYgMTYzLjg4ODQxMTI3NTQ5MDY4IEwgNzM3IDE2Ni42MDAzODQ1OTU4MTcgTCA3MzcgMTY2LjYwMDM4NDU5NTgxNjkzIEwgNzM4IDE2OS4zMDE3NzQ3NDM3MDM4NSBMIDczOCAxNjkuMzAxNzc0NzQzNzAzNjcgTCA3MzkgMTcxLjk5MjU4MTcxOTE1MDg1IEwgNzM5IDE3MS45OTI1ODE3MTkxNTA3MyBMIDc0MCAxNzQuNjcyODA1NTIyMTU4NDYgTCA3NDAgMTc0LjY3MjgwNTUyMjE1ODM0IEwgNzQxIDE3Ny4zNDI0NDYxNTI3MjYyNyBMIDc0MSAxNzcuMzQyNDQ2MTUyNzI2MiBMIDc0MiAxODAuMDAxNTAzNjEwODU0NTcgTCA3NDIgMTgwLjAwMTUwMzYxMDg1NDQ2IEwgNzQzIDE4Mi42NDk5Nzc4OTY1NDMyNSBMIDc0MyAxODIuNjQ5OTc3ODk2NTQzMTMgTCA3NDQgMTg1LjI4Nzg2OTAwOTc5MjI1IEwgNzQ0IDE4NS4yODc4NjkwMDk3OTIyIEwgNzQ1IDE4Ny45MTUxNzY5NTA2MDE3MyBMIDc0NSAxODcuOTE1MTc2OTUwNjAxNjggTCA3NDYgMTkwLjUzMTkwMTcxODk3MTY1IEwgNzQ2IDE5MC41MzE5MDE3MTg5NzE2IEwgNzQ3IDE5My4xMzgwNDMzMTQ5MDE5IEwgNzQ3IDE5My4xMzgwNDMzMTQ5MDE3OCBMIDc0OCAxOTUuNzMzNjAxNzM4MzkyNSBMIDc0OCAxOTUuNzMzNjAxNzM4MzkyNDUgTCA3NDkgMTk4LjMxODU3Njk4OTQ0MzU2IEwgNzQ5IDE5OC4zMTg1NzY5ODk0NDM1IEwgNzUwIDIwMC44OTI5NjkwNjgwNTUxIEwgNzUwIDIwMC44OTI5NjkwNjgwNTUwNCBMIDc1MSAyMDMuNDU2Nzc3OTc0MjI2OTUgTCA3NTEgMjAzLjQ1Njc3Nzk3NDIyNjg0IEwgNzUyIDIwNi4wMTAwMDM3MDc5NTkwNyBMIDc1MiAyMDYuMDEwMDAzNzA3OTU5MDIgTCA3NTMgMjA4LjU1MjY0NjI2OTI1MTggTCA3NTMgMjA4LjU1MjY0NjI2OTI1MTc0IEwgNzU0IDIxMS4wODQ3MDU2NTgxMDQ4NCBMIDc1NCAyMTEuMDg0NzA1NjU4MTA0NzIgTCA3NTUgMjEzLjYwNjE4MTg3NDUxODMgTCA3NTUgMjEzLjYwNjE4MTg3NDUxODIgTCA3NTYgMjE2LjExNzA3NDkxODQ5MiBMIDc1NiAyMTYuMTE3MDc0OTE4NDkxOTQgTCA3NTcgMjE4LjYxNzM4NDc5MDAyNjI4IEwgNzU3IDIxOC42MTczODQ3OTAwMjYyMiBMIDc1OCAyMjEuMTA3MTExNDg5MTIwODggTCA3NTggMjIxLjEwNzExMTQ4OTEyMDgzIEwgNzU5IDIyMy41ODYyNTUwMTU3NzU5MiBMIDc1OSAyMjMuNTg2MjU1MDE1Nzc1ODYgTCA3NjAgMjI2LjA1NDgxNTM2OTk5MTI3IEwgNzYwIDIyNi4wNTQ4MTUzNjk5OTEyMiBMIDc2MSAyMjguNTEyNzkyNTUxNzY3MDYgTCA3NjEgMjI4LjUxMjc5MjU1MTc2NyBMIDc2MiAyMzAuOTYwMTg2NTYxMTAzMjggTCA3NjIgMjMwLjk2MDE4NjU2MTEwMzIzIEwgNzYzIDIzMy4zOTY5OTczOTggTCA3NjMgMjMzLjM5Njk5NzM5Nzk5OTg4IEwgNzY0IDIzNS44MjMyMjUwNjI0NTY5NyBMIDc2NCAyMzUuODIzMjI1MDYyNDU2OSBMIDc2NSAyMzguMjM4ODY5NTU0NDc0MzIgTCA3NjUgMjM4LjIzODg2OTU1NDQ3NDIgTCA3NjYgMjQwLjY0MzkzMDg3NDA1MjA1IEwgNzY2IDI0MC42NDM5MzA4NzQwNTIgTCA3NjcgMjQzLjAzODQwOTAyMTE5MDI2IEwgNzY3IDI0My4wMzg0MDkwMjExOTAyIEwgNzY4IDI0NS40MjIzMDM5OTU4ODg4NSBMIDc2OCAyNDUuNDIyMzAzOTk1ODg4OCBMIDc2OSAyNDcuNzk1NjE1Nzk4MTQ3ODIgTCA3NjkgMjQ3Ljc5NTYxNTc5ODE0NzcgTCA3NzAgMjUwLjE1ODM0NDQyNzk2NzE3IEwgNzcwIDI1MC4xNTgzNDQ0Mjc5NjcxIEwgNzcxIDI1Mi41MTA0ODk4ODUzNDY5NCBMIDc3MSAyNTIuNTEwNDg5ODg1MzQ2ODkgTCA3NzIgMjU0Ljg1MjA1MjE3MDI4NzE1IEwgNzcyIDI1NC44NTIwNTIxNzAyODcwNCBMIDc3MyAyNTcuMTgzMDMxMjgyNzg3NiBMIDc3MyAyNTcuMTgzMDMxMjgyNzg3NSBMIDc3NCAyNTkuNTAzNDI3MjIyODQ4NjQgTCA3NzQgMjU5LjUwMzQyNzIyMjg0ODUzIEwgNzc1IDI2MS44MTMyMzk5OTA0NyBMIDc3NSAyNjEuODEzMjM5OTkwNDY5OSBMIDc3NiAyNjQuMTEyNDY5NTg1NjUxNzUgTCA3NzYgMjY0LjExMjQ2OTU4NTY1MTY0IEwgNzc3IDI2Ni40MDExMTYwMDgzOTM5IEwgNzc3IDI2Ni40MDExMTYwMDgzOTM4NCBMIDc3OCAyNjguNjc5MTc5MjU4Njk2NCBMIDc3OCAyNjguNjc5MTc5MjU4Njk2MyBMIDc3OSAyNzAuOTQ2NjU5MzM2NTU5MyBMIDc3OSAyNzAuOTQ2NjU5MzM2NTU5MjYgTCA3ODAgMjczLjIwMzU1NjI0MTk4MjY1IEwgNzgwIDI3My4yMDM1NTYyNDE5ODI2IEwgNzgxIDI3NS40NDk4Njk5NzQ5NjYzNiBMIDc4MSAyNzUuNDQ5ODY5OTc0OTY2MyBMIDc4MiAyNzcuNjg1NjAwNTM1NTEwNSBMIDc4MiAyNzcuNjg1NjAwNTM1NTEwNCBMIDc4MyAyNzkuOTEwNzQ3OTIzNjE0OTYgTCA3ODMgMjc5LjkxMDc0NzkyMzYxNDkgTCA3ODQgMjgyLjEyNTMxMjEzOTI3OTkgTCA3ODQgMjgyLjEyNTMxMjEzOTI3OTkgTCA3ODUgMjg0LjMyOTI5MzE4MjUwNTI0IEwgNzg1IDI4NC4zMjkyOTMxODI1MDUyIEwgNzg2IDI4Ni41MjI2OTEwNTMyOTA5NCBMIDc4NiAyODYuNTIyNjkxMDUzMjkwOCBMIDc4NyAyODguNzA1NTA1NzUxNjM3IEwgNzg3IDI4OC43MDU1MDU3NTE2MzY5NiBMIDc4OCAyOTAuODc3NzM3Mjc3NTQzNTMgTCA3ODggMjkwLjg3NzczNzI3NzU0MzUgTCA3ODkgMjkzLjAzOTM4NTYzMTAxMDUgTCA3ODkgMjkzLjAzOTM4NTYzMTAxMDQgTCA3OTAgMjk1LjE5MDQ1MDgxMjAzNzc0IEwgNzkwIDI5NS4xOTA0NTA4MTIwMzc2IEwgNzkxIDI5Ny4zMzA5MzI4MjA2MjU0MyBMIDc5MSAyOTcuMzMwOTMyODIwNjI1MyBMIDc5MiAyOTkuNDYwODMxNjU2NzczNDUgTCA3OTIgMjk5LjQ2MDgzMTY1Njc3MzQgTCA3OTMgMzAxLjU4MDE0NzMyMDQ4MTk2IEwgNzkzIDMwMS41ODAxNDczMjA0ODE5IEwgNzk0IDMwMy42ODg4Nzk4MTE3NTA4IEwgNzk0IDMwMy42ODg4Nzk4MTE3NTA3IEwgNzk1IDMwNS43ODcwMjkxMzA1ODAxIEwgNzk1IDMwNS43ODcwMjkxMzA1ODAwNCBMIDc5NiAzMDcuODc0NTk1Mjc2OTY5OCBMIDc5NiAzMDcuODc0NTk1Mjc2OTY5NjcgTCA3OTcgMzA5Ljk1MTU3ODI1MDkxOTg1IEwgNzk3IDMwOS45NTE1NzgyNTA5MTk3NCBMIDc5OCAzMTIuMDE3OTc4MDUyNDMwMyBMIDc5OCAzMTIuMDE3OTc4MDUyNDMwMjQgTCA3OTkgMzE0LjA3Mzc5NDY4MTUwMTEgTCA3OTkgMzE0LjA3Mzc5NDY4MTUwMSBMIDgwMCAzMTYuMTE5MDI4MTM4MTMyMzYgTCA4MDAgMzE2LjExOTAyODEzODEzMjMgTCA4MDEgMzE4LjE1MzY3ODQyMjMyNCBMIDgwMSAzMTguMTUzNjc4NDIyMzIzOTQgTCA4MDIgMzIwLjE3Nzc0NTUzNDA3NiBMIDgwMiAzMjAuMTc3NzQ1NTM0MDc1OTQgTCA4MDMgMzIyLjE5MTIyOTQ3MzM4ODUgTCA4MDMgMzIyLjE5MTIyOTQ3MzM4ODUgTCA4MDQgMzI0LjE5NDEzMDI0MDI2MTMgTCA4MDQgMzI0LjE5NDEzMDI0MDI2MTI1IEwgODA1IDMyNi4xODY0NDc4MzQ2OTQ1IEwgODA1IDMyNi4xODY0NDc4MzQ2OTQ1IEwgODA2IDMyOC4xNjgxODIyNTY2ODgxNyBMIDgwNiAzMjguMTY4MTgyMjU2Njg4MSBMIDgwNyAzMzAuMTM5MzMzNTA2MjQyMTcgTCA4MDcgMzMwLjEzOTMzMzUwNjI0MjEgTCA4MDggMzMyLjA5OTkwMTU4MzM1NjYgTCA4MDggMzMyLjA5OTkwMTU4MzM1NjU0IEwgODA5IDMzNC4wNDk4ODY0ODgwMzE0IEwgODA5IDMzNC4wNDk4ODY0ODgwMzEzNSBMIDgxMCAzMzUuOTg5Mjg4MjIwMjY2NjQgTCA4MTAgMzM1Ljk4OTI4ODIyMDI2NjUzIEwgODExIDMzNy45MTgxMDY3ODAwNjIyNiBMIDgxMSAzMzcuOTE4MTA2NzgwMDYyMiBMIDgxMiAzMzkuODM2MzQyMTY3NDE4MiBMIDgxMiAzMzkuODM2MzQyMTY3NDE4MTQgTCA4MTMgMzQxLjc0Mzk5NDM4MjMzNDYgTCA4MTMgMzQxLjc0Mzk5NDM4MjMzNDU2IEwgODE0IDM0My42NDEwNjM0MjQ4MTE0IEwgODE0IDM0My42NDEwNjM0MjQ4MTEzNiBMIDgxNSAzNDUuNTI3NTQ5Mjk0ODQ4NTQgTCA4MTUgMzQ1LjUyNzU0OTI5NDg0ODU0IEwgODE2IDM0Ny40MDM0NTE5OTI0NDYxIEwgODE2IDM0Ny40MDM0NTE5OTI0NDYxIEwgODE3IDM0OS4yNjg3NzE1MTc2MDQxNCBMIDgxNyAzNDkuMjY4NzcxNTE3NjA0MTQgTCA4MTggMzUxLjEyMzUwNzg3MDMyMjU2IEwgODE4IDM1MS4xMjM1MDc4NzAzMjI1IEwgODE5IDM1Mi45Njc2NjEwNTA2MDEzNSBMIDgxOSAzNTIuOTY3NjYxMDUwNjAxMyBMIDgyMCAzNTQuODAxMjMxMDU4NDQwNCBMIDgyMCAzNTQuODAxMjMxMDU4NDQwNCBMIDgyMSAzNTYuNjI0MjE3ODkzODQgTCA4MjEgMzU2LjYyNDIxNzg5MzgzOTk1IEwgODIyIDM1OC40MzY2MjE1NTY4IEwgODIyIDM1OC40MzY2MjE1NTY4IEwgODIzIDM2MC4yMzg0NDIwNDczMjAzNSBMIDgyMyAzNjAuMjM4NDQyMDQ3MzIwMyBMIDgyNCAzNjIuMDI5Njc5MzY1NDAxMSBMIDgyNCAzNjIuMDI5Njc5MzY1NDAxMSBMIDgyNSAzNjMuODEwMzMzNTExMDQyMjQgTCA4MjUgMzYzLjgxMDMzMzUxMTA0MjIgTCA4MjYgMzY1LjU4MDQwNDQ4NDI0MzggTCA4MjYgMzY1LjU4MDQwNDQ4NDI0MzczIEwgODI3IDM2Ny4zMzk4OTIyODUwMDU3IEwgODI3IDM2Ny4zMzk4OTIyODUwMDU3IEwgODI4IDM2OS4wODg3OTY5MTMzMjggTCA4MjggMzY5LjA4ODc5NjkxMzMyOCBMIDgyOSAzNzAuODI3MTE4MzY5MjEwOCBMIDgyOSAzNzAuODI3MTE4MzY5MjEwOCBMIDgzMCAzNzIuNTU0ODU2NjUyNjUzOTQgTCA4MzAgMzcyLjU1NDg1NjY1MjY1MzkgTCA4MzEgMzc0LjI3MjAxMTc2MzY1NzQgTCA4MzEgMzc0LjI3MjAxMTc2MzY1NzM2IEwgODMyIDM3NS45Nzg1ODM3MDIyMjE0IEwgODMyIDM3NS45Nzg1ODM3MDIyMjEzMyBMIDgzMyAzNzcuNjc0NTcyNDY4MzQ1NyBMIDgzMyAzNzcuNjc0NTcyNDY4MzQ1NTYgTCA4MzQgMzc5LjM1OTk3ODA2MjAzMDM0IEwgODM0IDM3OS4zNTk5NzgwNjIwMzAzNCBMIDgzNSAzODEuMDM0ODAwNDgzMjc1NSBMIDgzNSAzODEuMDM0ODAwNDgzMjc1NDMgTCA4MzYgMzgyLjY5OTAzOTczMjA4MDk2IEwgODM2IDM4Mi42OTkwMzk3MzIwODA5IEwgODM3IDM4NC4zNTI2OTU4MDg0NDY4NyBMIDgzNyAzODQuMzUyNjk1ODA4NDQ2OCBMIDgzOCAzODUuOTk1NzY4NzEyMzczMTUgTCA4MzggMzg1Ljk5NTc2ODcxMjM3MzEgTCA4MzkgMzg3LjYyODI1ODQ0Mzg1OTg2IEwgODM5IDM4Ny42MjgyNTg0NDM4NTk4IEwgODQwIDM4OS4yNTAxNjUwMDI5MDY5NSBMIDg0MCAzODkuMjUwMTY1MDAyOTA2OSBMIDg0MSAzOTAuODYxNDg4Mzg5NTE0NCBMIDg0MSAzOTAuODYxNDg4Mzg5NTE0MzYgTCA4NDIgMzkyLjQ2MjIyODYwMzY4MjMgTCA4NDIgMzkyLjQ2MjIyODYwMzY4MjI2IEwgODQzIDM5NC4wNTIzODU2NDU0MTA2IEwgODQzIDM5NC4wNTIzODU2NDU0MTA1NCBMIDg0NCAzOTUuNjMxOTU5NTE0Njk5MjUgTCA4NDQgMzk1LjYzMTk1OTUxNDY5OTI1IEwgODQ1IDM5Ny4yMDA5NTAyMTE1NDgzMyBMIDg0NSAzOTcuMjAwOTUwMjExNTQ4MyBMIDg0NiAzOTguNzU5MzU3NzM1OTU3NzQgTCA4NDYgMzk4Ljc1OTM1NzczNTk1NzcgTCA4NDcgNDAwLjMwNzE4MjA4NzkyNzYzIEwgODQ3IDQwMC4zMDcxODIwODc5Mjc2IEwgODQ4IDQwMS44NDQ0MjMyNjc0NTc5IEwgODQ4IDQwMS44NDQ0MjMyNjc0NTc4NCBMIDg0OSA0MDMuMzcxMDgxMjc0NTQ4NSBMIDg0OSA0MDMuMzcxMDgxMjc0NTQ4NSBMIDg1MCA0MDQuODg3MTU2MTA5MTk5NiBMIDg1MCA0MDQuODg3MTU2MTA5MTk5NTcgTCA4NTEgNDA2LjM5MjY0Nzc3MTQxMSBMIDg1MSA0MDYuMzkyNjQ3NzcxNDEwOTYgTCA4NTIgNDA3Ljg4NzU1NjI2MTE4Mjg1IEwgODUyIDQwNy44ODc1NTYyNjExODI4IEwgODUzIDQwOS4zNzE4ODE1Nzg1MTUwNiBMIDg1MyA0MDkuMzcxODgxNTc4NTE1MDYgTCA4NTQgNDEwLjg0NTYyMzcyMzQwNzcgTCA4NTQgNDEwLjg0NTYyMzcyMzQwNzY0IEwgODU1IDQxMi4zMDg3ODI2OTU4NjA3IEwgODU1IDQxMi4zMDg3ODI2OTU4NjA3IEwgODU2IDQxMy43NjEzNTg0OTU4NzQxNiBMIDg1NiA0MTMuNzYxMzU4NDk1ODc0MSBMIDg1NyA0MTUuMjAzMzUxMTIzNDQ3OTMgTCA4NTcgNDE1LjIwMzM1MTEyMzQ0NzkgTCA4NTggNDE2LjYzNDc2MDU3ODU4MjI1IEwgODU4IDQxNi42MzQ3NjA1Nzg1ODIyIEwgODU5IDQxOC4wNTU1ODY4NjEyNzY3NyBMIDg1OSA0MTguMDU1NTg2ODYxMjc2NzcgTCA4NjAgNDE5LjQ2NTgyOTk3MTUzMTgzIEwgODYwIDQxOS40NjU4Mjk5NzE1MzE4IEwgODYxIDQyMC44NjU0ODk5MDkzNDcyIEwgODYxIDQyMC44NjU0ODk5MDkzNDcxNiBMIDg2MiA0MjIuMjU0NTY2Njc0NzIzIEwgODYyIDQyMi4yNTQ1NjY2NzQ3MjI5IEwgODYzIDQyMy42MzMwNjAyNjc2NTkyMyBMIDg2MyA0MjMuNjMzMDYwMjY3NjU5MiBMIDg2NCA0MjUuMDAwOTcwNjg4MTU1OCBMIDg2NCA0MjUuMDAwOTcwNjg4MTU1NzUgTCA4NjUgNDI2LjM1ODI5NzkzNjIxMjggTCA4NjUgNDI2LjM1ODI5NzkzNjIxMjc1IEwgODY2IDQyNy43MDUwNDIwMTE4MzAyIEwgODY2IDQyNy43MDUwNDIwMTE4MzAxMyBMIDg2NyA0MjkuMDQxMjAyOTE1MDA3OTQgTCA4NjcgNDI5LjA0MTIwMjkxNTAwNzkgTCA4NjggNDMwLjM2Njc4MDY0NTc0NjEgTCA4NjggNDMwLjM2Njc4MDY0NTc0NjEgTCA4NjkgNDMxLjY4MTc3NTIwNDA0NDY0IEwgODY5IDQzMS42ODE3NzUyMDQwNDQ2NCBMIDg3MCA0MzIuOTg2MTg2NTg5OTAzNiBMIDg3MCA0MzIuOTg2MTg2NTg5OTAzNiBMIDg3MSA0MzQuMjgwMDE0ODAzMzIyOTYgTCA4NzEgNDM0LjI4MDAxNDgwMzMyMjk2IEwgODcyIDQzNS41NjMyNTk4NDQzMDI3IEwgODcyIDQzNS41NjMyNTk4NDQzMDI3IEwgODczIDQzNi44MzU5MjE3MTI4NDI5IEwgODczIDQzNi44MzU5MjE3MTI4NDI4MyBMIDg3NCA0MzguMDk4MDAwNDA4OTQzNDUgTCA4NzQgNDM4LjA5ODAwMDQwODk0MzQ1IEwgODc1IDQzOS4zNDk0OTU5MzI2MDQ0IEwgODc1IDQzOS4zNDk0OTU5MzI2MDQ0IEwgODc2IDQ0MC41OTA0MDgyODM4MjU3IEwgODc2IDQ0MC41OTA0MDgyODM4MjU3IEwgODc3IDQ0MS44MjA3Mzc0NjI2MDc0NCBMIDg3NyA0NDEuODIwNzM3NDYyNjA3NDQgTCA4NzggNDQzLjA0MDQ4MzQ2ODk0OTU2IEwgODc4IDQ0My4wNDA0ODM0Njg5NDk1NiBMIDg3OSA0NDQuMjQ5NjQ2MzAyODUyMSBMIDg3OSA0NDQuMjQ5NjQ2MzAyODUyMSBMIDg4MCA0NDUuNDQ4MjI1OTY0MzE1MDQgTCA4ODAgNDQ1LjQ0ODIyNTk2NDMxNTA0IEwgODgxIDQ0Ni42MzYyMjI0NTMzMzgzNSBMIDg4MSA0NDYuNjM2MjIyNDUzMzM4MzUgTCA4ODIgNDQ3LjgxMzYzNTc2OTkyMjEgTCA4ODIgNDQ3LjgxMzYzNTc2OTkyMjAzIEwgODgzIDQ0OC45ODA0NjU5MTQwNjYyIEwgODgzIDQ0OC45ODA0NjU5MTQwNjYxNCBMIDg4NCA0NTAuMTM2NzEyODg1NzcwNyBMIDg4NCA0NTAuMTM2NzEyODg1NzcwNyBMIDg4NSA0NTEuMjgyMzc2Njg1MDM1NiBMIDg4NSA0NTEuMjgyMzc2Njg1MDM1NTYgTCA4ODYgNDUyLjQxNzQ1NzMxMTg2MDkgTCA4ODYgNDUyLjQxNzQ1NzMxMTg2MDg2IEwgODg3IDQ1My41NDE5NTQ3NjYyNDY2IEwgODg3IDQ1My41NDE5NTQ3NjYyNDY2IEwgODg4IDQ1NC42NTU4NjkwNDgxOTI3IEwgODg4IDQ1NC42NTU4NjkwNDgxOTI2NCBMIDg4OSA0NTUuNzU5MjAwMTU3Njk5MiBMIDg4OSA0NTUuNzU5MjAwMTU3Njk5MSBMIDg5MCA0NTYuODUxOTQ4MDk0NzY2MDQgTCA4OTAgNDU2Ljg1MTk0ODA5NDc2NjA0IEwgODkxIDQ1Ny45MzQxMTI4NTkzOTMzNCBMIDg5MSA0NTcuOTM0MTEyODU5MzkzMzQgTCA4OTIgNDU5LjAwNTY5NDQ1MTU4MSBMIDg5MiA0NTkuMDA1Njk0NDUxNTgxIEwgODkzIDQ2MC4wNjY2OTI4NzEzMjkwNSBMIDg5MyA0NjAuMDY2NjkyODcxMzI5MDUgTCA4OTQgNDYxLjExNzEwODExODYzNzUzIEwgODk0IDQ2MS4xMTcxMDgxMTg2Mzc1MyBMIDg5NSA0NjIuMTU2OTQwMTkzNTA2NDQgTCA4OTUgNDYyLjE1Njk0MDE5MzUwNjQgTCA4OTYgNDYzLjE4NjE4OTA5NTkzNTcgTCA4OTYgNDYzLjE4NjE4OTA5NTkzNTcgTCA4OTcgNDY0LjIwNDg1NDgyNTkyNTM0IEwgODk3IDQ2NC4yMDQ4NTQ4MjU5MjUzIEwgODk4IDQ2NS4yMTI5MzczODM0NzU0IEwgODk4IDQ2NS4yMTI5MzczODM0NzU0IEwgODk5IDQ2Ni4yMTA0MzY3Njg1ODU4NSBMIDg5OSA0NjYuMjEwNDM2NzY4NTg1OCBMIDkwMCA0NjcuMTk3MzUyOTgxMjU2NyBMIDkwMCA0NjcuMTk3MzUyOTgxMjU2NjQgTCA5MDEgNDY4LjE3MzY4NjAyMTQ4NzkgTCA5MDEgNDY4LjE3MzY4NjAyMTQ4Nzg3IEwgOTAyIDQ2OS4xMzk0MzU4ODkyNzk1IEwgOTAyIDQ2OS4xMzk0MzU4ODkyNzk1IEwgOTAzIDQ3MC4wOTQ2MDI1ODQ2MzE1NiBMIDkwMyA0NzAuMDk0NjAyNTg0NjMxNTYgTCA5MDQgNDcxLjAzOTE4NjEwNzU0NCBMIDkwNCA0NzEuMDM5MTg2MTA3NTQzOTcgTCA5MDUgNDcxLjk3MzE4NjQ1ODAxNjggTCA5MDUgNDcxLjk3MzE4NjQ1ODAxNjggTCA5MDYgNDcyLjg5NjYwMzYzNjA1MDAzIEwgOTA2IDQ3Mi44OTY2MDM2MzYwNTAwMyBMIDkwNyA0NzMuODA5NDM3NjQxNjQzNiBMIDkwNyA0NzMuODA5NDM3NjQxNjQzNiBMIDkwOCA0NzQuNzExNjg4NDc0Nzk3NjUgTCA5MDggNDc0LjcxMTY4ODQ3NDc5NzY1IEwgOTA5IDQ3NS42MDMzNTYxMzU1MTIwNiBMIDkwOSA0NzUuNjAzMzU2MTM1NTEyMDYgTCA5MTAgNDc2LjQ4NDQ0MDYyMzc4NjkgTCA5MTAgNDc2LjQ4NDQ0MDYyMzc4Njg0IEwgOTExIDQ3Ny4zNTQ5NDE5Mzk2MjIwNSBMIDkxMSA0NzcuMzU0OTQxOTM5NjIyMDUgTCA5MTIgNDc4LjIxNDg2MDA4MzAxNzcgTCA5MTIgNDc4LjIxNDg2MDA4MzAxNzY0IEwgOTEzIDQ3OS4wNjQxOTUwNTM5NzM2NiBMIDkxMyA0NzkuMDY0MTk1MDUzOTczNjYgTCA5MTQgNDc5LjkwMjk0Njg1MjQ5IEwgOTE0IDQ3OS45MDI5NDY4NTI0OSBMIDkxNSA0ODAuNzMxMTE1NDc4NTY2ODQgTCA5MTUgNDgwLjczMTExNTQ3ODU2Njg0IEwgOTE2IDQ4MS41NDg3MDA5MzIyMDQgTCA5MTYgNDgxLjU0ODcwMDkzMjIwNCBMIDkxNyA0ODIuMzU1NzAzMjEzNDAxNTcgTCA5MTcgNDgyLjM1NTcwMzIxMzQwMTU3IEwgOTE4IDQ4My4xNTIxMjIzMjIxNTk1IEwgOTE4IDQ4My4xNTIxMjIzMjIxNTk1IEwgOTE5IDQ4My45Mzc5NTgyNTg0Nzc5IEwgOTE5IDQ4My45Mzc5NTgyNTg0Nzc5IEwgOTIwIDQ4NC43MTMyMTEwMjIzNTY3IEwgOTIwIDQ4NC43MTMyMTEwMjIzNTY3IEwgOTIxIDQ4NS40Nzc4ODA2MTM3OTU4MyBMIDkyMSA0ODUuNDc3ODgwNjEzNzk1ODMgTCA5MjIgNDg2LjIzMTk2NzAzMjc5NTQgTCA5MjIgNDg2LjIzMTk2NzAzMjc5NTM1IEwgOTIzIDQ4Ni45NzU0NzAyNzkzNTUzNiBMIDkyMyA0ODYuOTc1NDcwMjc5MzU1MyBMIDkyNCA0ODcuNzA4MzkwMzUzNDc1NyBMIDkyNCA0ODcuNzA4MzkwMzUzNDc1NyBMIDkyNSA0ODguNDMwNzI3MjU1MTU2NDYgTCA5MjUgNDg4LjQzMDcyNzI1NTE1NjQgTCA5MjYgNDg5LjE0MjQ4MDk4NDM5NzYgTCA5MjYgNDg5LjE0MjQ4MDk4NDM5NzYgTCA5MjcgNDg5Ljg0MzY1MTU0MTE5OTEgTCA5MjcgNDg5Ljg0MzY1MTU0MTE5OTEgTCA5MjggNDkwLjUzNDIzODkyNTU2MTA2IEwgOTI4IDQ5MC41MzQyMzg5MjU1NjEgTCA5MjkgNDkxLjIxNDI0MzEzNzQ4MzQgTCA5MjkgNDkxLjIxNDI0MzEzNzQ4MzMgTCA5MzAgNDkxLjg4MzY2NDE3Njk2NjEgTCA5MzAgNDkxLjg4MzY2NDE3Njk2NjEgTCA5MzEgNDkyLjU0MjUwMjA0NDAwOTIgTCA5MzEgNDkyLjU0MjUwMjA0NDAwOTIgTCA5MzIgNDkzLjE5MDc1NjczODYxMjcgTCA5MzIgNDkzLjE5MDc1NjczODYxMjcgTCA5MzMgNDkzLjgyODQyODI2MDc3NjYgTCA5MzMgNDkzLjgyODQyODI2MDc3NjYgTCA5MzQgNDk0LjQ1NTUxNjYxMDUwMDkgTCA5MzQgNDk0LjQ1NTUxNjYxMDUwMDkgTCA5MzUgNDk1LjA3MjAyMTc4Nzc4NTYgTCA5MzUgNDk1LjA3MjAyMTc4Nzc4NTYgTCA5MzYgNDk1LjY3Nzk0Mzc5MjYzMDc0IEwgOTM2IDQ5NS42Nzc5NDM3OTI2MzA3NCBMIDkzNyA0OTYuMjczMjgyNjI1MDM2MjUgTCA5MzcgNDk2LjI3MzI4MjYyNTAzNjIgTCA5MzggNDk2Ljg1ODAzODI4NTAwMjEgTCA5MzggNDk2Ljg1ODAzODI4NTAwMjEgTCA5MzkgNDk3LjQzMjIxMDc3MjUyODQgTCA5MzkgNDk3LjQzMjIxMDc3MjUyODQgTCA5NDAgNDk3Ljk5NTgwMDA4NzYxNTA3IEwgOTQwIDQ5Ny45OTU4MDAwODc2MTUwNyBMIDk0MSA0OTguNTQ4ODA2MjMwMjYyMTMgTCA5NDEgNDk4LjU0ODgwNjIzMDI2MjEzIEwgOTQyIDQ5OS4wOTEyMjkyMDA0Njk2IEwgOTQyIDQ5OS4wOTEyMjkyMDA0Njk2IEwgOTQzIDQ5OS42MjMwNjg5OTgyMzc1IEwgOTQzIDQ5OS42MjMwNjg5OTgyMzc1IEwgOTQ0IDUwMC4xNDQzMjU2MjM1NjU3NSBMIDk0NCA1MDAuMTQ0MzI1NjIzNTY1NzUgTCA5NDUgNTAwLjY1NDk5OTA3NjQ1NDQzIEwgOTQ1IDUwMC42NTQ5OTkwNzY0NTQ0MyBMIDk0NiA1MDEuMTU1MDg5MzU2OTAzNSBMIDk0NiA1MDEuMTU1MDg5MzU2OTAzNSBMIDk0NyA1MDEuNjQ0NTk2NDY0OTEyOSBMIDk0NyA1MDEuNjQ0NTk2NDY0OTEyOSBMIDk0OCA1MDIuMTIzNTIwNDAwNDgyOCBMIDk0OCA1MDIuMTIzNTIwNDAwNDgyOCBMIDk0OSA1MDIuNTkxODYxMTYzNjEzMDMgTCA5NDkgNTAyLjU5MTg2MTE2MzYxMzAzIEwgOTUwIDUwMy4wNDk2MTg3NTQzMDM2NSBMIDk1MCA1MDMuMDQ5NjE4NzU0MzAzNjUgTCA5NTEgNTAzLjQ5Njc5MzE3MjU1NDcgTCA5NTEgNTAzLjQ5Njc5MzE3MjU1NDcgTCA5NTIgNTAzLjkzMzM4NDQxODM2NjEzIEwgOTUyIDUwMy45MzMzODQ0MTgzNjYxMyBMIDk1MyA1MDQuMzU5MzkyNDkxNzM3OTQgTCA5NTMgNTA0LjM1OTM5MjQ5MTczNzk0IEwgOTU0IDUwNC43NzQ4MTczOTI2NzAyIEwgOTU0IDUwNC43NzQ4MTczOTI2NzAyIEwgOTU1IDUwNS4xNzk2NTkxMjExNjI4IEwgOTU1IDUwNS4xNzk2NTkxMjExNjI4IEwgOTU2IDUwNS41NzM5MTc2NzcyMTU4MyBMIDk1NiA1MDUuNTczOTE3Njc3MjE1ODMgTCA5NTcgNTA1Ljk1NzU5MzA2MDgyOTI1IEwgOTU3IDUwNS45NTc1OTMwNjA4MjkyNSBMIDk1OCA1MDYuMzMwNjg1MjcyMDAzMDUgTCA5NTggNTA2LjMzMDY4NTI3MjAwMzA1IEwgOTU5IDUwNi42OTMxOTQzMTA3MzcyIEwgOTU5IDUwNi42OTMxOTQzMTA3MzcyIEwgOTYwIDUwNy4wNDUxMjAxNzcwMzE4MyBMIDk2MCA1MDcuMDQ1MTIwMTc3MDMxODMgTCA5NjEgNTA3LjM4NjQ2Mjg3MDg4NjkgTCA5NjEgNTA3LjM4NjQ2Mjg3MDg4NjggTCA5NjIgNTA3LjcxNzIyMjM5MjMwMjIzIEwgOTYyIDUwNy43MTcyMjIzOTIzMDIyMyBMIDk2MyA1MDguMDM3Mzk4NzQxMjc4IEwgOTYzIDUwOC4wMzczOTg3NDEyNzggTCA5NjQgNTA4LjM0Njk5MTkxNzgxNDIgTCA5NjQgNTA4LjM0Njk5MTkxNzgxNDIgTCA5NjUgNTA4LjY0NjAwMTkyMTkxMDggTCA5NjUgNTA4LjY0NjAwMTkyMTkxMDggTCA5NjYgNTA4LjkzNDQyODc1MzU2NzggTCA5NjYgNTA4LjkzNDQyODc1MzU2NzggTCA5NjcgNTA5LjIxMjI3MjQxMjc4NTEgTCA5NjcgNTA5LjIxMjI3MjQxMjc4NTEgTCA5NjggNTA5LjQ3OTUzMjg5OTU2MjkgTCA5NjggNTA5LjQ3OTUzMjg5OTU2MjkgTCA5NjkgNTA5LjczNjIxMDIxMzkwMTEgTCA5NjkgNTA5LjczNjIxMDIxMzkwMTEgTCA5NzAgNTA5Ljk4MjMwNDM1NTc5OTYgTCA5NzAgNTA5Ljk4MjMwNDM1NTc5OTYgTCA5NzEgNTEwLjIxNzgxNTMyNTI1ODYgTCA5NzEgNTEwLjIxNzgxNTMyNTI1ODYgTCA5NzIgNTEwLjQ0Mjc0MzEyMjI3NzkzIEwgOTcyIDUxMC40NDI3NDMxMjIyNzc5MyBMIDk3MyA1MTAuNjU3MDg3NzQ2ODU3NyBMIDk3MyA1MTAuNjU3MDg3NzQ2ODU3NyBMIDk3NCA1MTAuODYwODQ5MTk4OTk3OCBMIDk3NCA1MTAuODYwODQ5MTk4OTk3OCBMIDk3NSA1MTEuMDU0MDI3NDc4Njk4NCBMIDk3NSA1MTEuMDU0MDI3NDc4Njk4NCBMIDk3NiA1MTEuMjM2NjIyNTg1OTU5MyBMIDk3NiA1MTEuMjM2NjIyNTg1OTU5MyBMIDk3NyA1MTEuNDA4NjM0NTIwNzgwNjUgTCA5NzcgNTExLjQwODYzNDUyMDc4MDY1IEwgOTc4IDUxMS41NzAwNjMyODMxNjIzNyBMIDk3OCA1MTEuNTcwMDYzMjgzMTYyMzcgTCA5NzkgNTExLjcyMDkwODg3MzEwNDUgTCA5NzkgNTExLjcyMDkwODg3MzEwNDUgTCA5ODAgNTExLjg2MTE3MTI5MDYwNyBMIDk4MCA1MTEuODYxMTcxMjkwNjA3IEwgOTgxIDUxMS45OTA4NTA1MzU2Njk5NSBMIDk4MSA1MTEuOTkwODUwNTM1NjY5OTUgTCA5ODIgNTEyLjEwOTk0NjYwODI5MzMgTCA5ODIgNTEyLjEwOTk0NjYwODI5MzMgTCA5ODMgNTEyLjIxODQ1OTUwODQ3NjkgTCA5ODMgNTEyLjIxODQ1OTUwODQ3NjkgTCA5ODQgNTEyLjMxNjM4OTIzNjIyMTEgTCA5ODQgNTEyLjMxNjM4OTIzNjIyMTEgTCA5ODUgNTEyLjQwMzczNTc5MTUyNTYgTCA5ODUgNTEyLjQwMzczNTc5MTUyNTYgTCA5ODYgNTEyLjQ4MDQ5OTE3NDM5MDUgTCA5ODYgNTEyLjQ4MDQ5OTE3NDM5MDUgTCA5ODcgNTEyLjU0NjY3OTM4NDgxNTggTCA5ODcgNTEyLjU0NjY3OTM4NDgxNTggTCA5ODggNTEyLjYwMjI3NjQyMjgwMTQgTCA5ODggNTEyLjYwMjI3NjQyMjgwMTQgTCA5ODkgNTEyLjY0NzI5MDI4ODM0NzYgTCA5ODkgNTEyLjY0NzI5MDI4ODM0NzYgTCA5OTAgNTEyLjY4MTcyMDk4MTQ1NCBMIDk5MCA1MTIuNjgxNzIwOTgxNDU0IEwgOTkxIDUxMi43MDU1Njg1MDIxMjA5IEwgOTkxIDUxMi43MDU1Njg1MDIxMjA5IEwgOTkyIDUxMi43MTg4MzI4NTAzNDgxIEwgOTkyIDUxMi43MTg4MzI4NTAzNDgxIEwgOTkzIDUxMi43MjE4MzU5NjM3NTI1IEwgOTkzIDUxMi43MjE1MTQwMjYxMzU4IEwgOTk0IDUxMi43MTM2MTIwMjk0ODM5IEwgOTk0IDUxMi43MTM2MTIwMjk0ODM5IEwgOTk1IDUxMi42OTUxMjY4NjAzOTIzIEwgOTk1IDUxMi42OTUxMjY4NjAzOTIzIEwgOTk2IDUxMi42NjYwNTg1MTg4NjEyIEwgOTk2IDUxMi42NjYwNTg1MTg4NjEyIEwgOTk3IDUxMi42MjY0MDcwMDQ4OTA0IEwgOTk3IDUxMi42MjY0MDcwMDQ4OTA0IEwgOTk4IDUxMi41NzYxNzIzMTg0ODAxIEwgOTk4IDUxMi41NzYxNzIzMTg0ODAxIEwgOTk5IDUxMi41MTUzNTQ0NTk2MzAxIEwgOTk5IDUxMi41MTUzNTQ0NTk2MzAxIEwgMTAwMCA1MTIuNDQzOTUzNDI4MzQwNiBMIDEwMDAgNTEyLjQ0Mzk1MzQyODM0MDYgTCAxMDAxIDUxMi4zNjE5NjkyMjQ2MTE0IEwgMTAwMSA1MTIuMzYxOTY5MjI0NjExNCBMIDEwMDIgNTEyLjI2OTQwMTg0ODQ0MjYgTCAxMDAyIDUxMi4yNjk0MDE4NDg0NDI2IEwgMTAwMyA1MTIuMTY2MjUxMjk5ODM0MiBMIDEwMDMgNTEyLjE2NjI1MTI5OTgzNDIgTCAxMDA0IDUxMi4wNTI1MTc1Nzg3ODYzIEwgMTAwNCA1MTIuMDUyNTE3NTc4Nzg2MyBMIDEwMDUgNTExLjkyODIwMDY4NTI5ODcgTCAxMDA1IDUxMS45MjgyMDA2ODUyOTg3IEwgMTAwNiA1MTEuNzkzMzAwNjE5MzcxNSBMIDEwMDYgNTExLjc5MzMwMDYxOTM3MTUgTCAxMDA3IDUxMS42NDc4MTczODEwMDQ3IEwgMTAwNyA1MTEuNjQ3ODE3MzgxMDA0NyBMIDEwMDggNTExLjQ5MTc1MDk3MDE5ODMgTCAxMDA4IDUxMS40OTE3NTA5NzAxOTgzIEwgMTAwOSA1MTEuMzI1MTAxMzg2OTUyMyBMIDEwMDkgNTExLjMyNTEwMTM4Njk1MjMgTCAxMDEwIDUxMS4xNDc4Njg2MzEyNjY3IEwgMTAxMCA1MTEuMTQ3ODY4NjMxMjY2NyBMIDEwMTEgNTEwLjk2MDA1MjcwMzE0MTUgTCAxMDExIDUxMC45NjAwNTI3MDMxNDE1IEwgMTAxMiA1MTAuNzYxNjUzNjAyNTc2NyBMIDEwMTIgNTEwLjc2MTY1MzYwMjU3NjcgTCAxMDEzIDUxMC41NTI2NzEzMjk1NzIzIEwgMTAxMyA1MTAuNTUyNjcxMzI5NTcyMyBMIDEwMTQgNTEwLjMzMzEwNTg4NDEyODMgTCAxMDE0IDUxMC4zMzMxMDU4ODQxMjgzIEwgMTAxNSA1MTAuMTAyOTU3MjY2MjQ0NjMgTCAxMDE1IDUxMC4xMDI5NTcyNjYyNDQ2MyBMIDEwMTYgNTA5Ljg2MjIyNTQ3NTkyMTQzIEwgMTAxNiA1MDkuODYyMjI1NDc1OTIxNDMgTCAxMDE3IDUwOS42MTA5MTA1MTMxNTg2IEwgMTAxNyA1MDkuNjEwOTEwNTEzMTU4NiBMIDEwMTggNTA5LjM0OTAxMjM3Nzk1NjE3IEwgMTAxOCA1MDkuMzQ5MDEyMzc3OTU2MTcgTCAxMDE5IDUwOS4wNzY1MzEwNzAzMTQxNiBMIDEwMTkgNTA5LjA3NjUzMTA3MDMxNDE2IEwgMTAyMCA1MDguNzkzNDY2NTkwMjMyNDcgTCAxMDIwIDUwOC43OTM0NjY1OTAyMzI0NyBMIDEwMjEgNTA4LjQ5OTgxODkzNzcxMTI3IEwgMTAyMSA1MDguNDk5ODE4OTM3NzExMjcgTCAxMDIyIDUwOC4xOTU1ODgxMTI3NTA0IEwgMTAyMiA1MDguMTk1NTg4MTEyNzUwNCBMIDEwMjMgNTA3Ljg4MDc3NDExNTM0OTk0IEwgMTAyMyA1MDcuODgwNzc0MTE1MzQ5OTQgTCAxMDI0IDUwNy41NTUzNzY5NDU1MDk4NiBMIDEwMjQgNTA3LjU1NTM3Njk0NTUwOTg2IEwgMTAyNSA1MDcuMjE5Mzk2NjAzMjMwMiBMIDEwMjUgNTA3LjIxOTM5NjYwMzIzMDIgTCAxMDI2IDUwNi44NzI4MzMwODg1MTA5NiBMIDEwMjYgNTA2Ljg3MjgzMzA4ODUxMDk2IEwgMTAyNyA1MDYuNTE1Njg2NDAxMzUyMDcgTCAxMDI3IDUwNi41MTU2ODY0MDEzNTIwNyBMIDEwMjggNTA2LjE0Nzk1NjU0MTc1MzYgTCAxMDI4IDUwNi4xNDc5NTY1NDE3NTM2IEwgMTAyOSA1MDUuNzY5NjQzNTA5NzE1NTQgTCAxMDI5IDUwNS43Njk2NDM1MDk3MTU1NCBMIDEwMzAgNTA1LjM4MDc0NzMwNTIzNzgzIEwgMTAzMCA1MDUuMzgwNzQ3MzA1MjM3ODMgTCAxMDMxIDUwNC45ODEyNjc5MjgzMjA1NiBMIDEwMzEgNTA0Ljk4MTI2NzkyODMyMDU2IEwgMTAzMiA1MDQuNTcxMjA1Mzc4OTYzNjcgTCAxMDMyIDUwNC41NzEyMDUzNzg5NjM2NyBMIDEwMzMgNTA0LjE1MDU1OTY1NzE2NzE1IEwgMTAzMyA1MDQuMTUwNTU5NjU3MTY3MTUgTCAxMDM0IDUwMy43MTkzMzA3NjI5MzEwNyBMIDEwMzQgNTAzLjcxOTMzMDc2MjkzMTA3IEwgMTAzNSA1MDMuMjc3NTE4Njk2MjU1MzYgTCAxMDM1IDUwMy4yNzc1MTg2OTYyNTUzNiBMIDEwMzYgNTAyLjgyNTEyMzQ1NzE0MDEgTCAxMDM2IDUwMi44MjUxMjM0NTcxNDAxIEwgMTAzNyA1MDIuMzYyMTQ1MDQ1NTg1MiBMIDEwMzcgNTAyLjM2MjE0NTA0NTU4NTIgTCAxMDM4IDUwMS44ODg1ODM0NjE1OTA2NiBMIDEwMzggNTAxLjg4ODU4MzQ2MTU5MDY2IEwgMTAzOSA1MDEuNDA0NDM4NzA1MTU2NSBMIDEwMzkgNTAxLjQwNDQzODcwNTE1NjUgTCAxMDQwIDUwMC45MDk3MTA3NzYyODI4IEwgMTA0MCA1MDAuOTA5NzEwNzc2MjgyOCBMIDEwNDEgNTAwLjQwNDM5OTY3NDk2OTQ1IEwgMTA0MSA1MDAuNDA0Mzk5Njc0OTY5NDUgTCAxMDQyIDQ5OS44ODg1MDU0MDEyMTY1NSBMIDEwNDIgNDk5Ljg4ODUwNTQwMTIxNjU1IEwgMTA0MyA0OTkuMzYyMDI3OTU1MDI0IEwgMTA0MyA0OTkuMzYyMDI3OTU1MDI0IEwgMTA0NCA0OTguODI0OTY3MzM2MzkxODYgTCAxMDQ0IDQ5OC44MjQ5NjczMzYzOTE4NiBMIDEwNDUgNDk4LjI3NzMyMzU0NTMyMDE0IEwgMTA0NSA0OTguMjc3MzIzNTQ1MzIwMTQgTCAxMDQ2IDQ5Ny43MTkwOTY1ODE4MDg3NCBMIDEwNDYgNDk3LjcxOTA5NjU4MTgwODggTCAxMDQ3IDQ5Ny4xNTAyODY0NDU4NTc4MyBMIDEwNDcgNDk3LjE1MDI4NjQ0NTg1NzgzIEwgMTA0OCA0OTYuNTcwODkzMTM3NDY3MyBMIDEwNDggNDk2LjU3MDg5MzEzNzQ2NzMgTCAxMDQ5IDQ5NS45ODA5MTY2NTY2MzcxMyBMIDEwNDkgNDk1Ljk4MDkxNjY1NjYzNzEzIEwgMTA1MCA0OTUuMzgwMzU3MDAzMzY3MzUgTCAxMDUwIDQ5NS4zODAzNTcwMDMzNjczNSBMIDEwNTEgNDk0Ljc2OTIxNDE3NzY1Nzk0IEwgMTA1MSA0OTQuNzY5MjE0MTc3NjU4IEwgMTA1MiA0OTQuMTQ3NDg4MTc5NTA5IEwgMTA1MiA0OTQuMTQ3NDg4MTc5NTA5IEwgMTA1MyA0OTMuNTE1MTc5MDA4OTIwNCBMIDEwNTMgNDkzLjUxNTE3OTAwODkyMDQgTCAxMDU0IDQ5Mi44NzIyODY2NjU4OTIyNiBMIDEwNTQgNDkyLjg3MjI4NjY2NTg5MjI2IEwgMTA1NSA0OTIuMjE4ODExMTUwNDI0NSBMIDEwNTUgNDkyLjIxODgxMTE1MDQyNDUgTCAxMDU2IDQ5MS41NTQ3NTI0NjI1MTcwNiBMIDEwNTYgNDkxLjU1NDc1MjQ2MjUxNzA2IEwgMTA1NyA0OTAuODgwMTEwNjAyMTcwMSBMIDEwNTcgNDkwLjg4MDExMDYwMjE3MDEgTCAxMDU4IDQ5MC4xOTQ4ODU1NjkzODM1MyBMIDEwNTggNDkwLjE5NDg4NTU2OTM4MzUzIEwgMTA1OSA0ODkuNDk5MDc3MzY0MTU3MyBMIDEwNTkgNDg5LjQ5OTA3NzM2NDE1NzMgTCAxMDYwIDQ4OC43OTI2ODU5ODY0OTE1IEwgMTA2MCA0ODguNzkyNjg1OTg2NDkxNSBMIDEwNjEgNDg4LjA3NTcxMTQzNjM4NjEgTCAxMDYxIDQ4OC4wNzU3MTE0MzYzODYxIEwgMTA2MiA0ODcuMzQ4MTUzNzEzODQxMDQgTCAxMDYyIDQ4Ny4zNDgxNTM3MTM4NDExIEwgMTA2MyA0ODYuNjEwMDEyODE4ODU2NSBMIDEwNjMgNDg2LjYxMDAxMjgxODg1NjUgTCAxMDY0IDQ4NS44NjEyODg3NTE0MzIyIEwgMTA2NCA0ODUuODYxMjg4NzUxNDMyMjYgTCAxMDY1IDQ4NS4xMDE5ODE1MTE1Njg0IEwgMTA2NSA0ODUuMTAxOTgxNTExNTY4NCBMIDEwNjYgNDg0LjMzMjA5MTA5OTI2NDk3IEwgMTA2NiA0ODQuMzMyMDkxMDk5MjY1IEwgMTA2NyA0ODMuNTUxNjE3NTE0NTIxOSBMIDEwNjcgNDgzLjU1MTYxNzUxNDUyMiBMIDEwNjggNDgyLjc2MDU2MDc1NzMzOTMgTCAxMDY4IDQ4Mi43NjA1NjA3NTczMzkzNiBMIDEwNjkgNDgxLjk1ODkyMDgyNzcxNzA3IEwgMTA2OSA0ODEuOTU4OTIwODI3NzE3MDcgTCAxMDcwIDQ4MS4xNDY2OTc3MjU2NTUyIEwgMTA3MCA0ODEuMTQ2Njk3NzI1NjU1MjYgTCAxMDcxIDQ4MC4zMjM4OTE0NTExNTM4IEwgMTA3MSA0ODAuMzIzODkxNDUxMTUzOCBMIDEwNzIgNDc5LjQ5MDUwMjAwNDIxMjcgTCAxMDcyIDQ3OS40OTA1MDIwMDQyMTI3IEwgMTA3MyA0NzguNjQ2NTI5Mzg0ODMyMSBMIDEwNzMgNDc4LjY0NjUyOTM4NDgzMjEgTCAxMDc0IDQ3Ny43OTE5NzM1OTMwMTE4NSBMIDEwNzQgNDc3Ljc5MTk3MzU5MzAxMTg1IEwgMTA3NSA0NzYuOTI2ODM0NjI4NzUyIEwgMTA3NSA0NzYuOTI2ODM0NjI4NzUyIEwgMTA3NiA0NzYuMDUxMTEyNDkyMDUyNSBMIDEwNzYgNDc2LjA1MTExMjQ5MjA1MjUgTCAxMDc3IDQ3NS4xNjQ4MDcxODI5MTMzNiBMIDEwNzcgNDc1LjE2NDgwNzE4MjkxMzQgTCAxMDc4IDQ3NC4yNjc5MTg3MDEzMzQ3NCBMIDEwNzggNDc0LjI2NzkxODcwMTMzNDc0IEwgMTA3OSA0NzMuMzYwNDQ3MDQ3MzE2NSBMIDEwNzkgNDczLjM2MDQ0NzA0NzMxNjUgTCAxMDgwIDQ3Mi40NDIzOTIyMjA4NTg1NSBMIDEwODAgNDcyLjQ0MjM5MjIyMDg1ODU1IEwgMTA4MSA0NzEuNTEzNzU0MjIxOTYxMSBMIDEwODEgNDcxLjUxMzc1NDIyMTk2MTEgTCAxMDgyIDQ3MC41NzQ1MzMwNTA2MjQwNCBMIDEwODIgNDcwLjU3NDUzMzA1MDYyNDA0IEwgMTA4MyA0NjkuNjI0NzI4NzA2ODQ3MyBMIDEwODMgNDY5LjYyNDcyODcwNjg0NzMgTCAxMDg0IDQ2OC42NjQzNDExOTA2MzEwMyBMIDEwODQgNDY4LjY2NDM0MTE5MDYzMTAzIEwgMTA4NSA0NjcuNjkzMzcwNTAxOTc1MDQgTCAxMDg1IDQ2Ny42OTMzNzA1MDE5NzUxIEwgMTA4NiA0NjYuNzExODE2NjQwODc5NiBMIDEwODYgNDY2LjcxMTgxNjY0MDg3OTYgTCAxMDg3IDQ2NS43MTk2Nzk2MDczNDQ0NiBMIDEwODcgNDY1LjcxOTY3OTYwNzM0NDUgTCAxMDg4IDQ2NC43MTY5NTk0MDEzNjk3NiBMIDEwODggNDY0LjcxNjk1OTQwMTM2OTc2IEwgMTA4OSA0NjMuNzAzNjU2MDIyOTU1NDQgTCAxMDg5IDQ2My43MDM2NTYwMjI5NTU0NCBMIDEwOTAgNDYyLjY3OTc2OTQ3MjEwMTQ0IEwgMTA5MCA0NjIuNjc5NzY5NDcyMTAxNSBMIDEwOTEgNDYxLjY0NTI5OTc0ODgwOCBMIDEwOTEgNDYxLjY0NTI5OTc0ODgwOCBMIDEwOTIgNDYwLjYwMDI0Njg1MzA3NDg1IEwgMTA5MiA0NjAuNjAwMjQ2ODUzMDc0ODUgTCAxMDkzIDQ1OS41NDQ2MTA3ODQ5MDIxIEwgMTA5MyA0NTkuNTQ0NjEwNzg0OTAyMSBMIDEwOTQgNDU4LjQ3ODM5MTU0NDI4OTc2IEwgMTA5NCA0NTguNDc4MzkxNTQ0Mjg5NzYgTCAxMDk1IDQ1Ny40MDE1ODkxMzEyMzc4NyBMIDEwOTUgNDU3LjQwMTU4OTEzMTIzNzg3IEwgMTA5NiA0NTYuMzE0MjAzNTQ1NzQ2MjQgTCAxMDk2IDQ1Ni4zMTQyMDM1NDU3NDYzIEwgMTA5NyA0NTUuMjE2MjM0Nzg3ODE1MSBMIDEwOTcgNDU1LjIxNjIzNDc4NzgxNTE1IEwgMTA5OCA0NTQuMTA3NjgyODU3NDQ0MzMgTCAxMDk4IDQ1NC4xMDc2ODI4NTc0NDQzMyBMIDEwOTkgNDUyLjk4ODU0Nzc1NDYzNCBMIDEwOTkgNDUyLjk4ODU0Nzc1NDYzNCBMIDExMDAgNDUxLjg1ODgyOTQ3OTM4NDA0IEwgMTEwMCA0NTEuODU4ODI5NDc5Mzg0MDQgTCAxMTAxIDQ1MC43MTg1MjgwMzE2OTQ0NiBMIDExMDEgNDUwLjcxODUyODAzMTY5NDQ2IEwgMTEwMiA0NDkuNTY3NjQzNDExNTY1MyBMIDExMDIgNDQ5LjU2NzY0MzQxMTU2NTMgTCAxMTAzIDQ0OC40MDYxNzU2MTg5OTY1IEwgMTEwMyA0NDguNDA2MTc1NjE4OTk2NSBMIDExMDQgNDQ3LjIzNDEyNDY1Mzk4ODE1IEwgMTEwNCA0NDcuMjM0MTI0NjUzOTg4MTUgTCAxMTA1IDQ0Ni4wNTE0OTA1MTY1NDAyIEwgMTEwNSA0NDYuMDUxNDkwNTE2NTQwMiBMIDExMDYgNDQ0Ljg1ODI3MzIwNjY1MjU0IEwgMTEwNiA0NDQuODU4MjczMjA2NjUyNTQgTCAxMTA3IDQ0My42NTQ0NzI3MjQzMjU0IEwgMTEwNyA0NDMuNjU0NDcyNzI0MzI1NCBMIDExMDggNDQyLjQ0MDA4OTA2OTU1ODYgTCAxMTA4IDQ0Mi40NDAwODkwNjk1NTg2IEwgMTEwOSA0NDEuMjE1MTIyMjQyMzUyMTUgTCAxMTA5IDQ0MS4yMTUxMjIyNDIzNTIxNSBMIDExMTAgNDM5Ljk3OTU3MjI0MjcwNjIgTCAxMTEwIDQzOS45Nzk1NzIyNDI3MDYyIEwgMTExMSA0MzguNzMzNDM5MDcwNjIwNTMgTCAxMTExIDQzOC43MzM0MzkwNzA2MjA1MyBMIDExMTIgNDM3LjQ3NjcyMjcyNjA5NTMgTCAxMTEyIDQzNy40NzY3MjI3MjYwOTUzIEwgMTExMyA0MzYuMjA5NDIzMjA5MTMwNTMgTCAxMTEzIDQzNi4yMDk0MjMyMDkxMzA2IEwgMTExNCA0MzQuOTMxNTQwNTE5NzI2MDcgTCAxMTE0IDQzNC45MzE1NDA1MTk3MjYwNyBMIDExMTUgNDMzLjY0MzA3NDY1Nzg4MjA0IEwgMTExNSA0MzMuNjQzMDc0NjU3ODgyMSBMIDExMTYgNDMyLjM0NDAyNTYyMzU5ODQgTCAxMTE2IDQzMi4zNDQwMjU2MjM1OTg0NCBMIDExMTcgNDMxLjAzNDM5MzQxNjg3NTE2IEwgMTExNyA0MzEuMDM0MzkzNDE2ODc1MiBMIDExMTggNDI5LjcxNDE3ODAzNzcxMjQgTCAxMTE4IDQyOS43MTQxNzgwMzc3MTI0IEwgMTExOSA0MjguMzgzMzc5NDg2MTA5OSBMIDExMTkgNDI4LjM4MzM3OTQ4NjEwOTkgTCAxMTIwIDQyNy4wNDE5OTc3NjIwNjc4NyBMIDExMjAgNDI3LjA0MTk5Nzc2MjA2NzkgTCAxMTIxIDQyNS42OTAwMzI4NjU1ODYyNiBMIDExMjEgNDI1LjY5MDAzMjg2NTU4NjMgTCAxMTIyIDQyNC4zMjc0ODQ3OTY2NjUgTCAxMTIyIDQyNC4zMjc0ODQ3OTY2NjUgTCAxMTIzIDQyMi45NTQzNTM1NTUzMDQxIEwgMTEyMyA0MjIuOTU0MzUzNTU1MzA0MSBMIDExMjQgNDIxLjU3MDYzOTE0MTUwMzYgTCAxMTI0IDQyMS41NzA2MzkxNDE1MDM2NSBMIDExMjUgNDIwLjE3NjM0MTU1NTI2MzU1IEwgMTEyNSA0MjAuMTc2MzQxNTU1MjYzNiBMIDExMjYgNDE4Ljc3MTQ2MDc5NjU4Mzk0IEwgMTEyNiA0MTguNzcxNDYwNzk2NTgzOTQgTCAxMTI3IDQxNy4zNTU5OTY4NjU0NjQ2IEwgMTEyNyA0MTcuMzU1OTk2ODY1NDY0NjUgTCAxMTI4IDQxNS45Mjk5NDk3NjE5MDU3MyBMIDExMjggNDE1LjkyOTk0OTc2MTkwNTggTCAxMTI5IDQxNC40OTMzMTk0ODU5MDczIEwgMTEyOSA0MTQuNDkzMzE5NDg1OTA3MzYgTCAxMTMwIDQxMy4wNDYxMDYwMzc0NjkxNCBMIDExMzAgNDEzLjA0NjEwNjAzNzQ2OTIgTCAxMTMxIDQxMS41ODgzMDk0MTY1OTE1IEwgMTEzMSA0MTEuNTg4MzA5NDE2NTkxNSBMIDExMzIgNDEwLjExOTkyOTYyMzI3NDIgTCAxMTMyIDQxMC4xMTk5Mjk2MjMyNzQyIEwgMTEzMyA0MDguNjQwOTY2NjU3NTE3MyBMIDExMzMgNDA4LjY0MDk2NjY1NzUxNzMgTCAxMTM0IDQwNy4xNTE0MjA1MTkzMjA4IEwgMTEzNCA0MDcuMTUxNDIwNTE5MzIwOCBMIDExMzUgNDA1LjY1MTI5MTIwODY4NDY1IEwgMTEzNSA0MDUuNjUxMjkxMjA4Njg0NyBMIDExMzYgNDA0LjE0MDU3ODcyNTYwOSBMIDExMzYgNDA0LjE0MDU3ODcyNTYwOTAzIEwgMTEzNyA0MDIuNjE5MjgzMDcwMDkzNiBMIDExMzcgNDAyLjYxOTI4MzA3MDA5MzcgTCAxMTM4IDQwMS4wODc0MDQyNDIxMzg3NSBMIDExMzggNDAxLjA4NzQwNDI0MjEzODc1IEwgMTEzOSAzOTkuNTQ0OTQyMjQxNzQ0MjUgTCAxMTM5IDM5OS41NDQ5NDIyNDE3NDQyNSBMIDExNDAgMzk3Ljk5MTg5NzA2ODkxMDEgTCAxMTQwIDM5Ny45OTE4OTcwNjg5MTAxIEwgMTE0MSAzOTYuNDI4MjY4NzIzNjM2MzQgTCAxMTQxIDM5Ni40MjgyNjg3MjM2MzY0IEwgMTE0MiAzOTQuODU0MDU3MjA1OTIzMSBMIDExNDIgMzk0Ljg1NDA1NzIwNTkyMzE0IEwgMTE0MyAzOTMuMjY5MjYyNTE1NzcwMDQgTCAxMTQzIDM5My4yNjkyNjI1MTU3NzAxIEwgMTE0NCAzOTEuNjczODg0NjUzMTc3NTQgTCAxMTQ0IDM5MS42NzM4ODQ2NTMxNzc2IEwgMTE0NSAzOTAuMDY3OTIzNjE4MTQ1MzYgTCAxMTQ1IDM5MC4wNjc5MjM2MTgxNDUzNiBMIDExNDYgMzg4LjQ1MTM3OTQxMDY3MzY3IEwgMTE0NiAzODguNDUxMzc5NDEwNjczNjcgTCAxMTQ3IDM4Ni44MjQyNTIwMzA3NjIzIEwgMTE0NyAzODYuODI0MjUyMDMwNzYyMzUgTCAxMTQ4IDM4NS4xODY1NDE0Nzg0MTEzIEwgMTE0OCAzODUuMTg2NTQxNDc4NDExMyBMIDExNDkgMzgzLjUzODI0Nzc1MzYyMDggTCAxMTQ5IDM4My41MzgyNDc3NTM2MjA4IEwgMTE1MCAzODEuODc5MzcwODU2MzkwNTUgTCAxMTUwIDM4MS44NzkzNzA4NTYzOTA1NSBMIDExNTEgMzgwLjIwOTkxMDc4NjcyMDggTCAxMTUxIDM4MC4yMDk5MTA3ODY3MjA4NSBMIDExNTIgMzc4LjUyOTg2NzU0NDYxMTUgTCAxMTUyIDM3OC41Mjk4Njc1NDQ2MTE1MyBMIDExNTMgMzc2LjgzOTI0MTEzMDA2MjQgTCAxMTUzIDM3Ni44MzkyNDExMzAwNjI1IEwgMTE1NCAzNzUuMTM4MDMxNTQzMDczOSBMIDExNTQgMzc1LjEzODAzMTU0MzA3MzkgTCAxMTU1IDM3My40MjYyMzg3ODM2NDU4IEwgMTE1NSAzNzMuNDI2MjM4NzgzNjQ1OCBMIDExNTYgMzcxLjcwMzg2Mjg1MTc3NzkgTCAxMTU2IDM3MS43MDM4NjI4NTE3Nzc5IEwgMTE1NyAzNjkuOTcwOTAzNzQ3NDcwNSBMIDExNTcgMzY5Ljk3MDkwMzc0NzQ3MDYgTCAxMTU4IDM2OC4yMjczNjE0NzA3MjM1IEwgMTE1OCAzNjguMjI3MzYxNDcwNzIzNSBMIDExNTkgMzY2LjQ3MzIzNjAyMTUzNjkgTCAxMTU5IDM2Ni40NzMyMzYwMjE1MzY5MyBMIDExNjAgMzY0LjcwODUyNzM5OTkxMDc0IEwgMTE2MCAzNjQuNzA4NTI3Mzk5OTEwNzQgTCAxMTYxIDM2Mi45MzMyMzU2MDU4NDQ4NiBMIDExNjEgMzYyLjkzMzIzNTYwNTg0NDg2IEwgMTE2MiAzNjEuMTQ3MzYwNjM5MzM5NDcgTCAxMTYyIDM2MS4xNDczNjA2MzkzMzk1IEwgMTE2MyAzNTkuMzUwOTAyNTAwMzk0MzQgTCAxMTYzIDM1OS4zNTA5MDI1MDAzOTQ0NSBMIDExNjQgMzU3LjU0Mzg2MTE4OTAwOTggTCAxMTY0IDM1Ny41NDM4NjExODkwMDk5IEwgMTE2NSAzNTUuNzI2MjM2NzA1MTg1NiBMIDExNjUgMzU1LjcyNjIzNjcwNTE4NTY3IEwgMTE2NiAzNTMuODk4MDI5MDQ4OTIxNyBMIDExNjYgMzUzLjg5ODAyOTA0ODkyMTggTCAxMTY3IDM1Mi4wNTkyMzgyMjAyMTgzIEwgMTE2NyAzNTIuMDU5MjM4MjIwMjE4NCBMIDExNjggMzUwLjIwOTg2NDIxOTA3NTMgTCAxMTY4IDM1MC4yMDk4NjQyMTkwNzUzNyBMIDExNjkgMzQ4LjM0OTkwNzA0NTQ5MjYgTCAxMTY5IDM0OC4zNDk5MDcwNDU0OTI2NyBMIDExNzAgMzQ2LjQ3OTM2NjY5OTQ3MDQ2IEwgMTE3MCAzNDYuNDc5MzY2Njk5NDcwNDYgTCAxMTcxIDM0NC41OTgyNDMxODEwMDg0NiBMIDExNzEgMzQ0LjU5ODI0MzE4MTAwODU3IEwgMTE3MiAzNDIuNzA2NTM2NDkwMTA3MDYgTCAxMTcyIDM0Mi43MDY1MzY0OTAxMDcxNyBMIDExNzMgMzQwLjgwNDI0NjYyNjc2NjAzIEwgMTE3MyAzNDAuODA0MjQ2NjI2NzY2MTQgTCAxMTc0IDMzOC44OTEzNzM1OTA5ODUzIEwgMTE3NCAzMzguODkxMzczNTkwOTg1NCBMIDExNzUgMzM2Ljk2NzkxNzM4Mjc2NTEgTCAxMTc1IDMzNi45Njc5MTczODI3NjUyIEwgMTE3NiAzMzUuMDMzODc4MDAyMTA1MiBMIDExNzYgMzM1LjAzMzg3ODAwMjEwNTMgTCAxMTc3IDMzMy4wODkyNTU0NDkwMDU3IEwgMTE3NyAzMzMuMDg5MjU1NDQ5MDA1OCBMIDExNzggMzMxLjEzNDA0OTcyMzQ2NjY2IEwgMTE3OCAzMzEuMTM0MDQ5NzIzNDY2OCBMIDExNzkgMzI5LjE2ODI2MDgyNTQ4NzkgTCAxMTc5IDMyOS4xNjgyNjA4MjU0ODggTCAxMTgwIDMyNy4xOTE4ODg3NTUwNjk2IEwgMTE4MCAzMjcuMTkxODg4NzU1MDY5NyBMIDExODEgMzI1LjIwNDkzMzUxMjIxMTggTCAxMTgxIDMyNS4yMDQ5MzM1MTIyMTE5IEwgMTE4MiAzMjMuMjA3Mzk1MDk2OTE0MyBMIDExODIgMzIzLjIwNzM5NTA5NjkxNDMgTCAxMTgzIDMyMS4xOTkyNzM1MDkxNzcyIEwgMTE4MyAzMjEuMTk5MjczNTA5MTc3MjYgTCAxMTg0IDMxOS4xODA1Njg3NDkwMDA0MyBMIDExODQgMzE5LjE4MDU2ODc0OTAwMDUgTCAxMTg1IDMxNy4xNTEyODA4MTYzODQxNCBMIDExODUgMzE3LjE1MTI4MDgxNjM4NDIgTCAxMTg2IDMxNS4xMTE0MDk3MTEzMjgzIEwgMTE4NiAzMTUuMTExNDA5NzExMzI4MzUgTCAxMTg3IDMxMy4wNjA5NTU0MzM4MzI3IEwgMTE4NyAzMTMuMDYwOTU1NDMzODMyNzYgTCAxMTg4IDMxMC45OTk5MTc5ODM4OTc2IEwgMTE4OCAzMTAuOTk5OTE3OTgzODk3NjYgTCAxMTg5IDMwOC45MjgyOTczNjE1MjI5NCBMIDExODkgMzA4LjkyODI5NzM2MTUyMzA1IEwgMTE5MCAzMDYuODQ2MDkzNTY2NzA4NTMgTCAxMTkwIDMwNi44NDYwOTM1NjY3MDg2NSBMIDExOTEgMzA0Ljc1MzMwNjU5OTQ1NDYgTCAxMTkxIDMwNC43NTMzMDY1OTk0NTQ3MyBMIDExOTIgMzAyLjY0OTkzNjQ1OTc2MTEgTCAxMTkyIDMwMi42NDk5MzY0NTk3NjExIEwgMTE5MyAzMDAuNTM1OTgzMTQ3NjI3OSBMIDExOTMgMzAwLjUzNTk4MzE0NzYyODAzIEwgMTE5NCAyOTguNDExNDQ2NjYzMDU1MjQgTCAxMTk0IDI5OC40MTE0NDY2NjMwNTUzNiBMIDExOTUgMjk2LjI3NjMyNzAwNjA0MjgzIEwgMTE5NSAyOTYuMjc2MzI3MDA2MDQyOTUgTCAxMTk2IDI5NC4xMzA2MjQxNzY1OTA5IEwgMTE5NiAyOTQuMTMwNjI0MTc2NTkwOTcgTCAxMTk3IDI5MS45NzQzMzgxNzQ2OTkyNiBMIDExOTcgMjkxLjk3NDMzODE3NDY5OTM3IEwgMTE5OCAyODkuODA3NDY5MDAwMzY4MiBMIDExOTggMjg5LjgwNzQ2OTAwMDM2ODI2IEwgMTE5OSAyODcuNjMwMDE2NjUzNTk3NCBMIDExOTkgMjg3LjYzMDAxNjY1MzU5NzUgTCAxMjAwIDI4NS40NDE5ODExMzQzODcgTCAxMjAwIDI4NS40NDE5ODExMzQzODcxIEwgMTIwMSAyODMuMjQzMzYyNDQyNzM3MDcgTCAxMjAxIDI4My4yNDMzNjI0NDI3MzcyIEwgMTIwMiAyODEuMDM0MTYwNTc4NjQ3NSBMIDEyMDIgMjgxLjAzNDE2MDU3ODY0NzYzIEwgMTIwMyAyNzguODE0Mzc1NTQyMTE4MyBMIDEyMDMgMjc4LjgxNDM3NTU0MjExODM0IEwgMTIwNCAyNzYuNTg0MDA3MzMzMTQ5NTQgTCAxMjA0IDI3Ni41ODQwMDczMzMxNDk2IEwgMTIwNSAyNzQuMzQzMDU1OTUxNzQxMDYgTCAxMjA1IDI3NC4zNDMwNTU5NTE3NDExIEwgMTIwNiAyNzIuMDkxNTIxMzk3ODkzMTMgTCAxMjA2IDI3Mi4wOTE1MjEzOTc4OTMyIEwgMTIwNyAyNjkuODI5NDAzNjcxNjA1NiBMIDEyMDcgMjY5LjgyOTQwMzY3MTYwNTYzIEwgMTIwOCAyNjcuNTU2NzAyNzcyODc4MzQgTCAxMjA4IDI2Ny41NTY3MDI3NzI4Nzg0IEwgMTIwOSAyNjUuMjczNDE4NzAxNzExNTMgTCAxMjA5IDI2NS4yNzM0MTg3MDE3MTE2NSBMIDEyMTAgMjYyLjk3OTU1MTQ1ODEwNTA1IEwgMTIxMCAyNjIuOTc5NTUxNDU4MTA1MSBMIDEyMTEgMjYwLjY3NTEwMTA0MjA1OTE3IEwgMTIxMSAyNjAuNjc1MTAxMDQyMDU5MTcgTCAxMjEyIDI1OC4zNjAwNjc0NTM1NzM1IEwgMTIxMiAyNTguMzYwMDY3NDUzNTczNiBMIDEyMTMgMjU2LjAzNDQ1MDY5MjY0ODI1IEwgMTIxMyAyNTYuMDM0NDUwNjkyNjQ4MyBMIDEyMTQgMjUzLjY5ODI1MDc1OTI4MzQ0IEwgMTIxNCAyNTMuNjk4MjUwNzU5MjgzNSBMIDEyMTUgMjUxLjM1MTQ2NzY1MzQ3OTA2IEwgMTIxNSAyNTEuMzUxNDY3NjUzNDc5MTIgTCAxMjE2IDI0OC45OTQxMDEzNzUyMzQ5NSBMIDEyMTYgMjQ4Ljk5NDEwMTM3NTIzNSBMIDEyMTcgMjQ2LjYyNjE1MTkyNDU1MTMyIEwgMTIxNyAyNDYuNjI2MTUxOTI0NTUxNDQgTCAxMjE4IDI0NC4yNDc2MTkzMDE0MjgwNyBMIDEyMTggMjQ0LjI0NzYxOTMwMTQyODEzIEwgMTIxOSAyNDEuODU4NTAzNTA1ODY1MiBMIDEyMTkgMjQxLjg1ODUwMzUwNTg2NTMxIEwgMTIyMCAyMzkuNDU4ODA0NTM3ODYyODcgTCAxMjIwIDIzOS40NTg4MDQ1Mzc4NjI5MyBMIDEyMjEgMjM3LjA0ODUyMjM5NzQyMDcgTCAxMjIxIDIzNy4wNDg1MjIzOTc0MjA3NSBMIDEyMjIgMjM0LjYyNzY1NzA4NDUzOTEyIEwgMTIyMiAyMzQuNjI3NjU3MDg0NTM5MTggTCAxMjIzIDIzMi4xOTYyMDg1OTkyMTc4NyBMIDEyMjMgMjMyLjE5NjIwODU5OTIxNzk4IEwgMTIyNCAyMjkuNzU0MTc2OTQxNDU2OTMgTCAxMjI0IDIyOS43NTQxNzY5NDE0NTcgTCAxMjI1IDIyNy4zMDE1NjIxMTEyNTY1IEwgMTIyNSAyMjcuMzAxNTYyMTExMjU2NiBMIDEyMjYgMjI0LjgzODM2NDEwODYxNjM2IEwgMTIyNiAyMjQuODM4MzY0MTA4NjE2NDIgTCAxMjI3IDIyMi4zNjQ1ODI5MzM1MzY3MiBMIDEyMjcgMjIyLjM2NDU4MjkzMzUzNjc4IEwgMTIyOCAyMTkuODgwMjE4NTg2MDE3NTIgTCAxMjI4IDIxOS44ODAyMTg1ODYwMTc1OCBMIDEyMjkgMjE3LjM4NTI3MTA2NjA1ODUyIEwgMTIyOSAyMTcuMzg1MjcxMDY2MDU4NTggTCAxMjMwIDIxNC44Nzk3NDAzNzM2NjAxMyBMIDEyMzAgMjE0Ljg3OTc0MDM3MzY2MDE4IEwgMTIzMSAyMTIuMzYzNjI2NTA4ODIxODggTCAxMjMxIDIxMi4zNjM2MjY1MDg4MjE5NCBMIDEyMzIgMjA5LjgzNjkyOTQ3MTU0NDI0IEwgMTIzMiAyMDkuODM2OTI5NDcxNTQ0MzUgTCAxMjMzIDIwNy4yOTk2NDkyNjE4MjcwMyBMIDEyMzMgMjA3LjI5OTY0OTI2MTgyNzA4IEwgMTIzNCAyMDQuNzUxNzg1ODc5NjcwMDIgTCAxMjM0IDIwNC43NTE3ODU4Nzk2NzAwOCBMIDEyMzUgMjAyLjE5MzMzOTMyNTA3MzU3IEwgMTIzNSAyMDIuMTkzMzM5MzI1MDczNjIgTCAxMjM2IDE5OS42MjQzMDk1OTgwMzc0OCBMIDEyMzYgMTk5LjYyNDMwOTU5ODAzNzYgTCAxMjM3IDE5Ny4wNDQ2OTY2OTg1NjE3MiBMIDEyMzcgMTk3LjA0NDY5NjY5ODU2MTc4IEwgMTIzOCAxOTQuNDU0NTAwNjI2NjQ2NDUgTCAxMjM4IDE5NC40NTQ1MDA2MjY2NDY1IEwgMTIzOSAxOTEuODUzNzIxMzgyMjkxNDQgTCAxMjM5IDE5MS44NTM3MjEzODIyOTE1IEwgMTI0MCAxODkuMjQyMzU4OTY1NDk2OTIgTCAxMjQwIDE4OS4yNDIzNTg5NjU0OTcwMyBMIDEyNDEgMTg2LjYyMDQxMzM3NjI2MjkgTCAxMjQxIDE4Ni42MjA0MTMzNzYyNjI5NSBMIDEyNDIgMTgzLjk4Nzg4NDYxNDU4OTA2IEwgMTI0MiAxODMuOTg3ODg0NjE0NTg5MTIgTCAxMjQzIDE4MS4zNDQ3NzI2ODA0NzU3MyBMIDEyNDMgMTgxLjM0NDc3MjY4MDQ3NTc4IEwgMTI0NCAxNzguNjkxMDc3NTczOTIyNyBMIDEyNDQgMTc4LjY5MTA3NzU3MzkyMjgzIEwgMTI0NSAxNzYuMDI2Nzk5Mjk0OTMwMTkgTCAxMjQ1IDE3Ni4wMjY3OTkyOTQ5MzAzNiBMIDEyNDYgMTczLjM1MTkzNzg0MzQ5ODE1IEwgMTI0NiAxNzMuMzUxOTM3ODQzNDk4MjYgTCAxMjQ3IDE3MC42NjY0OTMyMTk2MjYyIEwgMTI0NyAxNzAuNjY2NDkzMjE5NjI2MzcgTCAxMjQ4IDE2Ny45NzA0NjU0MjMzMTQ5MiBMIDEyNDggMTY3Ljk3MDQ2NTQyMzMxNTEgTCAxMjQ5IDE2NS4yNjM4NTQ0NTQ1NjM5NSBMIDEyNDkgMTY1LjI2Mzg1NDQ1NDU2NDEzIEwgMTI1MCAxNjIuNTQ2NjYwMzEzMzczMzcgTCAxMjUwIDE2Mi41NDY2NjAzMTMzNzM1NCBMIDEyNTEgMTU5LjgxODg4Mjk5OTc0MzIgTCAxMjUxIDE1OS44MTg4ODI5OTk3NDMzMiBMIDEyNTIgMTU3LjA4MDUyMjUxMzY3MzM3IEwgMTI1MiAxNTcuMDgwNTIyNTEzNjczNSBMIDEyNTMgMTU0LjMzMTU3ODg1NTE2NDAzIEwgMTI1MyAxNTQuMzMxNTc4ODU1MTY0MTQgTCAxMjU0IDE1MS41NzIwNTIwMjQyMTUxIEwgMTI1NCAxNTEuNTcyMDUyMDI0MjE1MjIgTCAxMjU1IDE0OC44MDE5NDIwMjA4MjY0IEwgMTI1NSAxNDguODAxOTQyMDIwODI2NTIgTCAxMjU2IDE0Ni4wMjEyNDg4NDQ5OTgzIEwgMTI1NiAxNDYuMDIxMjQ4ODQ0OTk4NCBMIDEyNTcgMTQzLjIyOTk3MjQ5NjczMDUgTCAxMjU3IDE0My4yMjk5NzI0OTY3MzA2OCBMIDEyNTggMTQwLjQyODExMjk3NjAyMyBMIDEyNTggMTQwLjQyODExMjk3NjAyMzE2IEwgMTI1OSAxMzcuNjE1NjcwMjgyODc2MDcgTCAxMjU5IDEzNy42MTU2NzAyODI4NzYyNCBMIDEyNjAgMTM0Ljc5MjY0NDQxNzI4OTM1IEwgMTI2MCAxMzQuNzkyNjQ0NDE3Mjg5NTIgTCAxMjYxIDEzMS45NTkwMzUzNzkyNjMyNCBMIDEyNjEgMTMxLjk1OTAzNTM3OTI2MzQgTCAxMjYyIDEyOS4xMTQ4NDMxNjg3OTc0NSBMIDEyNjIgMTI5LjExNDg0MzE2ODc5NzYyIEwgMTI2MyAxMjYuMjYwMDY3Nzg1ODkxOTIgTCAxMjYzIDEyNi4yNjAwNjc3ODU4OTIwOSBMIDEyNjQgMTIzLjM5NDcwOTIzMDU0NyBMIDEyNjQgMTIzLjM5NDcwOTIzMDU0NzExIEwgMTI2NSAxMjAuNTE4NzY3NTAyNzYyMjIgTCAxMjY1IDEyMC41MTg3Njc1MDI3NjIzOSBMIDEyNjYgMTE3LjYzMjI0MjYwMjUzODE2IEwgMTI2NiAxMTcuNjMyMjQyNjAyNTM4MzMgTCAxMjY3IDExNC43MzUxMzQ1Mjk4NzQwNyBMIDEyNjcgMTE0LjczNTEzNDUyOTg3NDI0IEwgMTI2OCAxMTEuODI3NDQzMjg0NzcwNzcgTCAxMjY4IDExMS44Mjc0NDMyODQ3NzA4OCBMIDEyNjkgMTA4LjkwOTE2ODg2NzIyNzcyIEwgMTI2OSAxMDguOTA5MTY4ODY3MjI3ODkgTCAxMjcwIDEwNS45ODAzMTEyNzcyNDUxNiBMIDEyNzAgMTA1Ljk4MDMxMTI3NzI0NTI4IEwgMTI3MSAxMDMuMDQwODcwNTE0ODIyOTggTCAxMjcxIDEwMy4wNDA4NzA1MTQ4MjMxNSBMIDEyNzIgMTAwLjA5MDg0NjU3OTk2MDg0IEwgMTI3MiAxMDAuMDkwODQ2NTc5OTYxMDEgTCAxMjczIDk3LjEzMDIzOTQ3MjY1OTQ3IEwgMTI3MyA5Ny4xMzAyMzk0NzI2NTk1OCBMIDEyNzQgOTQuMTU5MDQ5MTkyOTE4NDIgTCAxMjc0IDk0LjE1OTA0OTE5MjkxODUzIEwgMTI3NSA5MS4xNzcyNzU3NDA3Mzc4IEwgMTI3NSA5MS4xNzcyNzU3NDA3Mzc5NyBMIDEyNzYgODguMTg0OTE5MTE2MTE3NjEgTCAxMjc2IDg4LjE4NDkxOTExNjExNzc4IEwgMTI3NyA4NS4xODE5NzkzMTkwNTc0IEwgMTI3NyA4NS4xODE5NzkzMTkwNTc1OCBMIDEyNzggODIuMTY4NDU2MzQ5NTU3OTcgTCAxMjc4IDgyLjE2ODQ1NjM0OTU1ODE0IEwgMTI3OSA3OS4xNDQzNTAyMDc2MTkwMyBMIDEyNzkgNzkuMTQ0MzUwMjA3NjE5MTQgTCAxMjgwIDc2LjEwOTY2MDg5MzI0MDQgTCAxMjgwIDc2LjEwOTY2MDg5MzI0MDUyIEwgMTI4MSA3My4wNjQzODg0MDY0MjIxIEwgMTI4MSA3My4wNjQzODg0MDY0MjIyNyBMIDEyODIgNzAuMDA4NTMyNzQ3MTY0IEwgMTI4MiA3MC4wMDg1MzI3NDcxNjQxNyBMIDEyODMgNjYuOTQyMDkzOTE1NDY2NSBMIDEyODMgNjYuOTQyMDkzOTE1NDY2NjcgTCAxMjg0IDYzLjg2NTA3MTkxMTMyOTQ5NCBMIDEyODQgNjMuODY1MDcxOTExMzI5NjY1IEwgMTI4NSA2MC43Nzc0NjY3MzQ3NTI4MSBMIDEyODUgNjAuNzc3NDY2NzM0NzUyOTggTCAxMjg2IDU3LjY3OTI3ODM4NTczNjU1IEwgMTI4NiA1Ny42NzkyNzgzODU3MzY3MiBMIDEyODcgNTQuNTcwNTA2ODY0MjgwNzMgTCAxMjg3IDU0LjU3MDUwNjg2NDI4MDkgTCAxMjg4IDUxLjQ1MTE1MjE3MDM4NDk0NCBMIDEyODggNTEuNDUxMTUyMTcwMzg1MTE0IEwgMTI4OSA0OC4zMjEyMTQzMDQwNDk4NzQgTCAxMjg5IDQ4LjMyMTIxNDMwNDA1MDA0NSBMIDEyOTAgNDUuMTgwNjkzMjY1Mjc1MjQgTCAxMjkwIDQ1LjE4MDY5MzI2NTI3NTM1IEwgMTI5MSA0Mi4wMjk1ODkwNTQwNjA5MiBMIDEyOTEgNDIuMDI5NTg5MDU0MDYxMDkgTCAxMjkyIDM4Ljg2NzkwMTY3MDQwNzAzNiBMIDEyOTIgMzguODY3OTAxNjcwNDA3MjEgTCAxMjkzIDM1LjY5NTYzMTExNDMxMzE5IEwgMTI5MyAzNS42OTU2MzExMTQzMTMzNiBMIDEyOTQgMzIuNTEyNzc3Mzg1NzgwMTEgTCAxMjk0IDMyLjUxMjc3NzM4NTc4MDI4IEwgMTI5NSAyOS4zMTkzNDA0ODQ4MDc0MTIgTCAxMjk1IDI5LjMxOTM0MDQ4NDgwNzU4MyBMIDEyOTYgMjYuMTE1MzIwNDExMzk1MTQ2IEwgMTI5NiAyNi4xMTUzMjA0MTEzOTUzMTcgTCAxMjk3IDIyLjkwMDcxNzE2NTU0MzIgTCAxMjk3IDIyLjkwMDcxNzE2NTU0MzM3IEwgMTI5OCAxOS42NzU1MzA3NDcyNTE0NTcgTCAxMjk4IDE5LjY3NTUzMDc0NzI1MTYyOCBMIDEyOTkgMTYuNDM5NzYxMTU2NTIwMzc2IEwgMTI5OSAxNi40Mzk3NjExNTY1MjA0OSBMIDEzMDAgMTMuMTkzNDA4MzkzMzQ5NjE0IEwgMTMwMCAxMy4xOTM0MDgzOTMzNDk3MjggTCAxMzAxIDkuOTM2NDcyNDU3NzM5Mjg1IEwgMTMwMSA5LjkzNjQ3MjQ1NzczOTM5OSBMIDEzMDIgNi42Njg5NTMzNDk2ODkzMzIgTCAxMzAyIDYuNjY4OTUzMzQ5Njg5NTU5IEwgMTMwMyAzLjM5MDg1MTA2OTE5OTUyNzUgTCAxMzAzIDMuMzkwODUxMDY5MTk5NjQxIEwgMTMwNCAwLjEwMjE2NTYxNjI3MDQ0MDMgTCAxMzA0IDAuMTAyMTY1NjE2MjcwNTUzOTggTCAxMzA1IC0zLjE5NzEwMzAwOTA5ODMyNzcgTCAxMzA1IC0zLjE5NzEwMzAwOTA5ODIxNCBMIDEzMDYgLTYuNTA2OTU0ODA2OTA2NjA2IEwgMTMwNiAtNi41MDY5NTQ4MDY5MDY0OTIgTCAxMzA3IC05LjgyNzM4OTc3NzE1NDUwOCBMIDEzMDcgLTkuODI3Mzg5Nzc3MTU0Mzk0IEwgMTMwOCAtMTMuMTU4NDA3OTE5ODQyNDg5IEwgMTMwOCAtMTMuMTU4NDA3OTE5ODQyMzc1IEwgMTMwOSAtMTYuNTAwMDA5MjM0OTY5NjQgTCAxMzA5IC0xNi41MDAwMDkyMzQ5Njk0MSBMIDEzMTAgLTE5Ljg1MjE5MzcyMjUzNjQxMyBMIDEzMTAgLTE5Ljg1MjE5MzcyMjUzNjE4NSBMIDEzMTEgLTIzLjIxNDk2MTM4MjU0MjY5NyBMIDEzMTEgLTIzLjIxNDk2MTM4MjU0MjU4MyBMIDEzMTIgLTI2LjU4ODMxMjIxNDk4ODYwNSBMIDEzMTIgLTI2LjU4ODMxMjIxNDk4ODQ5IEwgMTMxMyAtMjkuOTcyMjQ2MjE5ODc0MTM3IEwgMTMxMyAtMjkuOTcyMjQ2MjE5ODc0MDIzIEwgMTMxNCAtMzMuMzY2NzYzMzk3MTk5NzUgTCAxMzE0IC0zMy4zNjY3NjMzOTcxOTk2MzQgTCAxMzE1IC0zNi43NzE4NjM3NDY5NjQ1MyBMIDEzMTUgLTM2Ljc3MTg2Mzc0Njk2NDMgTCAxMzE2IC00MC4xODc1NDcyNjkxNjg4MiBMIDEzMTYgLTQwLjE4NzU0NzI2OTE2ODcwNCBMIDEzMTcgLTQzLjYxMzgxMzk2MzgxMjg0NSBMIDEzMTcgLTQzLjYxMzgxMzk2MzgxMjczIEwgMTMxOCAtNDcuMDUwNjYzODMwODk2MzggTCAxMzE4IC00Ny4wNTA2NjM4MzA4OTYyNyBMIDEzMTkgLTUwLjQ5ODA5Njg3MDQyIEwgMTMxOSAtNTAuNDk4MDk2ODcwNDE5ODg2IEwgMTMyMCAtNTMuOTU2MTEzMDgyMzgyNzg1IEwgMTMyMCAtNTMuOTU2MTEzMDgyMzgyNjcgTCAxMzIxIC01Ny40MjQ3MTI0NjY3ODUwOCBMIDEzMjEgLTU3LjQyNDcxMjQ2Njc4NDk3IEwgMTMyMiAtNjAuOTAzODk1MDIzNjI3MTE1IEwgMTMyMiAtNjAuOTAzODk1MDIzNjI3IEwgMTMyMyAtNjQuMzkzNjYwNzUyOTA4NzcgTCAxMzIzIC02NC4zOTM2NjA3NTI5MDg1NCBMIDEzMjQgLTY3Ljg5NDAwOTY1NDYzMDI4IEwgMTMyNCAtNjcuODk0MDA5NjU0NjMwMTcgTCAxMzI1IC03MS40MDQ5NDE3Mjg3OTExOSBMIDEzMjUgLTcxLjQwNDk0MTcyODc5MTA3IEwgMTMyNiAtNzQuOTI2NDU2OTc1MzkxNiBMIDEzMjYgLTc0LjkyNjQ1Njk3NTM5MTM3IEwgMTMyNyAtNzguNDU4NTU1Mzk0NDMxNTMgTCAxMzI3IC03OC40NTg1NTUzOTQ0MzE0MSBMIDEzMjggLTgyLjAwMTIzNjk4NTkxMTE5IEwgMTMyOCAtODIuMDAxMjM2OTg1OTEwOTYgTCAxMzI5IC04NS41NTQ1MDE3NDk4MzA4MiBMIDEzMjkgLTg1LjU1NDUwMTc0OTgzMDU5IEwgMTMzMCAtODkuMTE4MzQ5Njg2MTg5NjIgTCAxMzMwIC04OS4xMTgzNDk2ODYxODkzOSBMIDEzMzEgLTkyLjY5Mjc4MDc5NDk4ODA0IEwgMTMzMSAtOTIuNjkyNzgwNzk0OTg3ODEgTCAxMzMyIC05Ni4yNzc3OTUwNzYyMjYwOCBMIDEzMzIgLTk2LjI3Nzc5NTA3NjIyNTk3IEwgMTMzMyAtOTkuODczMzkyNTI5OTAzNjQgTCAxMzMzIC05OS44NzMzOTI1Mjk5MDM1MyBMIDEzMzQgLTEwMy40Nzk1NzMxNTYwMjA4MiBMIDEzMzQgLTEwMy40Nzk1NzMxNTYwMjA3IEwgMTMzNSAtMTA3LjA5NjMzNjk1NDU3ODA4IEwgMTMzNSAtMTA3LjA5NjMzNjk1NDU3Nzk2IEwgMTMzNiAtMTEwLjcyMzY4MzkyNTU3NDYyIEwgMTMzNiAtMTEwLjcyMzY4MzkyNTU3NDUgTCAxMzM3IC0xMTQuMzYxNjE0MDY5MDEwNTYgTCAxMzM3IC0xMTQuMzYxNjE0MDY5MDEwNDQgTCAxMzM4IC0xMTguMDEwMTI3Mzg0ODg2MjMgTCAxMzM4IC0xMTguMDEwMTI3Mzg0ODg2MTIgTCAxMzM5IC0xMjEuNjY5MjIzODczMjAxNTMgTCAxMzM5IC0xMjEuNjY5MjIzODczMjAxMyBMIDEzNDAgLTEyNS4zMzg5MDM1MzM5NTY4IEwgMTM0MCAtMTI1LjMzODkwMzUzMzk1NjU3IEwgMTM0MSAtMTI5LjAxOTE2NjM2NzE1MTIzIEwgMTM0MSAtMTI5LjAxOTE2NjM2NzE1MTEyIEwgMTM0MiAtMTMyLjcxMDAxMjM3Mjc4NTMgTCAxMzQyIC0xMzIuNzEwMDEyMzcyNzg1MTcgTCAxMzQzIC0xMzYuNDExNDQxNTUwODU4OTcgTCAxMzQzIC0xMzYuNDExNDQxNTUwODU4ODUgTCAxMzQ0IC0xNDAuMTIzNDUzOTAxMzcyMjcgTCAxMzQ0IC0xNDAuMTIzNDUzOTAxMzcyMDUgTCAxMzQ1IC0xNDMuODQ2MDQ5NDI0MzI1NjYgTCAxMzQ1IC0xNDMuODQ2MDQ5NDI0MzI1NDMgTCAxMzQ2IC0xNDcuNTc5MjI4MTE5NzE4MSBMIDEzNDYgLTE0Ny41NzkyMjgxMTk3MTc4NyBMIDEzNDcgLTE1MS4zMjI5ODk5ODc1NTAxNiBMIDEzNDcgLTE1MS4zMjI5ODk5ODc1NTAwNSBMIDEzNDggLTE1NS4wNzczMzUwMjc4MjE3MyBMIDEzNDggLTE1NS4wNzczMzUwMjc4MjE2MiBMIDEzNDkgLTE1OC44NDIyNjMyNDA1MzMxNiBMIDEzNDkgLTE1OC44NDIyNjMyNDA1MzMwNCBMIDEzNTAgLTE2Mi42MTc3NzQ2MjU2ODQ0MyBMIDEzNTAgLTE2Mi42MTc3NzQ2MjU2ODQyIEwgMTM1MSAtMTY2LjQwMzg2OTE4MzI3NSBMIDEzNTEgLTE2Ni40MDM4NjkxODMyNzQ2NSBMIDEzNTIgLTE3MC4yMDA1NDY5MTMzMDUxNyBMIDEzNTIgLTE3MC4yMDA1NDY5MTMzMDQ4MyBMIDEzNTMgLTE3NC4wMDc4MDc4MTU3NzQ4NyBMIDEzNTMgLTE3NC4wMDc4MDc4MTU3NzQ1MyBMIDEzNTQgLTE3Ny44MjU2NTE4OTA2ODQwNyBMIDEzNTQgLTE3Ny44MjU2NTE4OTA2ODM3MyBMIDEzNTUgLTE4MS42NTQwNzkxMzgwMzM0NyBMIDEzNTUgLTE4MS42NTQwNzkxMzgwMzMyNCBMIDEzNTYgLTE4NS40OTMwODk1NTc4MjIwMyBMIDEzNTYgLTE4NS40OTMwODk1NTc4MjE3IEwgMTM1NyAtMTg5LjM0MjY4MzE1MDA1IEwgMTM1NyAtMTg5LjM0MjY4MzE1MDA0OTc3IEwgMTM1OCAtMTkzLjIwMjg1OTkxNDcxNzkyIEwgMTM1OCAtMTkzLjIwMjg1OTkxNDcxNzU4IEwgMTM1OSAtMTk3LjA3MzYxOTg1MTgyNTEzIEwgMTM1OSAtMTk3LjA3MzYxOTg1MTgyNDkgTCAxMzYwIC0yMDAuOTU0OTYyOTYxMzcyMDggTCAxMzYwIC0yMDAuOTU0OTYyOTYxMzcxNzMgTCAxMzYxIC0yMDQuODQ2ODg5MjQzMzU5MSBMIDEzNjEgLTIwNC44NDY4ODkyNDMzNTg3NiBMIDEzNjIgLTIwOC43NDkzOTg2OTc3ODUxOCBMIDEzNjIgLTIwOC43NDkzOTg2OTc3ODQ4NCBMIDEzNjMgLTIxMi42NjI0OTEzMjQ2NTA5IEwgMTM2MyAtMjEyLjY2MjQ5MTMyNDY1MDU1IEwgMTM2NCAtMjE2LjU4NjE2NzEyMzk1NjMzIEwgMTM2NCAtMjE2LjU4NjE2NzEyMzk1NjEgTCAxMzY1IC0yMjAuNTIwNDI2MDk1NzAxMTcgTCAxMzY1IC0yMjAuNTIwNDI2MDk1NzAwODMgTCAxMzY2IC0yMjQuNDY1MjY4MjM5ODg2MyBMIDEzNjYgLTIyNC40NjUyNjgyMzk4ODU5NyBMIDEzNjcgLTIyOC40MjA2OTM1NTY1MTA0IEwgMTM2NyAtMjI4LjQyMDY5MzU1NjUxMDA2IEwgMTM2OCAtMjMyLjM4NjcwMjA0NTU3NDEgTCAxMzY4IC0yMzIuMzg2NzAyMDQ1NTczODggTCAxMzY5IC0yMzYuMzYzMjkzNzA3MDc3NTYgTCAxMzY5IC0yMzYuMzYzMjkzNzA3MDc3MjIgTCAxMzcwIC0yNDAuMzUwNDY4NTQxMDIwNTIgTCAxMzcwIC0yNDAuMzUwNDY4NTQxMDIwMTggTCAxMzcxIC0yNDQuMzQ4MjI2NTQ3NDAzNTYgTCAxMzcxIC0yNDQuMzQ4MjI2NTQ3NDAzMjEgTCAxMzcyIC0yNDguMzU2NTY3NzI2MjI1NjUgTCAxMzcyIC0yNDguMzU2NTY3NzI2MjI1NDIgTCAxMzczIC0yNTIuMzc1NDkyMDc3NDg3NiBMIDEzNzMgLTI1Mi4zNzU0OTIwNzc0ODcyNSBMIDEzNzQgLTI1Ni40MDQ5OTk2MDExODg4IEwgMTM3NCAtMjU2LjQwNDk5OTYwMTE4ODYgTCAxMzc1IC0yNjAuNDQ1MDkwMjk3MzI5OCBMIDEzNzUgLTI2MC40NDUwOTAyOTczMjk1NiBMIDEzNzYgLTI2NC40OTU3NjQxNjU5MTA5NCBMIDEzNzYgLTI2NC40OTU3NjQxNjU5MTA2IEwgMTM3NyAtMjY4LjU1NzAyMTIwNjkzMTA0IEwgMTM3NyAtMjY4LjU1NzAyMTIwNjkzMDcgTCAxMzc4IC0yNzIuNjI4ODYxNDIwMzkwOSBMIDEzNzggLTI3Mi42Mjg4NjE0MjAzOTA2NSBMIDEzNzkgLTI3Ni43MTEyODQ4MDYyOTAyIEwgMTM3OSAtMjc2LjcxMTI4NDgwNjI5IEwgMTM4MCAtMjgwLjgwNDI5MTM2NDYyOTMgTCAxMzgwIC0yODAuODA0MjkxMzY0NjI5MSBMIDEzODEgLTI4NC45MDc4ODEwOTU0MDc5IEwgMTM4MSAtMjg0LjkwNzg4MTA5NTQwNzU2IEwgMTM4MiAtMjg5LjAyMjA1Mzk5ODYyNjcgTCAxMzgyIC0yODkuMDIyMDUzOTk4NjI2MzUgTCAxMzgzIC0yOTMuMTQ2ODEwMDc0Mjg0NCBMIDEzODMgLTI5My4xNDY4MTAwNzQyODQxIEwgMTM4NCAtMjk3LjI4MjE0OTMyMjM4MTkgTCAxMzg0IC0yOTcuMjgyMTQ5MzIyMzgxNjYgTCAxMzg1IC0zMDEuNDI4MDcxNzQyOTE4NzUgTCAxMzg1IC0zMDEuNDI4MDcxNzQyOTE4NSBMIDEzODYgLTMwNS41ODQ1NzczMzU4OTU0NiBMIDEzODYgLTMwNS41ODQ1NzczMzU4OTUyMyBMIDEzODcgLTMwOS43NTE2NjYxMDEzMTIyNSBMIDEzODcgLTMwOS43NTE2NjYxMDEzMTE5IEwgMTM4OCAtMzEzLjkyOTMzODAzOTE2ODEgTCAxMzg4IC0zMTMuOTI5MzM4MDM5MTY3NzYgTCAxMzg5IC0zMTguMTE3NTkzMTQ5NDYzNiBMIDEzODkgLTMxOC4xMTc1OTMxNDk0NjMyMyBMIDEzOTAgLTMyMi4zMTY0MzE0MzIxOTg0NCBMIDEzOTAgLTMyMi4zMTY0MzE0MzIxOTgzIEwgMTM5MSAtMzI2LjUyNTg1Mjg4NzM3MzMgTCAxMzkxIC0zMjYuNTI1ODUyODg3MzcyOTMgTCAxMzkyIC0zMzAuNzQ1ODU3NTE0OTg4MSBMIDEzOTIgLTMzMC43NDU4NTc1MTQ5ODc3MyBMIDEzOTMgLTMzNC45NzY0NDUzMTUwNDE4IEwgMTM5MyAtMzM0Ljk3NjQ0NTMxNTA0MTUgTCAxMzk0IC0zMzkuMjE3NjE2Mjg3NTM1MyBMIDEzOTQgLTMzOS4yMTc2MTYyODc1MzUwNyBMIDEzOTUgLTM0My40NjkzNzA0MzI0NjgzIEwgMTM5NSAtMzQzLjQ2OTM3MDQzMjQ2Nzk0IEwgMTM5NiAtMzQ3LjczMTcwNzc0OTg0MTEgTCAxMzk2IC0zNDcuNzMxNzA3NzQ5ODQwOCBMIDEzOTcgLTM1Mi4wMDQ2MjgyMzk2NTM4IEwgMTM5NyAtMzUyLjAwNDYyODIzOTY1MzQ3IEwgMTM5OCAtMzU2LjI4ODEzMTkwMTkwNTcgTCAxMzk4IC0zNTYuMjg4MTMxOTAxOTA1MzMgTCAxMzk5IC0zNjAuNTgyMjE4NzM2NTk3MTYgTCAxMzk5IC0zNjAuNTgyMjE4NzM2NTk2OTMgTCAxNDAwIC0zNjQuODg2ODg4NzQzNzI4MTUgTCAxNDAwIC0zNjQuODg2ODg4NzQzNzI3OSBMIDE0MDEgLTM2OS4yMDIxNDE5MjMyOTg5IEwgMTQwMSAtMzY5LjIwMjE0MTkyMzI5ODY1IEwgMTQwMiAtMzczLjUyNzk3ODI3NTMwOTI0IEwgMTQwMiAtMzczLjUyNzk3ODI3NTMwODkgTCAxNDAzIC0zNzcuODY0Mzk3Nzk5NzU5NTYgTCAxNDAzIC0zNzcuODY0Mzk3Nzk5NzU5MiBMIDE0MDQgLTM4Mi4yMTE0MDA0OTY2NDkwNSBMIDE0MDQgLTM4Mi4yMTE0MDA0OTY2NDg3IEwgMTQwNSAtMzg2LjU2ODk4NjM2NTk3ODMgTCAxNDA1IC0zODYuNTY4OTg2MzY1OTc3OTMgTCAxNDA2IC0zOTAuOTM3MTU1NDA3NzQ2OSBMIDE0MDYgLTM5MC45MzcxNTU0MDc3NDY1NiBMIDE0MDcgLTM5NS4zMTU5MDc2MjE5NTUyNiBMIDE0MDcgLTM5NS4zMTU5MDc2MjE5NTQ5IEwgMTQwOCAtMzk5LjcwNTI0MzAwODYwMzYgTCAxNDA4IC0zOTkuNzA1MjQzMDA4NjAzMzYgTCAxNDA5IC00MDQuMTA1MTYxNTY3NjkxMiBMIDE0MDkgLTQwNC4xMDUxNjE1Njc2OTA4NiBMIDE0MTAgLTQwOC41MTU2NjMyOTkyMTgyIEwgMTQxMCAtNDA4LjUxNTY2MzI5OTIxOCBMIDE0MTEgLTQxMi45MzY3NDgyMDMxODQ5NSBMIDE0MTEgLTQxMi45MzY3NDgyMDMxODQ3IEwgMTQxMiAtNDE3LjM2ODQxNjI3OTU5MTMgTCAxNDEyIC00MTcuMzY4NDE2Mjc5NTkxMSBMIDE0MTMgLTQyMS44MTA2Njc1Mjg0Mzc3NiBMIDE0MTMgLTQyMS44MTA2Njc1Mjg0Mzc1MyBMIDE0MTQgLTQyNi4yNjM1MDE5NDk3MjMyNiBMIDE0MTQgLTQyNi4yNjM1MDE5NDk3MjI5IEwgMTQxNSAtNDMwLjcyNjkxOTU0MzQ0ODQgTCAxNDE1IC00MzAuNzI2OTE5NTQzNDQ4MTYgTCAxNDE2IC00MzUuMjAwOTIwMzA5NjEzMjUgTCAxNDE2IC00MzUuMjAwOTIwMzA5NjEyOSBMIDE0MTcgLTQzOS42ODU1MDQyNDgyMTc0IEwgMTQxNyAtNDM5LjY4NTUwNDI0ODIxNzE3IEwgMTQxOCAtNDQ0LjE4MDY3MTM1OTI2MTk2IEwgMTQxOCAtNDQ0LjE4MDY3MTM1OTI2MTYgTCAxNDE5IC00NDguNjg2NDIxNjQyNzQ1NiBMIDE0MTkgLTQ0OC42ODY0MjE2NDI3NDUyNCBMIDE0MjAgLTQ1My4yMDI3NTUwOTg2Njg3IEwgMTQyMCAtNDUzLjIwMjc1NTA5ODY2ODUgTCAxNDIxIC00NTcuNzI5NjcxNzI3MDMxNiBMIDE0MjEgLTQ1Ny43Mjk2NzE3MjcwMzEyNSBMIDE0MjIgLTQ2Mi4yNjcxNzE1Mjc4MzM3NCBMIDE0MjIgLTQ2Mi4yNjcxNzE1Mjc4MzM1IEwgMTQyMyAtNDY2LjgxNTI1NDUwMTA3NjMgTCAxNDIzIC00NjYuODE1MjU0NTAxMDc1OTcgTCAxNDI0IC00NzEuMzczOTIwNjQ2NzU3OCBMIDE0MjQgLTQ3MS4zNzM5MjA2NDY3NTc2IEwgMTQyNSAtNDc1Ljk0MzE2OTk2NDg3OTEgTCAxNDI1IC00NzUuOTQzMTY5OTY0ODc4ODUgTCAxNDI2IC00ODAuNTIzMDAyNDU1NDM5OTUgTCAxNDI2IC00ODAuNTIzMDAyNDU1NDM5NiBMIDE0MjcgLTQ4NS4xMTM0MTgxMTg0NDAyIEwgMTQyNyAtNDg1LjExMzQxODExODQzOTkgTCAxNDI4IC00ODkuNzE0NDE2OTUzODgwMjMgTCAxNDI4IC00ODkuNzE0NDE2OTUzODc5OSBMIDE0MjkgLTQ5NC4zMjU5OTg5NjE3NjAzIEwgMTQyOSAtNDk0LjMyNTk5ODk2MTc2IEwgMTQzMCAtNDk4Ljk0ODE2NDE0MjA3OTQ2IEwgMTQzMCAtNDk4Ljk0ODE2NDE0MjA3OTI0IEwgMTQzMSAtNTAzLjU4MDkxMjQ5NDgzODIzIEwgMTQzMSAtNTAzLjU4MDkxMjQ5NDgzOCBMIDE0MzIgLTUwOC4yMjQyNDQwMjAwMzY4NSBMIDE0MzIgLTUwOC4yMjQyNDQwMjAwMzY0IEwgMTQzMyAtNTEyLjg3ODE1ODcxNzY3NDggTCAxNDMzIC01MTIuODc4MTU4NzE3Njc0NSBMIDE0MzQgLTUxNy41NDI2NTY1ODc3NTI4IEwgMTQzNCAtNTE3LjU0MjY1NjU4Nzc1MjYgTCAxNDM1IC01MjIuMjE3NzM3NjMwMjcwMiBMIDE0MzUgLTUyMi4yMTc3Mzc2MzAyNjk4IEwgMTQzNiAtNTI2LjkwMzQwMTg0NTIyNjkgTCAxNDM2IC01MjYuOTAzNDAxODQ1MjI2NCBMIDE0MzcgLTUzMS41OTk2NDkyMzI2MjM1IEwgMTQzNyAtNTMxLjU5OTY0OTIzMjYyMyBMIDE0MzggLTUzNi4zMDY0Nzk3OTI0NTk0IEwgMTQzOCAtNTM2LjMwNjQ3OTc5MjQ1OTIgTCAxNDM5IC01NDEuMDIzODkzNTI0NzM1NSBMIDE0MzkgLTU0MS4wMjM4OTM1MjQ3MzUxIEwgMTQ0MCAtNTQ1Ljc1MTg5MDQyOTQ1MDkgTCAxNDQwIC01NDUuNzUxODkwNDI5NDUwNCBMIDE0NDEgLTU1MC40OTA0NzA1MDY2MDU2IEwgMTQ0MSAtNTUwLjQ5MDQ3MDUwNjYwNTMgTCAxNDQyIC01NTUuMjM5NjMzNzU2MjAwMiBMIDE0NDIgLTU1NS4yMzk2MzM3NTYxOTk3IEwgMTQ0MyAtNTU5Ljk5OTM4MDE3ODIzNDMgTCAxNDQzIC01NTkuOTk5MzgwMTc4MjMzOSBMIDE0NDQgLTU2NC43Njk3MDk3NzI3MDgyIEwgMTQ0NCAtNTY0Ljc2OTcwOTc3MjcwOCBMIDE0NDUgLTU2OS41NTA2MjI1Mzk2MjE2IEwgMTQ0NSAtNTY5LjU1MDYyMjUzOTYyMTEgTCAxNDQ2IC01NzQuMzQyMTE4NDc4OTc0NSBMIDE0NDYgLTU3NC4zNDIxMTg0Nzg5NzQgTCAxNDQ3IC01NzkuMTQ0MTk3NTkwNzY2OSBMIDE0NDcgLTU3OS4xNDQxOTc1OTA3NjY3IEwgMTQ0OCAtNTgzLjk1Njg1OTg3NDk5OSBMIDE0NDggLTU4My45NTY4NTk4NzQ5OTg2IEwgMTQ0OSAtNTg4Ljc4MDEwNTMzMTY3MDcgTCAxNDQ5IC01ODguNzgwMTA1MzMxNjcwMyBMIDE0NTAgLTU5My42MTM5MzM5NjA3ODI2IEwgMTQ1MCAtNTkzLjYxMzkzMzk2MDc4MjMgTCAxNDUxIC01OTguNDU4MzQ1NzYyMzMzNSBMIDE0NTEgLTU5OC40NTgzNDU3NjIzMzMgTCAxNDUyIC02MDMuMzEzMzQwNzM2MzIzOSBMIDE0NTIgLTYwMy4zMTMzNDA3MzYzMjM0IEwgMTQ1MyAtNjA4LjE3ODkxODg4Mjc1NCBMIDE0NTMgLTYwOC4xNzg5MTg4ODI3NTM4IEwgMTQ1NCAtNjEzLjA1NTA4MDIwMTYyMzcgTCAxNDU0IC02MTMuMDU1MDgwMjAxNjIzMiBMIDE0NTUgLTYxNy45NDE4MjQ2OTI5MzM2IEwgMTQ1NSAtNjE3Ljk0MTgyNDY5MjkzMzEgTCAxNDU2IC02MjIuODM5MTUyMzU2NjgyMiBMIDE0NTYgLTYyMi44MzkxNTIzNTY2ODIgTCAxNDU3IC02MjcuNzQ3MDYzMTkyODcwOSBMIDE0NTcgLTYyNy43NDcwNjMxOTI4NzA0IEwgMTQ1OCAtNjMyLjY2NTU1NzIwMTQ5OSBMIDE0NTggLTYzMi42NjU1NTcyMDE0OTg2IEwgMTQ1OSAtNjM3LjU5NDYzNDM4MjU2NjcgTCAxNDU5IC02MzcuNTk0NjM0MzgyNTY2NSBMIDE0NjAgLTY0Mi41MzQyOTQ3MzYwNzQ2IEwgMTQ2MCAtNjQyLjUzNDI5NDczNjA3NDMgTCAxNDYxIC02NDcuNDg0NTM4MjYyMDIxNSBMIDE0NjEgLTY0Ny40ODQ1MzgyNjIwMjEzIEwgMTQ2MiAtNjUyLjQ0NTM2NDk2MDQwODEgTCAxNDYyIC02NTIuNDQ1MzY0OTYwNDA3NyBMIDE0NjMgLTY1Ny40MTY3NzQ4MzEyMzQxIEwgMTQ2MyAtNjU3LjQxNjc3NDgzMTIzMzkgTCAxNDY0IC02NjIuMzk4NzY3ODc0NDk5OCBMIDE0NjQgLTY2Mi4zOTg3Njc4NzQ0OTk1IEwgMTQ2NSAtNjY3LjM5MTM0NDA5MDIwNTggTCAxNDY1IC02NjcuMzkxMzQ0MDkwMjA1NCBMIDE0NjYgLTY3Mi4zOTQ1MDM0NzgzNTA1IEwgMTQ2NiAtNjcyLjM5NDUwMzQ3ODM1MDMgTCAxNDY3IC02NzcuNDA4MjQ2MDM4OTM1MiBMIDE0NjcgLTY3Ny40MDgyNDYwMzg5MzUgTCAxNDY4IC02ODIuNDMyNTcxNzcxOTU5NCBMIDE0NjggLTY4Mi40MzI1NzE3NzE5NTg5IEwgMTQ2OSAtNjg3LjQ2NzQ4MDY3NzQyMyBMIDE0NjkgLTY4Ny40Njc0ODA2Nzc0MjI4IEwgMTQ3MCAtNjkyLjUxMjk3Mjc1NTMyNjkgTCAxNDcwIC02OTIuNTEyOTcyNzU1MzI2NyBMIDE0NzEgLTY5Ny41NjkwNDgwMDU2Njk5IEwgMTQ3MSAtNjk3LjU2OTA0ODAwNTY2OTYgTCAxNDcyIC03MDIuNjM1NzA2NDI4NDUyNSBMIDE0NzIgLTcwMi42MzU3MDY0Mjg0NTIzIEwgMTQ3MyAtNzA3LjcxMjk0ODAyMzY3NDcgTCAxNDczIC03MDcuNzEyOTQ4MDIzNjc0NSBMIDE0NzQgLTcxMi44MDA3NzI3OTEzMzY0IEwgMTQ3NCAtNzEyLjgwMDc3Mjc5MTMzNjIgTCAxNDc1IC03MTcuODk5MTgwNzMxNDM3OCBMIDE0NzUgLTcxNy44OTkxODA3MzE0Mzc2IEwgMTQ3NiAtNzIzLjAwODE3MTg0Mzk3OTQgTCAxNDc2IC03MjMuMDA4MTcxODQzOTc5IEwgMTQ3NyAtNzI4LjEyNzc0NjEyODk1OTkgTCAxNDc3IC03MjguMTI3NzQ2MTI4OTU5NiBMIDE0NzggLTczMy4yNTc5MDM1ODYzODAzIEwgMTQ3OCAtNzMzLjI1NzkwMzU4NjM3OTggTCAxNDc5IC03MzguMzk4NjQ0MjE2MjQgTCAxNDc5IC03MzguMzk4NjQ0MjE2MjM5NSBMIDE0ODAgLTc0My41NDk5NjgwMTg1Mzk0IEwgMTQ4MCAtNzQzLjU0OTk2ODAxODUzOTIgTCAxNDgxIC03NDguNzExODc0OTkzMjc4OCBMIDE0ODEgLTc0OC43MTE4NzQ5OTMyNzg2IEwgMTQ4MiAtNzUzLjg4NDM2NTE0MDQ1NzUgTCAxNDgyIC03NTMuODg0MzY1MTQwNDU3MiBMIDE0ODMgLTc1OS4wNjc0Mzg0NjAwNzU3IEwgMTQ4MyAtNzU5LjA2NzQzODQ2MDA3NTIgTCAxNDg0IC03NjQuMjYxMDk0OTUyMTMzNiBMIDE0ODQgLTc2NC4yNjEwOTQ5NTIxMzM0IEwgMTQ4NSAtNzY5LjQ2NTMzNDYxNjYzMSBMIDE0ODUgLTc2OS40NjUzMzQ2MTY2MzA4IEwgMTQ4NiAtNzc0LjY4MDE1NzQ1MzU2ODcgTCAxNDg2IC03NzQuNjgwMTU3NDUzNTY4NCBMIDE0ODcgLTc3OS45MDU1NjM0NjI5NDUzIEwgMTQ4NyAtNzc5LjkwNTU2MzQ2Mjk0NDkgTCAxNDg4IC03ODUuMTQxNTUyNjQ0NzYxNSBMIDE0ODggLTc4NS4xNDE1NTI2NDQ3NjExIEwgMTQ4OSAtNzkwLjM4ODEyNDk5OTAxNzIgTCAxNDg5IC03OTAuMzg4MTI0OTk5MDE3IEwgMTQ5MCAtNzk1LjY0NTI4MDUyNTcxMjcgTCAxNDkwIC03OTUuNjQ1MjgwNTI1NzEyMiBMIDE0OTEgLTgwMC45MTMwMTkyMjQ4NDgxIEwgMTQ5MSAtODAwLjkxMzAxOTIyNDg0NzkgTCAxNDkyIC04MDYuMTkxMzQxMDk2NDIzIEwgMTQ5MiAtODA2LjE5MTM0MTA5NjQyMjUgTCAxNDkzIC04MTEuNDgwMjQ2MTQwNDM3IEwgMTQ5MyAtODExLjQ4MDI0NjE0MDQzNjcgTCAxNDk0IC04MTYuNzc5NzM0MzU2ODkxMSBMIDE0OTQgLTgxNi43Nzk3MzQzNTY4OTA5IEwgMTQ5NSAtODIyLjA4OTgwNTc0NTc4NDQgTCAxNDk1IC04MjIuMDg5ODA1NzQ1Nzg0MSBMIDE0OTYgLTgyNy40MTA0NjAzMDcxMTc1IEwgMTQ5NiAtODI3LjQxMDQ2MDMwNzExNzMgTCAxNDk3IC04MzIuNzQxNjk4MDQwODkwNyBMIDE0OTcgLTgzMi43NDE2OTgwNDA4OTA1IEwgMTQ5OCAtODM4LjA4MzUxODk0NzEwMzEgTCAxNDk4IC04MzguMDgzNTE4OTQ3MTAyNyBMIDE0OTkgLTg0My40MzU5MjMwMjU3NTQ4IEwgMTQ5OSAtODQzLjQzNTkyMzAyNTc1NDQgTCAxNTAwIC04NDguNzk4OTEwMjc2ODQ2NSBMIDE1MDAgLTg0OC43OTg5MTAyNzY4NDU4IEwgMTUwMSAtODU0LjE3MjQ4MDcwMDM3NzUgTCAxNTAxIC04NTQuMTcyNDgwNzAwMzc2OCBMIDE1MDIgLTg1OS41NTY2MzQyOTYzNDg5IEwgMTUwMiAtODU5LjU1NjYzNDI5NjM0ODIgTCAxNTAzIC04NjQuOTUxMzcxMDY0NzU5MSBMIDE1MDMgLTg2NC45NTEzNzEwNjQ3NTg2IEwgMTUwNCAtODcwLjM1NjY5MTAwNTYwOSBMIDE1MDQgLTg3MC4zNTY2OTEwMDU2MDg0IEwgMTUwNSAtODc1Ljc3MjU5NDExODg5ODUgTCAxNTA1IC04NzUuNzcyNTk0MTE4ODk4IEwgMTUwNiAtODgxLjE5OTA4MDQwNDYyNzUgTCAxNTA2IC04ODEuMTk5MDgwNDA0NjI2OCBMIDE1MDcgLTg4Ni42MzYxNDk4NjI3OTY5IEwgMTUwNyAtODg2LjYzNjE0OTg2Mjc5NjQgTCAxNTA4IC04OTIuMDgzODAyNDkzNDA1MyBMIDE1MDggLTg5Mi4wODM4MDI0OTM0MDQ2IEwgMTUwOSAtODk3LjU0MjAzODI5NjQ1MyBMIDE1MDkgLTg5Ny41NDIwMzgyOTY0NTIzIEwgMTUxMCAtOTAzLjAxMDg1NzI3MTk0MDUgTCAxNTEwIC05MDMuMDEwODU3MjcxOTQgTCAxNTExIC05MDguNDkwMjU5NDE5ODY3NyBMIDE1MTEgLTkwOC40OTAyNTk0MTk4NjcyIEwgMTUxMiAtOTEzLjk4MDI0NDc0MDIzNDkgTCAxNTEyIC05MTMuOTgwMjQ0NzQwMjM0NCBMIDE1MTMgLTkxOS40ODA4MTMyMzMwNDEzIEwgMTUxMyAtOTE5LjQ4MDgxMzIzMzA0MDkgTCAxNTE0IC05MjQuOTkxOTY0ODk4Mjg3NSBMIDE1MTQgLTkyNC45OTE5NjQ4OTgyODY4IEwgMTUxNSAtOTMwLjUxMzY5OTczNTk3MjggTCAxNTE1IC05MzAuNTEzNjk5NzM1OTcyMSBMIDE1MTYgLTkzNi4wNDYwMTc3NDYwOTggTCAxNTE2IC05MzYuMDQ2MDE3NzQ2MDk3MyBMIDE1MTcgLTk0MS41ODg5MTg5Mjg2NjM0IEwgMTUxNyAtOTQxLjU4ODkxODkyODY2MjcgTCAxNTE4IC05NDcuMTQyNDAzMjgzNjY3NiBMIDE1MTggLTk0Ny4xNDI0MDMyODM2NjcxIEwgMTUxOSAtOTUyLjcwNjQ3MDgxMTExMTYgTCAxNTE5IC05NTIuNzA2NDcwODExMTExMSBMIDE1MjAgLTk1OC4yODExMjE1MTA5OTQ4IEwgMTUyMCAtOTU4LjI4MTEyMTUxMDk5NDQgTCAxNTIxIC05NjMuODY2MzU1MzgzMzE4MyBMIDE1MjEgLTk2My44NjYzNTUzODMzMTc2IEwgMTUyMiAtOTY5LjQ2MjE3MjQyODA4MSBMIDE1MjIgLTk2OS40NjIxNzI0MjgwODAzIEwgMTUyMyAtOTc1LjA2ODU3MjY0NTI4NDEgTCAxNTIzIC05NzUuMDY4NTcyNjQ1MjgzNCBMIDE1MjQgLTk4MC42ODU1NTYwMzQ5MjU5IiBwYWludC1vcmRlcj0iZmlsbCBzdHJva2UgbWFya2VycyIgc3Ryb2tlPSJyZ2IoMjEsMTAxLDE5MikiIGZpbGw9Im5vbmUiLz48cGF0aCBzdHJva2Utd2lkdGg9IjIuNSIgc3Ryb2tlLW1pdGVybGltaXQ9IjEwIiBzdHJva2UtbGluZWpvaW49InJvdW5kIiBzdHJva2UtbGluZWNhcD0icm91bmQiIHN0cm9rZS1vcGFjaXR5PSIwLjY5ODAzOTIxNTY4NjI3NDUiIGQ9Ik0gLTUgNDMwLjQxMzM3MTUwNTY5NjggTCAxNTI5IDc2NS45MjU2NTMzOTUyNDg2IiBwYWludC1vcmRlcj0iZmlsbCBzdHJva2UgbWFya2VycyIgc3Ryb2tlPSJyZ2IoMCwwLDApIiBmaWxsPSJub25lIi8+PHBhdGggZmlsbC1vcGFjaXR5PSIxIiBkPSJNIDUzMC4zNDQ2NjI2ODU2NjM5IDQ2NC4yMTcxNjE1NjA3OTYwNiBDIDUzMC4zNDQ2NjI2ODU2NjM5IDQ2Ni45Nzg1ODUzMDk5NSA1MjguMTA2MDg2NDM0ODE3OSA0NjkuMjE3MTYxNTYwNzk2MDYgNTI1LjM0NDY2MjY4NTY2MzkgNDY5LjIxNzE2MTU2MDc5NjA2IEMgNTIyLjU4MzIzODkzNjUwOTkgNDY5LjIxNzE2MTU2MDc5NjA2IDUyMC4zNDQ2NjI2ODU2NjM5IDQ2Ni45Nzg1ODUzMDk5NSA1MjAuMzQ0NjYyNjg1NjYzOSA0NjQuMjE3MTYxNTYwNzk2MDYgQyA1MjAuMzQ0NjYyNjg1NjYzOSA0NjEuNDU1NzM3ODExNjQyMSA1MjIuNTgzMjM4OTM2NTA5OSA0NTkuMjE3MTYxNTYwNzk2MDYgNTI1LjM0NDY2MjY4NTY2MzkgNDU5LjIxNzE2MTU2MDc5NjA2IEMgNTI4LjEwNjA4NjQzNDgxNzkgNDU5LjIxNzE2MTU2MDc5NjA2IDUzMC4zNDQ2NjI2ODU2NjM5IDQ2MS40NTU3Mzc4MTE2NDIxIDUzMC4zNDQ2NjI2ODU2NjM5IDQ2NC4yMTcxNjE1NjA3OTYwNiBaIiBwYWludC1vcmRlcj0ic3Ryb2tlIGZpbGwgbWFya2VycyIgc3Ryb2tlPSJub25lIiBmaWxsPSJyZ2IoMjEsMTAxLDE5MikiLz48cGF0aCBzdHJva2UtbWl0ZXJsaW1pdD0iMTAiIHN0cm9rZS1saW5lam9pbj0icm91bmQiIHN0cm9rZS1saW5lY2FwPSJyb3VuZCIgc3Ryb2tlLW9wYWNpdHk9IjEiIGQ9Ik0gNTMwLjM0NDY2MjY4NTY2MzkgNDY0LjIxNzE2MTU2MDc5NjA2IEMgNTMwLjM0NDY2MjY4NTY2MzkgNDY2Ljk3ODU4NTMwOTk1IDUyOC4xMDYwODY0MzQ4MTc5IDQ2OS4yMTcxNjE1NjA3OTYwNiA1MjUuMzQ0NjYyNjg1NjYzOSA0NjkuMjE3MTYxNTYwNzk2MDYgQyA1MjIuNTgzMjM4OTM2NTA5OSA0NjkuMjE3MTYxNTYwNzk2MDYgNTIwLjM0NDY2MjY4NTY2MzkgNDY2Ljk3ODU4NTMwOTk1IDUyMC4zNDQ2NjI2ODU2NjM5IDQ2NC4yMTcxNjE1NjA3OTYwNiBDIDUyMC4zNDQ2NjI2ODU2NjM5IDQ2MS40NTU3Mzc4MTE2NDIxIDUyMi41ODMyMzg5MzY1MDk5IDQ1OS4yMTcxNjE1NjA3OTYwNiA1MjUuMzQ0NjYyNjg1NjYzOSA0NTkuMjE3MTYxNTYwNzk2MDYgQyA1MjguMTA2MDg2NDM0ODE3OSA0NTkuMjE3MTYxNTYwNzk2MDYgNTMwLjM0NDY2MjY4NTY2MzkgNDYxLjQ1NTczNzgxMTY0MjEgNTMwLjM0NDY2MjY4NTY2MzkgNDY0LjIxNzE2MTU2MDc5NjA2IFoiIHBhaW50LW9yZGVyPSJmaWxsIHN0cm9rZSBtYXJrZXJzIiBzdHJva2U9InJnYigwLDAsMCkiIGZpbGw9Im5vbmUiLz48dGV4dCBmaWxsLW9wYWNpdHk9IjEiIHRleHQtYW5jaG9yPSJzdGFydCIgeT0iNDU0IiB4PSI1MjkiIHRleHQtZGVjb3JhdGlvbj0ibm9ybWFsIiBmb250LXdlaWdodD0ibm9ybWFsIiBmb250LXN0eWxlPSJub3JtYWwiIGZvbnQtc2l6ZT0iMTZweCIgZm9udC1mYW1pbHk9Imdlb2dlYnJhLXNhbnMtc2VyaWYsIHNhbnMtc2VyaWYiIHN0cm9rZT0ibm9uZSIgZmlsbD0icmdiKDIxLDEwMSwxOTIpIj5BPC90ZXh0Pjx0ZXh0IHN0cm9rZS13aWR0aD0iMyIgc3Ryb2tlLW1pdGVybGltaXQ9IjEwIiBzdHJva2UtbGluZWpvaW49ImJldmVsIiBzdHJva2Utb3BhY2l0eT0iMSIgdGV4dC1hbmNob3I9InN0YXJ0IiB5PSI0NTQiIHg9IjUyOSIgdGV4dC1kZWNvcmF0aW9uPSJub3JtYWwiIGZvbnQtd2VpZ2h0PSJub3JtYWwiIGZvbnQtc3R5bGU9Im5vcm1hbCIgZm9udC1zaXplPSIxNnB4IiBmb250LWZhbWlseT0iZ2VvZ2VicmEtc2Fucy1zZXJpZiwgc2Fucy1zZXJpZiIgc3Ryb2tlPSJyZ2IoMjU1LDI1NSwyNTUpIiBmaWxsPSJub25lIj5BPC90ZXh0Pjx0ZXh0IGZpbGwtb3BhY2l0eT0iMSIgdGV4dC1hbmNob3I9InN0YXJ0IiB5PSI0NTQiIHg9IjUyOSIgdGV4dC1kZWNvcmF0aW9uPSJub3JtYWwiIGZvbnQtd2VpZ2h0PSJub3JtYWwiIGZvbnQtc3R5bGU9Im5vcm1hbCIgZm9udC1zaXplPSIxNnB4IiBmb250LWZhbWlseT0iZ2VvZ2VicmEtc2Fucy1zZXJpZiwgc2Fucy1zZXJpZiIgc3Ryb2tlPSJub25lIiBmaWxsPSJyZ2IoMjEsMTAxLDE5MikiPkE8L3RleHQ+PHBhdGggZmlsbC1vcGFjaXR5PSIxIiBkPSJNIDgzOS4wMTA3NzI1MjI2NTg1IDQ1Ny45MTc4NTMxOTY3NzU3NSBDIDgzOS4wMTA3NzI1MjI2NTg1IDQ2MC42NzkyNzY5NDU5Mjk3IDgzNi43NzIxOTYyNzE4MTI1IDQ2Mi45MTc4NTMxOTY3NzU3NSA4MzQuMDEwNzcyNTIyNjU4NSA0NjIuOTE3ODUzMTk2Nzc1NzUgQyA4MzEuMjQ5MzQ4NzczNTA0NSA0NjIuOTE3ODUzMTk2Nzc1NzUgODI5LjAxMDc3MjUyMjY1ODUgNDYwLjY3OTI3Njk0NTkyOTcgODI5LjAxMDc3MjUyMjY1ODUgNDU3LjkxNzg1MzE5Njc3NTc1IEMgODI5LjAxMDc3MjUyMjY1ODUgNDU1LjE1NjQyOTQ0NzYyMTggODMxLjI0OTM0ODc3MzUwNDUgNDUyLjkxNzg1MzE5Njc3NTc1IDgzNC4wMTA3NzI1MjI2NTg1IDQ1Mi45MTc4NTMxOTY3NzU3NSBDIDgzNi43NzIxOTYyNzE4MTI1IDQ1Mi45MTc4NTMxOTY3NzU3NSA4MzkuMDEwNzcyNTIyNjU4NSA0NTUuMTU2NDI5NDQ3NjIxOCA4MzkuMDEwNzcyNTIyNjU4NSA0NTcuOTE3ODUzMTk2Nzc1NzUgWiIgcGFpbnQtb3JkZXI9InN0cm9rZSBmaWxsIG1hcmtlcnMiIHN0cm9rZT0ibm9uZSIgZmlsbD0icmdiKDIxLDEwMSwxOTIpIi8+PHBhdGggc3Ryb2tlLW1pdGVybGltaXQ9IjEwIiBzdHJva2UtbGluZWpvaW49InJvdW5kIiBzdHJva2UtbGluZWNhcD0icm91bmQiIHN0cm9rZS1vcGFjaXR5PSIxIiBkPSJNIDgzOS4wMTA3NzI1MjI2NTg1IDQ1Ny45MTc4NTMxOTY3NzU3NSBDIDgzOS4wMTA3NzI1MjI2NTg1IDQ2MC42NzkyNzY5NDU5Mjk3IDgzNi43NzIxOTYyNzE4MTI1IDQ2Mi45MTc4NTMxOTY3NzU3NSA4MzQuMDEwNzcyNTIyNjU4NSA0NjIuOTE3ODUzMTk2Nzc1NzUgQyA4MzEuMjQ5MzQ4NzczNTA0NSA0NjIuOTE3ODUzMTk2Nzc1NzUgODI5LjAxMDc3MjUyMjY1ODUgNDYwLjY3OTI3Njk0NTkyOTcgODI5LjAxMDc3MjUyMjY1ODUgNDU3LjkxNzg1MzE5Njc3NTc1IEMgODI5LjAxMDc3MjUyMjY1ODUgNDU1LjE1NjQyOTQ0NzYyMTggODMxLjI0OTM0ODc3MzUwNDUgNDUyLjkxNzg1MzE5Njc3NTc1IDgzNC4wMTA3NzI1MjI2NTg1IDQ1Mi45MTc4NTMxOTY3NzU3NSBDIDgzNi43NzIxOTYyNzE4MTI1IDQ1Mi45MTc4NTMxOTY3NzU3NSA4MzkuMDEwNzcyNTIyNjU4NSA0NTUuMTU2NDI5NDQ3NjIxOCA4MzkuMDEwNzcyNTIyNjU4NSA0NTcuOTE3ODUzMTk2Nzc1NzUgWiIgcGFpbnQtb3JkZXI9ImZpbGwgc3Ryb2tlIG1hcmtlcnMiIHN0cm9rZT0icmdiKDAsMCwwKSIgZmlsbD0ibm9uZSIvPjx0ZXh0IGZpbGwtb3BhY2l0eT0iMSIgdGV4dC1hbmNob3I9InN0YXJ0IiB5PSI0NDgiIHg9IjgzOCIgdGV4dC1kZWNvcmF0aW9uPSJub3JtYWwiIGZvbnQtd2VpZ2h0PSJub3JtYWwiIGZvbnQtc3R5bGU9Im5vcm1hbCIgZm9udC1zaXplPSIxNnB4IiBmb250LWZhbWlseT0iZ2VvZ2VicmEtc2Fucy1zZXJpZiwgc2Fucy1zZXJpZiIgc3Ryb2tlPSJub25lIiBmaWxsPSJyZ2IoMjEsMTAxLDE5MikiPkI8L3RleHQ+PHRleHQgc3Ryb2tlLXdpZHRoPSIzIiBzdHJva2UtbWl0ZXJsaW1pdD0iMTAiIHN0cm9rZS1saW5lam9pbj0iYmV2ZWwiIHN0cm9rZS1vcGFjaXR5PSIxIiB0ZXh0LWFuY2hvcj0ic3RhcnQiIHk9IjQ0OCIgeD0iODM4IiB0ZXh0LWRlY29yYXRpb249Im5vcm1hbCIgZm9udC13ZWlnaHQ9Im5vcm1hbCIgZm9udC1zdHlsZT0ibm9ybWFsIiBmb250LXNpemU9IjE2cHgiIGZvbnQtZmFtaWx5PSJnZW9nZWJyYS1zYW5zLXNlcmlmLCBzYW5zLXNlcmlmIiBzdHJva2U9InJnYigyNTUsMjU1LDI1NSkiIGZpbGw9Im5vbmUiPkI8L3RleHQ+PHRleHQgZmlsbC1vcGFjaXR5PSIxIiB0ZXh0LWFuY2hvcj0ic3RhcnQiIHk9IjQ0OCIgeD0iODM4IiB0ZXh0LWRlY29yYXRpb249Im5vcm1hbCIgZm9udC13ZWlnaHQ9Im5vcm1hbCIgZm9udC1zdHlsZT0ibm9ybWFsIiBmb250LXNpemU9IjE2cHgiIGZvbnQtZmFtaWx5PSJnZW9nZWJyYS1zYW5zLXNlcmlmLCBzYW5zLXNlcmlmIiBzdHJva2U9Im5vbmUiIGZpbGw9InJnYigyMSwxMDEsMTkyKSI+QjwvdGV4dD48cGF0aCBmaWxsLW9wYWNpdHk9IjEiIGQ9Ik0gNzQwLjc0MTU2MjA0Mzk0MTggMzU0LjYwOTE5NjAyNjg0MjcgQyA3NDAuNzQxNTYyMDQzOTQxOCAzNTcuMzcwNjE5Nzc1OTk2NjYgNzM4LjUwMjk4NTc5MzA5NTggMzU5LjYwOTE5NjAyNjg0MjcgNzM1Ljc0MTU2MjA0Mzk0MTggMzU5LjYwOTE5NjAyNjg0MjcgQyA3MzIuOTgwMTM4Mjk0Nzg3OCAzNTkuNjA5MTk2MDI2ODQyNyA3MzAuNzQxNTYyMDQzOTQxOCAzNTcuMzcwNjE5Nzc1OTk2NjYgNzMwLjc0MTU2MjA0Mzk0MTggMzU0LjYwOTE5NjAyNjg0MjcgQyA3MzAuNzQxNTYyMDQzOTQxOCAzNTEuODQ3NzcyMjc3Njg4NzYgNzMyLjk4MDEzODI5NDc4NzggMzQ5LjYwOTE5NjAyNjg0MjcgNzM1Ljc0MTU2MjA0Mzk0MTggMzQ5LjYwOTE5NjAyNjg0MjcgQyA3MzguNTAyOTg1NzkzMDk1OCAzNDkuNjA5MTk2MDI2ODQyNyA3NDAuNzQxNTYyMDQzOTQxOCAzNTEuODQ3NzcyMjc3Njg4NzYgNzQwLjc0MTU2MjA0Mzk0MTggMzU0LjYwOTE5NjAyNjg0MjcgWiIgcGFpbnQtb3JkZXI9InN0cm9rZSBmaWxsIG1hcmtlcnMiIHN0cm9rZT0ibm9uZSIgZmlsbD0icmdiKDIxLDEwMSwxOTIpIi8+PHBhdGggc3Ryb2tlLW1pdGVybGltaXQ9IjEwIiBzdHJva2UtbGluZWpvaW49InJvdW5kIiBzdHJva2UtbGluZWNhcD0icm91bmQiIHN0cm9rZS1vcGFjaXR5PSIxIiBkPSJNIDc0MC43NDE1NjIwNDM5NDE4IDM1NC42MDkxOTYwMjY4NDI3IEMgNzQwLjc0MTU2MjA0Mzk0MTggMzU3LjM3MDYxOTc3NTk5NjY2IDczOC41MDI5ODU3OTMwOTU4IDM1OS42MDkxOTYwMjY4NDI3IDczNS43NDE1NjIwNDM5NDE4IDM1OS42MDkxOTYwMjY4NDI3IEMgNzMyLjk4MDEzODI5NDc4NzggMzU5LjYwOTE5NjAyNjg0MjcgNzMwLjc0MTU2MjA0Mzk0MTggMzU3LjM3MDYxOTc3NTk5NjY2IDczMC43NDE1NjIwNDM5NDE4IDM1NC42MDkxOTYwMjY4NDI3IEMgNzMwLjc0MTU2MjA0Mzk0MTggMzUxLjg0Nzc3MjI3NzY4ODc2IDczMi45ODAxMzgyOTQ3ODc4IDM0OS42MDkxOTYwMjY4NDI3IDczNS43NDE1NjIwNDM5NDE4IDM0OS42MDkxOTYwMjY4NDI3IEMgNzM4LjUwMjk4NTc5MzA5NTggMzQ5LjYwOTE5NjAyNjg0MjcgNzQwLjc0MTU2MjA0Mzk0MTggMzUxLjg0Nzc3MjI3NzY4ODc2IDc0MC43NDE1NjIwNDM5NDE4IDM1NC42MDkxOTYwMjY4NDI3IFoiIHBhaW50LW9yZGVyPSJmaWxsIHN0cm9rZSBtYXJrZXJzIiBzdHJva2U9InJnYigwLDAsMCkiIGZpbGw9Im5vbmUiLz48dGV4dCBmaWxsLW9wYWNpdHk9IjEiIHRleHQtYW5jaG9yPSJzdGFydCIgeT0iMzQ1IiB4PSI3NDAiIHRleHQtZGVjb3JhdGlvbj0ibm9ybWFsIiBmb250LXdlaWdodD0ibm9ybWFsIiBmb250LXN0eWxlPSJub3JtYWwiIGZvbnQtc2l6ZT0iMTZweCIgZm9udC1mYW1pbHk9Imdlb2dlYnJhLXNhbnMtc2VyaWYsIHNhbnMtc2VyaWYiIHN0cm9rZT0ibm9uZSIgZmlsbD0icmdiKDIxLDEwMSwxOTIpIj5DPC90ZXh0Pjx0ZXh0IHN0cm9rZS13aWR0aD0iMyIgc3Ryb2tlLW1pdGVybGltaXQ9IjEwIiBzdHJva2UtbGluZWpvaW49ImJldmVsIiBzdHJva2Utb3BhY2l0eT0iMSIgdGV4dC1hbmNob3I9InN0YXJ0IiB5PSIzNDUiIHg9Ijc0MCIgdGV4dC1kZWNvcmF0aW9uPSJub3JtYWwiIGZvbnQtd2VpZ2h0PSJub3JtYWwiIGZvbnQtc3R5bGU9Im5vcm1hbCIgZm9udC1zaXplPSIxNnB4IiBmb250LWZhbWlseT0iZ2VvZ2VicmEtc2Fucy1zZXJpZiwgc2Fucy1zZXJpZiIgc3Ryb2tlPSJyZ2IoMjU1LDI1NSwyNTUpIiBmaWxsPSJub25lIj5DPC90ZXh0Pjx0ZXh0IGZpbGwtb3BhY2l0eT0iMSIgdGV4dC1hbmNob3I9InN0YXJ0IiB5PSIzNDUiIHg9Ijc0MCIgdGV4dC1kZWNvcmF0aW9uPSJub3JtYWwiIGZvbnQtd2VpZ2h0PSJub3JtYWwiIGZvbnQtc3R5bGU9Im5vcm1hbCIgZm9udC1zaXplPSIxNnB4IiBmb250LWZhbWlseT0iZ2VvZ2VicmEtc2Fucy1zZXJpZiwgc2Fucy1zZXJpZiIgc3Ryb2tlPSJub25lIiBmaWxsPSJyZ2IoMjEsMTAxLDE5MikiPkM8L3RleHQ+PHBhdGggZmlsbC1vcGFjaXR5PSIxIiBkPSJNIDYwNC42NzY1MDEzODExMDM0IDMxNi44MTMzNDU4NDI3MjA3NiBDIDYwNC42NzY1MDEzODExMDM0IDMxOS41NzQ3Njk1OTE4NzQ3IDYwMi40Mzc5MjUxMzAyNTc0IDMyMS44MTMzNDU4NDI3MjA3NiA1OTkuNjc2NTAxMzgxMTAzNCAzMjEuODEzMzQ1ODQyNzIwNzYgQyA1OTYuOTE1MDc3NjMxOTQ5NCAzMjEuODEzMzQ1ODQyNzIwNzYgNTk0LjY3NjUwMTM4MTEwMzQgMzE5LjU3NDc2OTU5MTg3NDcgNTk0LjY3NjUwMTM4MTEwMzQgMzE2LjgxMzM0NTg0MjcyMDc2IEMgNTk0LjY3NjUwMTM4MTEwMzQgMzE0LjA1MTkyMjA5MzU2NjggNTk2LjkxNTA3NzYzMTk0OTQgMzExLjgxMzM0NTg0MjcyMDc2IDU5OS42NzY1MDEzODExMDM0IDMxMS44MTMzNDU4NDI3MjA3NiBDIDYwMi40Mzc5MjUxMzAyNTc0IDMxMS44MTMzNDU4NDI3MjA3NiA2MDQuNjc2NTAxMzgxMTAzNCAzMTQuMDUxOTIyMDkzNTY2OCA2MDQuNjc2NTAxMzgxMTAzNCAzMTYuODEzMzQ1ODQyNzIwNzYgWiIgcGFpbnQtb3JkZXI9InN0cm9rZSBmaWxsIG1hcmtlcnMiIHN0cm9rZT0ibm9uZSIgZmlsbD0icmdiKDIxLDEwMSwxOTIpIi8+PHBhdGggc3Ryb2tlLW1pdGVybGltaXQ9IjEwIiBzdHJva2UtbGluZWpvaW49InJvdW5kIiBzdHJva2UtbGluZWNhcD0icm91bmQiIHN0cm9rZS1vcGFjaXR5PSIxIiBkPSJNIDYwNC42NzY1MDEzODExMDM0IDMxNi44MTMzNDU4NDI3MjA3NiBDIDYwNC42NzY1MDEzODExMDM0IDMxOS41NzQ3Njk1OTE4NzQ3IDYwMi40Mzc5MjUxMzAyNTc0IDMyMS44MTMzNDU4NDI3MjA3NiA1OTkuNjc2NTAxMzgxMTAzNCAzMjEuODEzMzQ1ODQyNzIwNzYgQyA1OTYuOTE1MDc3NjMxOTQ5NCAzMjEuODEzMzQ1ODQyNzIwNzYgNTk0LjY3NjUwMTM4MTEwMzQgMzE5LjU3NDc2OTU5MTg3NDcgNTk0LjY3NjUwMTM4MTEwMzQgMzE2LjgxMzM0NTg0MjcyMDc2IEMgNTk0LjY3NjUwMTM4MTEwMzQgMzE0LjA1MTkyMjA5MzU2NjggNTk2LjkxNTA3NzYzMTk0OTQgMzExLjgxMzM0NTg0MjcyMDc2IDU5OS42NzY1MDEzODExMDM0IDMxMS44MTMzNDU4NDI3MjA3NiBDIDYwMi40Mzc5MjUxMzAyNTc0IDMxMS44MTMzNDU4NDI3MjA3NiA2MDQuNjc2NTAxMzgxMTAzNCAzMTQuMDUxOTIyMDkzNTY2OCA2MDQuNjc2NTAxMzgxMTAzNCAzMTYuODEzMzQ1ODQyNzIwNzYgWiIgcGFpbnQtb3JkZXI9ImZpbGwgc3Ryb2tlIG1hcmtlcnMiIHN0cm9rZT0icmdiKDAsMCwwKSIgZmlsbD0ibm9uZSIvPjx0ZXh0IGZpbGwtb3BhY2l0eT0iMSIgdGV4dC1hbmNob3I9InN0YXJ0IiB5PSIzMDciIHg9IjYwNCIgdGV4dC1kZWNvcmF0aW9uPSJub3JtYWwiIGZvbnQtd2VpZ2h0PSJub3JtYWwiIGZvbnQtc3R5bGU9Im5vcm1hbCIgZm9udC1zaXplPSIxNnB4IiBmb250LWZhbWlseT0iZ2VvZ2VicmEtc2Fucy1zZXJpZiwgc2Fucy1zZXJpZiIgc3Ryb2tlPSJub25lIiBmaWxsPSJyZ2IoMjEsMTAxLDE5MikiPkQ8L3RleHQ+PHRleHQgc3Ryb2tlLXdpZHRoPSIzIiBzdHJva2UtbWl0ZXJsaW1pdD0iMTAiIHN0cm9rZS1saW5lam9pbj0iYmV2ZWwiIHN0cm9rZS1vcGFjaXR5PSIxIiB0ZXh0LWFuY2hvcj0ic3RhcnQiIHk9IjMwNyIgeD0iNjA0IiB0ZXh0LWRlY29yYXRpb249Im5vcm1hbCIgZm9udC13ZWlnaHQ9Im5vcm1hbCIgZm9udC1zdHlsZT0ibm9ybWFsIiBmb250LXNpemU9IjE2cHgiIGZvbnQtZmFtaWx5PSJnZW9nZWJyYS1zYW5zLXNlcmlmLCBzYW5zLXNlcmlmIiBzdHJva2U9InJnYigyNTUsMjU1LDI1NSkiIGZpbGw9Im5vbmUiPkQ8L3RleHQ+PHRleHQgZmlsbC1vcGFjaXR5PSIxIiB0ZXh0LWFuY2hvcj0ic3RhcnQiIHk9IjMwNyIgeD0iNjA0IiB0ZXh0LWRlY29yYXRpb249Im5vcm1hbCIgZm9udC13ZWlnaHQ9Im5vcm1hbCIgZm9udC1zdHlsZT0ibm9ybWFsIiBmb250LXNpemU9IjE2cHgiIGZvbnQtZmFtaWx5PSJnZW9nZWJyYS1zYW5zLXNlcmlmLCBzYW5zLXNlcmlmIiBzdHJva2U9Im5vbmUiIGZpbGw9InJnYigyMSwxMDEsMTkyKSI+RDwvdGV4dD48cGF0aCBmaWxsLW9wYWNpdHk9IjEiIGQ9Ik0gNDE1LjY5NzI1MDQ2MDQ5NDUgNTcyLjU2NTI2NTQyMTk0NTUgQyA0MTUuNjk3MjUwNDYwNDk0NSA1NzUuMzI2Njg5MTcxMDk5NSA0MTMuNDU4Njc0MjA5NjQ4NDUgNTc3LjU2NTI2NTQyMTk0NTUgNDEwLjY5NzI1MDQ2MDQ5NDUgNTc3LjU2NTI2NTQyMTk0NTUgQyA0MDcuOTM1ODI2NzExMzQwNTUgNTc3LjU2NTI2NTQyMTk0NTUgNDA1LjY5NzI1MDQ2MDQ5NDUgNTc1LjMyNjY4OTE3MTA5OTUgNDA1LjY5NzI1MDQ2MDQ5NDUgNTcyLjU2NTI2NTQyMTk0NTUgQyA0MDUuNjk3MjUwNDYwNDk0NSA1NjkuODAzODQxNjcyNzkxNSA0MDcuOTM1ODI2NzExMzQwNTUgNTY3LjU2NTI2NTQyMTk0NTUgNDEwLjY5NzI1MDQ2MDQ5NDUgNTY3LjU2NTI2NTQyMTk0NTUgQyA0MTMuNDU4Njc0MjA5NjQ4NDUgNTY3LjU2NTI2NTQyMTk0NTUgNDE1LjY5NzI1MDQ2MDQ5NDUgNTY5LjgwMzg0MTY3Mjc5MTUgNDE1LjY5NzI1MDQ2MDQ5NDUgNTcyLjU2NTI2NTQyMTk0NTUgWiIgcGFpbnQtb3JkZXI9InN0cm9rZSBmaWxsIG1hcmtlcnMiIHN0cm9rZT0ibm9uZSIgZmlsbD0icmdiKDIxLDEwMSwxOTIpIi8+PHBhdGggc3Ryb2tlLW1pdGVybGltaXQ9IjEwIiBzdHJva2UtbGluZWpvaW49InJvdW5kIiBzdHJva2UtbGluZWNhcD0icm91bmQiIHN0cm9rZS1vcGFjaXR5PSIxIiBkPSJNIDQxNS42OTcyNTA0NjA0OTQ1IDU3Mi41NjUyNjU0MjE5NDU1IEMgNDE1LjY5NzI1MDQ2MDQ5NDUgNTc1LjMyNjY4OTE3MTA5OTUgNDEzLjQ1ODY3NDIwOTY0ODQ1IDU3Ny41NjUyNjU0MjE5NDU1IDQxMC42OTcyNTA0NjA0OTQ1IDU3Ny41NjUyNjU0MjE5NDU1IEMgNDA3LjkzNTgyNjcxMTM0MDU1IDU3Ny41NjUyNjU0MjE5NDU1IDQwNS42OTcyNTA0NjA0OTQ1IDU3NS4zMjY2ODkxNzEwOTk1IDQwNS42OTcyNTA0NjA0OTQ1IDU3Mi41NjUyNjU0MjE5NDU1IEMgNDA1LjY5NzI1MDQ2MDQ5NDUgNTY5LjgwMzg0MTY3Mjc5MTUgNDA3LjkzNTgyNjcxMTM0MDU1IDU2Ny41NjUyNjU0MjE5NDU1IDQxMC42OTcyNTA0NjA0OTQ1IDU2Ny41NjUyNjU0MjE5NDU1IEMgNDEzLjQ1ODY3NDIwOTY0ODQ1IDU2Ny41NjUyNjU0MjE5NDU1IDQxNS42OTcyNTA0NjA0OTQ1IDU2OS44MDM4NDE2NzI3OTE1IDQxNS42OTcyNTA0NjA0OTQ1IDU3Mi41NjUyNjU0MjE5NDU1IFoiIHBhaW50LW9yZGVyPSJmaWxsIHN0cm9rZSBtYXJrZXJzIiBzdHJva2U9InJnYigwLDAsMCkiIGZpbGw9Im5vbmUiLz48dGV4dCBmaWxsLW9wYWNpdHk9IjEiIHRleHQtYW5jaG9yPSJzdGFydCIgeT0iNTYzIiB4PSI0MTUiIHRleHQtZGVjb3JhdGlvbj0ibm9ybWFsIiBmb250LXdlaWdodD0ibm9ybWFsIiBmb250LXN0eWxlPSJub3JtYWwiIGZvbnQtc2l6ZT0iMTZweCIgZm9udC1mYW1pbHk9Imdlb2dlYnJhLXNhbnMtc2VyaWYsIHNhbnMtc2VyaWYiIHN0cm9rZT0ibm9uZSIgZmlsbD0icmdiKDIxLDEwMSwxOTIpIj5FPC90ZXh0Pjx0ZXh0IHN0cm9rZS13aWR0aD0iMyIgc3Ryb2tlLW1pdGVybGltaXQ9IjEwIiBzdHJva2UtbGluZWpvaW49ImJldmVsIiBzdHJva2Utb3BhY2l0eT0iMSIgdGV4dC1hbmNob3I9InN0YXJ0IiB5PSI1NjMiIHg9IjQxNSIgdGV4dC1kZWNvcmF0aW9uPSJub3JtYWwiIGZvbnQtd2VpZ2h0PSJub3JtYWwiIGZvbnQtc3R5bGU9Im5vcm1hbCIgZm9udC1zaXplPSIxNnB4IiBmb250LWZhbWlseT0iZ2VvZ2VicmEtc2Fucy1zZXJpZiwgc2Fucy1zZXJpZiIgc3Ryb2tlPSJyZ2IoMjU1LDI1NSwyNTUpIiBmaWxsPSJub25lIj5FPC90ZXh0Pjx0ZXh0IGZpbGwtb3BhY2l0eT0iMSIgdGV4dC1hbmNob3I9InN0YXJ0IiB5PSI1NjMiIHg9IjQxNSIgdGV4dC1kZWNvcmF0aW9uPSJub3JtYWwiIGZvbnQtd2VpZ2h0PSJub3JtYWwiIGZvbnQtc3R5bGU9Im5vcm1hbCIgZm9udC1zaXplPSIxNnB4IiBmb250LWZhbWlseT0iZ2VvZ2VicmEtc2Fucy1zZXJpZiwgc2Fucy1zZXJpZiIgc3Ryb2tlPSJub25lIiBmaWxsPSJyZ2IoMjEsMTAxLDE5MikiPkU8L3RleHQ+PHBhdGggZmlsbC1vcGFjaXR5PSIxIiBkPSJNIDY0MC43OTg1ODQxOTA4NTAzIDM1NC4wMTg4NDY5NjczMjk3IEMgNjQwLjc5ODU4NDE5MDg1MDMgMzU2Ljc4MDI3MDcxNjQ4MzY0IDYzOC41NjAwMDc5NDAwMDQzIDM1OS4wMTg4NDY5NjczMjk3IDYzNS43OTg1ODQxOTA4NTAzIDM1OS4wMTg4NDY5NjczMjk3IEMgNjMzLjAzNzE2MDQ0MTY5NjMgMzU5LjAxODg0Njk2NzMyOTcgNjMwLjc5ODU4NDE5MDg1MDMgMzU2Ljc4MDI3MDcxNjQ4MzY0IDYzMC43OTg1ODQxOTA4NTAzIDM1NC4wMTg4NDY5NjczMjk3IEMgNjMwLjc5ODU4NDE5MDg1MDMgMzUxLjI1NzQyMzIxODE3NTc1IDYzMy4wMzcxNjA0NDE2OTYzIDM0OS4wMTg4NDY5NjczMjk3IDYzNS43OTg1ODQxOTA4NTAzIDM0OS4wMTg4NDY5NjczMjk3IEMgNjM4LjU2MDAwNzk0MDAwNDMgMzQ5LjAxODg0Njk2NzMyOTcgNjQwLjc5ODU4NDE5MDg1MDMgMzUxLjI1NzQyMzIxODE3NTc1IDY0MC43OTg1ODQxOTA4NTAzIDM1NC4wMTg4NDY5NjczMjk3IFoiIHBhaW50LW9yZGVyPSJzdHJva2UgZmlsbCBtYXJrZXJzIiBzdHJva2U9Im5vbmUiIGZpbGw9InJnYig5Nyw5Nyw5NykiLz48cGF0aCBzdHJva2UtbWl0ZXJsaW1pdD0iMTAiIHN0cm9rZS1saW5lam9pbj0icm91bmQiIHN0cm9rZS1saW5lY2FwPSJyb3VuZCIgc3Ryb2tlLW9wYWNpdHk9IjEiIGQ9Ik0gNjQwLjc5ODU4NDE5MDg1MDMgMzU0LjAxODg0Njk2NzMyOTcgQyA2NDAuNzk4NTg0MTkwODUwMyAzNTYuNzgwMjcwNzE2NDgzNjQgNjM4LjU2MDAwNzk0MDAwNDMgMzU5LjAxODg0Njk2NzMyOTcgNjM1Ljc5ODU4NDE5MDg1MDMgMzU5LjAxODg0Njk2NzMyOTcgQyA2MzMuMDM3MTYwNDQxNjk2MyAzNTkuMDE4ODQ2OTY3MzI5NyA2MzAuNzk4NTg0MTkwODUwMyAzNTYuNzgwMjcwNzE2NDgzNjQgNjMwLjc5ODU4NDE5MDg1MDMgMzU0LjAxODg0Njk2NzMyOTcgQyA2MzAuNzk4NTg0MTkwODUwMyAzNTEuMjU3NDIzMjE4MTc1NzUgNjMzLjAzNzE2MDQ0MTY5NjMgMzQ5LjAxODg0Njk2NzMyOTcgNjM1Ljc5ODU4NDE5MDg1MDMgMzQ5LjAxODg0Njk2NzMyOTcgQyA2MzguNTYwMDA3OTQwMDA0MyAzNDkuMDE4ODQ2OTY3MzI5NyA2NDAuNzk4NTg0MTkwODUwMyAzNTEuMjU3NDIzMjE4MTc1NzUgNjQwLjc5ODU4NDE5MDg1MDMgMzU0LjAxODg0Njk2NzMyOTcgWiIgcGFpbnQtb3JkZXI9ImZpbGwgc3Ryb2tlIG1hcmtlcnMiIHN0cm9rZT0icmdiKDAsMCwwKSIgZmlsbD0ibm9uZSIvPjx0ZXh0IGZpbGwtb3BhY2l0eT0iMSIgdGV4dC1hbmNob3I9InN0YXJ0IiB5PSIzNDQiIHg9IjY0MCIgdGV4dC1kZWNvcmF0aW9uPSJub3JtYWwiIGZvbnQtd2VpZ2h0PSJub3JtYWwiIGZvbnQtc3R5bGU9Im5vcm1hbCIgZm9udC1zaXplPSIxNnB4IiBmb250LWZhbWlseT0iZ2VvZ2VicmEtc2Fucy1zZXJpZiwgc2Fucy1zZXJpZiIgc3Ryb2tlPSJub25lIiBmaWxsPSJyZ2IoOTcsOTcsOTcpIj5GPC90ZXh0Pjx0ZXh0IHN0cm9rZS13aWR0aD0iMyIgc3Ryb2tlLW1pdGVybGltaXQ9IjEwIiBzdHJva2UtbGluZWpvaW49ImJldmVsIiBzdHJva2Utb3BhY2l0eT0iMSIgdGV4dC1hbmNob3I9InN0YXJ0IiB5PSIzNDQiIHg9IjY0MCIgdGV4dC1kZWNvcmF0aW9uPSJub3JtYWwiIGZvbnQtd2VpZ2h0PSJub3JtYWwiIGZvbnQtc3R5bGU9Im5vcm1hbCIgZm9udC1zaXplPSIxNnB4IiBmb250LWZhbWlseT0iZ2VvZ2VicmEtc2Fucy1zZXJpZiwgc2Fucy1zZXJpZiIgc3Ryb2tlPSJyZ2IoMjU1LDI1NSwyNTUpIiBmaWxsPSJub25lIj5GPC90ZXh0Pjx0ZXh0IGZpbGwtb3BhY2l0eT0iMSIgdGV4dC1hbmNob3I9InN0YXJ0IiB5PSIzNDQiIHg9IjY0MCIgdGV4dC1kZWNvcmF0aW9uPSJub3JtYWwiIGZvbnQtd2VpZ2h0PSJub3JtYWwiIGZvbnQtc3R5bGU9Im5vcm1hbCIgZm9udC1zaXplPSIxNnB4IiBmb250LWZhbWlseT0iZ2VvZ2VicmEtc2Fucy1zZXJpZiwgc2Fucy1zZXJpZiIgc3Ryb2tlPSJub25lIiBmaWxsPSJyZ2IoOTcsOTcsOTcpIj5GPC90ZXh0PjxwYXRoIGZpbGwtb3BhY2l0eT0iMSIgZD0iTSA2MTQuMzgxNjY1ODA0NTA2OCA1NjQuNzg5MjQ4MDY3MDk1IEMgNjE0LjM4MTY2NTgwNDUwNjggNTY3LjU1MDY3MTgxNjI0OSA2MTIuMTQzMDg5NTUzNjYwOCA1NjkuNzg5MjQ4MDY3MDk1IDYwOS4zODE2NjU4MDQ1MDY4IDU2OS43ODkyNDgwNjcwOTUgQyA2MDYuNjIwMjQyMDU1MzUyOCA1NjkuNzg5MjQ4MDY3MDk1IDYwNC4zODE2NjU4MDQ1MDY4IDU2Ny41NTA2NzE4MTYyNDkgNjA0LjM4MTY2NTgwNDUwNjggNTY0Ljc4OTI0ODA2NzA5NSBDIDYwNC4zODE2NjU4MDQ1MDY4IDU2Mi4wMjc4MjQzMTc5NDA5IDYwNi42MjAyNDIwNTUzNTI4IDU1OS43ODkyNDgwNjcwOTUgNjA5LjM4MTY2NTgwNDUwNjggNTU5Ljc4OTI0ODA2NzA5NSBDIDYxMi4xNDMwODk1NTM2NjA4IDU1OS43ODkyNDgwNjcwOTUgNjE0LjM4MTY2NTgwNDUwNjggNTYyLjAyNzgyNDMxNzk0MDkgNjE0LjM4MTY2NTgwNDUwNjggNTY0Ljc4OTI0ODA2NzA5NSBaIiBwYWludC1vcmRlcj0ic3Ryb2tlIGZpbGwgbWFya2VycyIgc3Ryb2tlPSJub25lIiBmaWxsPSJyZ2IoOTcsOTcsOTcpIi8+PHBhdGggc3Ryb2tlLW1pdGVybGltaXQ9IjEwIiBzdHJva2UtbGluZWpvaW49InJvdW5kIiBzdHJva2UtbGluZWNhcD0icm91bmQiIHN0cm9rZS1vcGFjaXR5PSIxIiBkPSJNIDYxNC4zODE2NjU4MDQ1MDY4IDU2NC43ODkyNDgwNjcwOTUgQyA2MTQuMzgxNjY1ODA0NTA2OCA1NjcuNTUwNjcxODE2MjQ5IDYxMi4xNDMwODk1NTM2NjA4IDU2OS43ODkyNDgwNjcwOTUgNjA5LjM4MTY2NTgwNDUwNjggNTY5Ljc4OTI0ODA2NzA5NSBDIDYwNi42MjAyNDIwNTUzNTI4IDU2OS43ODkyNDgwNjcwOTUgNjA0LjM4MTY2NTgwNDUwNjggNTY3LjU1MDY3MTgxNjI0OSA2MDQuMzgxNjY1ODA0NTA2OCA1NjQuNzg5MjQ4MDY3MDk1IEMgNjA0LjM4MTY2NTgwNDUwNjggNTYyLjAyNzgyNDMxNzk0MDkgNjA2LjYyMDI0MjA1NTM1MjggNTU5Ljc4OTI0ODA2NzA5NSA2MDkuMzgxNjY1ODA0NTA2OCA1NTkuNzg5MjQ4MDY3MDk1IEMgNjEyLjE0MzA4OTU1MzY2MDggNTU5Ljc4OTI0ODA2NzA5NSA2MTQuMzgxNjY1ODA0NTA2OCA1NjIuMDI3ODI0MzE3OTQwOSA2MTQuMzgxNjY1ODA0NTA2OCA1NjQuNzg5MjQ4MDY3MDk1IFoiIHBhaW50LW9yZGVyPSJmaWxsIHN0cm9rZSBtYXJrZXJzIiBzdHJva2U9InJnYigwLDAsMCkiIGZpbGw9Im5vbmUiLz48dGV4dCBmaWxsLW9wYWNpdHk9IjEiIHRleHQtYW5jaG9yPSJzdGFydCIgeT0iNTU1IiB4PSI2MTMiIHRleHQtZGVjb3JhdGlvbj0ibm9ybWFsIiBmb250LXdlaWdodD0ibm9ybWFsIiBmb250LXN0eWxlPSJub3JtYWwiIGZvbnQtc2l6ZT0iMTZweCIgZm9udC1mYW1pbHk9Imdlb2dlYnJhLXNhbnMtc2VyaWYsIHNhbnMtc2VyaWYiIHN0cm9rZT0ibm9uZSIgZmlsbD0icmdiKDk3LDk3LDk3KSI+RzwvdGV4dD48dGV4dCBzdHJva2Utd2lkdGg9IjMiIHN0cm9rZS1taXRlcmxpbWl0PSIxMCIgc3Ryb2tlLWxpbmVqb2luPSJiZXZlbCIgc3Ryb2tlLW9wYWNpdHk9IjEiIHRleHQtYW5jaG9yPSJzdGFydCIgeT0iNTU1IiB4PSI2MTMiIHRleHQtZGVjb3JhdGlvbj0ibm9ybWFsIiBmb250LXdlaWdodD0ibm9ybWFsIiBmb250LXN0eWxlPSJub3JtYWwiIGZvbnQtc2l6ZT0iMTZweCIgZm9udC1mYW1pbHk9Imdlb2dlYnJhLXNhbnMtc2VyaWYsIHNhbnMtc2VyaWYiIHN0cm9rZT0icmdiKDI1NSwyNTUsMjU1KSIgZmlsbD0ibm9uZSI+RzwvdGV4dD48dGV4dCBmaWxsLW9wYWNpdHk9IjEiIHRleHQtYW5jaG9yPSJzdGFydCIgeT0iNTU1IiB4PSI2MTMiIHRleHQtZGVjb3JhdGlvbj0ibm9ybWFsIiBmb250LXdlaWdodD0ibm9ybWFsIiBmb250LXN0eWxlPSJub3JtYWwiIGZvbnQtc2l6ZT0iMTZweCIgZm9udC1mYW1pbHk9Imdlb2dlYnJhLXNhbnMtc2VyaWYsIHNhbnMtc2VyaWYiIHN0cm9rZT0ibm9uZSIgZmlsbD0icmdiKDk3LDk3LDk3KSI+RzwvdGV4dD48L2c+PC9nPjwvc3ZnPg==;" vertex="1" parent="1">
                    <mxGeometry width="520" height="289" as="geometry"/>
                </mxCell>
                <mxCell id="3" value="&lt;font style=&quot;font-size: 8px;&quot; color=&quot;#0f0a0a&quot;&gt;$$y=\frac{1}{3}x^2$$&lt;br&gt;&lt;/font&gt;" style="text;html=1;strokeColor=none;fillColor=none;align=center;verticalAlign=middle;whiteSpace=wrap;rounded=0;" vertex="1" parent="1">
                    <mxGeometry x="240" y="60" width="80" height="20" as="geometry"/>
                </mxCell>
            </root>
        </mxGraphModel>
    </diagram>
</mxfile>